<svg xmlns:xlink="http://www.w3.org/1999/xlink" viewBox="0 0 64 64" xmlns="http://www.w3.org/2000/svg" width="64"  height="64" ><circle cx="32" cy="32" r="32" fill="#CCEBFF" stroke="#000000" stroke-opacity="0" fill-opacity="0.5"></circle><path fill-rule="evenodd" clip-rule="evenodd" d="m43.742 26.165-.83-1.44a2.55 2.55 0 0 0-3.478-.94v0a2.54 2.54 0 0 1-3.478-.903 2.44 2.44 0 0 1-.342-1.22v0a2.551 2.551 0 0 0-2.55-2.625H31.39a2.538 2.538 0 0 0-2.538 2.551v0a2.55 2.55 0 0 1-2.551 2.514 2.442 2.442 0 0 1-1.22-.341v0a2.55 2.55 0 0 0-3.479.94l-.89 1.464a2.55 2.55 0 0 0 .927 3.478v0a2.55 2.55 0 0 1 0 4.418v0a2.539 2.539 0 0 0-.928 3.466v0l.843 1.452a2.55 2.55 0 0 0 3.478.989v0a2.527 2.527 0 0 1 3.466.927c.22.37.337.791.341 1.22v0a2.55 2.55 0 0 0 2.551 2.552h1.672a2.55 2.55 0 0 0 2.551-2.539v0a2.538 2.538 0 0 1 2.55-2.55 2.6 2.6 0 0 1 1.221.341v0a2.55 2.55 0 0 0 3.478-.927v0l.88-1.465a2.538 2.538 0 0 0-.928-3.478v0a2.538 2.538 0 0 1-.928-3.479c.221-.386.541-.706.928-.927v0a2.55 2.55 0 0 0 .927-3.466v0-.012z" stroke="#66C2FF" stroke-width="2px" stroke-linecap="round" stroke-linejoin="round" fill="#CCEBFF" fill-opacity="0.5"></path><circle cx="32.233" cy="31.852" r="3.515" stroke="#66C2FF" stroke-width="2px" stroke-linecap="round" stroke-linejoin="round" fill="#CCEBFF" fill-opacity="0.5"></circle></svg>