<svg xmlns:xlink="http://www.w3.org/1999/xlink" viewBox="0 0 145 48" fill="#718096" xmlns="http://www.w3.org/2000/svg" height="48" width="145" ><path d="M3.192 21.768H21.71l3.193-4.462H0l3.192 4.462zm2.875 7.67H18.2l3.192-4.462h-18.2l2.875 4.463zm50.105-.65c-.953 0-1.92.318-2.556.318-2.557 0-3.192-.953-3.192-3.192v-10.53H45.96v10.848c0 5.113 3.192 6.701 7.972 6.701 2.24 0 5.114-.317 7.02-.953V15.384H56.49v13.404h-.318zm-18.82-13.721c-2.238 0-4.145.635-5.748 1.27v3.828c1.27-.953 2.874-1.27 4.78-1.27 1.589 0 3.192.634 3.192 2.238v.953H37.67c-4.78 0-7.655 1.589-7.655 5.114 0 3.827 3.192 5.113 7.655 5.113 2.24 0 4.78-.318 6.384-.635V21.133c.318-4.463-2.556-6.066-6.702-6.066zm2.542 14.054c-.635 0-1.27.318-1.921.318-1.922 0-2.875-.636-2.875-2.24 0-1.588 1.271-1.92 3.51-1.92h1.589v3.827h-.303v.015zm38.941-14.054c-5.113 0-8.94 3.51-8.94 8.94 0 5.432 3.827 8.942 8.94 8.942 5.114 0 8.941-3.51 8.941-8.941-.318-5.432-4.145-8.941-8.94-8.941zm0 13.721c-2.557 0-4.145-1.921-4.145-4.78 0-3.193 1.921-4.781 4.145-4.781 2.557 0 4.145 1.921 4.145 4.78 0 2.86-1.906 4.781-4.145 4.781zm27.458 3.525h4.463V15.384h-4.463v16.93zm21.059-17.246c-5.113 0-8.941 3.51-8.941 8.94 0 5.432 3.828 8.942 8.941 8.942 5.114 0 8.942-3.51 8.942-8.941 0-5.432-3.828-8.941-8.942-8.941zm0 13.721c-2.556 0-4.145-1.921-4.145-4.78 0-3.193 1.922-4.781 4.145-4.781 2.557 0 4.146 1.921 4.146 4.78.333 2.875-1.589 4.781-4.146 4.781zM108.533 9a2.864 2.864 0 0 0-2.875 2.874c0 1.604 1.271 2.557 2.875 2.557 1.603 0 2.874-1.27 2.874-2.557A2.873 2.873 0 0 0 108.533 9zm-38.306 6.384h-3.192V11.24l-4.463 3.828v17.231h4.463V19.212h3.192v-3.828zm71.815 0V11.24l-4.463 3.828v17.231h4.463V19.212h2.875v-3.828h-2.875zm-29.047 16.93h4.463V9.65l-4.463 3.827v18.835zM95.446 15.066c-2.874 0-4.78.635-6.702 1.27V39l4.463-3.828v-2.874s.636.318 1.922.318c6.066 0 9.576-3.192 9.576-9.259-.015-5.098-3.843-8.29-9.259-8.29zm-.65 13.721c-.953 0-1.589-.317-1.589-.317v-8.942s.953-.317 1.922-.317c2.874 0 4.78 1.588 4.78 4.463 0 3.525-2.239 5.113-5.113 5.113z" fill="#718096"></path></svg>