<svg xmlns:xlink="http://www.w3.org/1999/xlink" viewBox="0 0 144 48" fill="inherit" xmlns="http://www.w3.org/2000/svg" height="48" width="144" ><path d="M18.117 34.564c-1.862 0-3.643-.003-5.427.007-.23 0-.315-.143-.42-.286-1.806-2.475-3.617-4.952-5.423-7.43-.375-.514-.378-.514-.82-.065-.401.407-.948.755-1.153 1.244-.202.475-.052 1.097-.056 1.657 0 1.507-.01 3.015.007 4.519.003.296-.082.364-.368.36a192.095 192.095 0 0 0-4.102 0c-.267 0-.355-.064-.355-.344.007-6.378.007-12.756 0-19.133 0-.258.052-.362.339-.358 1.38.016 2.76.013 4.14 0 .277-.004.346.078.343.348-.02 2.337.022 4.675-.079 7.029.183-.007.248-.147.339-.244 2.25-2.384 4.63-4.636 6.938-6.961.094-.094.182-.17.332-.17 1.875.007 3.747.004 5.652.004-.046.173-.176.247-.27.342-2.602 2.604-5.2 5.209-7.814 7.8-.238.238-.235.368-.042.625 2.689 3.588 5.365 7.182 8.044 10.777.055.071.101.146.195.28zm13.277-13.827c0-1.872.007-3.74-.006-5.612-.004-.3.068-.398.384-.394 1.354.02 2.708.016 4.063 0 .3-.004.364.088.364.374-.01 3.689.01 7.377-.013 11.066-.01 1.49-.293 2.943-.937 4.3-1.013 2.136-2.686 3.507-4.955 4.129-1.921.527-3.865.54-5.782-.004-3.155-.892-4.94-3.06-5.63-6.195a11.171 11.171 0 0 1-.25-2.396c0-3.624.003-7.247-.007-10.87 0-.33.088-.408.41-.404 1.342.02 2.683.016 4.025 0 .3-.004.361.084.361.367-.01 3.52-.006 7.04-.006 10.562 0 .781.074 1.553.306 2.305.478 1.55 1.562 2.415 3.19 2.52.56.035 1.117.022 1.67-.101 1.534-.349 2.312-1.394 2.637-2.85.127-.56.18-1.125.176-1.698-.003-1.697 0-3.4 0-5.099zm70.865 13.905c-4.063 0-7.035-2.021-8.439-5.645-.11-.286-.08-.387.238-.465a161.9 161.9 0 0 0 3.878-1.032c.26-.072.377-.033.491.23.83 1.954 2.68 2.967 4.718 2.612.882-.153 1.468-.651 1.624-1.364.111-.498-.026-.925-.371-1.29-.384-.406-.873-.657-1.387-.85-1.289-.484-2.591-.93-3.877-1.422-1.124-.43-2.195-.96-3.084-1.79-2.086-1.95-2.09-5.197-.01-7.323 1.3-1.328 2.921-2.015 4.741-2.23 2.311-.273 4.45.205 6.326 1.635 1.165.888 1.989 2.034 2.497 3.412.107.29.029.377-.244.446-1.319.341-2.638.693-3.95 1.064-.28.078-.348-.01-.436-.24-.644-1.713-2.529-2.644-4.291-2.127a2.067 2.067 0 0 0-.755.391c-.645.537-.674 1.319-.055 1.892.527.488 1.191.729 1.849.976 1.458.547 2.956.99 4.346 1.716 1.237.648 2.367 1.426 3.112 2.64 1.309 2.146.782 5.066-1.237 6.85-1.208 1.068-2.663 1.589-4.238 1.813a7.785 7.785 0 0 1-1.446.101zm33.826.004c-2.504.02-4.548-.632-6.254-2.195-1.085-.996-1.817-2.223-2.348-3.584-.084-.215 0-.264.176-.31 1.354-.358 2.712-.716 4.063-1.087.231-.065.303.017.391.218.784 1.814 2.389 2.84 4.229 2.716.443-.03.876-.118 1.276-.326 1.087-.573 1.208-1.879.234-2.618-.843-.64-1.862-.905-2.838-1.25-1.202-.423-2.41-.823-3.543-1.413-1.263-.657-2.337-1.51-2.894-2.874-.898-2.201-.179-4.65 1.84-6.209 1.751-1.35 3.76-1.836 5.938-1.67 2.51.192 4.551 1.27 6.046 3.317a7.03 7.03 0 0 1 .937 1.83c.062.18.085.283-.166.349-1.371.354-2.735.732-4.099 1.116-.25.072-.303-.052-.377-.244a3.533 3.533 0 0 0-4.246-2.155 2.25 2.25 0 0 0-.674.303c-.794.53-.849 1.452-.12 2.067.465.39 1.019.618 1.579.83 1.491.57 3.034 1.01 4.46 1.745.951.492 1.833 1.074 2.575 1.862 1.869 1.98 1.602 5.04.14 6.873-1.162 1.458-2.734 2.188-4.522 2.533-.664.133-1.338.195-1.803.176zM63.159 14.74c2.683 0 5.362.007 8.045-.006.309 0 .394.085.387.391-.016 1.234-.02 2.468 0 3.702.007.319-.1.38-.394.377-1.745-.013-3.49.004-5.232-.013-.345-.003-.452.069-.449.437.013 4.818.003 9.636.02 14.455 0 .423-.127.5-.515.494-1.25-.022-2.5-.006-3.75-.01-.61-.003-.525.082-.525-.504-.003-4.805-.003-9.61.007-14.416 0-.338-.062-.462-.436-.456-1.72.023-3.438.004-5.154.017-.312.003-.423-.062-.417-.398.023-1.22.02-2.441 0-3.662-.006-.322.079-.414.407-.41 2.667.01 5.336.003 8.006.003zm65.695 0-2.611 3.793c-1.615 2.341-3.226 4.685-4.844 7.023a.966.966 0 0 0-.17.58c.007 2.675-.003 5.352.01 8.028 0 .319-.068.413-.4.41-1.328-.02-2.657-.02-3.985 0-.316.003-.384-.094-.384-.394.01-2.676.003-5.352.01-8.028 0-.245-.062-.446-.202-.648a7038.99 7038.99 0 0 1-7.205-10.457c-.055-.082-.146-.15-.137-.303h.378c1.511 0 3.021.006 4.532-.007.276-.003.443.069.602.306 1.296 1.931 2.608 3.849 3.917 5.77.488.716.498.719.976.012 1.309-1.92 2.621-3.841 3.92-5.768.156-.232.313-.323.593-.32 1.64.01 3.278.004 5 .004zm-46.36 20.049c-2.05.013-3.851-.488-5.505-1.52-.254-.16-.267-.254-.091-.492a237.802 237.802 0 0 0 2.5-3.435c.137-.192.231-.267.492-.14 2.083 1.003 4.089.834 5.883-.618 1.754-1.42 2.392-3.328 1.833-5.509-.577-2.243-2.113-3.571-4.392-4.014-.264-.052-.336-.127-.332-.384a239.71 239.71 0 0 0 0-4.324c-.004-.267.052-.345.345-.322 4.808.339 8.852 4.092 9.5 8.842.739 5.405-2.546 10.288-7.824 11.626-.338.085-.687.15-1.032.202a7.798 7.798 0 0 1-1.377.088z" fill="#A0AEC0"></path><path d="M81.976 16.54c0 .713-.006 1.426.004 2.143.003.224-.03.329-.303.367-1.882.264-3.269 1.25-4.154 2.927-.12.228-.212.287-.47.199a197.34 197.34 0 0 0-4.069-1.322c-.263-.081-.283-.176-.182-.403 1.706-3.868 4.649-6.027 8.881-6.42.274-.027.303.074.3.292-.01.74-.007 1.478-.007 2.218zm-9.513 5.105c.095.027.157.04.219.06 1.357.439 2.715.885 4.076 1.318.224.071.319.133.27.42-.322 1.875.215 3.49 1.572 4.821.232.228.215.352.033.593-.84 1.123-1.66 2.262-2.478 3.402-.15.208-.234.277-.459.078-3.164-2.823-4.287-6.296-3.37-10.428.027-.098.017-.234.138-.264zM54.405 34.167c-1.325-2.204-2.644-4.408-3.979-6.606-.14-.23-.133-.322.127-.449a5.56 5.56 0 0 0 1.833-1.43c1.175-1.376 1.56-2.988 1.407-4.756-.193-2.236-1.212-3.965-3.188-5.091a8.137 8.137 0 0 0-3.91-1.075c-2.67-.052-5.339-.016-8.008-.032-.316-.004-.287.162-.287.364 0 6.352.003 12.704-.006 19.059 0 .3.068.397.384.393 1.328-.019 2.656-.022 3.985 0 .351.007.43-.087.426-.43-.016-1.884 0-3.766-.016-5.651-.004-.316.091-.394.39-.38.56.022 1.12.022 1.68 0 .274-.01.414.084.544.318 1.104 1.957 2.224 3.904 3.34 5.85.078.137.114.31.349.31 1.693-.007 3.382-.003 5.15-.003-.098-.17-.156-.28-.221-.391zm-7.778-10.35c-1.065.04-2.132.003-3.2.013-.222.004-.254-.094-.25-.28.006-.687.002-1.374.002-2.064s.004-1.374-.003-2.064c0-.163.02-.267.225-.264 1.09.014 2.188-.022 3.275.033 1.227.062 2.136 1.11 2.126 2.354-.007 1.195-.967 2.227-2.175 2.272z" fill="#A0AEC0"></path></svg>