<svg xmlns:xlink="http://www.w3.org/1999/xlink" viewBox="0 0 117 48" fill="none" xmlns="http://www.w3.org/2000/svg" height="48" width="117" ><g clip-path="url(#imperfect-foods_svg__a)" fill="#718096"><path d="M8.842 36.059a2.743 2.743 0 0 0-.035-.296c-.02-.15-.045-.295-.07-.441-.024-.146-.09-.403-.124-.587-.035-.184-.056-.403-.098-.622-.041-.219-.094-.483-.139-.723l-.156-.775c-.052-.27-.052-.496-.108-.767-.055-.271-.163-.58-.219-.851l-.156-.754c-.056-.254-.115-.556-.17-.81-.125-.608-.348-1.16-.487-1.754-.139-.594-.257-1.133-.437-1.72-.136-.441-.23-.983-.4-1.42a4.708 4.708 0 0 1-.215-1.491c-.018-.508.041-1.008 0-1.515-.018-.348-.125-.72-.15-1.063a9.564 9.564 0 0 0-.07-1.268v-.09a2.918 2.918 0 0 0-.986-1.31c-.146.104-.187.198-.347.27a4.571 4.571 0 0 1-.706.23 4.55 4.55 0 0 1-.58.02 5.151 5.151 0 0 1-.774.067c-.214 0-.426-.02-.636-.056a4.037 4.037 0 0 1-.605-.285 3.302 3.302 0 0 0-.417.567 4.39 4.39 0 0 0-.347.754 4.832 4.832 0 0 0-.222 1.1 12.388 12.388 0 0 0-.122 1.081 4.71 4.71 0 0 0-.017 1.296c0 .268-.042.622-.039.945 0 .375.073.775.098 1.15.024.375 0 .726.028 1.098.027.434.059.868.09 1.3.031.43.125.896.16 1.389.027.392 0 .844.027 1.237.035.493.153 1.042.188 1.518s0 .945.028 1.438c.031.428.142.872.174 1.296.03.424-.025.73 0 1.101.045.588.055.83.093 1.414 0 .119.112.74.118.862.009.406-.008.812-.048 1.216 0 .347.031.736 0 1.098-.031.361-.045 1.772-.038 2.036 0 .493.02.886.059 1.39.027.381 0 .764.024 1.146.024.382.156.81.212 1.209a9.4 9.4 0 0 0 .16 1.17c.121.442.347 1.227.948 1.133a1.019 1.019 0 0 0 .9-.695c.113-.313.2-.637.257-.965.066-.237.215-.483.275-.72.104-.451.149-1 .24-1.455.138-.695.319-1.286.437-1.977.083-.476.076-.92.16-1.39.055-.347.243-1.178.27-1.428.042-.347.14-.854.147-.917a11.079 11.079 0 0 0-.056-2.404c0-.121-.19-1.32 0-1.351.191-.032.348.955.382 1.042.056.344.138.683.243 1.014.223.587.49 1.13.713 1.713.194.51.347 1.067.552 1.567.125.292.365.594.5.89.181.508.421.993.716 1.445.142.18.507.597.76.347a.694.694 0 0 0 .074-.257 4.9 4.9 0 0 0 .045-.455c0-.205.017-.41.024-.615.007-.205 0-.483 0-.723s-.048-.507-.055-.771c-.007-.264.034-.566.028-.84-.007-.275 0-.348 0-.616 0-.267-.028-.67-.039-.917l-.03-.629-.032-.49v-.337zm2.213-3.794c-.209-.209.097-2.314.194-3.037.098-.722.24-2.022.24-2.261 0-.24.049-1.737.097-2.266.049-.528.143-1.348.24-2.115.06-.473.24-1.862.24-2.154 0-.292.146-1.362.194-1.737.056-.37.224-.714.48-.987.302-.219 1.174-.136 1.362-.087.326.087.854.917.952 1.042.205.313.816 1.074.913 1.314.098.24.695 1.226.851 1.587.176.351.374.69.595 1.015.19.347.722 1.441.722 1.441.36-.49.683-1.008.963-1.549.19-.48.77-1.237.962-1.668.191-.43.934-1.796 1.042-1.959.209-.274.417-.785.803-1.09.385-.307.74-.196 1.174-.178.213.012.417.084.59.208.244.146.421 1.286.466 1.623.045.337.195 2.213.243 2.456.049.243.24 1.3.289 1.685.048.386.097 2.505.19 3.127.095.622.147 1.782.195 2.119.049.337.24 1.925.24 2.084 0 .16.195 1.251.049 1.3-.146.049-1.637.097-1.925.142a9.428 9.428 0 0 1-1.174 0c-.24 0-.497-.045-.497-.43a17.295 17.295 0 0 0-.111-2.603c-.146-.674-.386-2.456-.386-2.744 0-.289.097-.914-.195-.817-.291.098-.882 1.685-1.122 2.085-.24.4-.754 1.14-.754 1.14l-.58 1.139s-.347.417-.51.372c-.164-.046-.403-.852-.74-1.334a11.72 11.72 0 0 1-.914-1.623 9.282 9.282 0 0 0-.723-1.348c-.194-.24-.347-.577-.483-.625-.135-.049-.347-.191-.385 0-.039.19-.24 2.553-.24 2.553s-.146 1.782-.146 1.974c0 .19-.045 1.39-.045 1.39s.191.784-.163.882c-.174.048-2.974.142-3.193-.066zm27.964-10.451a8.364 8.364 0 0 0-.563-1.848 9.398 9.398 0 0 0-.852-1.22 6.4 6.4 0 0 0-.969-.559A10.843 10.843 0 0 0 35 17.722a8.573 8.573 0 0 0-1.268-.066c-.417 0-.834-.049-1.525-.08-.692-.032-.803-.08-1.202-.08-.4 0-.772 0-1.077.031-.306.031-1.189.111-1.348.146-.16.035-.258.348-.258.56 0 .211.032.673.05.948.017.274-.018 1.205 0 1.39.017.184 0 1.042.062 1.334.009.418-.018.836-.08 1.25 0 .209.066.914.048 1.122-.017.209-.048 1.14-.048 1.286 0 .146.114 1.22.114 1.365 0 .146 0 1.06-.034 1.317-.035.257 0 1.105 0 1.233 0 .129.034.5.048.63.008.347-.003.695-.031 1.041.004.316.07.628.195.918.128.24.545.208.545.208h1.188c.275 0 1.122 0 1.39-.035.267-.035.177-.302.191-.347.014-.045-.049-.594-.049-.723v-.77c0-.368-.03-.754-.03-.994s.048-1.077.065-1.188c.017-.111-.049-.451.049-.451.097 0 .417 0 .785.034.301.006.602-.016.9-.066.27-.048.545-.062.962-.128a11.15 11.15 0 0 0 1.737-.4c.417-.163 1.605-.771 1.99-1.205.386-.435.724-1.783.772-2.182a9.625 9.625 0 0 0-.121-2.005zm-2.86 1.445a2.064 2.064 0 0 1-.27.932 4.06 4.06 0 0 1-.418.368c-.228.14-.47.257-.722.347a2.187 2.187 0 0 1-.695.164c-.18.017-.254.052-.542.069l-.834.056a.822.822 0 0 1-.695-.22s.028-.805 0-1.16c-.027-.354-.1-.92-.1-1.08 0-.16-.025-.695-.028-.903.017-.348.017-.695 0-1.043-.038-.177-.042-.451.104-.517a6.069 6.069 0 0 1 1.577-.08c.326.038.648.106.963.201.225.051.442.132.646.24.217.14.413.31.583.504.135.171.252.356.348.552.083.271.132.551.146.834a6.055 6.055 0 0 1-.063.736zm5.813 8.787s-.122-1.737-.122-2.213c0 0 .097-3.179.073-3.474a98.661 98.661 0 0 1-.073-2.676c0-.291-.024-1.083 0-1.42a5.44 5.44 0 0 0-.024-1.105c-.045-.268-.094-2.265-.07-2.554a7.86 7.86 0 0 1 .216-.962 2.81 2.81 0 0 1 .844-.097c.43.024 1.876-.025 2.383 0 .507.024 1.324 0 1.71 0 .385 0 1.299-.025 1.636-.049a5.94 5.94 0 0 1 1.25-.049c.352.043.707.051 1.06.025.41-.025.695 0 .747.146.052.146.073.889.097 1.042.025.153-.073.89-.048 1.108.024.219.097.313-.143.407-.24.093-1.88.048-2.192.048-.313 0-1.71.098-2.12.073-.41-.024-1.493-.024-1.782-.048-.288-.025-.347-.025-.41.121-.062.146 0 1.084-.024 1.25.008.268.038.534.09.797 0 0 .039.184.306.208.246.007.492.001.737-.017.215 0 .385.024.771 0 .386-.025.493 0 .98-.032.268-.003.537.016.802.056.225.016.451.008.674-.024.41-.025.216 0 .674-.025.273-.006.545.002.817.024.219 0 .292.39.305.483.035.185.066.859.066.98 0 .122-.097 1.074-.097 1.074-.462.037-.926.05-1.39.041-.604-.024-1.083.049-1.445.049-.361 0-.893.049-1.25.049-.358 0-1.616-.073-1.738-.073-.121 0-.243.264-.243.347v1.95c0 .145-.093 1.041-.073 1.132.021.09.049.347.049.347a.194.194 0 0 0 .194.216c.216.024 2.022 0 2.505 0 .483 0 2.384.145 2.72.097.383-.055.768-.08 1.154-.073a.37.37 0 0 1 .268.267c.024.094-.073 1.178-.049 1.251.024.073.049.914.049 1.042a1.191 1.191 0 0 1-.122.348c-.144.064-.3.097-.459.097-.264 0-.6.045-1.084.024-.482-.02-3.755-.024-4.068-.024h-1.497c-.348 0-.264.024-.962.024-.699 0-1.234.292-1.692-.208zm39.567-.282s-.122-1.514-.122-1.997c0 0 .098-3.18.073-3.474a98.795 98.795 0 0 1-.073-2.672c0-.288-.02-1.084 0-1.421.029-.37.022-.74-.02-1.108a7.717 7.717 0 0 1 0-1.067c0-.483-.122-1.202-.073-1.483.008-.3.119-.586.312-.813.24-.24.313-.271.747-.247.434.024 1.876-.024 2.383 0 .508.024 1.324 0 1.71 0h1.598a7.35 7.35 0 0 1 1.317 0 5.04 5.04 0 0 0 1.042 0c.41-.024.771.035.816.177.046.143 0 .796.018.963.017.166-.073.892-.049 1.108.024.215.097.312-.142.41-.24.097-1.88.048-2.193.048-.312 0-1.709.098-2.119.073-.41-.024-1.494-.024-1.782-.048-.288-.025-.347-.025-.41.118-.063.142 0 1.084-.024 1.254.01.266.04.53.09.792a.309.309 0 0 0 .306.212c.264.02.52 0 .736 0 .216 0 .368-.024.754-.049.386-.024.51.032.997 0 .245-.02.492-.02.737 0 .246.025.494.025.74 0 .41-.02.424.025.882 0 .459-.024.473.028.695 0 .347 0 .254.532.271.626.006.306-.004.612-.031.917 0 .118.177.865-.063 1.042-.32.212-.941.14-1.542.115-.601-.024-.931 0-1.293 0-.361 0-.89.048-1.25.048-.362 0-1.334.087-1.456.073-.4-.048-.403.153-.43.24-.05.146-.067 1.703-.067 1.848 0 .146-.055 1.074-.031 1.171a1.61 1.61 0 0 1 0 .379.194.194 0 0 0 .194.215c.216.025 2.022 0 2.505 0 .483 0 2.383.143 2.72.098a6.036 6.036 0 0 1 1.133 0c.143.024.247.24.271.347.01.374 0 .749-.031 1.122-.035-.066.048.917.048 1.042a1.191 1.191 0 0 1-.121.348c-.156.044-.32.054-.48.028a7.547 7.547 0 0 1-1.042.11h-1.765c-1.042 0-2.164-.11-2.345-.11-.312 0-1.153.066-1.49.066-.337 0-.268-.042-.966-.042s-1.25.184-1.685-.459zm-14.623.116a1.96 1.96 0 0 0-.406-.508c-.195-.167-.22-.348-.435-.552-.215-.206-.507-.845-.674-1.012-.166-.166-.17-.243-.531-.65a11.642 11.642 0 0 1-.747-.916c-.167-.24-.744-.772-.674-.772.07 0 1.108-1.417 1.206-1.514a4.41 4.41 0 0 0 .528-.918c.103-.283.192-.572.267-.865a3.51 3.51 0 0 0 .045-.694v-.8c.016-.28.01-.561-.02-.84a10.056 10.056 0 0 0-.17-1.303c-.122-.348-.387-.938-.46-1.154-.072-.215-.962-.844-1.042-1.042-.08-.198-.618-.385-1.111-.524-.494-.14-.483-.049-.82-.143a3.88 3.88 0 0 0-.987-.097c-.459-.024-1.518-.049-1.904-.073-.386-.024-3.106-.024-3.443 0-.337.024-.48.024-.528.264a18.249 18.249 0 0 0 0 2.001c.02.747-.004 1.494-.073 2.238-.01.667.022 1.334.098 1.997 0 .348-.025 2.05-.025 2.241 0 .191.038 1.925-.035 2.216-.037.776-.026 1.554.032 2.328.024.431-.056 1.355.128 1.442a6.02 6.02 0 0 0 1.32.08c.289 0 .674.024 1.178.024.306.025.613-.007.907-.094.167-.073 0-.747.031-.917.032-.17-.094-1.25-.045-1.587.049-.337.07-1.738.094-1.856.024-.118.17-.093.288-.142.3-.012.602.02.893.094.191.048.41.517.48.566.069.049.434.59.82 1.042.385.452 1.611 2.022 1.903 2.286.292.264.264.459.601.532.197.052.402.06.601.024.195-.024.938 0 1.181 0 .244 0 1.251-.024 1.39-.048.14-.025.163-.282.14-.355zm-4.45-8.766a1.39 1.39 0 0 1-.157.65c-.18.347-.347.555-.465.795-.118.24-.778.504-1.011.552a9.51 9.51 0 0 1-1.164.146 6.383 6.383 0 0 1-.983-.097c-.104-.024-.365-1.66-.313-1.973.06-.512.068-1.03.021-1.543-.052-.455-.174-1.108-.02-1.202.304-.08.622-.097.934-.049a5.38 5.38 0 0 1 1.782.324c.57.267.858.4 1.042.736.158.23.256.495.285.771.066.292.082.593.049.89zm6.827 9.005c-.087-.097-.195-2.384-.195-2.72 0-.338-.07-3.95-.07-4.288 0-.337.094-2.286.07-2.647a6.944 6.944 0 0 1-.024-.695v-.823c0-.264-.07-1.348-.046-1.612.03-.305.021-.611-.024-.914a.962.962 0 0 1 .348-.844c.215-.097 2.935-.097 3.394-.073.527.06 1.057.092 1.588.097.555-.024 2.084-.049 2.553-.073.47-.024 1.157-.024 1.39-.024.233 0 .396.625.396.799 0 .174-.049.865-.025 1.01.025.225.025.45 0 .675-.024.073-.024.347-.121.347a9.158 9.158 0 0 1-.938.049c-.24 0-.695-.049-.987-.024-.292.024-1.47.024-1.685.024h-2.432c-.121 0-.073.264-.146.48a4.491 4.491 0 0 0-.048 1.108c.024.073 0 .517.205.604.42.08.848.111 1.275.094.385 0 .722-.049.941-.049.22 0 .396-.07.695-.07.299 0 .507.036.962.06.242.011.483.003.723-.024.146 0 .347-.025.556-.025.186-.003.371.034.542.108.167.122.094 1.167.045 1.39-.049.222 0 .757 0 .83 0 .073.146.24-.347.264-.494.024-1.275.024-1.588.024-.313 0-1.133.025-1.543.025-.41 0-1.587-.049-1.973-.049-.386 0-.347.195-.347.348 0 .152-.098 1.518-.098 1.518.056.293.088.59.098.89 0 .385-.049 1.041-.049 1.18 0 .14.097.817.073.89-.024.073.049 1.39.049 1.47 0 .08.118.527-.073.625-.32.185-.693.261-1.06.215-.664 0-1.918.02-2.084-.17zm34.863-2.971s.031.275.031.452.018 1.122 0 1.25a7.075 7.075 0 0 1-.094.755 8.058 8.058 0 0 1-.979.514 6.595 6.595 0 0 1-1.39.19c-.195.018-.514 0-1.39-.03a7.957 7.957 0 0 1-1.702-.094c-.483-.115-.883-.348-1.317-.5a5.56 5.56 0 0 1-1.428-.865c-.417-.381-.81-.788-1.174-1.22-.16-.163-.914-1.334-1.042-1.56a11.148 11.148 0 0 1-.577-1.987c0-.243-.031-2.008 0-2.154.031-.146.348-1.442.452-1.668.228-.504.49-.993.785-1.462.194-.24 1.09-1.234 1.39-1.508a6 6 0 0 1 1.153-.883c.58-.281 1.181-.514 1.8-.694a5.906 5.906 0 0 1 1.893-.174c.616-.01 1.231.01 1.845.062a3.762 3.762 0 0 1 1.476.643c.306.16.348.674.403.9.025.4.025.802 0 1.202-.03.198-.083.392-.159.577a2.78 2.78 0 0 1-1.011-.209 10.984 10.984 0 0 0-2.62-.347 5.558 5.558 0 0 0-1.893.531 6.701 6.701 0 0 0-1.41 1.41c-.297.45-.52.944-.661 1.464a4.037 4.037 0 0 0-.063.754c.032.177-.097 1.17 0 1.39.104.364.255.715.449 1.041.177.174.291.883.788 1.154a5.47 5.47 0 0 0 1.366.643c.51.128 1.122.465 1.796.482.674.018 1.077-.128 1.462-.128a4.72 4.72 0 0 0 1.091-.129c.157-.048.318-.087.48-.114 0 0 .236-.038.25.312zm2.376-8.761a.967.967 0 0 1-.226-.55 10.24 10.24 0 0 1-.062-1.39c.031-.346.031-.694.226-.77.841-.1 1.689-.132 2.536-.094a5.08 5.08 0 0 0 1.348.094 8.034 8.034 0 0 1 1.57-.063c.837.063.966.031 1.574.063.608.03 1.303 0 1.303 0h2.046c.222 0 .215.549.278.84.071.28.095.57.07.858-.032.289.072.695-.101.841-.233.195-.834.163-1.188.163-.355 0-.834.032-1.411.032-.577 0-.771-.066-.9 0-.128.066-.257.097-.226.347.024.6.013 1.201-.031 1.8-.031.19.129 1.99.129 2.248 0 .257-.032.993-.063 1.153-.031.16.025.792 0 1.042-.024.25.097 1.043.073 1.39 0 .205-.021 1.39-.021 1.497 0 .108.032 1.348.032 1.508a2.01 2.01 0 0 1-.129.74c-.087.132-.257.097-.643.129-.385.031-1.219 0-1.507 0-.289 0-.754-.032-.994-.032s-.257-.323-.323-.9c.001-.708.044-1.415.128-2.119 0-.257-.159-1.476-.128-1.737.066-.5.099-1.003.097-1.508-.031-.288-.128-.997-.128-1.219 0-.222.097-1.414.066-1.574a4.906 4.906 0 0 1-.066-.802c0-.257-.063-.771-.063-1.043 0-.27-.035-.865-.035-.865s-.128-.194-.545-.163a5.468 5.468 0 0 0-.994.035 7.678 7.678 0 0 1-1.692.049zM33.825 47.669s0 .118-.313.108c-.313-.01-.386.035-.664 0s-.444-.038-.493-.06c-.049-.02-.108 0-.108-.253v-1.39c0-.222 0-1.167.025-1.455.024-.289 0-.952 0-1.181 0-.23-.035-.675-.049-.928-.014-.254.073-1.348.087-1.636.023-.425.023-.85 0-1.276-.038-.145 0-.614 0-.76a5.507 5.507 0 0 1 0-.66c.021-.224.057-.445.108-.664 0-.097.347-.132.566-.156.219-.025.563-.025.997-.025.434 0 2.432-.024 2.612-.034.181-.01 1.592.142 1.7.107.107-.034.204.143.263.348.042.229.059.462.05.695-.03.116-.08.227-.147.326 0 0-.695.073-1.021.084-.327.01-1.988-.073-2.179-.073-.19 0-1.17-.025-1.205 0a.201.201 0 0 0-.097.132c0 .059 0 .83-.025.913-.024.084.038 1.109.049 1.147.01.038.049.094.23.083.18-.01 1.313.073 1.684.025.53-.03 1.061-.03 1.591 0 .3 0 .66.024.695.097.046.255.074.512.084.771 0 .094-.073.469-.073.469s0 .132-.289.142c-.288.01-2.939.073-3.165.087a3.31 3.31 0 0 0-.674.035c-.087.049-.062.625-.097.782-.035.156.06.83.035 1.084-.025.253 0 1.445 0 1.528 0 .084-.045 1.442-.177 1.588zm18.058-5.6a4.963 4.963 0 0 0-.556-1.636 5.835 5.835 0 0 0-1.39-1.925c-.864-.747-.19-.195-.527-.348-.337-.152-.507-.267-.695-.347a5.405 5.405 0 0 0-1.25-.347 5.064 5.064 0 0 0-2.412.264 7.811 7.811 0 0 0-2.863 2.084c-.82.963-.941 2.842-.941 2.842.083.642.241 1.272.472 1.876.13.355.278.703.445 1.042.132.192.396.459.59.733.313.319.663.598 1.043.83.215.146.45.263.695.348l.504.157s.347.048.566.062c.219.014.722.142.976.142.47-.01.94-.046 1.407-.107.34-.003.67-.126.928-.348.035-.024.42-.19.42-.19.141-.07.286-.13.434-.181a11.73 11.73 0 0 0 1.314-1.314c.261-.537.493-1.087.694-1.65a10.17 10.17 0 0 0 .146-1.987zM49.8 44.32a3.88 3.88 0 0 1-1 1.168 3.267 3.267 0 0 1-.696.448 6.686 6.686 0 0 1-1.122.166c-.274 0-1.348.05-1.914-.24a3.203 3.203 0 0 1-1.31-1 8.444 8.444 0 0 1-.694-1.685 3.362 3.362 0 0 1 .43-2.202c.137-.384.378-.722.695-.977.318-.288.66-.55 1.021-.781.311-.136.633-.244.963-.323.315-.062.64-.055.952.02.33.076.656.169.976.278.25.129.483.286.695.47.445.277.695.795.893 1.042.312.347.528 1.514.552 2.011a3.294 3.294 0 0 1-.427 1.605H49.8zm15.39-4.034a10.105 10.105 0 0 0-1.237-1.636 5.21 5.21 0 0 0-1.414-.882 6.534 6.534 0 0 0-1.234-.348c-.305 0-1.01-.062-1.573-.031s-1.929.722-2.137.9c-.514.422-.991.887-1.428 1.39a9.381 9.381 0 0 0-.9 1.941c-.465 1.077.209 2.922.452 3.502.243.58 1.445 1.737 1.876 2.022.43.285 1.477.466 2.328.577a6.896 6.896 0 0 0 3.178-.528c.82-.403 1.043-.851 1.317-1.011a1.92 1.92 0 0 0 .514-.771c.112-.226.626-1.477.695-1.703.068-.257.111-.52.129-.785.017-.163 0-.757 0-.9-.007-.66-.424-1.365-.567-1.737zm-1.091 2.89a9.56 9.56 0 0 1-.74 1.637c-.129.226-1.251 1.188-1.894 1.237-.643.049-1.511-.111-1.99-.111-.48 0-1.043-.386-1.637-.883-.594-.496-.997-1.737-.98-1.88a7.77 7.77 0 0 1 .05-1.476 5.048 5.048 0 0 1 1.152-1.845 4.864 4.864 0 0 1 2.457-.996c.452.015.899.113 1.316.288.35.087.663.278.9.549.386.4.546.448.772.847.203.403.385.816.545 1.237.096.46.112.932.049 1.397zm12.711-1.25a6.294 6.294 0 0 0-.93-2.376c-.594-.883-1.685-1.3-2.102-1.525a7.99 7.99 0 0 0-2.377-.657 8.686 8.686 0 0 0-1.67 0c-.369 0-.348.32-.369.497-.02.177.063.754.049 1.042-.014.289-.018.643-.049.963.004.392.03.784.08 1.174 0 .368.031.93.031 1.268 0 .337-.049 1.292-.049 1.654 0 .448.035.719.035.896v1.782c0 .271-.038.987.115 1.108.213.027.428.021.64-.017h.694c.172.014.345.004.514-.031.257-.049 1.237-.226 2.053-.434.817-.209 1.39-.786 2.085-1.442.695-.657 1.14-2.008 1.25-2.217.112-.208 0-1.428 0-1.685zm-1.64 1.671a4.863 4.863 0 0 1-1.024 1.588c-.177.129-1.06.754-1.591.851a4.723 4.723 0 0 1-1.202.049c-.386-.028-.306-1.685-.275-2.008.031-.323.018-1.122.018-1.39V41.53s-.066-.754-.066-1.108a8.516 8.516 0 0 0-.032-.962 2.615 2.615 0 0 1 .032-.595 1.79 1.79 0 0 1 .628 0c.438.064.865.188 1.269.369.332.123.634.32.882.573.386.347.611.466.789.785.177.32.639.962.639 1.317.04.558.018 1.118-.066 1.671v.017zm12.136-3.533a5.808 5.808 0 0 0-.368-1.39 5.109 5.109 0 0 0-.883-.85 1.792 1.792 0 0 0-.514-.306 11.701 11.701 0 0 0-1.667-.143 3.616 3.616 0 0 0-1.477.289c-.303.129-.59.296-.851.496-.282.326-.5.702-.643 1.109-.017.128-.16 1.122-.017 1.556.142.434.723 1.494 1.72 1.814.997.32 2.487.694 2.664.802.177.108.963.497.695 1.365-.267.87-.896 1.39-1.668 1.331-.77-.059-1.476-.288-1.653-.497-.2-.242-.352-.52-.448-.82-.032-.097-.035-.347-.209-.347-.173 0-1.223-.08-1.334.115-.174.298.049.694.097.865.153.354.34.693.56 1.01a5.14 5.14 0 0 0 1.67 1.126c.772.271 1.526.178 2.391 0a2.974 2.974 0 0 0 1.768-1.205c.223-.368.626-1.605.546-2.133a3.564 3.564 0 0 0-.723-1.623 2.04 2.04 0 0 0-1.14-.577 23.01 23.01 0 0 1-1.813-.545c-.48-.174-1.525-.695-1.542-1.285 0-.497 0-.82.274-1.122a2.54 2.54 0 0 1 1.22-.386c.34-.014.678.063.98.222.273.15.505.366.673.629.111.222.143.43.257.608.115.177.129.097.417.097.289 0 1.035.146 1.018-.205zM18.779 14.046a1.14 1.14 0 0 0-.782-.806 3.922 3.922 0 0 0-1.198-.15 13.421 13.421 0 0 1-1.762-.43c-.379-.087-.75-.184-1.122-.278-.372-.094-.716-.18-1.077-.26a11.114 11.114 0 0 0-1.758-.254 6.48 6.48 0 0 0-1.473.125 7.212 7.212 0 0 0-1.619.451 12.75 12.75 0 0 0-1.23.647l-.955.545a11.163 11.163 0 0 0-2.55 1.87c.177-.696.274-1.13.469-1.835.122-.518.374-.997.733-1.39a2.814 2.814 0 0 1 1.39-.733c.507-.129 1.014-.25 1.497-.417a6.68 6.68 0 0 0 1.063-.573c.305-.136.585-.322.83-.549.356-.38.627-.83.792-1.324.126-.347.15-.674.282-.986.155-.287.328-.563.518-.827a5.21 5.21 0 0 1 .524-.848c.302-.293.588-.602.858-.924.21-.284.38-.596.504-.928a2.13 2.13 0 0 0 .108-1.042 1.803 1.803 0 0 0-.615-1.119 1.584 1.584 0 0 0-1.303-.246c-.563.104-1 .483-1.456.806a7.423 7.423 0 0 1-.795.538c-.291.13-.569.285-.83.466-.25.22-.46.484-.62.778-.128.222-.228.632-.347.862a4.659 4.659 0 0 1-.816 1.042c-.18.219-.372.438-.573.67a3.412 3.412 0 0 0-.73 1.62 7.156 7.156 0 0 1-.538 1.518 7.46 7.46 0 0 1-.379.694c-.23.39-.48.79-.695 1.199v-.514c0-1.102-.163-2.477.06-3.676.08-.478.252-.936.503-1.351.438-.695 1.213-.928 1.758-1.487.43-.445.56-1.004.882-1.512.192-.26.398-.51.615-.75.22-.25.401-.53.539-.834.11-.26.191-.531.24-.81.057-.3.084-.604.08-.91a.09.09 0 0 0-.09-.09A4.075 4.075 0 0 0 5.684.32a2.856 2.856 0 0 0-1.088.823 4.433 4.433 0 0 0-.587 1.066 5.63 5.63 0 0 1-.427 1.043c-.118.18-.372.465-.487.639-.26.426-.438.898-.524 1.39a12.62 12.62 0 0 0-.327 1.702 30.982 30.982 0 0 0-.07 1.966v1.557a65.73 65.73 0 0 0 .216 6.198l-.18.1c-.111.08-.209.178-.289.289l-.347.434c.196.102.399.189.608.26.211.015.424.015.635 0 .261 0 .463-.058.605-.058.235-.026.468-.074.695-.143.147-.053.283-.131.403-.233l-.375-.267-.355-.174a.802.802 0 0 1-.278-.142.16.16 0 0 1-.045-.073c.253-.463.59-.874.994-1.213.462-.39.989-.696 1.556-.906.281-.1.577-.152.876-.153.434 0 .879 0 1.306-.046.427-.045.907-.218 1.369-.305a2.042 2.042 0 0 1 1.358.059c.381.259.748.538 1.098.837a5.1 5.1 0 0 0 .987.417c.27.093.552.15.837.174a4.608 4.608 0 0 0 1.758-.073c.406-.108.75-.327 1.16-.42.276-.031.553-.043.83-.035.556-.045 1.32-.275 1.182-.987z" fill="#718096"></path></g><defs><clipPath id="imperfect-foods_svg__a"><path fill="#fff" d="M0 0h117v48H0z"></path></clipPath></defs></svg>