<svg xmlns:xlink="http://www.w3.org/1999/xlink" viewBox="0 0 144 48" fill="none" xmlns="http://www.w3.org/2000/svg" height="48" width="144" ><path fill-rule="evenodd" clip-rule="evenodd" d="M20.646 18.417h5.581c-.404-1.456-1.483-2.13-2.723-2.13-1.214 0-2.454.755-2.858 2.13zm9.843 2.643h-9.924c.35 1.618 1.456 2.615 2.912 2.615.998 0 2.157-.242 2.886-1.564l3.829.782c-1.16 2.859-3.614 4.234-6.715 4.234-3.91 0-7.146-2.885-7.146-7.173 0-4.26 3.236-7.173 7.173-7.173 3.83 0 6.903 2.75 6.985 7.173v1.106zm10.777-.081 3.964.863c-.675 3.209-3.533 5.285-6.904 5.285-4.045 0-7.389-2.885-7.389-7.173 0-4.26 3.344-7.173 7.39-7.173 3.289 0 6.148 2.022 6.903 5.205l-4.045.97c-.378-1.645-1.483-2.4-2.859-2.4-1.942 0-3.236 1.43-3.236 3.398 0 1.995 1.294 3.398 3.236 3.398 1.376 0 2.481-.729 2.94-2.373zm28.117-1.025c0-2.103-1.591-3.505-3.263-3.505-1.753 0-3.344 1.402-3.344 3.505 0 2.13 1.59 3.506 3.344 3.506 1.671 0 3.263-1.376 3.263-3.506zm4.152 0c0 4.288-3.398 7.147-7.415 7.147-4.1 0-7.497-2.859-7.497-7.146 0-4.261 3.397-7.12 7.497-7.12 4.017 0 7.415 2.859 7.415 7.12zm26.709 0c0-2.103-1.59-3.505-3.263-3.505-1.753 0-3.344 1.402-3.344 3.505 0 2.13 1.591 3.506 3.344 3.506 1.672 0 3.263-1.376 3.263-3.506zm4.153 0c0 4.288-3.398 7.147-7.416 7.147-4.1 0-7.497-2.859-7.497-7.146 0-4.261 3.398-7.12 7.497-7.12 4.018 0 7.416 2.859 7.416 7.12zm9.245 1.43v-.297h-2.967c-1.078 0-1.753.566-1.753 1.402 0 .863.756 1.403 1.888 1.403 1.483 0 2.832-.998 2.832-2.508zm4.153-3.237v8.576h-4.153v-.998c-.944.81-2.238 1.402-4.045 1.402-3.021 0-5.043-1.752-5.043-4.422 0-2.643 2.022-4.369 5.637-4.369h3.451v-.27c0-1.132-.782-1.887-1.915-1.887-1.294 0-2.049.513-2.265 1.7l-4.072-.837c.593-2.616 2.967-4.26 6.202-4.26 3.803 0 6.203 1.914 6.203 5.365zm10.639-5.043-.19 4.315h-.781c-3.021 0-4.666 1.564-4.666 5.07v4.233h-4.314V13.185h4.314v2.588c.971-1.617 2.454-2.777 4.666-2.777.378 0 .647.027.971.108zM8.26 23.462c-1.887 0-3.263-1.402-3.263-3.506 0-2.076 1.376-3.505 3.263-3.505 1.753 0 3.317 1.43 3.317 3.505 0 2.104-1.564 3.506-3.317 3.506zm7.638 2.026h-.006v-12.3h-4.315v1.078c-1.052-.944-2.454-1.483-4.206-1.483-3.587 0-6.608 2.913-6.608 7.173 0 4.288 3.021 7.173 6.608 7.173 1.748 0 3.147-.536 4.198-1.475v8.39c0 .855-.625 3.63-3.61 3.63-3.477 0-3.63-3.428-3.633-3.63-.023-1.72.728-1.743 1.077-1.72a.86.86 0 0 1 .62.336c.1.122.22.337.126.788a2.163 2.163 0 1 0 4.233.89c.342-1.624-.013-3.188-1-4.403-.968-1.194-2.493-1.936-3.979-1.936C2.171 28 0 30.43 0 34.044 0 37.346 2.47 42 7.959 42c5.428 0 7.956-4.748 7.956-7.956 0-2.037-.017-8.556-.017-8.556zm123.361-5.534c0-2.076-1.565-3.506-3.318-3.506-1.887 0-3.262 1.43-3.262 3.506 0 2.103 1.375 3.506 3.262 3.506 1.753 0 3.318-1.403 3.318-3.506zm4.315 6.768h-4.315v-1.078c-1.052.944-2.454 1.483-4.207 1.483-3.586 0-6.606-2.886-6.606-7.173 0-4.261 3.02-7.174 6.606-7.174 1.753 0 3.155.54 4.207 1.484v-8.25h4.315v20.708zm-58.675-6.768c0-2.076-1.376-3.505-3.263-3.505-1.753 0-3.317 1.429-3.317 3.505 0 2.104 1.564 3.506 3.317 3.506 1.887 0 3.263-1.402 3.263-3.506zm4.234 0c0 4.288-3.02 7.173-6.607 7.173-1.752 0-3.155-.539-4.207-1.482v1.078h-4.315V6.027h4.315v8.237c1.052-.944 2.455-1.483 4.207-1.483 3.587 0 6.607 2.912 6.607 7.173z" fill="#718096"></path><path fill-rule="evenodd" clip-rule="evenodd" d="m55.825 26.666-3.61-4.608-2.048 2.317v2.29h-4.311V6h4.31v12.556l4.877-5.416h5.039l-4.985 5.658 6.036 7.868h-5.308z" fill="#718096"></path></svg>