<svg xmlns:xlink="http://www.w3.org/1999/xlink" viewBox="0 0 158 48" fill="none" xmlns="http://www.w3.org/2000/svg" height="48" width="158" ><path d="M71.093 12.504c1.258 0 2.455.003 3.653 0 .302-.002.466.186.606.412.89 1.438 1.808 2.858 2.658 4.318.848 1.456 1.877 2.806 2.562 4.357.042.095.065.207.182.218.116.01.159-.08.2-.182.676-1.671 1.83-3.058 2.743-4.588.788-1.323 1.68-2.584 2.487-3.897.28-.456.574-.678 1.135-.651 1.015.049 2.034.013 3.14.013-.716 1.106-1.404 2.15-2.072 3.208-1.101 1.748-2.18 3.51-3.285 5.258-.696 1.1-1.405 2.191-2.14 3.264-.299.434-.432.88-.43 1.4.01 3.033-.004 6.064.021 9.095.005.539-.129.71-.686.667-.788-.06-1.584-.043-2.375-.01-.562.024-.753-.143-.746-.746.034-2.99.01-5.982.022-8.974.002-.535-.088-.98-.412-1.456-.789-1.159-1.46-2.399-2.2-3.593-.906-1.463-1.84-2.908-2.752-4.366-.762-1.216-1.507-2.442-2.311-3.747zm-28.489 9.627c0 2.992.041 5.985-.02 8.975-.027 1.313-.352 2.589-1.328 3.587-.8.82-1.834 1.13-2.925 1.244-.685.071-1.396.098-2.072-.006-1.175-.178-2.258-.654-3.134-1.477-.868-.814-.852-.85-.022-1.73.425-.449.891-.86 1.341-1.287.233-.222.387-.211.627.064.85.973 1.67 1.204 2.702.793.822-.33.889-1.122 1.04-1.839.168-.8.113-1.617.113-2.428V13.373c0-.87-.001-.87.89-.87.753 0 1.506.026 2.258-.01.43-.02.54.112.538.54-.018 3.032-.008 6.065-.008 9.098zm68.645 1.724c0-3.58.012-7.16-.014-10.74-.003-.521.144-.647.643-.624.893.043 1.789.013 2.685.012.278 0 .565-.03.372.412-.052.12-.012.28-.012.424.001 7.138-.002 14.278.016 21.417.001.513-.101.69-.654.644a17.646 17.646 0 0 0-2.438-.021c-.494.027-.615-.127-.614-.603.017-3.64.01-7.282.01-10.922h.006zM21.285 22.38c-.285.708-.787 1.184-1.338 1.628-1.604 1.292-3.496 1.628-5.445 1.406-1.864-.214-3.663-.782-5.386-1.582a57.484 57.484 0 0 1-4.762-2.497c-1.11-.649-2.557-.458-3.432.83-.226.332-.274.758-.62 1.043-.367-.357-.187-.83-.244-1.233-.132-.93-.052-1.847.393-2.707.377-.73 1.006-1.043 1.78-1.148 1.3-.175 2.376.41 3.42 1.044 1.981 1.202 3.936 2.45 6.012 3.485 1.483.74 3.011 1.356 4.691 1.498 1.693.143 3.142-.446 4.448-1.463.091-.071.167-.162.278-.21.071-.027.138-.062.206-.093zm49.09-1.828c-.546-1.868-1.522-3.505-2.908-4.905-2.46-2.485-5.438-3.653-8.905-3.64-1.181-.046-2.313.133-3.45.47-1.815.538-3.428 1.397-4.82 2.67-1.424 1.3-2.418 2.867-3.157 4.661-.666 1.617-.638 3.286-.701 4.946-.038.987.22 1.983.552 2.95.637 1.862 1.612 3.482 3.041 4.841 1.762 1.677 3.818 2.741 6.207 3.219 1.825.365 3.64.275 5.419-.116 1.706-.375 3.261-1.188 4.627-2.29 2.47-1.995 4.022-4.52 4.437-7.722.222-1.73.141-3.428-.342-5.084zm-3.484 4.024c-.278 4.537-4.105 8.122-8.578 7.919-4.468-.203-8.261-4.026-7.902-9.025.039-4.518 4.203-8.354 8.786-8.012 4.287.319 8.004 4.05 7.694 9.118zm89.467-6.374c-.799-1.645-1.909-3.002-3.456-4.022-1.971-1.3-4.225-1.516-6.453-1.643-2.578-.146-5.169-.02-7.753-.046-.507-.005-.588.162-.585.623.019 3.602.011 7.205.011 10.808 0 3.602.009 7.206-.011 10.808-.003.505.133.665.646.65 2.865-.08 5.731.056 8.599-.13 1.602-.103 3.136-.318 4.578-1.017 2.413-1.17 3.966-3.105 4.876-5.594.41-1.123.577-2.281.644-3.473.13-2.408-.022-4.755-1.096-6.964zm-3.216 8.93c-.614 2.049-1.885 3.53-3.854 4.355-.819.344-1.732.341-2.612.42-1.357.119-2.722.1-4.082.135-.662.016-.788-.28-.787-.809.002-1.058-.001-2.114-.001-3.172V17.5c0-1.578 0-1.578 1.583-1.578 1.099 0 2.199-.034 3.297.008 2.059.078 3.898.668 5.219 2.389.969 1.262 1.464 2.684 1.617 4.26.146 1.548.066 3.062-.38 4.553zm-45.779.498c-.27-1.822-1.14-3.217-2.827-4.05-.295-.146-.694-.034-.935-.377.063-.056.112-.129.178-.155 1.303-.537 2.13-1.497 2.465-2.854a6.89 6.89 0 0 0 .132-2.76c-.195-1.225-.639-2.31-1.478-3.222-1.151-1.25-2.701-1.618-4.278-1.682-2.458-.1-4.922-.02-7.383-.033-.337-.001-.425.078-.425.439.008 7.281.002 14.563-.018 21.845-.002.45.112.603.577.598 2.055-.022 4.11.046 6.163-.028 1.476-.054 2.968-.011 4.399-.599 1.336-.55 2.262-1.492 2.846-2.74.646-1.376.809-2.863.584-4.381zm-10.835-8.778h-.03c0-.973.01-1.946-.007-2.919-.004-.193.05-.262.226-.253 1.42.074 2.844-.157 4.254.399 1.271.502 1.657 1.46 1.707 2.62.069 1.576-.444 2.66-2.168 3.124-1.215.33-2.44.241-3.66.318-.299.02-.338-.16-.33-.436.023-.95.008-1.902.008-2.853zm6.975 10.427c-.273 1.682-1.459 2.705-3.532 2.862-.968.073-1.937.184-2.915.149-.362-.014-.509-.097-.507-.472.01-1.787 0-3.574 0-5.361 0-.182.029-.364.018-.546-.056-.942-.06-.942.878-.946h1.06a7.083 7.083 0 0 1 3.04.467c1.688.667 2.194 2.395 1.958 3.847z" fill="#718096"></path><path d="M29.296 12.732c-1.06-.527-2.175-.385-3.104.388-.889.742-1.481 1.707-1.93 2.783-.75 1.8-1.169 3.705-1.886 5.519-1.263 3.195-3.575 4.59-6.663 4.75-1.6.08-3.164-.265-4.666-.762-1.844-.61-3.6-1.448-5.268-2.452-.666-.4-1.31-.872-2.026-1.142-.885-.332-2.171.27-2.526 1.096-.339.784-.235 1.744.69 2.542a19.014 19.014 0 0 0 3.53 2.39c1.145.608 2.307 1.185 3.572 1.557.652.192 1.3.4 1.965.545.662.144 1.326.312 1.996.372.969.086 1.945.087 2.918.115.224.006.373.048.449.303.28.956.237 1.923.095 2.888a.645.645 0 0 1-.51.548c-.466.105-.935.203-1.4.317-.65.158-1.323.18-1.972.303-.871.164-1.754.249-2.617.44-.55.124-1.159.185-1.634.706h17.488c-.509-.508-1.075-.592-1.6-.703-.805-.171-1.634-.232-2.448-.367-.707-.117-1.416-.213-2.12-.357-.49-.1-.956-.291-1.46-.346-.254-.027-.424-.244-.5-.547-.2-.816-.258-1.61-.023-2.437.229-.805.352-1 1.14-1.08 1.216-.122 2.317-.583 3.37-1.145 2.326-1.242 3.906-3.212 5.115-5.494 1.345-2.539 2.17-5.273 2.906-8.036.187-.7.477-.934 1.23-.966.405-.017.798-.049 1.315-.426-1.443.039-2.365-.776-3.426-1.302zm-.67 1.243c-.229-.022-.336-.12-.31-.34.023-.203.073-.404.345-.398.254.008.306.21.378.381-.088.194-.14.384-.413.357zm106.989 20.779c-.71-.89-1.431-1.773-2.116-2.682a466.157 466.157 0 0 1-3.822-5.145c-.457-.623-.999-1.188-1.361-1.902 1.498-.333 2.863-.787 3.844-2.007.753-.937 1.047-2.021 1.158-3.182.179-1.86-.074-3.614-1.236-5.154-1.239-1.64-3.057-2.05-4.925-2.153-2.131-.117-4.272-.021-6.408-.033-.35-.003-.476.051-.474.461.018 6.98.013 13.96.013 20.938 0 .366.01.733-.006 1.098-.011.282.083.4.384.392.833-.02 1.667-.043 2.499-.005.48.022.57-.156.565-.591-.02-1.913-.013-3.825-.006-5.738.002-.34.105-.685.061-1.016-.102-.772-.053-1.54-.044-2.31.003-.187-.042-.432.217-.507.224-.065.338.148.432.274 1.107 1.489 2.162 3.016 3.301 4.48 1.176 1.51 2.291 3.065 3.402 4.623.425.596.917.848 1.659.79.845-.065 1.701-.024 2.551-.001.208.006.469.073.553-.109.073-.161-.113-.36-.241-.521zm-8.655-12.72c-.683.06-1.35.273-2.124.22-.125 0-.327-.003-.531.002-.236.006-.296-.09-.295-.334.004-1.402-.027-2.804-.025-4.205.001-.568.057-1.135.085-1.703.007-.14-.026-.324.183-.315 1.405.055 2.835.005 4.1.783.893.55 1.435 2.178 1.055 3.596-.327 1.224-1.045 1.83-2.448 1.956z" fill="#718096"></path></svg>