<svg xmlns:xlink="http://www.w3.org/1999/xlink" viewBox="0 0 127 48" fill="#718096" xmlns="http://www.w3.org/2000/svg" height="48" width="127" ><path clip-rule="evenodd" d="M44.345 28.7c0 .541-.397.988-.963.988-.55 0-.948-.447-.948-.989v-9.424c0-.543.398-.989.963-.989.55 0 .948.447.948.989v9.424zM56.7 19.275v8.612c0 1.164-.596 1.818-1.544 1.818h-.076c-.902 0-1.33-.542-1.712-1.34l-1.927-3.907-1.713-4.034.046 3.907.016 4.353c0 .543-.398.988-.964.988-.55 0-.947-.447-.947-.988v-8.611c0-1.07.596-1.819 1.636-1.819h.076c.964 0 1.36.543 1.744 1.34l1.895 3.876 1.621 3.763-.045-3.604-.016-4.353c0-.542.397-.988.964-.988.549-.001.946.445.946.987zm7.662 9.409c0 .542-.398.988-.964.988-.55 0-.947-.447-.947-.988v-8.531h-2.37c-.49 0-.887-.383-.887-.941 0-.543.398-.924.886-.924h6.652c.489 0 .886.383.886.94 0 .543-.397.925-.886.925h-2.37v8.53zm5.748-.319v-8.85c0-.83.444-1.291 1.255-1.26h5.505c.489 0 .886.398.886.94 0 .543-.397.925-.886.925h-4.864v2.743h4.297c.475 0 .857.367.857.893s-.382.893-.856.893h-4.297v3.157h4.863c.489 0 .886.399.886.941 0 .543-.397.925-.886.925h-5.551c-.795 0-1.238-.462-1.208-1.307zm18.06 1.355c.535-.287.704-.877.444-1.34l-1.912-3.539c1.575-.319 2.493-1.53 2.493-3.174 0-1.721-1.04-3.412-3.532-3.412h-3.624c-.81-.031-1.253.43-1.253 1.26V28.7c0 .542.397.989.947.989.566 0 .964-.446.964-.989l-.016-3.476H84.7l2.126 4.098a.99.99 0 0 0 1.345.398zm-2.462-6.3H82.68v-3.3h3.012c1.01 0 1.576.669 1.576 1.642 0 .973-.535 1.659-1.56 1.659zm7.432 5.407c-1.147-1.069-1.667-2.743-1.667-4.848 0-2.12.504-3.779 1.636-4.831.704-.638 1.651-1.069 3.028-1.069 1.208 0 2.141.288 2.844.91.612.51 1.055 1.228 1.315 2.232.137.526-.214 1.053-.795 1.165-.55.095-.993-.272-1.162-.798-.183-.51-.428-.877-.718-1.133-.398-.366-.887-.526-1.53-.526-.688 0-1.285.207-1.728.67-.642.669-.918 1.866-.918 3.38 0 1.5.26 2.695.933 3.365.444.462 1.025.67 1.698.67.703 0 1.238-.192 1.682-.622.229-.224.428-.51.566-.845.198-.495.612-.862 1.146-.734.535.128.872.67.704 1.196-.276.876-.75 1.578-1.392 2.057-.703.526-1.575.797-2.675.797-1.407 0-2.294-.43-2.968-1.036zm14.037-10.747c-3.318 0-4.725 2.328-4.725 5.9 0 3.683 1.392 5.9 4.725 5.9 3.272 0 4.71-2.217 4.71-5.9 0-3.636-1.422-5.9-4.71-5.9zm-.015 1.865c1.82 0 2.767 1.323 2.767 4.034 0 2.71-.963 4.034-2.767 4.034-1.82 0-2.737-1.322-2.737-4.034 0-2.71.948-4.034 2.737-4.034zm19.558 8.739c0 .542-.398.988-.964.988-.55 0-.948-.447-.948-.988V24.41l.046-4.162-1.331 4.226-1.345 4.162c-.229.734-.703 1.021-1.3 1.021-.627 0-1.085-.303-1.33-1.036l-1.376-4.146-1.27-4.162.046 4.098v4.274c0 .542-.398.988-.963.988-.551 0-.948-.447-.948-.988v-8.531c0-1.18.611-1.866 1.682-1.866 1.009 0 1.575.557 1.896 1.578l1.406 4.353.857 2.966.871-2.966 1.407-4.353c.322-1.02.872-1.578 1.881-1.578 1.071 0 1.667.669 1.667 1.866l.016 8.53z" fill="#718096"></path><path d="M27 25.609c0 .285-.109.559-.303.76a1.019 1.019 0 0 1-.734.315 1.02 1.02 0 0 1-.733-.315 1.096 1.096 0 0 1-.304-.76V16c0-.285.11-.559.304-.76a1.02 1.02 0 0 1 .733-.316c.275 0 .54.114.734.316.194.201.303.475.303.76v9.609zm-.36 6.658c-.137.142-3.994 3.475-11.066 3.475-7.071 0-10.902-3.315-11.065-3.458-.103-.09-.188-.2-.25-.323a1.088 1.088 0 0 1 .13-1.17 1.013 1.013 0 0 1 1.457-.116c.06.045 3.506 2.943 9.72 2.943s9.686-2.916 9.72-2.943a1.03 1.03 0 0 1 1.466.116 1.083 1.083 0 0 1-.103 1.485l-.009-.01zM4.14 16a1.1 1.1 0 0 1 .345-.746c.206-.191.476-.29.752-.276.256.015.498.128.678.316.18.19.287.44.3.706v9.591c0 .285-.11.559-.304.76a1.018 1.018 0 0 1-.734.316 1.02 1.02 0 0 1-.733-.315 1.096 1.096 0 0 1-.304-.76V16zm5.203-2.133a1.1 1.1 0 0 1 .345-.746c.206-.192.476-.291.752-.277.256.016.498.128.678.317.18.189.287.44.3.706v14.222c0 .285-.11.559-.304.76a1.02 1.02 0 0 1-.734.315c-.275 0-.539-.113-.733-.315a1.096 1.096 0 0 1-.304-.76V13.867zm5.229-.534c0-.285.109-.558.303-.76a1.02 1.02 0 0 1 .734-.315c.275 0 .539.113.733.315.195.202.304.475.304.76V28.8c0 .285-.11.559-.304.76a1.019 1.019 0 0 1-.733.316 1.02 1.02 0 0 1-.734-.316 1.096 1.096 0 0 1-.303-.76V13.333zm5.143.534c0-.286.109-.56.303-.76a1.02 1.02 0 0 1 .734-.316c.275 0 .539.114.733.315.195.202.304.476.304.76V28.09c0 .285-.11.559-.304.76a1.019 1.019 0 0 1-.733.315c-.275 0-.54-.113-.734-.315a1.096 1.096 0 0 1-.303-.76V13.867zM27.283 8H3.9a3.753 3.753 0 0 0-1.487.297c-.471.199-.9.493-1.263.864a4.06 4.06 0 0 0-.848 1.3c-.197.488-.3 1.01-.302 1.54V36c.002.528.105 1.051.302 1.538.198.487.486.93.848 1.3.362.373.792.666 1.263.865.472.2.978.3 1.487.297h23.383a3.755 3.755 0 0 0 1.485-.296c.471-.198.9-.491 1.262-.862.362-.37.65-.811.849-1.298a4.147 4.147 0 0 0 .304-1.535V12a4.145 4.145 0 0 0-.301-1.536 4.027 4.027 0 0 0-.846-1.3 3.866 3.866 0 0 0-1.26-.865A3.755 3.755 0 0 0 27.292 8" fill="#718096"></path></svg>