<svg xmlns:xlink="http://www.w3.org/1999/xlink" viewBox="0 0 458 284" fill="none" xmlns="http://www.w3.org/2000/svg" style="display:block" width="458" height="284" ><g clip-path="url(#sign-up-cta_svg__a)" fill="none"><path d="M100.186 110.319S90.14 90.469 89.44 80.709l4.929-21.383s1.02-20.55-26.18-16.201c0 0 .38-9.72-6.018-12.129 0 0 3.03 5.525 1.744 10.878 0 0-4.94-12.083-14.905-5.984 0 0-7.722 4.027-5.858 11.67 0 0-.332 8.634 11.544 9.093 0 0-.42 10.798-26.914 24.905 0 0-22.008 9.96-20.728 32.714 1.28 22.754 21.25 37.585 21.25 37.585l74.533 1.801-2.651-43.339z" fill="#1A202C"></path><path d="m58.586 117.766 4.044-37.447s-5.519-3.39-3.976-9.81c0 0 1.498-5.13 6.524-1.045l.35-9.065s17.877 7.177 28.634-2.782c0 0 6.827 35.657-9.22 35.198l2.731 29.931-29.087-4.98z" fill="#DBA17B"></path><path fill-rule="evenodd" clip-rule="evenodd" d="M59.16 99.447c18.576 11.193 27.515.717 27.515.717l20.568 9.151a20.82 20.82 0 0 1 12.071 15.64l8.537 83.706-92.186 17.091.517-18.646-12.108-.432-2.86-.101c-6.453-.228-11.334-5.554-11.333-11.717 0-.824.088-1.663.27-2.506l14.97-69.088a20.495 20.495 0 0 1 12.07-14.55l21.968-9.265z" fill="url(&quot;#sign-up-cta_svg__b&quot;)"></path><path d="m88.87 189.95 14.116-.451 4.24-1.498a12.866 12.866 0 0 1 9.059.19l18.812 7.527L141 203l-53.7 2.7 1.57-15.75z" fill="#DBA17B"></path><path d="M129.314 267.697c1.761-12.639 20.78-33.769 43.345-19.243 9.713 6.254 7.521 29.088 1.755 50.924l-24.228 83.448-37.9-7.137c-.006 0 13.488-82.61 17.028-107.992z" fill="#4A5568"></path><path d="m239.716 364.036-39.364 17.092-47.905-118.859-15.02 5.181s-3.058 1.073-8.107 2.651c-20.58 6.448-74.188 21.336-87.705 6.15-17.057-19.151-5.44-59.3-5.44-59.3l152.009-13.723c19.42 45.312 51.532 160.808 51.532 160.808z" fill="url(&quot;#sign-up-cta_svg__c&quot;)"></path><path d="m113.324 204.401 10.987-59.464c.249-1.603 1.682-2.933 3.096-3.007l75.896-3.977c1.415-.074 2.312 1.133 1.979 2.74l-10.986 59.465-80.972 4.243z" fill="url(&quot;#sign-up-cta_svg__d&quot;)"></path><path d="M154.565 171.299c-.592 3.035 1.199 5.361 3.862 5.222 2.746-.144 5.366-2.702 5.958-5.737.592-3.035-1.199-5.361-3.862-5.221-2.747.144-5.366 2.701-5.958 5.736z" fill="#A0AEC0"></path><path d="M86.765 208.732s-.004-.083-.088-.079l-.069-2.917 108.184-5.67.153 2.913.004.083-.223.513c-1.284 2.57-3.759 3.117-6.588 3.266l-94.204 4.937c-2.83.148-5.347-.137-6.893-2.56l-.276-.486z" fill="#8596AE"></path><path stroke="#000000" stroke-width="2px" stroke-linecap="round" stroke-linejoin="round" d="M1 283h278" fill="none"></path><g filter="url(#sign-up-cta_svg__e)" fill="none"><rect x="261" y="73" width="171.765" height="120" rx="4" fill="#FFFFFF"></rect></g><mask id="sign-up-cta_svg__f" maskUnits="userSpaceOnUse" x="261" y="73" width="172" height="120" fill="none"><rect x="261" y="73" width="171.765" height="120" rx="4" fill="#FFFFFF"></rect></mask><g mask="url(#sign-up-cta_svg__f)" fill="none"><rect x="281" y="99" width="131" height="71.024" rx="4" fill="#FFFFFF"></rect><mask id="sign-up-cta_svg__g" maskUnits="userSpaceOnUse" x="281" y="99" width="131" height="72" fill="none"><rect x="281" y="99" width="131" height="71.024" rx="4" fill="#FFFFFF"></rect></mask><g mask="url(#sign-up-cta_svg__g)" fill-rule="evenodd" clip-rule="evenodd" fill="none"><path d="M314.24 180.486h103.284l-41.667-52.463c-3.869-4.872-11.207-5.05-15.308-.371l-46.309 52.834z" fill="#EDF2F7"></path><path d="M275.476 180.365h90.473l-38.572-41.507c-3.99-4.294-10.806-4.236-14.723.124l-37.178 41.383z" fill="#F7FAFC"></path><path d="M310.199 118.334c0 5.448-4.417 9.865-9.865 9.865s-9.864-4.417-9.864-9.865 4.416-9.864 9.864-9.864 9.865 4.416 9.865 9.864z" fill="#EDF2F7"></path></g><rect x="281" y="179.494" width="131" height="6.313" rx="3.157" fill="#F7FAFC"></rect></g><mask id="sign-up-cta_svg__h" maskUnits="userSpaceOnUse" x="261" y="73" width="172" height="120" fill="none"><rect x="261" y="73" width="171.765" height="120" rx="4" fill="#FFFFFF"></rect></mask><g mask="url(#sign-up-cta_svg__h)" fill="none"><path d="M261 73h171.765v13.53H261V73z" fill="#2D3748"></path><circle cx="267.765" cy="79.764" r="1.471" fill="#FF6666"></circle><circle cx="273.647" cy="79.764" r="1.471" fill="#FFD666"></circle><circle cx="279.529" cy="79.764" r="1.471" fill="#00CC92"></circle></g><path d="M433 93c8.284 0 15-6.716 15-15 0-8.284-6.716-15-15-15-8.284 0-15 6.716-15 15 0 8.284 6.716 15 15 15z" fill="url(&quot;#sign-up-cta_svg__i&quot;)"></path><g filter="url(#sign-up-cta_svg__j)" fill="none"><path fill-rule="evenodd" clip-rule="evenodd" d="M440.255 72.745a1.521 1.521 0 0 1 0 2.15l-8.36 8.36a1.52 1.52 0 0 1-2.15 0l-3.8-3.8a1.521 1.521 0 0 1 2.15-2.15l2.725 2.725 7.285-7.285a1.52 1.52 0 0 1 2.15 0z" fill="#FFFFFF"></path></g></g><defs><linearGradient id="sign-up-cta_svg__b" x1="68.866" y1="99.447" x2="68.866" y2="225.752" gradientUnits="userSpaceOnUse"><stop stop-color="#80FFDB"></stop><stop offset="1" stop-color="#00CC92"></stop></linearGradient><linearGradient id="sign-up-cta_svg__c" x1="32" y1="215" x2="240" y2="381" gradientUnits="userSpaceOnUse"><stop stop-color="#2D3748"></stop><stop offset="1" stop-color="#4A5568"></stop></linearGradient><linearGradient id="sign-up-cta_svg__d" x1="157.669" y1="140.344" x2="160.896" y2="201.908" gradientUnits="userSpaceOnUse"><stop stop-color="#A0AEC0"></stop><stop offset="1" stop-color="#718096"></stop></linearGradient><filter id="sign-up-cta_svg__e" x="260" y="73" width="173.765" height="123" filterUnits="userSpaceOnUse" color-interpolation-filters="sRGB"><feFlood flood-opacity="0" result="BackgroundImageFix"></feFlood><feColorMatrix in="SourceAlpha" values="0 0 0 0 0 0 0 0 0 0 0 0 0 0 0 0 0 0 127 0"></feColorMatrix><feOffset dy="2"></feOffset><feGaussianBlur stdDeviation="0.5"></feGaussianBlur><feColorMatrix values="0 0 0 0 0 0 0 0 0 0.6 0 0 0 0 1 0 0 0 0.07 0"></feColorMatrix><feBlend in2="BackgroundImageFix" result="effect1_dropShadow"></feBlend><feBlend in="SourceGraphic" in2="effect1_dropShadow" result="shape"></feBlend></filter><filter id="sign-up-cta_svg__j" x="424.5" y="72.3" width="17.2" height="14.4" filterUnits="userSpaceOnUse" color-interpolation-filters="sRGB"><feFlood flood-opacity="0" result="BackgroundImageFix"></feFlood><feColorMatrix in="SourceAlpha" values="0 0 0 0 0 0 0 0 0 0 0 0 0 0 0 0 0 0 127 0"></feColorMatrix><feOffset dy="2"></feOffset><feGaussianBlur stdDeviation="0.5"></feGaussianBlur><feColorMatrix values="0 0 0 0 0 0 0 0 0 0.658824 0 0 0 0 0.47451 0 0 0 0.3 0"></feColorMatrix><feBlend in2="BackgroundImageFix" result="effect1_dropShadow"></feBlend><feBlend in="SourceGraphic" in2="effect1_dropShadow" result="shape"></feBlend></filter><radialGradient id="sign-up-cta_svg__i" cx="0" cy="0" r="1" gradientUnits="userSpaceOnUse" gradientTransform="matrix(0 15 -15 0 433 78)"><stop stop-color="#80FFDB"></stop><stop offset="1" stop-color="#00CC92"></stop></radialGradient><clipPath id="sign-up-cta_svg__a"><path fill="#fff" d="M0 0h458v284H0z"></path></clipPath><linearGradient id="sign-up-cta_svg__b" x1="68.866" y1="99.447" x2="68.866" y2="225.752" gradientUnits="userSpaceOnUse"><stop stop-color="#80FFDB"></stop><stop offset="1" stop-color="#00CC92"></stop></linearGradient><linearGradient id="sign-up-cta_svg__c" x1="32" y1="215" x2="240" y2="381" gradientUnits="userSpaceOnUse"><stop stop-color="#2D3748"></stop><stop offset="1" stop-color="#4A5568"></stop></linearGradient><linearGradient id="sign-up-cta_svg__d" x1="157.669" y1="140.344" x2="160.896" y2="201.908" gradientUnits="userSpaceOnUse"><stop stop-color="#A0AEC0"></stop><stop offset="1" stop-color="#718096"></stop></linearGradient><radialGradient id="sign-up-cta_svg__i" cx="0" cy="0" r="1" gradientUnits="userSpaceOnUse" gradientTransform="matrix(0 15 -15 0 433 78)"><stop stop-color="#80FFDB"></stop><stop offset="1" stop-color="#00CC92"></stop></radialGradient></defs></svg>