<svg viewBox="0 0 276 150" fill="none" xmlns="http://www.w3.org/2000/svg"><path d="M1.381 66.21c-11.959 54.892 55.998 102.91 116.615 63.153 88.907-41 50.581-46.505 107.52-38.393 66.838 6.893 62.045-72.856 16.333-71.811-45.713 1.044-59.76 33.31-107.525 3.586C68.603-14.637 11.359 20.475 1.381 66.211z" fill="#E6FFF8"/><path d="M102.792 26.128s-1.58-12.72 2.401-18.524c5.197-7.552 19.937-9.664 26.973-5.5 7.78 4.604 13.98 16.487 11.26 26.896 11.564 3.328 14.329 16.472 6.2 19.845l6.959 14.907c4.331 9.27-.091 20.347-10.029 25.134l-17.794 8.57s-32.838 5.167-39.342-10.044c-6.504-15.21 6.23-26.304 6.23-26.304S85.257 49.56 90.21 38.3c4.97-11.26 12.582-12.172 12.582-12.172z" fill="#000"/><path d="M153.29 69.709s29.844 4.726 37.928 4.376c6.337.35 16.776-34.342 17.688-36.47 5.06-3.175 6.322-7.521 6.246-9.922-.076-2.401-6.535-4.422-7.158-3.207 1.064-3.175 1.307-4.178 1.596-5.272.608-2.265-1.125-3.982-3.601 4.543-2.447 8.403-2.204 7.02-2.796 9.984-3.997 7.673-14.3 25.574-14.999 28.279-13.357-.32-35.983-5.516-35.983-5.516l1.079 13.205zM93.524 61.61S79.377 88.157 76.627 95.572c-2.736 5.516 25.681 30.923 27.276 32.762.988 6.033 3.601 8.115 5.82 9.193 2.219 1.064 6.519-3.753 5.653-4.877 2.507 2.461 3.328 3.145 4.209 3.935 1.839 1.611 4.072.882-2.781-5.379-6.762-6.185-5.577-5.303-8.069-7.248-5.501-7.218-17.961-24.936-20.164-26.851 5.364-11.807 18.736-29.632 18.736-29.632L93.524 61.61z" fill="#DBA17B"/><path fill-rule="evenodd" clip-rule="evenodd" d="M128.561 149.988c5.784-.107 10.94-.896 14.831-1.72a62.204 62.204 0 007.42-2.272c-1.445-13.226-2.57-23.391-2.57-23.391l-14.056-8.418-8.237 35.74c.866.038 1.737.058 2.612.061z" fill="#2D3748"/><path fill-rule="evenodd" clip-rule="evenodd" d="M132.747 149.862a63.358 63.358 0 01-4.008.126 62.623 62.623 0 01-21.903-3.929l-.043-.022c-.896-7.081-1.276-13.281-1.231-16.502.137-10.516 38.597-5.167 38.597-5.167s-1.793 10.941-4.042 24.526c0 0-2.954.618-7.37.968z" fill="#4A5568"/><path d="M140.405 79.647c-1.14 2.644 7.507 39.357 8.95 47.821l-.532-.091c-3.753-.563-26.714-3.587-45.268 4.148l-1.702-51.863-.076-1.93s0-1.96.183-4.954v-.03c.425-6.17 1.702-16.578 5.668-23.265 2.051-3.464 4.771-5.941 8.494-6.306 11.534-1.14 11.473 3.586 22.186 6.23l17.384 4.316s-1.945 13.479 0 17.49h-12.066c0-.015-2.097 5.76-3.221 8.434z" fill="#fff"/><path d="M101.822 81.79s15.956-18.494 13.418-27.398c-2.538-8.905-14.603-5.85-21.35 4.406-6.747 10.257-9.421 13.768-9.421 13.768s6.944 9.39 17.353 9.224z" fill="#fff"/><path d="M133.779 8.577s10.576 15.864 5.029 23.614c-4.148 5.805-11.108 8.844-11.108 8.844v8.357s-.836.745-2.294.82c-2.538.138-9.285-3.935-9.285-3.935V13.363l17.658-4.786z" fill="#DBA17B"/><path d="M133.746 7.072s.821 16.518-7.142 20.515c-7.962 3.996-1.945 13.843-9.528 21.198-2.249 2.173-5.592 1.808-8.16 1.048-3.677-1.094-7.886-.304-10.454 2.355a6.32 6.32 0 00-.654.806c-9.847-6.504 15.105-42.655 15.105-42.655l20.833-3.267z" fill="#000"/><path d="M163.844 97.012a1.28 1.28 0 01-.086 1.192A31.872 31.872 0 00159 115c0 17.668 14.332 32 32 32s32-14.332 32-32-14.332-32-32-32a31.823 31.823 0 00-20.006 7.033c-.316.254-.734.35-1.126.245l-7.704-2.034c-1.014-.268-1.888.758-1.461 1.717l3.141 7.051z" stroke="#33D6A8" stroke-width="2.5" stroke-linecap="round" stroke-linejoin="round"/><path d="M75.35 131.295a14.103 14.103 0 01-12.531-4.007 14.113 14.113 0 01-3.779-12.602" stroke="#66E0BE" stroke-width="2.5"/><path d="M271.598 19.093h-7.667v7.667h-7.667v7.667h-7.667" stroke="#66E0BE" stroke-width="2.5" stroke-linecap="round" stroke-linejoin="round"/><path d="M237.539 73.794a14.119 14.119 0 016.027 11.695 14.113 14.113 0 01-6.239 11.582" stroke="#66E0BE" stroke-width="2.5"/><path d="M72.457 51.2l-1.984-7.405-7.406 1.984-1.984-7.405-7.406 1.984-1.984-7.405" stroke="#66E0BE" stroke-width="2.5" stroke-linecap="round" stroke-linejoin="round"/><circle cx="29.582" cy="89.603" r="4.346" transform="rotate(-159.276 29.582 89.603)" fill="#66E0BE"/><circle cx="173.602" cy="16.603" r="4.346" transform="rotate(-159.276 173.602 16.603)" fill="#66E0BE"/><circle cx="253.602" cy="124.603" r="4.346" transform="rotate(-159.276 253.602 124.603)" fill="#66E0BE"/></svg>