<svg xmlns:xlink="http://www.w3.org/1999/xlink" viewBox="0 0 452 490" fill="none" xmlns="http://www.w3.org/2000/svg" width="452" height="490"><g filter="url(#codeless-test-editor_svg__a)" fill="none"><rect x="10" y="10" width="432" height="460" rx="16" fill="#FFFFFF"></rect></g><rect x="46" y="84" width="360" height="144" rx="12" fill="#F7FAFC"></rect><rect x="70" y="108" width="312" height="36" rx="6" fill="#FFFFFF" stroke="#E2E8F0" stroke-width="2px"></rect><rect x="86" y="120" width="280" height="12" rx="6" fill="#EDF2F7"></rect><rect x="238" y="168" width="144" height="36" rx="6" fill="#FFFFFF" stroke="#E2E8F0" stroke-width="2px"></rect><rect x="254" y="180" width="112" height="12" rx="6" fill="#EDF2F7"></rect><path fill-rule="evenodd" clip-rule="evenodd" d="M246.874 53.793a1 1 0 0 1 0 1.414L245.081 57l1.793 1.793a1 1 0 0 1-1.414 1.414l-2.5-2.5a1 1 0 0 1 0-1.414l2.5-2.5a1 1 0 0 1 1.414 0zm4.419-5.833a1 1 0 0 1 1.414 0l2.5 2.5a1 1 0 1 1-1.414 1.414L252 50.08l-1.793 1.793a1 1 0 1 1-1.414-1.414l2.5-2.5zm-2.5 14.166a1 1 0 0 1 1.414 0L252 63.92l1.793-1.793a1 1 0 1 1 1.414 1.414l-2.5 2.5a1 1 0 0 1-1.414 0l-2.5-2.5a1 1 0 0 1 0-1.414zm8.333-8.333a1 1 0 0 1 1.414 0l2.5 2.5a1 1 0 0 1 0 1.414l-2.5 2.5a1 1 0 1 1-1.414-1.414L258.919 57l-1.793-1.793a1 1 0 0 1 0-1.414z" fill="#CBD5E0"></path><path fill-rule="evenodd" clip-rule="evenodd" d="M242.667 57a1 1 0 0 1 1-1h16.666a1 1 0 1 1 0 2h-16.666a1 1 0 0 1-1-1z" fill="#CBD5E0"></path><path fill-rule="evenodd" clip-rule="evenodd" d="M252 47.667a1 1 0 0 1 1 1v16.666a1 1 0 0 1-2 0V48.667a1 1 0 0 1 1-1zm-36 2a7.333 7.333 0 1 0 0 14.666 7.333 7.333 0 0 0 0-14.666zM206.667 57A9.333 9.333 0 0 1 216 47.667 9.333 9.333 0 0 1 225.333 57 9.333 9.333 0 0 1 216 66.333 9.333 9.333 0 0 1 206.667 57z" fill="#CBD5E0"></path><path fill-rule="evenodd" clip-rule="evenodd" d="M216 52.667a1 1 0 0 1 1 1v6.666a1 1 0 0 1-2 0v-6.666a1 1 0 0 1 1-1z" fill="#CBD5E0"></path><path fill-rule="evenodd" clip-rule="evenodd" d="M211.667 57a1 1 0 0 1 1-1h6.666a1 1 0 1 1 0 2h-6.666a1 1 0 0 1-1-1zm75.5-1.5a.666.666 0 0 0-.667.667v7.5c0 .368.298.666.667.666h7.5a.666.666 0 0 0 .666-.666v-7.5a.666.666 0 0 0-.666-.667h-7.5zm-2.667.667a2.667 2.667 0 0 1 2.667-2.667h7.5a2.667 2.667 0 0 1 2.666 2.667v7.5a2.667 2.667 0 0 1-2.666 2.666h-7.5a2.667 2.667 0 0 1-2.667-2.666v-7.5z" fill="#CBD5E0"></path><path fill-rule="evenodd" clip-rule="evenodd" d="M281.333 49.667a.667.667 0 0 0-.666.666v7.5a.666.666 0 0 0 .666.667h.834a1 1 0 0 1 0 2h-.834a2.666 2.666 0 0 1-2.666-2.667v-7.5a2.667 2.667 0 0 1 2.666-2.666h7.5a2.666 2.666 0 0 1 2.667 2.666v.834a1 1 0 0 1-2 0v-.834a.666.666 0 0 0-.667-.666h-7.5zm40.167-.334a1 1 0 0 1 .707.293l4.167 4.167a1 1 0 0 1-1.414 1.414l-3.46-3.46-3.46 3.46a1 1 0 1 1-1.414-1.414l4.167-4.167a1 1 0 0 1 .707-.293z" fill="#CBD5E0"></path><path fill-rule="evenodd" clip-rule="evenodd" d="M321.5 49.333a1 1 0 0 1 1 1v10a2.335 2.335 0 0 0 2.333 2.334h5.834a1 1 0 0 1 0 2h-5.834a4.334 4.334 0 0 1-4.333-4.334v-10a1 1 0 0 1 1-1zm36.126 9.46a1 1 0 0 1 1.414 0l3.46 3.46 3.46-3.46a1 1 0 1 1 1.414 1.414l-4.167 4.167a1 1 0 0 1-1.414 0l-4.167-4.167a1 1 0 0 1 0-1.414z" fill="#CBD5E0"></path><path fill-rule="evenodd" clip-rule="evenodd" d="M352.333 50.333a1 1 0 0 1 1-1h5.834a4.334 4.334 0 0 1 4.333 4.334v10a1 1 0 0 1-2 0v-10a2.335 2.335 0 0 0-2.333-2.334h-5.834a1 1 0 0 1-1-1zM396 49.667a7.333 7.333 0 1 0 0 14.666 7.333 7.333 0 0 0 0-14.666zM386.667 57A9.333 9.333 0 0 1 396 47.667 9.333 9.333 0 0 1 405.333 57 9.333 9.333 0 0 1 396 66.333 9.333 9.333 0 0 1 386.667 57z" fill="#CBD5E0"></path><path fill-rule="evenodd" clip-rule="evenodd" d="M399.207 53.793a1 1 0 0 1 0 1.414l-5 5a1 1 0 1 1-1.414-1.414l5-5a1 1 0 0 1 1.414 0z" fill="#CBD5E0"></path><path fill-rule="evenodd" clip-rule="evenodd" d="M392.793 53.793a1 1 0 0 1 1.414 0l5 5a1 1 0 1 1-1.414 1.414l-5-5a1 1 0 0 1 0-1.414z" fill="#CBD5E0"></path><path fill-rule="evenodd" clip-rule="evenodd" d="M58.985 50.297a7.334 7.334 0 1 0 4.348 6.702v-.766a1 1 0 1 1 2 0V57a9.335 9.335 0 0 1-17.163 5.075A9.334 9.334 0 0 1 59.8 48.47a1 1 0 0 1-.814 1.827z" fill="#00CC92"></path><path fill-rule="evenodd" clip-rule="evenodd" d="M65.04 49.626a1 1 0 0 1 0 1.414l-8.333 8.342a1 1 0 0 1-1.414 0l-2.5-2.5a1 1 0 0 1 1.414-1.414L56 57.26l7.626-7.633a1 1 0 0 1 1.414-.001z" fill="#00CC92"></path><path d="M78.758 61v-8.727h3.444c.662 0 1.225.126 1.692.379.465.25.82.598 1.065 1.044.247.443.37.955.37 1.534 0 .58-.124 1.09-.374 1.534-.25.443-.613.788-1.087 1.036-.472.247-1.043.37-1.713.37H79.96v-1.478h1.897c.355 0 .647-.061.877-.184.233-.125.407-.296.52-.515a1.61 1.61 0 0 0 .175-.763c0-.29-.058-.543-.175-.758a1.167 1.167 0 0 0-.52-.508c-.233-.122-.528-.183-.886-.183h-1.244V61h-1.846zm8.767 0h-1.978l3.013-8.727h2.378L93.946 61H91.97l-2.186-6.733h-.068L87.525 61zm-.124-3.43h4.67v1.44h-4.67v-1.44zm12.631-2.787a1.078 1.078 0 0 0-.439-.802c-.258-.19-.61-.285-1.053-.285-.3 0-.555.043-.762.128a1.074 1.074 0 0 0-.478.345.831.831 0 0 0-.162.503.718.718 0 0 0 .099.409c.073.116.174.217.302.302.128.083.276.155.443.218.168.06.347.11.537.153l.784.188c.38.085.73.199 1.049.34.318.143.593.317.826.525.233.207.414.451.541.733.131.28.198.603.201.967-.003.534-.139.997-.409 1.39-.267.388-.654.691-1.159.907-.503.213-1.11.32-1.82.32-.705 0-1.318-.108-1.841-.324a2.697 2.697 0 0 1-1.219-.96c-.29-.425-.441-.952-.456-1.58h1.786c.02.293.103.537.251.733.15.193.351.34.601.439.253.096.538.145.857.145.312 0 .584-.046.814-.137a1.25 1.25 0 0 0 .54-.379.876.876 0 0 0 .193-.558.726.726 0 0 0-.175-.495 1.325 1.325 0 0 0-.503-.34 5.123 5.123 0 0 0-.805-.256l-.95-.239c-.737-.179-1.317-.459-1.744-.84-.426-.38-.637-.893-.635-1.538-.002-.528.138-.99.422-1.385.287-.394.68-.703 1.18-.924.5-.222 1.069-.333 1.705-.333.648 0 1.213.111 1.696.333.486.221.864.53 1.134.924.27.395.409.853.417 1.373h-1.768zm8.363 0a1.08 1.08 0 0 0-.439-.802c-.258-.19-.609-.285-1.052-.285-.301 0-.556.043-.763.128a1.07 1.07 0 0 0-.477.345.83.83 0 0 0-.162.503.716.716 0 0 0 .098.409c.074.116.174.217.302.302a2.3 2.3 0 0 0 .444.218c.167.06.346.11.536.153l.785.188c.38.085.73.199 1.048.34.318.143.594.317.827.525.232.207.413.451.541.733.13.28.197.603.2.967-.003.534-.139.997-.409 1.39-.267.388-.653.691-1.159.907-.503.213-1.11.32-1.82.32-.704 0-1.318-.108-1.841-.324-.52-.216-.926-.536-1.218-.96-.29-.425-.442-.952-.456-1.58h1.785c.02.293.104.537.252.733.15.193.35.34.6.439.253.096.539.145.857.145.312 0 .584-.046.814-.137a1.24 1.24 0 0 0 .541-.379.875.875 0 0 0 .192-.558.723.723 0 0 0-.175-.495 1.326 1.326 0 0 0-.503-.34 5.127 5.127 0 0 0-.805-.256l-.95-.239c-.736-.179-1.317-.459-1.743-.84-.426-.38-.638-.893-.635-1.538-.003-.528.138-.99.422-1.385.287-.394.68-.703 1.18-.924.5-.222 1.068-.333 1.705-.333.647 0 1.213.111 1.696.333.485.221.863.53 1.133.924.27.395.409.853.418 1.373h-1.769zm5.474-2.51V61h-1.845v-8.727h1.845zm9.318 0V61h-1.594l-3.796-5.493h-.064V61h-1.846v-8.727h1.62l3.767 5.488h.076v-5.488h1.837zm7.812 2.821a1.923 1.923 0 0 0-.252-.55 1.707 1.707 0 0 0-.925-.669 2.233 2.233 0 0 0-.652-.09c-.446 0-.838.111-1.176.333-.335.221-.596.544-.784.967-.187.42-.281.935-.281 1.543 0 .608.092 1.125.277 1.55.185.427.446.752.784.977.338.221.737.332 1.197.332.418 0 .775-.074 1.07-.221.298-.151.526-.363.682-.635a1.89 1.89 0 0 0 .239-.968l.375.056h-2.25v-1.39h3.652v1.1c0 .767-.162 1.426-.486 1.977-.324.549-.77.972-1.338 1.27-.569.295-1.219.443-1.952.443-.818 0-1.537-.18-2.156-.541a3.748 3.748 0 0 1-1.449-1.547c-.344-.67-.516-1.466-.516-2.386 0-.708.103-1.338.307-1.892a4.038 4.038 0 0 1 .869-1.415c.373-.386.806-.68 1.3-.882a4.212 4.212 0 0 1 1.607-.303c.494 0 .954.073 1.38.218.426.142.804.343 1.134.605.332.261.604.572.814.933.21.358.345.753.405 1.185h-1.875z" fill="#00CC92"></path><rect x="46" y="290" width="360" height="144" rx="12" fill="#F7FAFC"></rect><rect x="70" y="314" width="312" height="36" rx="6" fill="#FFFFFF" stroke="#E2E8F0" stroke-width="2px"></rect><rect x="86" y="326" width="280" height="12" rx="6" fill="#EDF2F7"></rect><rect x="238" y="374" width="144" height="36" rx="6" fill="#FFFFFF" stroke="#E2E8F0" stroke-width="2px"></rect><rect x="254" y="386" width="112" height="12" rx="6" fill="#EDF2F7"></rect><rect x="70" y="374" width="144" height="36" rx="6" fill="#FFFFFF" stroke="#E2E8F0" stroke-width="2px"></rect><path d="M195.057 395.859c-.048-.047-.254-.225-.424-.391-1.07-.971-2.82-3.503-3.354-4.829-.086-.201-.267-.71-.279-.982 0-.261.06-.509.182-.746a1.56 1.56 0 0 1 .753-.663c.219-.084.875-.213.887-.213.717-.13 1.883-.202 3.171-.202 1.228 0 2.346.072 3.074.178.012.012.827.142 1.106.284.51.261.827.77.827 1.315v.047c-.012.354-.329 1.1-.341 1.1-.535 1.255-2.199 3.729-3.305 4.724 0 0-.284.28-.462.401-.255.19-.57.285-.886.285-.353 0-.681-.107-.949-.308z" fill="#CBD5E0"></path><rect x="86" y="386" width="84" height="12" rx="6" fill="#EDF2F7"></rect><path fill-rule="evenodd" clip-rule="evenodd" d="M246.874 259.793a1 1 0 0 1 0 1.414L245.081 263l1.793 1.793a1 1 0 0 1-1.414 1.414l-2.5-2.5a.999.999 0 0 1 0-1.414l2.5-2.5a.999.999 0 0 1 1.414 0zm4.419-5.833a.999.999 0 0 1 1.414 0l2.5 2.5a.999.999 0 1 1-1.414 1.414L252 256.081l-1.793 1.793a1 1 0 0 1-1.414-1.414l2.5-2.5zm-2.5 14.166a1 1 0 0 1 1.414 0l1.793 1.793 1.793-1.793a1 1 0 0 1 1.414 1.414l-2.5 2.5a.999.999 0 0 1-1.414 0l-2.5-2.5a.999.999 0 0 1 0-1.414zm8.333-8.333a.999.999 0 0 1 1.414 0l2.5 2.5a.999.999 0 0 1 0 1.414l-2.5 2.5a.999.999 0 1 1-1.414-1.414l1.793-1.793-1.793-1.793a1 1 0 0 1 0-1.414z" fill="#CBD5E0"></path><path fill-rule="evenodd" clip-rule="evenodd" d="M242.667 263a1 1 0 0 1 1-1h16.666a1 1 0 1 1 0 2h-16.666a1 1 0 0 1-1-1z" fill="#CBD5E0"></path><path fill-rule="evenodd" clip-rule="evenodd" d="M252 253.667a1 1 0 0 1 1 1v16.666a1 1 0 1 1-2 0v-16.666a1 1 0 0 1 1-1zm-36 2a7.333 7.333 0 1 0 0 14.666 7.333 7.333 0 0 0 0-14.666zM206.667 263a9.332 9.332 0 0 1 9.333-9.333 9.332 9.332 0 0 1 9.333 9.333 9.332 9.332 0 0 1-9.333 9.333 9.332 9.332 0 0 1-9.333-9.333z" fill="#CBD5E0"></path><path fill-rule="evenodd" clip-rule="evenodd" d="M216 258.667a1 1 0 0 1 1 1v6.666a1 1 0 1 1-2 0v-6.666a1 1 0 0 1 1-1z" fill="#CBD5E0"></path><path fill-rule="evenodd" clip-rule="evenodd" d="M211.667 263a1 1 0 0 1 1-1h6.666a1 1 0 1 1 0 2h-6.666a1 1 0 0 1-1-1zm75.5-1.5a.666.666 0 0 0-.667.667v7.5c0 .368.298.666.667.666h7.5a.666.666 0 0 0 .666-.666v-7.5a.666.666 0 0 0-.666-.667h-7.5zm-2.667.667a2.667 2.667 0 0 1 2.667-2.667h7.5a2.667 2.667 0 0 1 2.666 2.667v7.5a2.667 2.667 0 0 1-2.666 2.666h-7.5a2.667 2.667 0 0 1-2.667-2.666v-7.5z" fill="#CBD5E0"></path><path fill-rule="evenodd" clip-rule="evenodd" d="M281.333 255.667a.667.667 0 0 0-.666.666v7.5a.668.668 0 0 0 .666.667h.834a1 1 0 0 1 0 2h-.834a2.666 2.666 0 0 1-2.666-2.667v-7.5a2.666 2.666 0 0 1 2.666-2.666h7.5a2.666 2.666 0 0 1 2.667 2.666v.834a1 1 0 0 1-2 0v-.834a.667.667 0 0 0-.667-.666h-7.5zm40.167-.334c.265 0 .52.106.707.293l4.167 4.167a1 1 0 0 1-1.414 1.414l-3.46-3.46-3.46 3.46a.999.999 0 1 1-1.414-1.414l4.167-4.167c.187-.187.442-.293.707-.293z" fill="#CBD5E0"></path><path fill-rule="evenodd" clip-rule="evenodd" d="M321.5 255.333a1 1 0 0 1 1 1v10a2.334 2.334 0 0 0 2.333 2.334h5.834a1 1 0 1 1 0 2h-5.834a4.333 4.333 0 0 1-4.333-4.334v-10a1 1 0 0 1 1-1zm36.126 9.46a.999.999 0 0 1 1.414 0l3.46 3.459 3.46-3.459a.999.999 0 1 1 1.414 1.414l-4.167 4.167a1 1 0 0 1-1.414 0l-4.167-4.167a1 1 0 0 1 0-1.414z" fill="#CBD5E0"></path><path fill-rule="evenodd" clip-rule="evenodd" d="M352.333 256.333a1 1 0 0 1 1-1h5.834a4.337 4.337 0 0 1 4.333 4.334v10a1 1 0 0 1-2 0v-10a2.334 2.334 0 0 0-2.333-2.334h-5.834a1 1 0 0 1-1-1zm43.667-.666a7.333 7.333 0 1 0 0 14.666 7.333 7.333 0 0 0 0-14.666zM386.667 263a9.332 9.332 0 0 1 9.333-9.333 9.332 9.332 0 0 1 9.333 9.333 9.332 9.332 0 0 1-9.333 9.333 9.332 9.332 0 0 1-9.333-9.333z" fill="#CBD5E0"></path><path fill-rule="evenodd" clip-rule="evenodd" d="M399.207 259.793a.999.999 0 0 1 0 1.414l-5 5a.999.999 0 1 1-1.414-1.414l5-5a.999.999 0 0 1 1.414 0z" fill="#CBD5E0"></path><path fill-rule="evenodd" clip-rule="evenodd" d="M392.793 259.793a.999.999 0 0 1 1.414 0l5 5a.999.999 0 1 1-1.414 1.414l-5-5a.999.999 0 0 1 0-1.414z" fill="#CBD5E0"></path><path fill-rule="evenodd" clip-rule="evenodd" d="M58.985 256.297a7.334 7.334 0 1 0 4.348 6.702v-.766a1 1 0 0 1 2 0V263a9.335 9.335 0 0 1-12.567 8.75 9.328 9.328 0 0 1-6.08-9.369A9.334 9.334 0 0 1 59.8 254.47a1 1 0 0 1-.814 1.827z" fill="#00CC92"></path><path fill-rule="evenodd" clip-rule="evenodd" d="M65.04 255.626a1 1 0 0 1 0 1.414l-8.333 8.342a1.002 1.002 0 0 1-1.414 0l-2.5-2.5a1 1 0 1 1 1.414-1.414L56 263.26l7.626-7.634a1 1 0 0 1 1.414 0z" fill="#00CC92"></path><path d="M78.758 267v-8.727h3.444c.662 0 1.225.126 1.692.379.465.25.82.598 1.065 1.044.247.443.37.954.37 1.534 0 .58-.124 1.091-.374 1.534-.25.443-.613.788-1.087 1.036-.472.247-1.043.37-1.713.37H79.96v-1.478h1.897c.355 0 .647-.061.877-.184.233-.125.407-.296.52-.515a1.61 1.61 0 0 0 .175-.763c0-.29-.058-.543-.175-.758a1.171 1.171 0 0 0-.52-.508c-.233-.122-.528-.183-.886-.183h-1.244V267h-1.846zm8.767 0h-1.978l3.013-8.727h2.378L93.946 267H91.97l-2.186-6.733h-.068L87.525 267zm-.124-3.43h4.67v1.44h-4.67v-1.44zm12.631-2.787a1.08 1.08 0 0 0-.439-.802c-.258-.19-.61-.285-1.053-.285-.3 0-.555.043-.762.128a1.068 1.068 0 0 0-.478.345.831.831 0 0 0-.162.503.72.72 0 0 0 .099.409c.073.116.174.217.302.302.128.083.276.155.443.218.168.059.347.111.537.153l.784.188c.38.085.73.199 1.049.341.318.142.593.316.826.524.233.207.414.451.541.733.131.281.198.603.201.967-.003.534-.139.997-.409 1.389-.267.389-.654.692-1.159.908-.503.213-1.11.319-1.82.319-.705 0-1.318-.107-1.841-.323a2.7 2.7 0 0 1-1.219-.959c-.29-.426-.441-.953-.456-1.581h1.786c.02.292.103.537.251.733.15.193.351.339.601.439a2.4 2.4 0 0 0 .857.145c.312 0 .584-.046.814-.137.233-.091.413-.217.54-.379a.876.876 0 0 0 .193-.558.728.728 0 0 0-.175-.495 1.32 1.32 0 0 0-.503-.34 5.12 5.12 0 0 0-.805-.256l-.95-.239c-.737-.179-1.317-.459-1.744-.839-.426-.381-.637-.894-.635-1.539-.002-.528.138-.99.422-1.385.287-.394.68-.703 1.18-.924.5-.222 1.069-.333 1.705-.333.648 0 1.213.111 1.696.333.486.221.864.53 1.134.924.27.395.409.853.417 1.373h-1.768zm8.363 0a1.08 1.08 0 0 0-.439-.802c-.258-.19-.609-.285-1.052-.285-.301 0-.556.043-.763.128a1.065 1.065 0 0 0-.477.345.83.83 0 0 0-.162.503.717.717 0 0 0 .098.409c.074.116.174.217.302.302.128.083.276.155.444.218.167.059.346.111.536.153l.785.188c.38.085.73.199 1.048.341.318.142.594.316.827.524.232.207.413.451.541.733.13.281.197.603.2.967-.003.534-.139.997-.409 1.389-.267.389-.653.692-1.159.908-.503.213-1.11.319-1.82.319-.704 0-1.318-.107-1.841-.323a2.693 2.693 0 0 1-1.218-.959c-.29-.426-.442-.953-.456-1.581h1.785c.02.292.104.537.252.733.15.193.35.339.6.439.253.096.539.145.857.145.312 0 .584-.046.814-.137.233-.091.413-.217.541-.379a.875.875 0 0 0 .192-.558.726.726 0 0 0-.175-.495 1.321 1.321 0 0 0-.503-.34 5.124 5.124 0 0 0-.805-.256l-.95-.239c-.736-.179-1.317-.459-1.743-.839-.426-.381-.638-.894-.635-1.539-.003-.528.138-.99.422-1.385.287-.394.68-.703 1.18-.924.5-.222 1.068-.333 1.705-.333.647 0 1.213.111 1.696.333.485.221.863.53 1.133.924.27.395.409.853.418 1.373h-1.769zm5.474-2.51V267h-1.845v-8.727h1.845zm9.318 0V267h-1.594l-3.796-5.493h-.064V267h-1.846v-8.727h1.62l3.767 5.488h.076v-5.488h1.837zm7.812 2.821a1.915 1.915 0 0 0-.252-.55 1.707 1.707 0 0 0-.925-.669 2.22 2.22 0 0 0-.652-.09c-.446 0-.838.111-1.176.333-.335.221-.596.544-.784.967-.187.421-.281.935-.281 1.543 0 .608.092 1.125.277 1.551.185.426.446.751.784.976.338.221.737.332 1.197.332.418 0 .775-.074 1.07-.221.298-.151.526-.363.682-.635a1.89 1.89 0 0 0 .239-.968l.375.056h-2.25v-1.39h3.652v1.1c0 .767-.162 1.426-.486 1.977-.324.548-.77.972-1.338 1.27-.569.296-1.219.443-1.952.443-.818 0-1.537-.18-2.156-.541a3.748 3.748 0 0 1-1.449-1.547c-.344-.67-.516-1.466-.516-2.386 0-.708.103-1.338.307-1.892a4.035 4.035 0 0 1 .869-1.415c.373-.386.806-.68 1.3-.882a4.206 4.206 0 0 1 1.607-.303c.494 0 .954.073 1.38.218.426.142.804.343 1.134.605.332.261.604.572.814.933.21.358.345.753.405 1.185h-1.875z" fill="#00CC92"></path><g filter="url(#codeless-test-editor_svg__b)" fill="none"><rect x="70" y="168" width="144" height="286" rx="6" fill="#2D3748"></rect></g><path fill="#4A5568" d="M70 204h144v2H70z"></path><rect x="86" y="181" width="84" height="10" rx="5" fill="#4A5568"></rect><path d="M195.057 189.859c-.048-.047-.254-.225-.424-.391-1.07-.971-2.82-3.503-3.354-4.829-.086-.201-.267-.71-.279-.982 0-.261.06-.509.182-.746a1.56 1.56 0 0 1 .753-.663c.219-.084.875-.213.887-.213.717-.13 1.883-.202 3.171-.202 1.228 0 2.346.072 3.074.178.012.012.827.142 1.106.284.51.261.827.77.827 1.315v.047c-.012.354-.329 1.1-.341 1.1-.535 1.255-2.199 3.729-3.305 4.724 0 0-.284.28-.462.401-.255.19-.57.285-.886.285-.353 0-.681-.107-.949-.308z" fill="#4A5568"></path><rect x="86" y="308" width="112" height="10" rx="5" fill="#4A5568"></rect><rect x="86" y="256" width="112" height="10" rx="5" fill="#FFFFFF"></rect><rect x="86" y="282" width="84" height="10" rx="5" fill="#4A5568"></rect><rect x="86" y="334" width="84" height="10" rx="5" fill="#4A5568"></rect><path d="M94.778 230.636c0 .952-.18 1.762-.54 2.429a3.75 3.75 0 0 1-1.467 1.53c-.616.35-1.31.524-2.08.524-.775 0-1.47-.176-2.087-.528-.617-.352-1.104-.862-1.462-1.53-.358-.668-.537-1.476-.537-2.425 0-.951.18-1.761.537-2.429.358-.667.845-1.176 1.462-1.525.616-.353 1.312-.529 2.088-.529.77 0 1.463.176 2.08.529.619.349 1.107.858 1.465 1.525.361.668.541 1.478.541 2.429zm-1.87 0c0-.616-.093-1.136-.277-1.559-.182-.424-.44-.745-.772-.963a2.074 2.074 0 0 0-1.167-.329c-.446 0-.835.11-1.168.329-.332.218-.59.539-.775.963-.182.423-.273.943-.273 1.559 0 .617.09 1.137.273 1.56.184.423.443.744.775.963.332.219.722.328 1.168.328.446 0 .835-.109 1.167-.328.333-.219.59-.54.772-.963.184-.423.277-.943.277-1.56zM96.645 235v-8.727h3.443c.662 0 1.226.126 1.692.379.466.25.821.598 1.066 1.044.247.443.37.954.37 1.534 0 .58-.125 1.091-.375 1.534-.25.443-.612.788-1.086 1.036-.472.247-1.043.37-1.713.37h-2.195v-1.478h1.896c.355 0 .648-.061.878-.184.233-.125.406-.296.52-.515.116-.222.175-.476.175-.763 0-.29-.059-.543-.175-.758a1.173 1.173 0 0 0-.52-.508c-.233-.122-.528-.183-.886-.183H98.49V235h-1.845zm8.27 0v-8.727h5.88v1.521h-4.035v2.079h3.733v1.522h-3.733v2.084h4.052V235h-5.897zm7.847 0v-8.727h3.444c.659 0 1.221.118 1.687.353.469.233.825.564 1.07.993.247.426.37.928.37 1.504 0 .58-.125 1.079-.375 1.496-.25.415-.612.733-1.086.955-.472.221-1.043.332-1.713.332h-2.306v-1.483h2.007c.353 0 .645-.048.878-.145.233-.096.407-.241.52-.434.117-.194.175-.434.175-.721 0-.289-.058-.534-.175-.732a1.066 1.066 0 0 0-.524-.452c-.233-.105-.527-.158-.882-.158h-1.244V235h-1.846zm4.713-3.972 2.17 3.972h-2.037l-2.123-3.972h1.99zm5.167 3.972h-1.978l3.013-8.727h2.378l3.009 8.727h-1.978l-2.186-6.733h-.068l-2.19 6.733zm-.124-3.43h4.671v1.44h-4.671v-1.44zm6.685-3.776v-1.521h7.168v1.521h-2.672V235h-1.824v-7.206h-2.672zm10.694-1.521V235h-1.846v-8.727h1.846zm10.038 4.363c0 .952-.181 1.762-.542 2.429-.358.668-.846 1.178-1.465 1.53-.617.35-1.31.524-2.08.524-.776 0-1.472-.176-2.088-.528-.617-.352-1.104-.862-1.462-1.53-.358-.668-.537-1.476-.537-2.425 0-.951.179-1.761.537-2.429.358-.667.845-1.176 1.462-1.525.616-.353 1.312-.529 2.088-.529.77 0 1.463.176 2.08.529.619.349 1.107.858 1.465 1.525.361.668.542 1.478.542 2.429zm-1.871 0c0-.616-.092-1.136-.277-1.559-.182-.424-.439-.745-.771-.963a2.076 2.076 0 0 0-1.168-.329c-.446 0-.835.11-1.168.329-.332.218-.591.539-.775.963-.182.423-.273.943-.273 1.559 0 .617.091 1.137.273 1.56.184.423.443.744.775.963.333.219.722.328 1.168.328.446 0 .835-.109 1.168-.328.332-.219.589-.54.771-.963.185-.423.277-.943.277-1.56zm11.037-4.363V235h-1.594l-3.796-5.493h-.064V235h-1.846v-8.727h1.62l3.767 5.488h.077v-5.488h1.836zm6.759 2.51a1.08 1.08 0 0 0-.439-.802c-.258-.19-.609-.285-1.052-.285-.302 0-.556.043-.763.128a1.06 1.06 0 0 0-.477.345.83.83 0 0 0-.162.503.717.717 0 0 0 .098.409c.073.116.174.217.302.302.128.083.276.155.443.218.168.059.347.111.537.153l.784.188c.381.085.73.199 1.049.341.318.142.593.316.826.524.233.207.414.451.542.733.13.281.197.603.2.967-.003.534-.139.997-.409 1.389-.267.389-.654.692-1.159.908-.503.213-1.11.319-1.82.319-.704 0-1.318-.107-1.841-.323a2.701 2.701 0 0 1-1.219-.959c-.289-.426-.441-.953-.456-1.581h1.786c.02.292.104.537.251.733.151.193.351.339.601.439.253.096.539.145.857.145.312 0 .584-.046.814-.137.233-.091.413-.217.541-.379a.875.875 0 0 0 .192-.558.73.73 0 0 0-.175-.495 1.321 1.321 0 0 0-.503-.34 5.124 5.124 0 0 0-.805-.256l-.951-.239c-.735-.179-1.316-.459-1.742-.839-.427-.381-.638-.894-.635-1.539-.003-.528.137-.99.421-1.385.287-.394.681-.703 1.181-.924.5-.222 1.068-.333 1.704-.333.648 0 1.213.111 1.696.333.486.221.864.53 1.134.924.27.395.409.853.418 1.373h-1.769z" fill="#718096"></path><rect x="86" y="402" width="112" height="10" rx="5" fill="#4A5568"></rect><rect x="86" y="428" width="84" height="10" rx="5" fill="#4A5568"></rect><path d="M94.058 372.273V381h-1.594l-3.796-5.493h-.064V381h-1.846v-8.727h1.62l3.767 5.488h.077v-5.488h1.836zM97.587 381H95.61l3.013-8.727H101l3.009 8.727h-1.977l-2.186-6.733h-.069L97.587 381zm-.124-3.43h4.671v1.44h-4.67v-1.44zm8.595-5.297 2.109 6.63h.081l2.114-6.63h2.045L109.399 381h-2.378l-3.013-8.727h2.05zm9.745 0V381h-1.845v-8.727h1.845zm7.805 2.821a1.94 1.94 0 0 0-.251-.55 1.691 1.691 0 0 0-.925-.669 2.224 2.224 0 0 0-.652-.09c-.446 0-.838.111-1.176.333-.336.221-.597.544-.784.967-.188.421-.282.935-.282 1.543 0 .608.093 1.125.277 1.551.185.426.446.751.784.976.338.221.738.332 1.198.332.417 0 .774-.074 1.069-.221a1.59 1.59 0 0 0 .682-.635 1.89 1.89 0 0 0 .239-.968l.375.056h-2.25v-1.39h3.652v1.1c0 .767-.162 1.426-.486 1.977-.324.548-.77.972-1.338 1.27-.568.296-1.219.443-1.952.443-.818 0-1.537-.18-2.156-.541a3.761 3.761 0 0 1-1.449-1.547c-.344-.67-.515-1.466-.515-2.386 0-.708.102-1.338.306-1.892a4.052 4.052 0 0 1 .87-1.415c.372-.386.805-.68 1.299-.882a4.21 4.21 0 0 1 1.607-.303c.494 0 .955.073 1.381.218.426.142.804.343 1.133.605.333.261.604.572.814.933.21.358.345.753.405 1.185h-1.875zm5.077 5.906h-1.978l3.013-8.727h2.378l3.009 8.727h-1.978l-2.186-6.733h-.068l-2.19 6.733zm-.124-3.43h4.671v1.44h-4.671v-1.44zm6.685-3.776v-1.521h7.168v1.521h-2.672V381h-1.824v-7.206h-2.672zm10.694-1.521V381h-1.846v-8.727h1.846zm10.038 4.363c0 .952-.181 1.762-.542 2.429-.358.668-.846 1.178-1.465 1.53-.617.35-1.31.524-2.08.524-.776 0-1.472-.176-2.088-.528-.617-.352-1.104-.862-1.462-1.53-.358-.668-.537-1.476-.537-2.425 0-.951.179-1.761.537-2.429.358-.667.845-1.176 1.462-1.525.616-.353 1.312-.529 2.088-.529.77 0 1.463.176 2.08.529.619.349 1.107.858 1.465 1.525.361.668.542 1.478.542 2.429zm-1.871 0c0-.616-.092-1.136-.277-1.559-.182-.424-.439-.745-.771-.963a2.076 2.076 0 0 0-1.168-.329c-.446 0-.835.11-1.168.329-.332.218-.591.539-.775.963-.182.423-.273.943-.273 1.559 0 .617.091 1.137.273 1.56.184.423.443.744.775.963.333.219.722.328 1.168.328.446 0 .835-.109 1.168-.328.332-.219.589-.54.771-.963.185-.423.277-.943.277-1.56zm11.037-4.363V381h-1.594l-3.796-5.493h-.064V381h-1.846v-8.727h1.62l3.767 5.488h.077v-5.488h1.836zm6.759 2.51a1.08 1.08 0 0 0-.439-.802c-.258-.19-.609-.285-1.052-.285-.302 0-.556.043-.763.128a1.06 1.06 0 0 0-.477.345.83.83 0 0 0-.162.503.717.717 0 0 0 .098.409c.073.116.174.217.302.302.128.083.276.155.443.218.168.059.347.111.537.153l.784.188c.381.085.73.199 1.049.341.318.142.593.316.826.524.233.207.414.451.542.733.13.281.197.603.2.967-.003.534-.139.997-.409 1.389-.267.389-.654.692-1.159.908-.503.213-1.11.319-1.82.319-.704 0-1.318-.107-1.841-.323a2.701 2.701 0 0 1-1.219-.959c-.289-.426-.441-.953-.456-1.581h1.786c.02.292.104.537.251.733.151.193.351.339.601.439.253.096.539.145.857.145.312 0 .584-.046.814-.137.233-.091.413-.217.541-.379a.875.875 0 0 0 .192-.558.73.73 0 0 0-.175-.495 1.321 1.321 0 0 0-.503-.34 5.124 5.124 0 0 0-.805-.256l-.951-.239c-.735-.179-1.316-.459-1.743-.839-.426-.381-.637-.894-.634-1.539-.003-.528.137-.99.421-1.385.287-.394.681-.703 1.181-.924.5-.222 1.068-.333 1.704-.333.648 0 1.213.111 1.696.333.486.221.864.53 1.134.924.27.395.409.853.418 1.373h-1.769z" fill="#718096"></path><g filter="url(#codeless-test-editor_svg__c)" fill="none"><g filter="url(#codeless-test-editor_svg__d)" fill="none"><mask id="codeless-test-editor_svg__e" maskUnits="userSpaceOnUse" x="130" y="260" width="24" height="28" fill="#000"><path fill="#FFFFFF" d="M130 260h24v28h-24z"></path><path fill-rule="evenodd" clip-rule="evenodd" d="m137.415 276.118-1.252-1.913c-.854-1.306-2.675-1.782-4.067-1.066l.324-.167a.807.807 0 0 0-.369.989l1.733 4.482c.274.711.976 1.716 1.557 2.221 0 0 3.486 2.885 3.486 3.967V286h5.647l1.411-2.824 1.412 2.824h1.412v-1.369c0-1.082 2.13-4.489 2.13-4.489.392-.662.719-1.829.719-2.603v-5.696c-.025-1.262-1.097-2.284-2.42-2.284-.662 0-1.198.511-1.198 1.142v.457c0-1.262-1.072-2.284-2.395-2.284-.661 0-1.197.511-1.197 1.142v.456c0-1.261-1.072-2.283-2.395-2.283-.662 0-1.198.511-1.198 1.142v.456c0-.202-.022-.363-.063-.491l-.366-5.883a1.513 1.513 0 0 0-1.499-1.413c-.785 0-1.412.632-1.412 1.411v12.707zm9.908-1.412h1.412v5.647h-1.412v-5.647zm-2.824 0h1.412v5.647h-1.412v-5.647zm-2.823 0h1.412v5.647h-1.412v-5.647z"></path></mask><path fill-rule="evenodd" clip-rule="evenodd" d="m137.415 276.118-1.252-1.913c-.854-1.306-2.675-1.782-4.067-1.066l.324-.167a.807.807 0 0 0-.369.989l1.733 4.482c.274.711.976 1.716 1.557 2.221 0 0 3.486 2.885 3.486 3.967V286h5.647l1.411-2.824 1.412 2.824h1.412v-1.369c0-1.082 2.13-4.489 2.13-4.489.392-.662.719-1.829.719-2.603v-5.696c-.025-1.262-1.097-2.284-2.42-2.284-.662 0-1.198.511-1.198 1.142v.457c0-1.262-1.072-2.284-2.395-2.284-.661 0-1.197.511-1.197 1.142v.456c0-1.261-1.072-2.283-2.395-2.283-.662 0-1.198.511-1.198 1.142v.456c0-.202-.022-.363-.063-.491l-.366-5.883a1.513 1.513 0 0 0-1.499-1.413c-.785 0-1.412.632-1.412 1.411v12.707zm9.908-1.412h1.412v5.647h-1.412v-5.647zm-2.824 0h1.412v5.647h-1.412v-5.647zm-2.823 0h1.412v5.647h-1.412v-5.647z" fill="#FFFFFF"></path><path d="m137.415 276.118-1.255.821 2.755 4.21v-5.031h-1.5zm-1.252-1.913-1.255.822 1.255-.822zm-4.112-.244 1.399-.541-1.399.541zm1.733 4.482 1.399-.54-1.399.54zm1.557 2.221-.984 1.132.014.012.014.012.956-1.156zm3.486 5.336h-1.5v1.5h1.5V286zm5.647 0v1.5h.927l.414-.829-1.341-.671zm1.411-2.824 1.342-.67-1.342-2.684-1.341 2.684 1.341.67zm1.412 2.824-1.341.671.414.829h.927V286zm1.412 0v1.5h1.5V286h-1.5zm2.13-5.858 1.272.795.01-.015.009-.016-1.291-.764zm.719-8.299h1.5v-.031l-1.5.031zm-10.866-2.547-1.498.093.012.192.06.182 1.426-.467zm-.366-5.883-1.497.093 1.497-.093zm6.997 11.293v-1.5h-1.5v1.5h1.5zm1.412 0h1.5v-1.5h-1.5v1.5zm0 5.647v1.5h1.5v-1.5h-1.5zm-1.412 0h-1.5v1.5h1.5v-1.5zm-2.824-5.647v-1.5h-1.5v1.5h1.5zm1.412 0h1.5v-1.5h-1.5v1.5zm0 5.647v1.5h1.5v-1.5h-1.5zm-1.412 0h-1.5v1.5h1.5v-1.5zm-2.823-5.647v-1.5h-1.5v1.5h1.5zm1.412 0h1.5v-1.5h-1.5v1.5zm0 5.647v1.5h1.5v-1.5h-1.5zm-1.412 0h-1.5v1.5h1.5v-1.5zm-3.006-5.057-1.252-1.912-2.51 1.643 1.252 1.912 2.51-1.643zm-1.252-1.912c-1.278-1.953-3.938-2.644-6.008-1.579l1.371 2.668c.715-.367 1.696-.105 2.127.554l2.51-1.643zm-4.637 1.089.325-.167-1.372-2.668-.324.167 1.371 2.668zm-1.047-2.835c-1.042.536-1.495 1.795-1.082 2.863l2.798-1.081a.701.701 0 0 1 .008.5.725.725 0 0 1-.352.386l-1.372-2.668zm-1.082 2.863 1.732 4.483 2.799-1.081-1.733-4.483-2.798 1.081zm1.732 4.483c.362.937 1.206 2.145 1.973 2.812l1.968-2.265c-.395-.342-.955-1.143-1.142-1.628l-2.799 1.081zm2.957 1.68-.956 1.155h-.001l.002.001.005.005.026.021.102.087a28.542 28.542 0 0 1 1.513 1.378c.417.41.797.817 1.063 1.161.134.173.213.297.252.372.055.105-.02.011-.02-.213h3c0-.495-.185-.916-.321-1.176a5.55 5.55 0 0 0-.537-.818 15.25 15.25 0 0 0-1.334-1.465 31.045 31.045 0 0 0-1.824-1.652l-.009-.008-.003-.002-.001-.001-.957 1.155zm1.986 3.967V286h3v-1.369h-3zm1.5 2.869h5.647v-3h-5.647v3zm6.988-.829 1.412-2.824-2.683-1.341-1.412 2.823 2.683 1.342zm-1.271-2.824 1.412 2.824 2.683-1.342-1.412-2.823-2.683 1.341zm2.753 3.653h1.412v-3h-1.412v3zm2.912-1.5v-1.369h-3V286h3zm0-1.369c0 .07.008-.087.214-.573.174-.41.415-.89.671-1.365.254-.47.509-.911.702-1.236.096-.162.176-.293.231-.384l.064-.103a.513.513 0 0 1 .016-.026l.003-.006.001-.001-1.272-.795-1.272-.795-.001.001-.001.003a.068.068 0 0 1-.006.009l-.019.031-.072.117a37.793 37.793 0 0 0-1.014 1.76 20.203 20.203 0 0 0-.793 1.62c-.194.457-.452 1.131-.452 1.743h3zm1.921-3.725c.284-.48.508-1.071.661-1.623.153-.55.267-1.177.267-1.744h-3c0 .207-.049.551-.158.943a3.964 3.964 0 0 1-.352.896l2.582 1.528zm.928-3.367v-5.696h-3v5.696h3zm0-5.727c-.043-2.126-1.83-3.753-3.92-3.753v3c.555 0 .912.417.92.814l3-.061zm-3.92-3.753c-1.422 0-2.698 1.116-2.698 2.642h3c0 .264-.204.358-.302.358v-3zm-2.698 2.642v.457h3v-.457h-3zm3 .457c0-2.157-1.812-3.784-3.895-3.784v3c.563 0 .895.417.895.784h3zm-3.895-3.784c-1.422 0-2.697 1.116-2.697 2.642h3c0 .264-.204.358-.303.358v-3zm-2.697 2.642v.456h3v-.456h-3zm3 .456c0-2.156-1.812-3.783-3.895-3.783v3c.562 0 .895.417.895.783h3zm-3.895-3.783c-1.422 0-2.698 1.116-2.698 2.642h3c0 .264-.204.358-.302.358v-3zm-2.698 2.642v.456h3v-.456h-3zm3 .456c0-.298-.03-.63-.138-.958l-2.851.934a.545.545 0 0 1-.012-.045l-.002-.01.002.023.001.056h3zm-.066-.584-.366-5.882-2.994.185.365 5.883 2.995-.186zm-.366-5.882a3.013 3.013 0 0 0-2.996-2.821v3l-.006-.001h-.002l.002.001.004.003.004.005.001.001-.001-.001v-.002l2.994-.185zm-2.996-2.821a2.908 2.908 0 0 0-2.912 2.911h3a.092.092 0 0 1-.088.089v-3zm-2.912 2.911v5.648h3v-5.648h-3zm0 5.648v7.059h3v-7.059h-3zm11.408 7.147h1.412v-3h-1.412v3zm-.088-1.5v5.647h3v-5.647h-3zm1.5 4.147h-1.412v3h1.412v-3zm.088 1.5v-5.647h-3v5.647h3zm-4.324-4.147h1.412v-3h-1.412v3zm-.088-1.5v5.647h3v-5.647h-3zm1.5 4.147h-1.412v3h1.412v-3zm.088 1.5v-5.647h-3v5.647h3zm-4.323-4.147h1.412v-3h-1.412v3zm-.088-1.5v5.647h3v-5.647h-3zm1.5 4.147h-1.412v3h1.412v-3zm.088 1.5v-5.647h-3v5.647h3z" fill="#000" mask="url(#codeless-test-editor_svg__e)"></path></g></g><defs><filter id="codeless-test-editor_svg__a" x="2" y="6" width="448" height="476" filterUnits="userSpaceOnUse" color-interpolation-filters="sRGB"><feFlood flood-opacity="0" result="BackgroundImageFix"></feFlood><feColorMatrix in="SourceAlpha" values="0 0 0 0 0 0 0 0 0 0 0 0 0 0 0 0 0 0 127 0"></feColorMatrix><feOffset dy="4"></feOffset><feGaussianBlur stdDeviation="4"></feGaussianBlur><feColorMatrix values="0 0 0 0 0.290196 0 0 0 0 0.333333 0 0 0 0 0.407843 0 0 0 0.07 0"></feColorMatrix><feBlend in2="BackgroundImageFix" result="effect1_dropShadow"></feBlend><feBlend in="SourceGraphic" in2="effect1_dropShadow" result="shape"></feBlend></filter><filter id="codeless-test-editor_svg__b" x="58" y="162" width="168" height="310" filterUnits="userSpaceOnUse" color-interpolation-filters="sRGB"><feFlood flood-opacity="0" result="BackgroundImageFix"></feFlood><feColorMatrix in="SourceAlpha" values="0 0 0 0 0 0 0 0 0 0 0 0 0 0 0 0 0 0 127 0"></feColorMatrix><feOffset dy="6"></feOffset><feGaussianBlur stdDeviation="6"></feGaussianBlur><feColorMatrix values="0 0 0 0 0.290196 0 0 0 0 0.333333 0 0 0 0 0.407843 0 0 0 0.07 0"></feColorMatrix><feBlend in2="BackgroundImageFix" result="effect1_dropShadow"></feBlend><feBlend in="SourceGraphic" in2="effect1_dropShadow" result="shape"></feBlend></filter><filter id="codeless-test-editor_svg__c" x="122.5" y="256.5" width="38.558" height="43" filterUnits="userSpaceOnUse" color-interpolation-filters="sRGB"><feFlood flood-opacity="0" result="BackgroundImageFix"></feFlood><feColorMatrix in="SourceAlpha" values="0 0 0 0 0 0 0 0 0 0 0 0 0 0 0 0 0 0 127 0"></feColorMatrix><feOffset dy="4"></feOffset><feGaussianBlur stdDeviation="4"></feGaussianBlur><feColorMatrix values="0 0 0 0 0.290196 0 0 0 0 0.333333 0 0 0 0 0.407843 0 0 0 0.07 0"></feColorMatrix><feBlend in2="BackgroundImageFix" result="effect1_dropShadow"></feBlend><feBlend in="SourceGraphic" in2="effect1_dropShadow" result="shape"></feBlend></filter><filter id="codeless-test-editor_svg__d" x="127.5" y="258.5" width="28.558" height="33" filterUnits="userSpaceOnUse" color-interpolation-filters="sRGB"><feFlood flood-opacity="0" result="BackgroundImageFix"></feFlood><feColorMatrix in="SourceAlpha" values="0 0 0 0 0 0 0 0 0 0 0 0 0 0 0 0 0 0 127 0"></feColorMatrix><feOffset dy="1"></feOffset><feGaussianBlur stdDeviation="1.5"></feGaussianBlur><feColorMatrix values="0 0 0 0 0 0 0 0 0 0 0 0 0 0 0 0 0 0 0.2 0"></feColorMatrix><feBlend in2="BackgroundImageFix" result="effect1_dropShadow"></feBlend><feBlend in="SourceGraphic" in2="effect1_dropShadow" result="shape"></feBlend></filter></defs></svg>