<svg xmlns:xlink="http://www.w3.org/1999/xlink" viewBox="0 0 432 490" fill="none" xmlns="http://www.w3.org/2000/svg" width="432" height="490"><g clip-path="url(#schedule-test_svg__a)" fill="none"><path d="M44.704 42.105a2.76 2.76 0 0 1-1.5-3.331c.03-.098.052-.203.06-.308a1.373 1.373 0 0 0-1.291-1.463c-.465-.03-.915.18-1.193.548-.06.082-.113.172-.15.27a2.76 2.76 0 0 1-3.332 1.5 1.396 1.396 0 0 0-.307-.06 1.373 1.373 0 0 0-1.463 1.29c-.03.466.18.916.547 1.194.083.06.173.112.27.15a2.76 2.76 0 0 1 1.501 3.331c-.03.098-.052.203-.06.308a1.373 1.373 0 0 0 1.29 1.463c.466.03.916-.18 1.194-.548.06-.082.112-.172.15-.27a2.76 2.76 0 0 1 3.331-1.5c.098.03.203.052.308.06a1.373 1.373 0 0 0 1.463-1.29 1.39 1.39 0 0 0-.548-1.194 1.183 1.183 0 0 0-.27-.15zm-35.524 294a2.759 2.759 0 0 1-1.501-3.331c.03-.098.052-.203.06-.308a1.373 1.373 0 0 0-1.29-1.463 1.39 1.39 0 0 0-1.194.548c-.06.082-.112.172-.15.27a2.759 2.759 0 0 1-3.331 1.5 1.426 1.426 0 0 0-.308-.06 1.374 1.374 0 0 0-1.463 1.291c-.03.465.18.915.548 1.193.082.06.172.112.27.15a2.759 2.759 0 0 1 1.5 3.331c-.03.098-.052.203-.06.308a1.373 1.373 0 0 0 1.29 1.463c.466.03.916-.18 1.194-.548.06-.082.112-.172.15-.27a2.759 2.759 0 0 1 3.331-1.5c.098.03.203.052.308.06a1.374 1.374 0 0 0 1.463-1.291 1.39 1.39 0 0 0-.548-1.193 1.205 1.205 0 0 0-.27-.15zm24 59a2.759 2.759 0 0 1-1.501-3.331c.03-.098.052-.203.06-.308a1.373 1.373 0 0 0-1.29-1.463 1.39 1.39 0 0 0-1.194.548c-.06.082-.112.172-.15.27a2.759 2.759 0 0 1-3.331 1.5 1.426 1.426 0 0 0-.308-.06 1.374 1.374 0 0 0-1.463 1.291c-.03.465.18.915.548 1.193.082.06.172.112.27.15a2.759 2.759 0 0 1 1.5 3.331c-.03.098-.052.203-.06.308a1.373 1.373 0 0 0 1.29 1.463c.466.03.916-.18 1.194-.548.06-.082.112-.172.15-.27a2.759 2.759 0 0 1 3.331-1.5c.098.03.203.052.308.06a1.374 1.374 0 0 0 1.463-1.291 1.39 1.39 0 0 0-.548-1.193 1.203 1.203 0 0 0-.27-.15zM18.339 87.19a5.47 5.47 0 0 1-3.046-6.642 2.55 2.55 0 0 0 .12-.608 2.749 2.749 0 0 0-2.537-2.932 2.736 2.736 0 0 0-2.713 1.653 5.468 5.468 0 0 1-6.615 3.046 2.571 2.571 0 0 0-.608-.12 2.749 2.749 0 0 0-2.932 2.537 2.736 2.736 0 0 0 1.653 2.714 5.468 5.468 0 0 1 3.046 6.614 2.574 2.574 0 0 0-.12.608 2.749 2.749 0 0 0 2.537 2.932 2.736 2.736 0 0 0 2.713-1.653 5.468 5.468 0 0 1 6.615-3.046c.198.064.403.106.608.12a2.749 2.749 0 0 0 2.932-2.537 2.736 2.736 0 0 0-1.116-2.41 2.57 2.57 0 0 0-.537-.275zm410.459 105.256a5.375 5.375 0 0 1-6.174-3.6 2.285 2.285 0 0 0-.242-.555 2.687 2.687 0 0 0-3.698-.895 2.7 2.7 0 0 0-1.29 2.206c-.007.201.014.402.055.603a5.372 5.372 0 0 1-3.6 6.174 2.363 2.363 0 0 0-.555.243 2.686 2.686 0 0 0-.895 3.697 2.702 2.702 0 0 0 2.206 1.291c.201.007.403-.014.604-.056a5.374 5.374 0 0 1 6.174 3.6c.055.195.138.382.242.555a2.687 2.687 0 0 0 3.698.895 2.7 2.7 0 0 0 1.29-2.206 2.566 2.566 0 0 0-.055-.603 5.373 5.373 0 0 1 3.6-6.174c.194-.056.381-.139.555-.243a2.686 2.686 0 0 0 .895-3.697 2.7 2.7 0 0 0-2.206-1.291 2.575 2.575 0 0 0-.604.056zm-34.969 56.659a2.758 2.758 0 0 1-1.5-3.331c.03-.098.052-.203.06-.308a1.373 1.373 0 0 0-1.291-1.463c-.465-.03-.915.18-1.193.548-.06.082-.112.172-.15.27a2.758 2.758 0 0 1-3.331 1.5 1.435 1.435 0 0 0-.308-.06 1.374 1.374 0 0 0-1.463 1.291c-.03.465.18.915.548 1.193.082.06.172.112.27.15a2.758 2.758 0 0 1 1.5 3.331c-.03.098-.052.203-.06.308a1.374 1.374 0 0 0 1.291 1.463c.465.03.915-.18 1.193-.548.06-.082.112-.172.15-.27a2.758 2.758 0 0 1 3.331-1.5c.098.03.203.052.308.06a1.374 1.374 0 0 0 1.463-1.291c.03-.465-.18-.915-.548-1.193a1.183 1.183 0 0 0-.27-.15z" fill="#B3FFE9"></path><g opacity="0.2" filter="url(#schedule-test_svg__b)" fill="none"><rect x="72" y="18" width="288" height="456" rx="16" fill="#718096"></rect></g><rect x="62" y="8" width="308" height="456" rx="16" fill="#FFFFFF"></rect><rect opacity="0.5" x="86" y="110" width="260" height="330" rx="6" fill="#F2FFFB"></rect><path fill="#FFFFFF" d="M86 222h260v38H86z"></path><path opacity="0.5" fill="#00CC92" d="M86 222h260v38H86z"></path><path fill-rule="evenodd" clip-rule="evenodd" d="M322 235.083a5.917 5.917 0 1 0 0 11.834 5.917 5.917 0 0 0 0-11.834zM314.583 241a7.417 7.417 0 1 1 14.835 0 7.417 7.417 0 0 1-14.835 0z" fill="#007A58"></path><path fill-rule="evenodd" clip-rule="evenodd" d="M322 236.25a.75.75 0 0 1 .75.75v3.536l2.252 1.127a.75.75 0 0 1-.671 1.341l-2.666-1.333a.75.75 0 0 1-.415-.671v-4a.75.75 0 0 1 .75-.75z" fill="#007A58"></path><path d="M118.033 130.273V139h-1.407l-4.112-5.945h-.072V139h-1.581v-8.727h1.415l4.108 5.949h.076v-5.949h1.573zm10.021 4.363c0 .941-.177 1.746-.529 2.416-.349.668-.826 1.179-1.432 1.535-.602.355-1.285.532-2.049.532-.765 0-1.449-.177-2.054-.532-.603-.358-1.08-.871-1.432-1.539-.35-.67-.524-1.474-.524-2.412 0-.94.174-1.744.524-2.412.352-.67.829-1.183 1.432-1.538.605-.355 1.289-.533 2.054-.533.764 0 1.447.178 2.049.533.606.355 1.083.868 1.432 1.538.352.668.529 1.472.529 2.412zm-1.59 0c0-.662-.104-1.22-.311-1.674-.204-.458-.489-.803-.852-1.036a2.259 2.259 0 0 0-1.257-.354c-.475 0-.894.118-1.257.354-.364.233-.65.578-.857 1.036-.204.454-.307 1.012-.307 1.674 0 .662.103 1.222.307 1.679.207.455.493.8.857 1.036.363.233.782.349 1.257.349a2.28 2.28 0 0 0 1.257-.349c.363-.236.648-.581.852-1.036.207-.457.311-1.017.311-1.679zm10.756-4.363V139h-1.406l-4.112-5.945h-.073V139h-1.581v-8.727h1.415l4.108 5.949h.077v-5.949h1.572zm2.223 8.727v-8.727h5.676v1.325h-4.095v2.369h3.801v1.326h-3.801v2.382h4.129V139h-5.71zm-25.625 34h-2.957v-8.727h3.017c.866 0 1.611.174 2.233.524a3.497 3.497 0 0 1 1.44 1.496c.335.65.503 1.429.503 2.335 0 .909-.169 1.69-.507 2.344a3.51 3.51 0 0 1-1.453 1.504c-.631.349-1.389.524-2.276.524zm-1.376-1.368h1.299c.608 0 1.116-.111 1.522-.332.406-.225.711-.559.916-1.002.205-.446.307-1.003.307-1.67 0-.668-.102-1.222-.307-1.662a2.095 2.095 0 0 0-.908-.993c-.397-.222-.892-.332-1.483-.332h-1.346v5.991zm8.266 1.368h-1.687l3.072-8.727h1.952l3.076 8.727h-1.687l-2.331-6.938h-.068L120.708 173zm.056-3.422h4.602v1.27h-4.602v-1.27zm9.588-5.305V173h-1.581v-8.727h1.581zm2.212 8.727v-8.727h1.581v7.402h3.844V173h-5.425zm5.821-8.727h1.786l2.135 3.861h.085l2.135-3.861h1.785l-3.174 5.471V173h-1.577v-3.256l-3.175-5.471zM110.861 207v-8.727h1.581v3.694h4.044v-3.694h1.585V207h-1.585v-3.707h-4.044V207h-1.581zm17.228-4.364c0 .941-.176 1.746-.529 2.416-.349.668-.826 1.179-1.431 1.535-.603.355-1.286.532-2.05.532-.764 0-1.449-.177-2.054-.532-.602-.358-1.08-.871-1.432-1.539-.349-.67-.524-1.474-.524-2.412 0-.94.175-1.744.524-2.412.352-.67.83-1.183 1.432-1.538.605-.355 1.29-.533 2.054-.533.764 0 1.447.178 2.05.533.605.355 1.082.868 1.431 1.538.353.668.529 1.472.529 2.412zm-1.59 0c0-.662-.103-1.22-.311-1.674-.204-.458-.488-.803-.852-1.036a2.259 2.259 0 0 0-1.257-.354c-.475 0-.894.118-1.257.354-.364.233-.649.578-.857 1.036-.204.454-.307 1.012-.307 1.674 0 .662.103 1.222.307 1.679.208.455.493.8.857 1.036.363.233.782.349 1.257.349a2.28 2.28 0 0 0 1.257-.349c.364-.236.648-.581.852-1.036.208-.457.311-1.017.311-1.679zm9.086-4.363h1.581v5.701c0 .625-.148 1.175-.443 1.649a2.996 2.996 0 0 1-1.236 1.113c-.531.264-1.152.396-1.862.396-.713 0-1.336-.132-1.867-.396a2.996 2.996 0 0 1-1.236-1.113c-.292-.474-.439-1.024-.439-1.649v-5.701h1.581v5.569c0 .364.08.688.239.972.162.284.389.507.682.669.292.159.639.239 1.04.239.4 0 .747-.08 1.039-.239.296-.162.523-.385.682-.669.159-.284.239-.608.239-.972v-5.569zm3.799 8.727v-8.727h3.273c.67 0 1.233.116 1.687.349.458.233.803.56 1.036.98.236.418.354.905.354 1.462 0 .559-.12 1.045-.358 1.457a2.37 2.37 0 0 1-1.044.951c-.461.221-1.026.332-1.696.332h-2.331v-1.313h2.118c.392 0 .713-.054.963-.162.25-.11.434-.271.554-.481.122-.213.183-.475.183-.784 0-.31-.061-.574-.183-.793a1.176 1.176 0 0 0-.559-.503c-.25-.116-.572-.174-.967-.174h-1.449V207h-1.581zm4.509-3.955 2.16 3.955h-1.764l-2.122-3.955h1.726zm3.796 3.955v-8.727h1.581v7.402h3.844V207h-5.425zm5.821-8.727h1.786l2.135 3.86h.085l2.135-3.86h1.785l-3.174 5.471V207h-1.577v-3.256l-3.175-5.471z" opacity="0.5" fill="#00523A"></path><path d="M110.861 245v-8.727h5.676v1.325h-4.095v2.369h3.801v1.326h-3.801v2.382h4.129V245h-5.71zm8.956-8.727 2.272 6.869h.089l2.267-6.869h1.739L123.107 245h-1.951l-3.073-8.727h1.734zm8.016 8.727v-8.727h5.677v1.325h-4.096v2.369h3.802v1.326h-3.802v2.382h4.13V245h-5.711zm7.79 0v-8.727h3.272c.671 0 1.233.116 1.688.349.457.233.802.56 1.035.98.236.418.354.905.354 1.462 0 .559-.119 1.045-.358 1.457a2.37 2.37 0 0 1-1.044.951c-.46.221-1.026.332-1.696.332h-2.331v-1.313h2.118c.392 0 .713-.054.963-.162.25-.11.435-.271.554-.481.122-.213.183-.475.183-.784 0-.31-.061-.574-.183-.793a1.17 1.17 0 0 0-.558-.503c-.25-.116-.573-.174-.968-.174h-1.449V245h-1.58zm4.508-3.955 2.161 3.955h-1.765l-2.122-3.955h1.726zm3.2-4.772h1.785l2.135 3.86h.085l2.135-3.86h1.786l-3.175 5.471V245h-1.577v-3.256l-3.174-5.471zm16.069 8.846c-.614 0-1.159-.105-1.636-.315a2.727 2.727 0 0 1-1.125-.878 2.272 2.272 0 0 1-.439-1.3h1.602c.014.236.092.442.234.618a1.4 1.4 0 0 0 .567.405c.236.097.5.145.793.145.312 0 .589-.054.831-.162.241-.111.43-.264.566-.46.137-.196.203-.422.201-.678a1.186 1.186 0 0 0-.205-.699 1.376 1.376 0 0 0-.605-.473c-.261-.113-.577-.17-.946-.17h-.771v-1.219h.771c.304 0 .57-.052.797-.158.23-.105.41-.252.541-.443.131-.193.195-.416.192-.669a1.166 1.166 0 0 0-.166-.643 1.13 1.13 0 0 0-.473-.431 1.56 1.56 0 0 0-.712-.153c-.267 0-.514.048-.742.145-.227.096-.41.234-.549.413a1.054 1.054 0 0 0-.222.631h-1.521a2.21 2.21 0 0 1 .422-1.287 2.712 2.712 0 0 1 1.091-.869 3.586 3.586 0 0 1 1.529-.316c.583 0 1.089.11 1.517.328a2.48 2.48 0 0 1 1.002.874c.236.367.354.771.354 1.215.002.491-.142.903-.435 1.235-.29.333-.671.55-1.142.652v.068c.614.086 1.084.313 1.41.682.33.367.493.823.49 1.368 0 .489-.139.926-.417 1.313-.276.383-.656.684-1.142.903-.483.219-1.037.328-1.662.328zm8.41.047c-.702 0-1.304-.177-1.807-.533-.5-.358-.885-.873-1.155-1.546-.267-.677-.4-1.49-.4-2.442.003-.952.138-1.762.405-2.429.27-.671.654-1.182 1.154-1.534.503-.353 1.104-.529 1.803-.529.699 0 1.3.176 1.803.529.502.352.887.863 1.154 1.534.27.67.405 1.48.405 2.429 0 .954-.135 1.77-.405 2.446-.267.673-.652 1.187-1.154 1.542-.5.356-1.101.533-1.803.533zm0-1.334c.545 0 .976-.268 1.291-.805.318-.54.477-1.334.477-2.382 0-.693-.072-1.276-.217-1.747-.145-.472-.349-.827-.613-1.066a1.348 1.348 0 0 0-.938-.362c-.543 0-.972.27-1.287.81-.315.537-.474 1.325-.477 2.365-.003.696.067 1.281.209 1.755.145.475.349.833.613 1.074.264.239.578.358.942.358zm8.84-7.559h1.935l2.59 6.324h.103l2.591-6.324h1.934V245h-1.517v-5.996h-.081l-2.412 5.97h-1.133l-2.412-5.983h-.081V245h-1.517v-8.727zm12.956 0V245h-1.581v-8.727h1.581zm9.384 0V245h-1.407l-4.112-5.945h-.072V245h-1.581v-8.727h1.415l4.108 5.949h.076v-5.949h1.573zm6.965 2.399a1.165 1.165 0 0 0-.503-.87c-.292-.207-.673-.311-1.142-.311-.329 0-.612.05-.848.15a1.258 1.258 0 0 0-.541.404.987.987 0 0 0-.192.584c0 .182.042.34.124.473.085.134.2.247.345.341.145.091.306.168.482.23.176.063.353.115.532.158l.819.204c.329.077.646.181.95.312.307.13.581.295.822.494.245.199.438.439.58.72.142.281.213.611.213.989 0 .511-.131.961-.392 1.35-.262.387-.639.689-1.134.908-.491.216-1.086.324-1.785.324-.679 0-1.269-.105-1.769-.315-.497-.211-.886-.517-1.167-.921-.279-.403-.429-.895-.452-1.474h1.555c.023.304.117.557.282.758.164.202.379.353.643.452.267.099.565.149.895.149.344 0 .645-.051.903-.153a1.46 1.46 0 0 0 .614-.435c.148-.187.223-.406.226-.656a.84.84 0 0 0-.2-.563 1.483 1.483 0 0 0-.55-.375 5.289 5.289 0 0 0-.818-.272l-.993-.256c-.719-.185-1.287-.465-1.705-.84-.414-.377-.622-.879-.622-1.504 0-.514.139-.964.418-1.351a2.759 2.759 0 0 1 1.146-.899c.483-.216 1.03-.324 1.641-.324.619 0 1.162.108 1.628.324.468.213.836.51 1.103.891.267.378.405.812.414 1.304h-1.522z" fill="#007A58"></path><path d="M110.861 283v-8.727h5.676v1.325h-4.095v2.369h3.801v1.326h-3.801v2.382h4.129V283h-5.71zm8.956-8.727 2.272 6.869h.089l2.267-6.869h1.739L123.107 283h-1.951l-3.073-8.727h1.734zm8.016 8.727v-8.727h5.677v1.325h-4.096v2.369h3.802v1.326h-3.802v2.382h4.13V283h-5.711zm7.79 0v-8.727h3.272c.671 0 1.233.116 1.688.349.457.233.802.56 1.035.98.236.418.354.905.354 1.462 0 .559-.119 1.045-.358 1.457a2.37 2.37 0 0 1-1.044.951c-.46.221-1.026.332-1.696.332h-2.331v-1.313h2.118c.392 0 .713-.054.963-.162.25-.11.435-.271.554-.481.122-.213.183-.475.183-.784 0-.31-.061-.574-.183-.793a1.17 1.17 0 0 0-.558-.503c-.25-.116-.573-.174-.968-.174h-1.449V283h-1.58zm4.508-3.955 2.161 3.955h-1.765l-2.122-3.955h1.726zm3.2-4.772h1.785l2.135 3.86h.085l2.135-3.86h1.786l-3.175 5.471V283h-1.577v-3.256l-3.174-5.471zm16.486 0V283h-1.58v-7.189h-.052l-2.041 1.304v-1.449l2.169-1.393h1.504zm5.75 8.846c-.568 0-1.076-.106-1.525-.319a2.728 2.728 0 0 1-1.07-.887 2.348 2.348 0 0 1-.417-1.287h1.534c.028.358.183.651.464.878.282.225.62.337 1.014.337a1.6 1.6 0 0 0 .827-.213c.242-.142.432-.34.571-.593a1.73 1.73 0 0 0 .205-.865 1.74 1.74 0 0 0-.209-.877 1.562 1.562 0 0 0-.584-.601 1.625 1.625 0 0 0-.852-.222 2.032 2.032 0 0 0-.771.145c-.253.099-.454.23-.601.392l-1.428-.234.456-4.5h5.063v1.321h-3.755l-.251 2.314h.051c.162-.191.391-.348.686-.473a2.42 2.42 0 0 1 .972-.192 2.657 2.657 0 0 1 2.395 1.398c.238.434.358.931.358 1.491 0 .577-.134 1.091-.401 1.543a2.84 2.84 0 0 1-1.104 1.061c-.468.255-1.011.383-1.628.383zm8.622-8.846h1.935l2.591 6.324h.102l2.591-6.324h1.934V283h-1.517v-5.996h-.081l-2.412 5.97h-1.133l-2.412-5.983h-.081V283h-1.517v-8.727zm12.956 0V283h-1.581v-8.727h1.581zm9.384 0V283h-1.406l-4.113-5.945h-.072V283h-1.581v-8.727h1.415l4.108 5.949h.076v-5.949h1.573zm6.965 2.399a1.162 1.162 0 0 0-.503-.87c-.292-.207-.673-.311-1.142-.311-.329 0-.612.05-.848.15a1.258 1.258 0 0 0-.541.404.987.987 0 0 0-.192.584c0 .182.042.34.124.473.085.134.2.247.345.341.145.091.306.168.482.23.176.063.353.115.532.158l.819.204c.329.077.646.181.95.312.307.13.581.295.822.494.245.199.438.439.58.72.142.281.213.611.213.989 0 .511-.131.961-.392 1.35-.261.387-.639.689-1.134.908-.491.216-1.086.324-1.785.324-.679 0-1.269-.105-1.769-.315-.497-.211-.886-.517-1.167-.921-.279-.403-.429-.895-.452-1.474h1.555c.023.304.117.557.282.758.165.202.379.353.643.452.267.099.566.149.895.149.344 0 .645-.051.904-.153.261-.105.465-.25.613-.435.148-.187.223-.406.226-.656a.84.84 0 0 0-.2-.563 1.483 1.483 0 0 0-.55-.375 5.289 5.289 0 0 0-.818-.272l-.993-.256c-.719-.185-1.287-.465-1.705-.84-.414-.377-.622-.879-.622-1.504 0-.514.139-.964.418-1.351a2.759 2.759 0 0 1 1.146-.899c.483-.216 1.03-.324 1.641-.324.619 0 1.162.108 1.628.324.468.213.836.51 1.103.891.267.378.405.812.414 1.304h-1.522zM110.861 317v-8.727h5.676v1.325h-4.095v2.369h3.801v1.326h-3.801v2.382h4.129V317h-5.71zm8.956-8.727 2.272 6.869h.089l2.267-6.869h1.739L123.107 317h-1.951l-3.073-8.727h1.734zm8.016 8.727v-8.727h5.677v1.325h-4.096v2.369h3.802v1.326h-3.802v2.382h4.13V317h-5.711zm7.79 0v-8.727h3.272c.671 0 1.233.116 1.688.349.457.233.802.56 1.035.98.236.418.354.905.354 1.462 0 .559-.119 1.045-.358 1.457a2.37 2.37 0 0 1-1.044.951c-.46.221-1.026.332-1.696.332h-2.331v-1.313h2.118c.392 0 .713-.054.963-.162.25-.11.435-.271.554-.481.122-.213.183-.475.183-.784 0-.31-.061-.574-.183-.793a1.17 1.17 0 0 0-.558-.503c-.25-.116-.573-.174-.968-.174h-1.449V317h-1.58zm4.508-3.955 2.161 3.955h-1.765l-2.122-3.955h1.726zm3.2-4.772h1.785l2.135 3.86h.085l2.135-3.86h1.786l-3.175 5.471V317h-1.577v-3.256l-3.174-5.471zm16.486 0V317h-1.58v-7.189h-.052l-2.041 1.304v-1.449l2.169-1.393h1.504zm5.942 8.893c-.701 0-1.304-.177-1.807-.533-.5-.358-.885-.873-1.154-1.546-.267-.677-.401-1.49-.401-2.442.003-.952.138-1.762.405-2.429.27-.671.655-1.182 1.155-1.534.503-.353 1.103-.529 1.802-.529.699 0 1.3.176 1.803.529.503.352.888.863 1.155 1.534.27.67.404 1.48.404 2.429 0 .954-.134 1.77-.404 2.446-.267.673-.652 1.187-1.155 1.542-.5.356-1.101.533-1.803.533zm0-1.334c.546 0 .976-.268 1.291-.805.319-.54.478-1.334.478-2.382 0-.693-.073-1.276-.218-1.747-.144-.472-.349-.827-.613-1.066a1.346 1.346 0 0 0-.938-.362c-.542 0-.971.27-1.287.81-.315.537-.474 1.325-.477 2.365-.003.696.067 1.281.209 1.755.145.475.349.833.613 1.074.265.239.579.358.942.358zm8.84-7.559h1.935l2.591 6.324h.102l2.591-6.324h1.935V317h-1.518v-5.996h-.081l-2.411 5.97h-1.134l-2.412-5.983h-.081V317h-1.517v-8.727zm12.956 0V317h-1.581v-8.727h1.581zm9.384 0V317h-1.406l-4.113-5.945h-.072V317h-1.581v-8.727h1.415l4.108 5.949h.076v-5.949h1.573zm6.965 2.399a1.164 1.164 0 0 0-.502-.87c-.293-.207-.674-.311-1.142-.311-.33 0-.613.05-.848.15a1.256 1.256 0 0 0-.542.404.98.98 0 0 0-.191.584c0 .182.041.34.123.473.085.134.2.247.345.341.145.091.306.168.482.23.176.063.354.115.533.158l.818.204c.329.077.646.181.95.312.307.13.581.295.823.494.244.199.437.439.579.72.142.281.213.611.213.989 0 .511-.131.961-.392 1.35-.261.387-.639.689-1.133.908-.492.216-1.087.324-1.786.324-.679 0-1.268-.105-1.768-.315-.498-.211-.887-.517-1.168-.921-.278-.403-.429-.895-.452-1.474h1.556c.022.304.116.557.281.758.165.202.379.353.643.452.267.099.566.149.895.149.344 0 .645-.051.904-.153.261-.105.466-.25.613-.435.148-.187.223-.406.226-.656a.836.836 0 0 0-.2-.563 1.483 1.483 0 0 0-.55-.375 5.289 5.289 0 0 0-.818-.272l-.993-.256c-.719-.185-1.287-.465-1.704-.84-.415-.377-.623-.879-.623-1.504 0-.514.14-.964.418-1.351a2.759 2.759 0 0 1 1.146-.899c.483-.216 1.03-.324 1.641-.324.619 0 1.162.108 1.628.324.469.213.836.51 1.103.891.267.378.405.812.414 1.304h-1.522zM110.861 351v-8.727h5.676v1.325h-4.095v2.369h3.801v1.326h-3.801v2.382h4.129V351h-5.71zm8.956-8.727 2.272 6.869h.089l2.267-6.869h1.739L123.107 351h-1.951l-3.073-8.727h1.734zm8.016 8.727v-8.727h5.677v1.325h-4.096v2.369h3.802v1.326h-3.802v2.382h4.13V351h-5.711zm7.79 0v-8.727h3.272c.671 0 1.233.116 1.688.349.457.233.802.56 1.035.98.236.418.354.905.354 1.462 0 .559-.119 1.045-.358 1.457a2.37 2.37 0 0 1-1.044.951c-.46.221-1.026.332-1.696.332h-2.331v-1.313h2.118c.392 0 .713-.054.963-.162.25-.11.435-.271.554-.481.122-.213.183-.475.183-.784 0-.31-.061-.574-.183-.793a1.17 1.17 0 0 0-.558-.503c-.25-.116-.573-.174-.968-.174h-1.449V351h-1.58zm4.508-3.955 2.161 3.955h-1.765l-2.122-3.955h1.726zm3.2-4.772h1.785l2.135 3.86h.085l2.135-3.86h1.786l-3.175 5.471V351h-1.577v-3.256l-3.174-5.471zm15.971 8.846c-.568 0-1.077-.106-1.526-.319a2.718 2.718 0 0 1-1.069-.887 2.34 2.34 0 0 1-.418-1.287h1.534c.029.358.183.651.465.878.281.225.619.337 1.014.337.31 0 .585-.071.827-.213.241-.142.431-.34.571-.593.139-.252.207-.541.204-.865a1.74 1.74 0 0 0-.209-.877 1.56 1.56 0 0 0-.583-.601 1.631 1.631 0 0 0-.853-.222 2.036 2.036 0 0 0-.771.145c-.253.099-.453.23-.601.392l-1.427-.234.455-4.5h5.063v1.321h-3.754l-.252 2.314h.051c.162-.191.391-.348.687-.473.295-.128.619-.192.971-.192.529 0 1 .125 1.415.375.415.247.741.588.98 1.023.239.434.358.931.358 1.491 0 .577-.134 1.091-.401 1.543a2.844 2.844 0 0 1-1.103 1.061c-.469.255-1.012.383-1.628.383zm8.621-8.846h1.935l2.591 6.324h.102l2.591-6.324h1.935V351h-1.517v-5.996h-.081l-2.412 5.97h-1.134l-2.412-5.983h-.081V351h-1.517v-8.727zm12.956 0V351h-1.581v-8.727h1.581zm9.384 0V351h-1.406l-4.112-5.945h-.073V351h-1.581v-8.727h1.415l4.108 5.949h.077v-5.949h1.572zm6.966 2.399a1.168 1.168 0 0 0-.503-.87c-.293-.207-.673-.311-1.142-.311-.33 0-.612.05-.848.15a1.252 1.252 0 0 0-.541.404.987.987 0 0 0-.069 1.057c.086.134.201.247.346.341.144.091.305.168.481.23.176.063.354.115.533.158l.818.204c.33.077.646.181.95.312.307.13.581.295.823.494.244.199.437.439.579.72.142.281.213.611.213.989 0 .511-.13.961-.392 1.35-.261.387-.639.689-1.133.908-.492.216-1.087.324-1.786.324-.679 0-1.268-.105-1.768-.315-.497-.211-.887-.517-1.168-.921-.278-.403-.429-.895-.452-1.474h1.556c.023.304.116.557.281.758.165.202.379.353.644.452.267.099.565.149.894.149.344 0 .645-.051.904-.153.261-.105.466-.25.614-.435.147-.187.223-.406.225-.656a.83.83 0 0 0-.2-.563 1.483 1.483 0 0 0-.55-.375 5.253 5.253 0 0 0-.818-.272l-.993-.256c-.718-.185-1.287-.465-1.704-.84-.415-.377-.622-.879-.622-1.504 0-.514.139-.964.417-1.351a2.762 2.762 0 0 1 1.147-.899c.482-.216 1.029-.324 1.64-.324.619 0 1.162.108 1.628.324.469.213.837.51 1.104.891.267.378.404.812.413 1.304h-1.521zM110.861 385v-8.727h5.676v1.325h-4.095v2.369h3.801v1.326h-3.801v2.382h4.129V385h-5.71zm8.956-8.727 2.272 6.869h.089l2.267-6.869h1.739L123.107 385h-1.951l-3.073-8.727h1.734zm8.016 8.727v-8.727h5.677v1.325h-4.096v2.369h3.802v1.326h-3.802v2.382h4.13V385h-5.711zm7.79 0v-8.727h3.272c.671 0 1.233.116 1.688.349.457.233.802.56 1.035.98.236.418.354.905.354 1.462 0 .56-.119 1.045-.358 1.457a2.37 2.37 0 0 1-1.044.951c-.46.221-1.026.332-1.696.332h-2.331v-1.313h2.118c.392 0 .713-.054.963-.161.25-.111.435-.272.554-.482.122-.213.183-.474.183-.784 0-.31-.061-.574-.183-.793a1.17 1.17 0 0 0-.558-.503c-.25-.116-.573-.174-.968-.174h-1.449V385h-1.58zm4.508-3.955 2.161 3.955h-1.765l-2.122-3.955h1.726zm3.2-4.772h1.785l2.135 3.861h.085l2.135-3.861h1.786l-3.175 5.471V385h-1.577v-3.256l-3.174-5.471zm13.022 0h1.935l2.591 6.324h.102l2.591-6.324h1.934V385h-1.517v-5.996h-.081l-2.412 5.97h-1.133l-2.412-5.983h-.081V385h-1.517v-8.727zm12.956 0V385h-1.581v-8.727h1.581zm9.384 0V385h-1.406l-4.113-5.945h-.072V385h-1.581v-8.727h1.415l4.108 5.949h.076v-5.949h1.573zm7.724 0h1.581v5.701c0 .625-.148 1.175-.443 1.65a3.001 3.001 0 0 1-1.236 1.112c-.531.264-1.152.396-1.862.396-.713 0-1.336-.132-1.867-.396a3.001 3.001 0 0 1-1.236-1.112c-.292-.475-.439-1.025-.439-1.65v-5.701h1.581v5.569c0 .364.08.688.239.972.162.284.389.507.682.669.293.159.639.239 1.04.239.4 0 .747-.08 1.039-.239.296-.162.523-.385.682-.669.159-.284.239-.608.239-.972v-5.569zm3.416 1.325v-1.325h6.963v1.325h-2.698V385h-1.568v-7.402h-2.697zm8.805 7.402v-8.727h5.676v1.325h-4.095v2.369h3.801v1.326h-3.801v2.382h4.129V385h-5.71zm-86.656 34h-1.688l3.072-8.727h1.952l3.077 8.727h-1.688l-2.331-6.938h-.068L111.982 419zm.055-3.422h4.602v1.27h-4.602v-1.27zM123.002 419h-2.958v-8.727h3.017c.867 0 1.611.174 2.233.524a3.5 3.5 0 0 1 1.441 1.496c.335.65.503 1.429.503 2.335 0 .909-.169 1.69-.508 2.344a3.505 3.505 0 0 1-1.453 1.504c-.63.349-1.389.524-2.275.524zm-1.377-1.368h1.3c.608 0 1.115-.111 1.521-.332.407-.225.712-.559.917-1.002.204-.446.306-1.003.306-1.67 0-.668-.102-1.222-.306-1.662a2.1 2.1 0 0 0-.908-.993c-.398-.222-.892-.332-1.483-.332h-1.347v5.991zm8.314-7.359 2.271 6.869h.089l2.267-6.869h1.739L133.228 419h-1.951l-3.073-8.727h1.735zm8.117 8.727h-1.688l3.073-8.727h1.951l3.077 8.727h-1.687l-2.331-6.938h-.069L138.056 419zm.055-3.422h4.602v1.27h-4.602v-1.27zm15.179-5.305V419h-1.406l-4.112-5.945h-.072V419h-1.581v-8.727h1.414l4.108 5.949h.077v-5.949h1.572zm9.693 2.944h-1.593a1.992 1.992 0 0 0-.252-.694 1.856 1.856 0 0 0-1.078-.84 2.424 2.424 0 0 0-.746-.111c-.474 0-.895.12-1.261.358-.367.236-.653.583-.861 1.04-.207.455-.311 1.01-.311 1.666 0 .668.104 1.23.311 1.688.21.454.497.798.861 1.031.366.23.785.345 1.257.345.261 0 .506-.034.733-.102.23-.071.436-.175.618-.311a1.91 1.91 0 0 0 .729-1.185l1.593.009a3.433 3.433 0 0 1-.387 1.167 3.436 3.436 0 0 1-1.888 1.611 4.15 4.15 0 0 1-1.419.23c-.767 0-1.452-.177-2.054-.532-.603-.356-1.077-.868-1.424-1.539-.346-.67-.519-1.474-.519-2.412 0-.94.174-1.744.524-2.412.349-.67.825-1.183 1.427-1.538.603-.355 1.284-.533 2.046-.533.486 0 .937.069 1.355.205.417.136.79.337 1.116.601.327.261.595.582.806.963.213.378.352.809.417 1.295zm1.948 5.783v-8.727h5.676v1.325h-4.095v2.369h3.801v1.326h-3.801v2.382h4.129V419h-5.71zm10.747 0h-2.958v-8.727h3.017c.867 0 1.611.174 2.233.524a3.505 3.505 0 0 1 1.441 1.496c.335.65.502 1.429.502 2.335 0 .909-.169 1.69-.507 2.344a3.505 3.505 0 0 1-1.453 1.504c-.631.349-1.389.524-2.275.524zm-1.377-1.368h1.3c.608 0 1.115-.111 1.521-.332a2.13 2.13 0 0 0 .916-1.002c.205-.446.307-1.003.307-1.67 0-.668-.102-1.222-.307-1.662a2.093 2.093 0 0 0-.907-.993c-.398-.222-.892-.332-1.483-.332h-1.347v5.991zm15.834-4.96a1.165 1.165 0 0 0-.503-.87c-.293-.207-.673-.311-1.142-.311-.329 0-.612.05-.848.15a1.252 1.252 0 0 0-.541.404.987.987 0 0 0-.192.584c0 .182.041.34.124.473.085.134.2.247.345.341.145.091.305.168.481.23.177.063.354.115.533.158l.818.204c.33.077.647.181.951.312.306.13.58.295.822.494.244.199.437.439.579.72.143.281.214.611.214.989 0 .511-.131.961-.392 1.35-.262.387-.64.689-1.134.908-.491.216-1.087.324-1.786.324-.678 0-1.268-.105-1.768-.315a2.642 2.642 0 0 1-1.168-.921c-.278-.403-.429-.895-.451-1.474h1.555c.023.304.117.557.281.758.165.202.38.353.644.452.267.099.565.149.895.149.343 0 .645-.051.903-.153.261-.105.466-.25.614-.435.147-.187.223-.406.226-.656a.836.836 0 0 0-.201-.563 1.479 1.479 0 0 0-.549-.375 5.267 5.267 0 0 0-.819-.272l-.992-.256c-.719-.185-1.287-.465-1.705-.84-.415-.377-.622-.879-.622-1.504 0-.514.139-.964.417-1.351a2.768 2.768 0 0 1 1.147-.899c.483-.216 1.03-.324 1.64-.324.62 0 1.162.108 1.628.324.469.213.837.51 1.104.891.267.378.405.812.413 1.304h-1.521zm11.02.545h-1.594a1.972 1.972 0 0 0-.251-.694 1.856 1.856 0 0 0-1.078-.84 2.424 2.424 0 0 0-.746-.111c-.474 0-.895.12-1.261.358-.367.236-.654.583-.861 1.04-.207.455-.311 1.01-.311 1.666 0 .668.104 1.23.311 1.688.21.454.497.798.861 1.031.366.23.785.345 1.257.345.261 0 .506-.034.733-.102.23-.071.436-.175.618-.311a1.89 1.89 0 0 0 .728-1.185l1.594.009a3.413 3.413 0 0 1-.388 1.167 3.433 3.433 0 0 1-1.887 1.611c-.427.154-.9.23-1.419.23-.767 0-1.452-.177-2.054-.532-.603-.356-1.077-.868-1.424-1.539-.346-.67-.52-1.474-.52-2.412 0-.94.175-1.744.525-2.412.349-.67.825-1.183 1.427-1.538.602-.355 1.284-.533 2.046-.533.485 0 .937.069 1.355.205.417.136.789.337 1.116.601.327.261.595.582.806.963.213.378.352.809.417 1.295zm1.948 5.783v-8.727h1.581v3.694h4.044v-3.694h1.585V419h-1.585v-3.707h-4.044V419h-1.581zm9.43 0v-8.727h5.676v1.325h-4.095v2.369h3.801v1.326h-3.801v2.382h4.129V419h-5.71zm10.746 0h-2.957v-8.727h3.017c.866 0 1.611.174 2.233.524a3.497 3.497 0 0 1 1.44 1.496c.335.65.503 1.429.503 2.335 0 .909-.169 1.69-.507 2.344a3.51 3.51 0 0 1-1.453 1.504c-.631.349-1.39.524-2.276.524zm-1.376-1.368h1.299c.608 0 1.115-.111 1.522-.332.406-.225.711-.559.916-1.002.204-.446.307-1.003.307-1.67 0-.668-.103-1.222-.307-1.662a2.095 2.095 0 0 0-.908-.993c-.397-.222-.892-.332-1.483-.332h-1.346v5.991zm13.115-7.359h1.581v5.701c0 .625-.147 1.175-.443 1.649a2.984 2.984 0 0 1-1.236 1.113c-.531.264-1.152.396-1.862.396-.713 0-1.335-.132-1.866-.396a2.996 2.996 0 0 1-1.236-1.113c-.293-.474-.439-1.024-.439-1.649v-5.701h1.581v5.569c0 .364.08.688.239.972.162.284.389.507.681.669.293.159.64.239 1.04.239.401 0 .747-.08 1.04-.239.295-.162.523-.385.682-.669.159-.284.238-.608.238-.972v-5.569zm3.8 8.727v-8.727h1.581v7.402h3.844V419h-5.425zm7.297 0v-8.727h5.676v1.325h-4.095v2.369h3.801v1.326h-3.801v2.382h4.129V419h-5.71z" opacity="0.5" fill="#00523A"></path><g filter="url(#schedule-test_svg__c)" fill="none"><g filter="url(#schedule-test_svg__d)" fill="none"><mask id="schedule-test_svg__e" maskUnits="userSpaceOnUse" x="181" y="242" width="24" height="28" fill="#000"><path fill="#FFFFFF" d="M181 242h24v28h-24z"></path><path fill-rule="evenodd" clip-rule="evenodd" d="m188.415 258.118-1.252-1.913c-.854-1.306-2.675-1.782-4.067-1.066l.324-.167a.807.807 0 0 0-.369.989l1.733 4.482c.274.711.976 1.716 1.557 2.221 0 0 3.486 2.885 3.486 3.967V268h5.647l1.411-2.824 1.412 2.824h1.412v-1.369c0-1.082 2.13-4.489 2.13-4.489.392-.662.719-1.829.719-2.603v-5.696c-.025-1.262-1.097-2.284-2.42-2.284-.662 0-1.198.511-1.198 1.142v.457c0-1.262-1.072-2.284-2.395-2.284-.661 0-1.197.511-1.197 1.142v.456c0-1.261-1.072-2.283-2.395-2.283-.662 0-1.198.511-1.198 1.142v.456c0-.202-.022-.363-.063-.491l-.366-5.883a1.513 1.513 0 0 0-1.499-1.413c-.785 0-1.412.632-1.412 1.411v12.707zm9.908-1.412h1.412v5.647h-1.412v-5.647zm-2.824 0h1.412v5.647h-1.412v-5.647zm-2.823 0h1.412v5.647h-1.412v-5.647z"></path></mask><path fill-rule="evenodd" clip-rule="evenodd" d="m188.415 258.118-1.252-1.913c-.854-1.306-2.675-1.782-4.067-1.066l.324-.167a.807.807 0 0 0-.369.989l1.733 4.482c.274.711.976 1.716 1.557 2.221 0 0 3.486 2.885 3.486 3.967V268h5.647l1.411-2.824 1.412 2.824h1.412v-1.369c0-1.082 2.13-4.489 2.13-4.489.392-.662.719-1.829.719-2.603v-5.696c-.025-1.262-1.097-2.284-2.42-2.284-.662 0-1.198.511-1.198 1.142v.457c0-1.262-1.072-2.284-2.395-2.284-.661 0-1.197.511-1.197 1.142v.456c0-1.261-1.072-2.283-2.395-2.283-.662 0-1.198.511-1.198 1.142v.456c0-.202-.022-.363-.063-.491l-.366-5.883a1.513 1.513 0 0 0-1.499-1.413c-.785 0-1.412.632-1.412 1.411v12.707zm9.908-1.412h1.412v5.647h-1.412v-5.647zm-2.824 0h1.412v5.647h-1.412v-5.647zm-2.823 0h1.412v5.647h-1.412v-5.647z" fill="#FFFFFF"></path><path d="m188.415 258.118-1.255.821 2.755 4.21v-5.031h-1.5zm-1.252-1.913 1.255-.821-1.255.821zm-4.112-.244-1.399.54 1.399-.54zm1.733 4.482 1.399-.54-1.399.54zm1.557 2.221-.984 1.132.014.012.014.012.956-1.156zm3.486 5.336h-1.5v1.5h1.5V268zm5.647 0v1.5h.927l.414-.829-1.341-.671zm1.411-2.824 1.342-.67-1.342-2.684-1.341 2.684 1.341.67zm1.412 2.824-1.341.671.414.829h.927V268zm1.412 0v1.5h1.5V268h-1.5zm2.13-5.858 1.272.795.01-.015.009-.016-1.291-.764zm.719-8.299h1.5v-.031l-1.5.031zm-10.866-2.547-1.498.093.012.192.06.182 1.426-.467zm-.366-5.883-1.497.093 1.497-.093zm-2.911-.002h-1.5 1.5zm11.32 11.295h1.5v-1.5h-1.5v1.5zm0 5.647v1.5h1.5v-1.5h-1.5zm-1.412 0h-1.5v1.5h1.5v-1.5zm-1.412-5.647h1.5v-1.5h-1.5v1.5zm0 5.647v1.5h1.5v-1.5h-1.5zm-1.412 0h-1.5v1.5h1.5v-1.5zm-1.411-5.647h1.5v-1.5h-1.5v1.5zm0 5.647v1.5h1.5v-1.5h-1.5zm-1.412 0h-1.5v1.5h1.5v-1.5zm-3.006-5.057-1.252-1.912-2.51 1.643 1.252 1.912 2.51-1.643zm-1.252-1.912c-1.278-1.953-3.938-2.644-6.008-1.579l1.371 2.668c.715-.367 1.696-.105 2.127.554l2.51-1.643zm-4.637 1.089.325-.167-1.372-2.668-.324.167 1.371 2.668zm-1.047-2.835c-1.042.536-1.495 1.795-1.082 2.863l2.798-1.081a.701.701 0 0 1 .008.5.725.725 0 0 1-.352.386l-1.372-2.668zm-1.082 2.863 1.732 4.483 2.799-1.081-1.733-4.483-2.798 1.081zm1.732 4.483c.362.937 1.206 2.145 1.973 2.812l1.968-2.265c-.395-.342-.955-1.143-1.142-1.628l-2.799 1.081zm2.957 1.68-.956 1.155h-.001l.002.001.005.005.026.021.102.087a28.542 28.542 0 0 1 1.513 1.378c.417.41.797.817 1.063 1.161.134.173.213.297.252.372.055.105-.02.011-.02-.213h3c0-.495-.185-.916-.321-1.176a5.55 5.55 0 0 0-.537-.818 15.25 15.25 0 0 0-1.334-1.465 31.045 31.045 0 0 0-1.824-1.652l-.009-.008-.003-.002-.001-.001-.957 1.155zm1.986 3.967V268h3v-1.369h-3zm1.5 2.869h5.647v-3h-5.647v3zm6.988-.829 1.412-2.824-2.683-1.341-1.412 2.823 2.683 1.342zm-1.271-2.824 1.412 2.824 2.683-1.342-1.412-2.823-2.683 1.341zm2.753 3.653h1.412v-3h-1.412v3zm2.912-1.5v-1.369h-3V268h3zm0-1.369c0 .07.008-.087.214-.573.174-.41.415-.89.671-1.365.254-.47.509-.911.702-1.236.096-.162.176-.293.231-.384l.064-.103a.513.513 0 0 1 .016-.026l.003-.006.001-.001-1.272-.795-1.272-.795-.001.001-.001.003a.068.068 0 0 1-.006.009l-.019.031-.072.117a37.793 37.793 0 0 0-1.014 1.76 20.203 20.203 0 0 0-.793 1.62c-.194.457-.452 1.131-.452 1.743h3zm1.921-3.725c.284-.48.508-1.071.661-1.623.153-.55.267-1.177.267-1.744h-3c0 .207-.049.551-.158.943a3.964 3.964 0 0 1-.352.896l2.582 1.528zm.928-3.367v-5.696h-3v5.696h3zm0-5.727c-.043-2.126-1.83-3.753-3.92-3.753v3c.555 0 .912.417.92.814l3-.061zm-3.92-3.753c-1.422 0-2.698 1.116-2.698 2.642h3c0 .264-.204.358-.302.358v-3zm-2.698 2.642v.457h3v-.457h-3zm3 .457c0-2.157-1.812-3.784-3.895-3.784v3c.563 0 .895.417.895.784h3zm-3.895-3.784c-1.422 0-2.697 1.116-2.697 2.642h3c0 .264-.204.358-.303.358v-3zm-2.697 2.642v.456h3v-.456h-3zm3 .456c0-2.156-1.812-3.783-3.895-3.783v3c.562 0 .895.417.895.783h3zm-3.895-3.783c-1.422 0-2.698 1.116-2.698 2.642h3c0 .264-.204.358-.302.358v-3zm-2.698 2.642v.456h3v-.456h-3zm3 .456c0-.298-.03-.63-.138-.958l-2.851.934a.545.545 0 0 1-.012-.045l-.002-.01.002.023.001.056h3zm-.066-.584-.366-5.882-2.994.185.365 5.883 2.995-.186zm-.366-5.882a3.013 3.013 0 0 0-2.996-2.821v3l-.006-.001h-.002l.002.001.004.003a.018.018 0 0 1 .004.005l.001.001-.001-.001v-.002l2.994-.185zm-2.996-2.821a2.908 2.908 0 0 0-2.912 2.911h3a.092.092 0 0 1-.088.089v-3zm-2.912 2.911v5.648h3v-5.648h-3zm0 5.648v7.059h3v-7.059h-3zm11.408 7.147h1.412v-3h-1.412v3zm-.088-1.5v5.647h3v-5.647h-3zm1.5 4.147h-1.412v3h1.412v-3zm.088 1.5v-5.647h-3v5.647h3zm-4.324-4.147h1.412v-3h-1.412v3zm-.088-1.5v5.647h3v-5.647h-3zm1.5 4.147h-1.412v3h1.412v-3zm.088 1.5v-5.647h-3v5.647h3zm-4.323-4.147h1.412v-3h-1.412v3zm-.088-1.5v5.647h3v-5.647h-3zm1.5 4.147h-1.412v3h1.412v-3zm.088 1.5v-5.647h-3v5.647h3z" fill="#000" mask="url(#schedule-test_svg__e)"></path></g></g><path d="M86 38a6 6 0 0 1 6-6h248a6 6 0 0 1 6 6v42a6 6 0 0 1-6 6H92a6 6 0 0 1-6-6V38z" fill="#2D3748"></path><path d="M321.246 62.087c-.039-.037-.204-.18-.34-.312-.855-.777-2.255-2.803-2.683-3.864-.068-.16-.214-.568-.223-.786 0-.208.048-.407.145-.596.136-.237.35-.427.603-.53.175-.067.7-.171.709-.171.574-.104 1.507-.161 2.538-.161.982 0 1.876.057 2.459.142.009.01.661.114.885.227.408.209.661.616.661 1.052v.037c-.01.284-.263.881-.273.881-.428 1.004-1.759 2.983-2.644 3.779 0 0-.227.224-.369.321a1.19 1.19 0 0 1-.709.227c-.282 0-.545-.085-.759-.246z" fill="#66E0BE"></path><path d="M114.494 64.14c-.831 0-1.545-.126-2.142-.378s-1.05-.583-1.358-.994a2.334 2.334 0 0 1-.49-1.33.285.285 0 0 1 .294-.294h1.246c.112 0 .196.023.252.07a.536.536 0 0 1 .182.196c.093.317.308.583.644.798.336.215.793.322 1.372.322.663 0 1.162-.107 1.498-.322.336-.224.504-.532.504-.924a.85.85 0 0 0-.266-.644c-.168-.168-.425-.313-.77-.434a19.3 19.3 0 0 0-1.512-.448c-1.101-.261-1.909-.607-2.422-1.036-.504-.439-.756-1.06-.756-1.862 0-.541.145-1.022.434-1.442.299-.42.723-.751 1.274-.994.56-.243 1.209-.364 1.946-.364.765 0 1.428.135 1.988.406.56.27.985.611 1.274 1.022.299.401.457.803.476 1.204a.285.285 0 0 1-.294.294h-1.302a.406.406 0 0 1-.406-.266c-.056-.299-.243-.546-.56-.742-.317-.205-.709-.308-1.176-.308-.523 0-.933.098-1.232.294-.299.196-.448.48-.448.854 0 .261.075.476.224.644.149.168.383.317.7.448.327.13.793.275 1.4.434.821.187 1.475.397 1.96.63.495.233.859.527 1.092.882.233.355.35.807.35 1.358 0 .597-.168 1.12-.504 1.568-.327.439-.793.775-1.4 1.008-.597.233-1.288.35-2.072.35zm6.416-.14a.326.326 0 0 1-.238-.098.325.325 0 0 1-.098-.238V54.55c0-.103.028-.187.084-.252a.343.343 0 0 1 .252-.098h6.16a.34.34 0 0 1 .252.098.34.34 0 0 1 .098.252v.924a.339.339 0 0 1-.098.252.372.372 0 0 1-.252.084h-4.606v2.478h4.298a.34.34 0 0 1 .252.098c.066.056.098.135.098.238v.868a.339.339 0 0 1-.098.252.372.372 0 0 1-.252.084h-4.298v2.562h4.718a.34.34 0 0 1 .252.098.34.34 0 0 1 .098.252v.924a.339.339 0 0 1-.098.252.372.372 0 0 1-.252.084h-6.272zm11.365 0a.326.326 0 0 1-.238-.098.325.325 0 0 1-.098-.238v-7.742h-2.59a.326.326 0 0 1-.238-.098.325.325 0 0 1-.098-.238V54.55c0-.103.028-.187.084-.252a.343.343 0 0 1 .252-.098h7.14a.34.34 0 0 1 .252.098.34.34 0 0 1 .098.252v1.036a.322.322 0 0 1-.098.238.34.34 0 0 1-.252.098h-2.576v7.742a.322.322 0 0 1-.098.238.34.34 0 0 1-.252.098h-1.288zm11.993 0a.323.323 0 0 1-.238-.098.322.322 0 0 1-.098-.238v-7.742h-2.59a.323.323 0 0 1-.238-.098.322.322 0 0 1-.098-.238V54.55c0-.103.028-.187.084-.252a.34.34 0 0 1 .252-.098h7.14c.102 0 .186.033.252.098.065.065.098.15.098.252v1.036a.325.325 0 0 1-.098.238.343.343 0 0 1-.252.098h-2.576v7.742a.325.325 0 0 1-.098.238.343.343 0 0 1-.252.098h-1.288zm6.82 0a.324.324 0 0 1-.238-.098.325.325 0 0 1-.098-.238V54.55c0-.103.028-.187.084-.252a.34.34 0 0 1 .252-.098h6.16a.34.34 0 0 1 .252.098c.065.065.098.15.098.252v.924a.343.343 0 0 1-.098.252.372.372 0 0 1-.252.084h-4.606v2.478h4.298a.34.34 0 0 1 .252.098.297.297 0 0 1 .098.238v.868a.343.343 0 0 1-.098.252.372.372 0 0 1-.252.084h-4.298v2.562h4.718a.34.34 0 0 1 .252.098c.065.065.098.15.098.252v.924a.343.343 0 0 1-.098.252.372.372 0 0 1-.252.084h-6.272zm12.275.14c-.831 0-1.545-.126-2.142-.378s-1.05-.583-1.358-.994a2.334 2.334 0 0 1-.49-1.33.285.285 0 0 1 .294-.294h1.246c.112 0 .196.023.252.07a.536.536 0 0 1 .182.196c.093.317.308.583.644.798.336.215.793.322 1.372.322.663 0 1.162-.107 1.498-.322.336-.224.504-.532.504-.924a.85.85 0 0 0-.266-.644c-.168-.168-.425-.313-.77-.434a19.3 19.3 0 0 0-1.512-.448c-1.101-.261-1.909-.607-2.422-1.036-.504-.439-.756-1.06-.756-1.862 0-.541.145-1.022.434-1.442.299-.42.723-.751 1.274-.994.56-.243 1.209-.364 1.946-.364.765 0 1.428.135 1.988.406.56.27.985.611 1.274 1.022.299.401.457.803.476 1.204a.285.285 0 0 1-.294.294h-1.302a.406.406 0 0 1-.406-.266c-.056-.299-.243-.546-.56-.742-.317-.205-.709-.308-1.176-.308-.523 0-.933.098-1.232.294-.299.196-.448.48-.448.854 0 .261.075.476.224.644.149.168.383.317.7.448.327.13.793.275 1.4.434.821.187 1.475.397 1.96.63.495.233.859.527 1.092.882.233.355.35.807.35 1.358 0 .597-.168 1.12-.504 1.568-.327.439-.793.775-1.4 1.008-.597.233-1.288.35-2.072.35zm8.463-.14a.326.326 0 0 1-.238-.098.325.325 0 0 1-.098-.238v-7.742h-2.59a.326.326 0 0 1-.238-.098.325.325 0 0 1-.098-.238V54.55c0-.103.028-.187.084-.252a.343.343 0 0 1 .252-.098h7.14a.34.34 0 0 1 .252.098.34.34 0 0 1 .098.252v1.036a.322.322 0 0 1-.098.238.34.34 0 0 1-.252.098h-2.576v7.742a.322.322 0 0 1-.098.238.34.34 0 0 1-.252.098h-1.288zm13.244.14c-.83 0-1.544-.126-2.142-.378-.597-.252-1.05-.583-1.358-.994a2.334 2.334 0 0 1-.49-1.33.285.285 0 0 1 .294-.294h1.246c.112 0 .196.023.252.07a.528.528 0 0 1 .182.196c.093.317.308.583.644.798.336.215.794.322 1.372.322.663 0 1.162-.107 1.498-.322.336-.224.504-.532.504-.924a.846.846 0 0 0-.266-.644c-.168-.168-.424-.313-.77-.434a19.3 19.3 0 0 0-1.512-.448c-1.101-.261-1.908-.607-2.422-1.036-.504-.439-.756-1.06-.756-1.862 0-.541.145-1.022.434-1.442.299-.42.724-.751 1.274-.994.56-.243 1.209-.364 1.946-.364.766 0 1.428.135 1.988.406.56.27.985.611 1.274 1.022.299.401.458.803.476 1.204a.285.285 0 0 1-.294.294h-1.302a.406.406 0 0 1-.406-.266c-.056-.299-.242-.546-.56-.742-.317-.205-.709-.308-1.176-.308-.522 0-.933.098-1.232.294-.298.196-.448.48-.448.854 0 .261.075.476.224.644.15.168.383.317.7.448.327.13.794.275 1.4.434.822.187 1.475.397 1.96.63.495.233.859.527 1.092.882.234.355.35.807.35 1.358 0 .597-.168 1.12-.504 1.568-.326.439-.793.775-1.4 1.008-.597.233-1.288.35-2.072.35zm9.861 0c-1.288 0-2.287-.331-2.996-.994-.7-.663-1.074-1.596-1.12-2.8a35.81 35.81 0 0 1-.014-1.232c0-.579.004-.999.014-1.26.046-1.195.424-2.123 1.134-2.786.718-.672 1.712-1.008 2.982-1.008.83 0 1.554.145 2.17.434.616.28 1.092.667 1.428 1.162a3 3 0 0 1 .532 1.652v.028c0 .075-.033.14-.098.196a.298.298 0 0 1-.196.07h-1.33c-.112 0-.196-.023-.252-.07-.056-.047-.103-.135-.14-.266-.15-.588-.397-.999-.742-1.232-.346-.243-.808-.364-1.386-.364-1.344 0-2.044.751-2.1 2.254-.01.252-.014.64-.014 1.162 0 .523.004.92.014 1.19.056 1.503.756 2.254 2.1 2.254.578 0 1.04-.121 1.386-.364.354-.243.602-.653.742-1.232.028-.13.07-.22.126-.266a.449.449 0 0 1 .266-.07h1.33c.084 0 .154.028.21.084a.23.23 0 0 1 .084.21 3.072 3.072 0 0 1-.532 1.666c-.336.485-.812.873-1.428 1.162-.616.28-1.34.42-2.17.42zm6.626-.14a.324.324 0 0 1-.238-.098.325.325 0 0 1-.098-.238V54.55c0-.103.028-.187.084-.252a.34.34 0 0 1 .252-.098h1.274c.103 0 .182.033.238.098.065.065.098.15.098.252v3.612h4.13V54.55c0-.103.028-.187.084-.252a.34.34 0 0 1 .252-.098h1.26a.34.34 0 0 1 .252.098c.065.065.098.15.098.252v9.114a.343.343 0 0 1-.098.252.372.372 0 0 1-.252.084h-1.26a.324.324 0 0 1-.238-.098.325.325 0 0 1-.098-.238v-3.752h-4.13v3.752a.325.325 0 0 1-.098.238.296.296 0 0 1-.238.098h-1.274zm10.699 0a.324.324 0 0 1-.238-.098.325.325 0 0 1-.098-.238V54.55c0-.103.028-.187.084-.252a.34.34 0 0 1 .252-.098h6.16a.34.34 0 0 1 .252.098c.065.065.098.15.098.252v.924a.343.343 0 0 1-.098.252.372.372 0 0 1-.252.084h-4.606v2.478h4.298a.34.34 0 0 1 .252.098.297.297 0 0 1 .098.238v.868a.343.343 0 0 1-.098.252.372.372 0 0 1-.252.084h-4.298v2.562h4.718a.34.34 0 0 1 .252.098c.065.065.098.15.098.252v.924a.343.343 0 0 1-.098.252.372.372 0 0 1-.252.084h-6.272zm9.209 0a.324.324 0 0 1-.238-.098.325.325 0 0 1-.098-.238V54.55c0-.103.028-.187.084-.252a.34.34 0 0 1 .252-.098h3.416c2.744 0 4.144 1.27 4.2 3.808.019.541.028.905.028 1.092 0 .177-.009.537-.028 1.078-.037 1.307-.387 2.273-1.05 2.898-.663.616-1.689.924-3.08.924h-3.486zm3.416-1.61c.784 0 1.349-.173 1.694-.518.345-.355.527-.933.546-1.736.019-.56.028-.91.028-1.05 0-.15-.009-.495-.028-1.036-.019-.765-.215-1.33-.588-1.694-.364-.364-.938-.546-1.722-.546h-1.736v6.58h1.806zm10.498 1.75c-1.26 0-2.24-.322-2.94-.966-.7-.644-1.05-1.62-1.05-2.926V54.55c0-.103.028-.187.084-.252a.34.34 0 0 1 .252-.098h1.274c.103 0 .182.033.238.098.065.065.098.15.098.252v5.698c0 .747.177 1.311.532 1.694.355.373.859.56 1.512.56s1.153-.187 1.498-.56c.355-.383.532-.947.532-1.694V54.55c0-.103.033-.187.098-.252a.34.34 0 0 1 .252-.098h1.26c.103 0 .182.033.238.098.065.065.098.15.098.252v5.698c0 1.307-.35 2.282-1.05 2.926-.691.644-1.666.966-2.926.966zm6.91-.14a.326.326 0 0 1-.238-.098.325.325 0 0 1-.098-.238v-9.128c0-.103.033-.182.098-.238a.325.325 0 0 1 .238-.098h1.302c.103 0 .182.033.238.098.066.056.098.135.098.238v7.798h4.438a.34.34 0 0 1 .252.098.34.34 0 0 1 .098.252v.98a.339.339 0 0 1-.098.252.372.372 0 0 1-.252.084h-6.076zm8.621 0a.326.326 0 0 1-.238-.098.325.325 0 0 1-.098-.238V54.55c0-.103.028-.187.084-.252a.343.343 0 0 1 .252-.098h6.16a.34.34 0 0 1 .252.098.34.34 0 0 1 .098.252v.924a.339.339 0 0 1-.098.252.372.372 0 0 1-.252.084h-4.606v2.478h4.298a.34.34 0 0 1 .252.098c.066.056.098.135.098.238v.868a.339.339 0 0 1-.098.252.372.372 0 0 1-.252.084h-4.298v2.562h4.718a.34.34 0 0 1 .252.098.34.34 0 0 1 .098.252v.924a.339.339 0 0 1-.098.252.372.372 0 0 1-.252.084h-6.272z" fill="#FFFFFF"></path></g><defs><filter id="schedule-test_svg__b" x="52" y="-2" width="328" height="496" filterUnits="userSpaceOnUse" color-interpolation-filters="sRGB"><feFlood flood-opacity="0" result="BackgroundImageFix"></feFlood><feBlend in="SourceGraphic" in2="BackgroundImageFix" result="shape"></feBlend><feGaussianBlur stdDeviation="10" result="effect1_foregroundBlur"></feGaussianBlur></filter><filter id="schedule-test_svg__c" x="173.5" y="238.5" width="38.558" height="43" filterUnits="userSpaceOnUse" color-interpolation-filters="sRGB"><feFlood flood-opacity="0" result="BackgroundImageFix"></feFlood><feColorMatrix in="SourceAlpha" values="0 0 0 0 0 0 0 0 0 0 0 0 0 0 0 0 0 0 127 0"></feColorMatrix><feOffset dy="4"></feOffset><feGaussianBlur stdDeviation="4"></feGaussianBlur><feColorMatrix values="0 0 0 0 0.290196 0 0 0 0 0.333333 0 0 0 0 0.407843 0 0 0 0.07 0"></feColorMatrix><feBlend in2="BackgroundImageFix" result="effect1_dropShadow"></feBlend><feBlend in="SourceGraphic" in2="effect1_dropShadow" result="shape"></feBlend></filter><filter id="schedule-test_svg__d" x="178.5" y="240.5" width="28.558" height="33" filterUnits="userSpaceOnUse" color-interpolation-filters="sRGB"><feFlood flood-opacity="0" result="BackgroundImageFix"></feFlood><feColorMatrix in="SourceAlpha" values="0 0 0 0 0 0 0 0 0 0 0 0 0 0 0 0 0 0 127 0"></feColorMatrix><feOffset dy="1"></feOffset><feGaussianBlur stdDeviation="1.5"></feGaussianBlur><feColorMatrix values="0 0 0 0 0 0 0 0 0 0 0 0 0 0 0 0 0 0 0.2 0"></feColorMatrix><feBlend in2="BackgroundImageFix" result="effect1_dropShadow"></feBlend><feBlend in="SourceGraphic" in2="effect1_dropShadow" result="shape"></feBlend></filter><clipPath id="schedule-test_svg__a"><path fill="#fff" d="M0 0h432v490H0z"></path></clipPath></defs></svg>