<svg xmlns:xlink="http://www.w3.org/1999/xlink" viewBox="0 0 432 450" fill="none" xmlns="http://www.w3.org/2000/svg" width="432" height="450"><g clip-path="url(#test-recorder_svg__a)" fill="none"><g opacity="0.2" filter="url(#test-recorder_svg__b)" fill="none"><rect x="76" y="29" width="280" height="406" rx="16" fill="#718096"></rect></g><rect x="66" y="10" width="300" height="415" rx="16" fill="#FFFFFF"></rect><mask id="test-recorder_svg__c" maskUnits="userSpaceOnUse" x="66" y="10" width="300" height="415" fill="none"><rect x="66" y="10" width="300" height="415" rx="16" fill="#FFFFFF"></rect></mask><g mask="url(#test-recorder_svg__c)" fill="none"><path d="M66 10h300v64H66V10z" fill="#2D3748"></path><path d="M95.566 45.44a14.1 14.1 0 0 1-1.057-4.09.372.372 0 0 0-.423-.33 21.72 21.72 0 0 0-2.138.434c-.69.174-.89.612-.945.858-.13.553.182 1.249.796 1.767.346.295 1.403.893 3.14 1.78l.102.053a.366.366 0 0 0 .43-.047.371.371 0 0 0 .095-.425z" fill="#FFFFFF"></path><path d="M113.306 40.232c-.426-.302-1.07-.444-1.638-.569a16.858 16.858 0 0 1-.444-.102c-.147-4.71-4.025-8.496-8.769-8.496-4.836 0-8.77 3.934-8.772 8.77 0 4.202 1.753 8.193 4.687 10.676 2.463 2.084 5.106 2.647 7.248 2.647 2.504 0 4.32-.77 4.351-.784a.375.375 0 0 0 .224-.338.376.376 0 0 0-.216-.343c-.077-.035-1.881-.902-1.881-3.46 0-1.584.572-2.267 1.363-3.212l.192-.23a10.576 10.576 0 0 0 3.682-1.994c.523-.444.777-.904.756-1.37-.018-.438-.283-.841-.783-1.195z" fill="#FFFFFF"></path><path opacity="0.15" d="M113.306 40.244c-.426-.302-1.07-.444-1.638-.568-.159-.036-.312-.07-.444-.103-.147-4.71-4.025-8.495-8.769-8.495-4.836 0-8.77 3.933-8.772 8.77 0 4.201 1.753 8.193 4.687 10.676 2.463 2.084 5.106 2.647 7.248 2.647 2.504 0 4.32-.77 4.351-.785a.375.375 0 0 0 .224-.337.376.376 0 0 0-.216-.343c-.077-.036-1.881-.903-1.881-3.46 0-1.585.572-2.267 1.363-3.213l.192-.229a10.574 10.574 0 0 0 3.682-1.995c.523-.443.777-.904.756-1.37-.018-.438-.283-.84-.783-1.195z" fill="url(&quot;#test-recorder_svg__d&quot;)"></path><path d="M97.355 40.686a.8.8 0 0 1-.798-.798v-1.195a.8.8 0 0 1 .797-.797.8.8 0 0 1 .798.797v1.195a.8.8 0 0 1-.797.798zm5.579 0a.799.799 0 0 1-.797-.798v-1.195a.8.8 0 0 1 .797-.797.8.8 0 0 1 .797.797v1.195a.799.799 0 0 1-.797.798z" fill="#000"></path><rect x="132" y="36" width="128" height="12" rx="6" fill="#FFFFFF"></rect><path fill-rule="evenodd" clip-rule="evenodd" d="M343.002 43.317c.298.158.528.408.69.658.315.517.289 1.15-.017 1.708l-.596 1a1.777 1.777 0 0 1-1.508.867 1.78 1.78 0 0 1-.903-.25c-.221-.142-.477-.192-.749-.192-.843 0-1.55.692-1.576 1.517 0 .958-.783 1.708-1.762 1.708h-1.159c-.988 0-1.771-.75-1.771-1.708-.017-.825-.724-1.517-1.567-1.517-.281 0-.537.05-.749.192-.273.167-.614.25-.903.25a1.778 1.778 0 0 1-1.516-.867l-.588-1c-.315-.541-.332-1.191-.017-1.708.136-.25.392-.5.682-.658.238-.117.391-.309.536-.534.426-.716.17-1.658-.553-2.083a1.703 1.703 0 0 1-.631-2.358l.571-.984a1.77 1.77 0 0 1 2.401-.633c.741.4 1.704.133 2.138-.575a1.29 1.29 0 0 0 .196-.733 1.493 1.493 0 0 1 .238-.884 1.83 1.83 0 0 1 1.508-.866h1.201c.63 0 1.2.35 1.516.866.153.25.255.559.229.884-.017.25.06.5.196.733.435.708 1.397.975 2.146.575a1.761 1.761 0 0 1 2.394.633l.57.984a1.689 1.689 0 0 1-.63 2.358c-.724.425-.979 1.367-.545 2.083.136.225.289.417.528.534zm-9.411-1.309c0 1.309 1.082 2.35 2.419 2.35s2.393-1.041 2.393-2.35c0-1.308-1.056-2.358-2.393-2.358-1.337 0-2.419 1.05-2.419 2.358z" fill="#718096"></path><rect x="90" y="110" width="170" height="12" rx="6" fill="#EDF2F7"></rect><rect x="90" y="146" width="252" height="12" rx="6" fill="#EDF2F7"></rect><rect x="272" y="381" width="70" height="8" rx="4" fill="#EDF2F7"></rect><rect x="90" y="297" width="252" height="48" rx="24" fill="#CCFFF0"></rect><path d="M153.99 326.08c-.868 0-1.596-.126-2.184-.378-.579-.261-1.022-.597-1.33-1.008-.299-.42-.457-.859-.476-1.316a.285.285 0 0 1 .294-.294h1.246c.121 0 .21.028.266.084a.64.64 0 0 1 .168.182c.056.177.163.355.322.532.159.168.373.308.644.42.28.112.63.168 1.05.168.672 0 1.171-.112 1.498-.336.336-.224.504-.527.504-.91 0-.271-.089-.485-.266-.644-.177-.168-.453-.317-.826-.448-.364-.14-.849-.285-1.456-.434-.7-.168-1.288-.369-1.764-.602-.467-.243-.821-.546-1.064-.91-.233-.364-.35-.826-.35-1.386 0-.541.145-1.022.434-1.442.299-.42.719-.751 1.26-.994.551-.243 1.204-.364 1.96-.364.607 0 1.143.084 1.61.252.467.159.854.373 1.162.644.308.261.541.546.7.854.168.299.257.593.266.882a.316.316 0 0 1-.084.21c-.047.056-.117.084-.21.084h-1.302a.501.501 0 0 1-.224-.056.41.41 0 0 1-.182-.21c-.056-.289-.238-.537-.546-.742-.308-.205-.705-.308-1.19-.308-.504 0-.91.093-1.218.28-.308.187-.462.476-.462.868 0 .261.075.481.224.658.159.168.406.317.742.448.345.131.798.271 1.358.42.793.177 1.442.383 1.946.616.504.233.873.532 1.106.896.233.355.35.807.35 1.358 0 .616-.168 1.143-.504 1.582-.327.429-.789.761-1.386.994-.597.233-1.293.35-2.086.35zm8.463-.14a.325.325 0 0 1-.238-.098.325.325 0 0 1-.098-.238v-7.742h-2.59a.325.325 0 0 1-.238-.098.325.325 0 0 1-.098-.238v-1.036c0-.103.033-.187.098-.252a.325.325 0 0 1 .238-.098h7.14c.103 0 .187.033.252.098a.341.341 0 0 1 .098.252v1.036a.325.325 0 0 1-.098.238.341.341 0 0 1-.252.098h-2.576v7.742a.325.325 0 0 1-.098.238.341.341 0 0 1-.252.098h-1.288zm4.857 0a.32.32 0 0 1-.21-.084.285.285 0 0 1-.084-.21c0-.037.01-.079.028-.126l3.374-9.03a.486.486 0 0 1 .49-.35h1.526c.14 0 .248.037.322.112a.608.608 0 0 1 .168.238l3.374 9.03c.01.047.014.089.014.126a.285.285 0 0 1-.084.21.268.268 0 0 1-.196.084h-1.218c-.13 0-.228-.028-.294-.084a.568.568 0 0 1-.112-.182l-.658-1.708h-4.158l-.658 1.708a.476.476 0 0 1-.126.182c-.056.056-.149.084-.28.084h-1.218zm2.772-3.584h3.178l-1.596-4.326-1.582 4.326zm8.373 3.584a.327.327 0 0 1-.238-.098.325.325 0 0 1-.098-.238v-9.114c0-.103.033-.187.098-.252a.327.327 0 0 1 .238-.098h3.626c1.13 0 2.021.261 2.674.784.654.523.98 1.283.98 2.282 0 .691-.172 1.265-.518 1.722a2.827 2.827 0 0 1-1.358.994l2.044 3.57a.347.347 0 0 1 .042.154.263.263 0 0 1-.098.21.268.268 0 0 1-.196.084h-1.274c-.158 0-.28-.042-.364-.126a1.165 1.165 0 0 1-.196-.252l-1.806-3.318h-1.946v3.36a.321.321 0 0 1-.098.238.297.297 0 0 1-.238.098h-1.274zm1.61-5.278h1.974c.57 0 .994-.126 1.274-.378.28-.261.42-.625.42-1.092 0-.467-.14-.831-.42-1.092-.27-.271-.695-.406-1.274-.406h-1.974v2.968zm10.357 5.278a.324.324 0 0 1-.238-.098.321.321 0 0 1-.098-.238v-7.742h-2.59a.324.324 0 0 1-.238-.098.321.321 0 0 1-.098-.238v-1.036a.338.338 0 0 1 .336-.35h7.14c.102 0 .186.033.252.098a.341.341 0 0 1 .098.252v1.036a.325.325 0 0 1-.098.238.345.345 0 0 1-.252.098h-2.576v7.742a.325.325 0 0 1-.098.238.345.345 0 0 1-.252.098h-1.288zm10.178 0a.324.324 0 0 1-.238-.098.321.321 0 0 1-.098-.238v-9.114a.338.338 0 0 1 .336-.35h3.626c1.129 0 2.02.261 2.674.784.653.523.98 1.283.98 2.282 0 .691-.173 1.265-.518 1.722a2.832 2.832 0 0 1-1.358.994l2.044 3.57a.347.347 0 0 1 .042.154.266.266 0 0 1-.098.21.27.27 0 0 1-.196.084h-1.274c-.159 0-.28-.042-.364-.126a1.135 1.135 0 0 1-.196-.252l-1.806-3.318h-1.946v3.36a.325.325 0 0 1-.098.238.298.298 0 0 1-.238.098H200.6zm1.61-5.278h1.974c.569 0 .994-.126 1.274-.378.28-.261.42-.625.42-1.092 0-.467-.14-.831-.42-1.092-.271-.271-.696-.406-1.274-.406h-1.974v2.968zm8.31 5.278a.324.324 0 0 1-.238-.098.321.321 0 0 1-.098-.238v-9.114a.338.338 0 0 1 .336-.35h6.16c.102 0 .186.033.252.098a.341.341 0 0 1 .098.252v.924a.325.325 0 0 1-.098.238.345.345 0 0 1-.252.098h-4.606v2.478h4.298c.102 0 .186.033.252.098a.297.297 0 0 1 .098.238v.868a.341.341 0 0 1-.098.252.376.376 0 0 1-.252.084h-4.298v2.562h4.718c.102 0 .186.033.252.098a.341.341 0 0 1 .098.252v.924a.325.325 0 0 1-.098.238.345.345 0 0 1-.252.098h-6.272zm12.571.14c-.868 0-1.606-.149-2.212-.448a3.24 3.24 0 0 1-1.372-1.302c-.318-.569-.495-1.251-.532-2.044-.01-.383-.014-.793-.014-1.232 0-.439.004-.859.014-1.26.037-.784.214-1.461.532-2.03a3.219 3.219 0 0 1 1.386-1.302c.606-.308 1.339-.462 2.198-.462a5.39 5.39 0 0 1 1.708.252c.504.168.933.401 1.288.7.354.289.63.63.826 1.022.196.392.298.817.308 1.274a.23.23 0 0 1-.084.21.285.285 0 0 1-.21.084h-1.33a.42.42 0 0 1-.252-.07.479.479 0 0 1-.14-.266c-.15-.616-.406-1.036-.77-1.26-.364-.224-.817-.336-1.358-.336-.626 0-1.125.177-1.498.532-.374.345-.574.919-.602 1.722a32.934 32.934 0 0 0 0 2.352c.028.803.228 1.381.602 1.736.373.345.872.518 1.498.518.541 0 .994-.112 1.358-.336.373-.233.63-.653.77-1.26.028-.131.074-.219.14-.266a.42.42 0 0 1 .252-.07h1.33c.084 0 .154.028.21.084a.23.23 0 0 1 .084.21c-.01.457-.112.882-.308 1.274a3.257 3.257 0 0 1-.826 1.036 4.041 4.041 0 0 1-1.288.686 5.39 5.39 0 0 1-1.708.252zm10.056 0c-.831 0-1.545-.135-2.142-.406a3.14 3.14 0 0 1-1.4-1.274c-.336-.579-.518-1.297-.546-2.156a53.083 53.083 0 0 1 0-2.394c.028-.849.215-1.559.56-2.128a3.308 3.308 0 0 1 1.414-1.288c.607-.289 1.311-.434 2.114-.434.803 0 1.507.145 2.114.434a3.287 3.287 0 0 1 1.428 1.288c.345.569.532 1.279.56 2.128a26.058 26.058 0 0 1 0 2.394c-.028.859-.21 1.577-.546 2.156a3.123 3.123 0 0 1-1.414 1.274c-.597.271-1.311.406-2.142.406zm0-1.61c.607 0 1.101-.177 1.484-.532.383-.364.588-.952.616-1.764a23.998 23.998 0 0 0 0-2.268c-.019-.541-.121-.98-.308-1.316-.177-.345-.42-.593-.728-.742a2.288 2.288 0 0 0-1.064-.238c-.392 0-.742.079-1.05.238-.308.149-.555.397-.742.742-.177.336-.275.775-.294 1.316-.009.401-.014.779-.014 1.134 0 .345.005.723.014 1.134.028.812.233 1.4.616 1.764.383.355.873.532 1.47.532zm6.804 1.47a.327.327 0 0 1-.238-.098.325.325 0 0 1-.098-.238v-9.114c0-.103.033-.187.098-.252a.327.327 0 0 1 .238-.098h3.626c1.13 0 2.021.261 2.674.784.654.523.98 1.283.98 2.282 0 .691-.172 1.265-.518 1.722a2.827 2.827 0 0 1-1.358.994l2.044 3.57a.347.347 0 0 1 .042.154.263.263 0 0 1-.098.21.268.268 0 0 1-.196.084h-1.274c-.158 0-.28-.042-.364-.126a1.165 1.165 0 0 1-.196-.252l-1.806-3.318h-1.946v3.36a.321.321 0 0 1-.098.238.297.297 0 0 1-.238.098h-1.274zm1.61-5.278h1.974c.57 0 .994-.126 1.274-.378.28-.261.42-.625.42-1.092 0-.467-.14-.831-.42-1.092-.27-.271-.695-.406-1.274-.406h-1.974v2.968zm8.31 5.278a.327.327 0 0 1-.238-.098.325.325 0 0 1-.098-.238v-9.114c0-.103.033-.187.098-.252a.327.327 0 0 1 .238-.098h3.416c.943 0 1.718.145 2.324.434a2.954 2.954 0 0 1 1.386 1.288c.318.569.481 1.265.49 2.086.019.411.028.775.028 1.092 0 .317-.009.677-.028 1.078-.018.868-.177 1.587-.476 2.156a2.83 2.83 0 0 1-1.358 1.26c-.597.271-1.362.406-2.296.406h-3.486zm1.61-1.61h1.806c.523 0 .948-.075 1.274-.224.327-.149.565-.387.714-.714.159-.336.243-.775.252-1.316.01-.28.014-.523.014-.728.01-.215.01-.425 0-.63 0-.215-.004-.457-.014-.728-.018-.765-.21-1.33-.574-1.694-.364-.364-.942-.546-1.736-.546h-1.736v6.58zm8.734 1.61a.325.325 0 0 1-.238-.098.325.325 0 0 1-.098-.238v-9.128c0-.093.033-.173.098-.238a.325.325 0 0 1 .238-.098h1.316c.103 0 .182.033.238.098a.325.325 0 0 1 .098.238v9.128a.325.325 0 0 1-.098.238.297.297 0 0 1-.238.098h-1.316zm4.684 0a.324.324 0 0 1-.238-.098.321.321 0 0 1-.098-.238v-9.114a.338.338 0 0 1 .336-.35h1.078c.13 0 .224.033.28.098a.794.794 0 0 1 .126.126l4.032 6.272v-6.146c0-.103.028-.187.084-.252a.341.341 0 0 1 .252-.098h1.176c.102 0 .186.033.252.098a.341.341 0 0 1 .098.252v9.1a.341.341 0 0 1-.098.252.327.327 0 0 1-.238.098h-1.092c-.131 0-.224-.033-.28-.098a.794.794 0 0 0-.126-.126l-4.018-6.132v6.02a.325.325 0 0 1-.098.238.345.345 0 0 1-.252.098h-1.176zm13.87.14c-.859 0-1.591-.149-2.198-.448a3.34 3.34 0 0 1-1.4-1.288c-.327-.569-.504-1.246-.532-2.03a57.501 57.501 0 0 1 0-2.604c.028-.775.205-1.437.532-1.988a3.344 3.344 0 0 1 1.414-1.274c.616-.299 1.344-.448 2.184-.448.681 0 1.279.093 1.792.28.513.177.938.411 1.274.7.345.28.602.583.77.91.177.327.271.63.28.91a.245.245 0 0 1-.07.21.303.303 0 0 1-.224.084h-1.442c-.093 0-.163-.019-.21-.056a.48.48 0 0 1-.126-.168 1.983 1.983 0 0 0-.35-.574 1.845 1.845 0 0 0-.644-.49c-.271-.131-.621-.196-1.05-.196-.635 0-1.143.168-1.526.504-.373.336-.574.891-.602 1.666a36.148 36.148 0 0 0 0 2.464c.028.793.233 1.363.616 1.708.392.345.905.518 1.54.518.42 0 .793-.075 1.12-.224.336-.149.597-.383.784-.7.196-.317.294-.723.294-1.218v-.434h-1.708a.325.325 0 0 1-.238-.098.341.341 0 0 1-.098-.252v-.742c0-.103.033-.187.098-.252a.325.325 0 0 1 .238-.098h3.346c.103 0 .182.033.238.098a.341.341 0 0 1 .098.252v1.47c0 .784-.173 1.461-.518 2.03a3.33 3.33 0 0 1-1.456 1.316c-.625.308-1.367.462-2.226.462z" fill="#00A879"></path><g filter="url(#test-recorder_svg__e)" fill="none"><mask id="test-recorder_svg__f" maskUnits="userSpaceOnUse" x="208" y="327" width="16" height="19" fill="#000"><path fill="#FFFFFF" d="M208 327h16v19h-16z"></path><path fill-rule="evenodd" clip-rule="evenodd" d="m212.836 338-.887-1.355c-.605-.925-1.895-1.262-2.881-.755l.23-.118a.571.571 0 0 0-.262.7l1.227 3.175c.195.504.692 1.216 1.104 1.573 0 0 2.469 2.044 2.469 2.81v.97h4l1-2 1 2h1v-.97c0-.766 1.508-3.179 1.508-3.179.278-.469.51-1.296.51-1.844v-4.035c-.018-.894-.778-1.617-1.715-1.617-.468 0-.848.362-.848.808v.324c0-.894-.759-1.618-1.696-1.618-.469 0-.849.362-.849.809v.323c0-.893-.759-1.617-1.696-1.617-.469 0-.849.362-.849.809v.323c0-.143-.015-.258-.044-.348l-.259-4.167a1.072 1.072 0 0 0-1.062-1.001c-.557 0-1 .448-1 1v9zm7.018-1h1v4h-1v-4zm-2 0h1v4h-1v-4zm-2 0h1v4h-1v-4z"></path></mask><path fill-rule="evenodd" clip-rule="evenodd" d="m212.836 338-.887-1.355c-.605-.925-1.895-1.262-2.881-.755l.23-.118a.571.571 0 0 0-.262.7l1.227 3.175c.195.504.692 1.216 1.104 1.573 0 0 2.469 2.044 2.469 2.81v.97h4l1-2 1 2h1v-.97c0-.766 1.508-3.179 1.508-3.179.278-.469.51-1.296.51-1.844v-4.035c-.018-.894-.778-1.617-1.715-1.617-.468 0-.848.362-.848.808v.324c0-.894-.759-1.618-1.696-1.618-.469 0-.849.362-.849.809v.323c0-.893-.759-1.617-1.696-1.617-.469 0-.849.362-.849.809v.323c0-.143-.015-.258-.044-.348l-.259-4.167a1.072 1.072 0 0 0-1.062-1.001c-.557 0-1 .448-1 1v9zm7.018-1h1v4h-1v-4zm-2 0h1v4h-1v-4zm-2 0h1v4h-1v-4z" fill="#FFFFFF"></path><path d="m212.836 338-.837.548 1.837 2.806V338h-1zm-.887-1.355.837-.547-.837.547zm-2.913-.173-.933.361.933-.361zm1.227 3.175.933-.36-.933.36zm1.104 1.573-.656.755.009.008.009.008.638-.771zm2.469 3.78h-1v1h1v-1zm4 0v1h.618l.276-.553-.894-.447zm1-2 .894-.447-.894-1.789-.895 1.789.895.447zm1 2-.895.447.277.553h.618v-1zm1 0v1h1v-1h-1zm1.508-4.149.848.53.007-.01.006-.011-.861-.509zm.51-5.879h1v-.01l-.001-.01-.999.02zm-7.697-1.804-.999.062.008.128.04.121.951-.311zm-.259-4.167-.998.062.998-.062zm-2.062-.001h-1 1zm8.018 8h1v-1h-1v1zm0 4v1h1v-1h-1zm-1 0h-1v1h1v-1zm-1-4h1v-1h-1v1zm0 4v1h1v-1h-1zm-1 0h-1v1h1v-1zm-1-4h1v-1h-1v1zm0 4v1h1v-1h-1zm-1 0h-1v1h1v-1zm-2.182-3.548-.886-1.354-1.674 1.095.887 1.355 1.673-1.096zm-.886-1.354c-.888-1.356-2.737-1.837-4.176-1.097l.915 1.778c.534-.274 1.264-.08 1.587.414l1.674-1.095zm-3.261.681.23-.118-.915-1.779-.23.119.915 1.778zm-.685-1.897a1.573 1.573 0 0 0-.737 1.951l1.866-.721a.433.433 0 0 1 .005.309.446.446 0 0 1-.219.24l-.915-1.779zm-.737 1.951 1.228 3.175 1.865-.721-1.227-3.175-1.866.721zm1.228 3.175c.252.654.844 1.502 1.38 1.967l1.311-1.51c-.287-.249-.689-.825-.826-1.178l-1.865.721zm2.036 1.212-.638.771h.001l.004.004.018.015.073.062a20.246 20.246 0 0 1 1.075.979c.296.291.568.581.759.829.096.124.154.215.184.272.041.078-.007.022-.007-.122h2c0-.336-.126-.623-.22-.804a3.95 3.95 0 0 0-.375-.57 10.602 10.602 0 0 0-.939-1.031 21.892 21.892 0 0 0-1.182-1.077l-.083-.071-.023-.019-.007-.006-.002-.001v-.001h-.001l-.637.77zm1.469 2.81v.97h2v-.97h-2zm1 1.97h4v-2h-4v2zm4.894-.553 1-2-1.789-.894-1 2 1.789.894zm-.789-2 1 2 1.789-.894-1-2-1.789.894zm1.895 2.553h1v-2h-1v2zm2-1v-.97h-2v.97h2zm0-.97c0 .036.01-.086.156-.43.124-.293.296-.635.478-.972a25.15 25.15 0 0 1 .663-1.151l.045-.073.011-.018.003-.004v-.001l-.848-.53-.848-.53-.001.002-.004.006-.014.023-.051.082-.177.295c-.146.246-.342.584-.539.949a14.18 14.18 0 0 0-.56 1.142c-.137.324-.314.791-.314 1.21h2zm1.369-2.67c.198-.334.354-.747.462-1.134.107-.387.187-.825.187-1.219h-2c0 .154-.037.403-.114.684-.078.28-.176.515-.256.65l1.721 1.019zm.649-2.353v-4.035h-2v4.035h2zm-.001-4.055c-.029-1.47-1.265-2.597-2.714-2.597v2c.426 0 .708.32.715.637l1.999-.04zm-2.714-2.597c-.975 0-1.848.765-1.848 1.808h2a.21.21 0 0 1-.062.152.133.133 0 0 1-.09.04v-2zm-1.848 1.808v.324h2v-.324h-2zm2 .324c0-1.49-1.253-2.618-2.696-2.618v2c.43 0 .696.321.696.618h2zm-2.696-2.618c-.976 0-1.849.766-1.849 1.809h2a.216.216 0 0 1-.061.152.131.131 0 0 1-.09.039v-2zm-1.849 1.809v.323h2v-.323h-2zm2 .323c0-1.49-1.252-2.617-2.696-2.617v2c.43 0 .696.321.696.617h2zm-2.696-2.617c-.976 0-1.849.765-1.849 1.809h2c0 .068-.03.122-.061.152a.136.136 0 0 1-.09.039v-2zm-1.849 1.809v.323h2v-.323h-2zm2 .323c0-.207-.021-.435-.094-.659l-1.901.622c-.008-.023-.008-.035-.007-.027 0 .007.002.027.002.064h2zm-.046-.41-.259-4.167-1.996.124.258 4.167 1.997-.124zm-.259-4.167a2.072 2.072 0 0 0-2.06-1.939v2c.008 0 .024.003.041.019a.068.068 0 0 1 .023.044l1.996-.124zm-2.06-1.939c-1.111 0-2 .898-2 2h2v-2zm-2 2v4h2v-4h-2zm0 4v5h2v-5h-2zm8.018 5h1v-2h-1v2zm0-1v4h2v-4h-2zm1 3h-1v2h1v-2zm0 1v-4h-2v4h2zm-3-3h1v-2h-1v2zm0-1v4h2v-4h-2zm1 3h-1v2h1v-2zm0 1v-4h-2v4h2zm-3-3h1v-2h-1v2zm0-1v4h2v-4h-2zm1 3h-1v2h1v-2zm0 1v-4h-2v4h2z" fill="#000" fill-opacity="0.8" mask="url(#test-recorder_svg__f)"></path></g><rect x="130" y="201.5" width="120" height="12" rx="6" fill="#EDF2F7"></rect><path d="M114 207.5c0 6.627-5.373 12-12 12s-12-5.373-12-12 5.373-12 12-12 12 5.373 12 12z" fill="#FFFFFF"></path><path fill-rule="evenodd" clip-rule="evenodd" d="M102 197c-5.799 0-10.5 4.701-10.5 10.5S96.201 218 102 218s10.5-4.701 10.5-10.5S107.799 197 102 197zm-13.5 10.5c0-7.456 6.044-13.5 13.5-13.5s13.5 6.044 13.5 13.5S109.456 221 102 221s-13.5-6.044-13.5-13.5z" fill="#EDF2F7"></path><circle cx="102" cy="207.5" r="6" fill="#00CC92"></circle><rect x="130" y="241.5" width="180" height="12" rx="6" fill="#EDF2F7"></rect><path d="M114 247.5c0 6.627-5.373 12-12 12s-12-5.373-12-12 5.373-12 12-12 12 5.373 12 12z" fill="#FFFFFF"></path><path fill-rule="evenodd" clip-rule="evenodd" d="M102 237c-5.799 0-10.5 4.701-10.5 10.5S96.201 258 102 258s10.5-4.701 10.5-10.5S107.799 237 102 237zm-13.5 10.5c0-7.456 6.044-13.5 13.5-13.5s13.5 6.044 13.5 13.5S109.456 261 102 261s-13.5-6.044-13.5-13.5z" fill="#EDF2F7"></path></g><path d="M36.704 316.895a2.759 2.759 0 0 0-1.5 3.331c.03.098.052.203.06.308a1.373 1.373 0 0 1-1.291 1.463c-.465.03-.915-.18-1.193-.548a1.168 1.168 0 0 1-.15-.27 2.759 2.759 0 0 0-3.332-1.5c-.097.03-.202.052-.307.06a1.374 1.374 0 0 1-1.463-1.291 1.39 1.39 0 0 1 .548-1.193c.082-.06.172-.112.27-.15a2.759 2.759 0 0 0 1.5-3.331 1.406 1.406 0 0 1-.06-.308 1.373 1.373 0 0 1 1.29-1.463c.466-.03.916.18 1.194.548.06.082.112.172.15.27a2.759 2.759 0 0 0 3.331 1.5c.098-.03.203-.052.308-.06a1.374 1.374 0 0 1 1.463 1.291c.03.465-.18.915-.548 1.193-.082.06-.172.112-.27.15zm-18.365-45.086a5.47 5.47 0 0 0-3.046 6.643c.064.198.106.403.12.608a2.748 2.748 0 0 1-2.537 2.932 2.735 2.735 0 0 1-2.713-1.653 5.468 5.468 0 0 0-6.615-3.046 2.546 2.546 0 0 1-.608.12 2.75 2.75 0 0 1-2.932-2.537 2.737 2.737 0 0 1 1.653-2.713 5.469 5.469 0 0 0 3.046-6.615 2.576 2.576 0 0 1-.12-.608 2.748 2.748 0 0 1 2.537-2.932 2.735 2.735 0 0 1 2.713 1.653 5.468 5.468 0 0 0 6.615 3.046 2.55 2.55 0 0 1 .608-.12 2.75 2.75 0 0 1 2.932 2.537 2.736 2.736 0 0 1-1.116 2.41 2.54 2.54 0 0 1-.537.275zm388.456-32.255a5.374 5.374 0 0 0-6.174 3.6 2.328 2.328 0 0 1-.243.555 2.686 2.686 0 0 1-3.697.895 2.7 2.7 0 0 1-1.291-2.206 2.515 2.515 0 0 1 .056-.603 5.374 5.374 0 0 0-3.6-6.174 2.328 2.328 0 0 1-.555-.243 2.686 2.686 0 0 1-.895-3.697 2.7 2.7 0 0 1 2.206-1.291c.201-.007.402.014.603.056a5.374 5.374 0 0 0 6.174-3.6c.056-.195.139-.382.243-.555a2.686 2.686 0 0 1 3.697-.895 2.7 2.7 0 0 1 1.291 2.206c.007.201-.014.402-.056.603a5.374 5.374 0 0 0 3.6 6.174c.195.056.382.139.555.243a2.686 2.686 0 0 1 .895 3.697 2.7 2.7 0 0 1-2.206 1.291 2.567 2.567 0 0 1-.603-.056zm-12.966-129.659a2.758 2.758 0 0 0-1.5 3.331c.03.098.052.203.06.308a1.373 1.373 0 0 1-1.291 1.463c-.465.03-.915-.18-1.193-.548a1.183 1.183 0 0 1-.15-.27 2.758 2.758 0 0 0-3.331-1.5c-.098.03-.203.052-.308.06a1.374 1.374 0 0 1-1.463-1.291c-.03-.465.18-.915.548-1.193.082-.06.172-.112.27-.15a2.758 2.758 0 0 0 1.5-3.331 1.435 1.435 0 0 1-.06-.308 1.374 1.374 0 0 1 1.291-1.463c.465-.03.915.18 1.193.548.06.082.112.172.15.27a2.758 2.758 0 0 0 3.331 1.5c.098-.03.203-.052.308-.06a1.374 1.374 0 0 1 1.463 1.291c.03.465-.18.915-.548 1.193-.082.06-.172.112-.27.15zm37.35 41a2.758 2.758 0 0 0-1.5 3.331c.03.098.052.203.06.308a1.374 1.374 0 0 1-1.291 1.463c-.465.03-.915-.18-1.193-.548a1.183 1.183 0 0 1-.15-.27 2.758 2.758 0 0 0-3.331-1.5c-.098.03-.203.052-.308.06a1.374 1.374 0 0 1-1.463-1.291c-.03-.465.18-.915.548-1.193.082-.06.172-.112.27-.15a2.758 2.758 0 0 0 1.5-3.331 1.435 1.435 0 0 1-.06-.308 1.374 1.374 0 0 1 1.291-1.463c.465-.03.915.18 1.193.548.06.082.112.172.15.27a2.758 2.758 0 0 0 3.331 1.5c.098-.03.203-.052.308-.06a1.374 1.374 0 0 1 1.463 1.291c.03.465-.18.915-.548 1.193-.082.06-.172.112-.27.15z" fill="#B3FFE9"></path></g><defs><filter id="test-recorder_svg__b" x="56" y="9" width="320" height="446" filterUnits="userSpaceOnUse" color-interpolation-filters="sRGB"><feFlood flood-opacity="0" result="BackgroundImageFix"></feFlood><feBlend in="SourceGraphic" in2="BackgroundImageFix" result="shape"></feBlend><feGaussianBlur stdDeviation="10" result="effect1_foregroundBlur"></feGaussianBlur></filter><filter id="test-recorder_svg__e" x="205" y="325" width="21.854" height="25" filterUnits="userSpaceOnUse" color-interpolation-filters="sRGB"><feFlood flood-opacity="0" result="BackgroundImageFix"></feFlood><feColorMatrix in="SourceAlpha" values="0 0 0 0 0 0 0 0 0 0 0 0 0 0 0 0 0 0 127 0"></feColorMatrix><feOffset dy="1"></feOffset><feGaussianBlur stdDeviation="1.5"></feGaussianBlur><feColorMatrix values="0 0 0 0 0 0 0 0 0 0 0 0 0 0 0 0 0 0 0.2 0"></feColorMatrix><feBlend in2="BackgroundImageFix" result="effect1_dropShadow"></feBlend><feBlend in="SourceGraphic" in2="effect1_dropShadow" result="shape"></feBlend></filter><radialGradient id="test-recorder_svg__d" cx="0" cy="0" r="1" gradientUnits="userSpaceOnUse" gradientTransform="rotate(131.495 46.946 42.646) scale(18.2893 16.8898)"><stop stop-color="#fff" stop-opacity="0"></stop><stop offset="0.823" stop-color="#fff" stop-opacity="0.5"></stop><stop offset="1"></stop></radialGradient><clipPath id="test-recorder_svg__a"><path fill="#fff" d="M0 0h432v450H0z"></path></clipPath><radialGradient id="test-recorder_svg__d" cx="0" cy="0" r="1" gradientUnits="userSpaceOnUse" gradientTransform="rotate(131.495 46.946 42.646) scale(18.2893 16.8898)"><stop stop-color="#fff" stop-opacity="0"></stop><stop offset="0.823" stop-color="#fff" stop-opacity="0.5"></stop><stop offset="1"></stop></radialGradient></defs></svg>