<svg xmlns:xlink="http://www.w3.org/1999/xlink" viewBox="0 0 432 370" fill="none" xmlns="http://www.w3.org/2000/svg" width="432" height="370"><g opacity="0.1" filter="url(#responsive-devices_svg__a)" fill="none"><path fill-rule="evenodd" clip-rule="evenodd" d="M362 39.354c0-2.392-.885-4.792-2.654-6.617A8.874 8.874 0 0 0 352.929 30H55.071a8.872 8.872 0 0 0-6.417 2.737C46.884 34.562 46 36.954 46 39.354V273.55c0 2.416.885 4.833 2.654 6.684 1.77 1.843 4.09 2.765 6.417 2.765H234v.088h-76.103v30.455h-37.468v9.609H234V347a7 7 0 0 0 7 7h52a7 7 0 0 0 7-7v-9h80.11c3.253 0 5.89-2.859 5.89-6.386V162.386c0-3.527-2.637-6.386-5.89-6.386H362V39.354z" fill="#718096"></path></g><g filter="url(#responsive-devices_svg__b)" fill="none"><path d="M240.544 273.088h-82.647v30.455h82.647v-30.455zm37.46 30.455H120.429v9.609h157.575v-9.609z" fill="#FFFFFF"></path><path d="M362.441 29.37c0-2.396-.914-4.8-2.742-6.628A9.308 9.308 0 0 0 353.07 20H45.37c-2.403 0-4.8.906-6.628 2.742A9.339 9.339 0 0 0 36 29.371v207.025h326.441V29.371z" fill="#2D3748"></path><path d="M352.11 30.753H46.753v194.813H352.11V30.753z" fill="#FFFFFF"></path><rect x="199.604" y="132.948" width="93.808" height="11.257" rx="5.629" fill="#EDF2F7"></rect><rect x="199.604" y="185.48" width="93.808" height="11.257" rx="5.629" fill="#EDF2F7"></rect><rect x="199.604" y="106.682" width="114.446" height="11.257" rx="5.629" fill="#EDF2F7"></rect><rect x="199.604" y="159.214" width="114.446" height="11.257" rx="5.629" fill="#EDF2F7"></rect><g opacity="0.5" fill-rule="evenodd" clip-rule="evenodd" fill="none"><path d="M159.864 186.163c2.52 2.52.735 6.829-2.829 6.829H89a4 4 0 0 1-4-4v-68.035c0-3.564 4.309-5.349 6.828-2.829l68.036 68.035z" fill="url(&quot;#responsive-devices_svg__c&quot;)"></path><path d="M178.158 130.648c0 13.06-10.588 23.647-23.648 23.647s-23.648-10.587-23.648-23.647c0-13.061 10.588-23.648 23.648-23.648s23.648 10.587 23.648 23.648z" fill="url(&quot;#responsive-devices_svg__d&quot;)"></path><path d="M168.125 176.093a4 4 0 0 0 4 4h12.065a4 4 0 0 0 4-4v-12.065a4 4 0 0 0-4-4h-12.065a4 4 0 0 0-4 4v12.065z" fill="url(&quot;#responsive-devices_svg__e&quot;)"></path></g><rect x="85.158" y="69.158" width="228.893" height="22.514" rx="4" fill="#F7FAFC"></rect><path d="M291.537 69.158h18.514a4 4 0 0 1 4 4v14.514a4 4 0 0 1-4 4h-18.514V69.158z" fill="#E2E8F0"></path><path d="M362.441 263.717a9.352 9.352 0 0 1-2.742 6.629 9.326 9.326 0 0 1-6.629 2.742H45.37a9.365 9.365 0 0 1-9.37-9.371v-27.321h326.441v27.321z" fill="#FFFFFF"></path><path d="M266 152.386a6.383 6.383 0 0 1 6.38-6.386h117.24a6.383 6.383 0 0 1 6.38 6.386v169.228a6.383 6.383 0 0 1-6.38 6.386H272.38a6.383 6.383 0 0 1-6.38-6.386V152.386z" fill="#2D3748"></path><path fill="#FFFFFF" d="M273 162h116v152H273z"></path><rect x="285" y="303" width="64" height="6" rx="3" fill="#EDF2F7"></rect><rect x="285" y="289" width="92" height="6" rx="3" fill="#EDF2F7"></rect><g opacity="0.5" fill-rule="evenodd" clip-rule="evenodd" fill="none"><path d="M351.005 269.838c2.52 2.52.735 6.829-2.829 6.829H289a4 4 0 0 1-4-4V213.49c0-3.563 4.309-5.348 6.828-2.828l59.177 59.176z" fill="url(&quot;#responsive-devices_svg__f&quot;)"></path><path d="M368.056 221.083c0 11.644-9.44 21.084-21.083 21.084-11.645 0-21.084-9.44-21.084-21.084S335.328 200 346.973 200c11.643 0 21.083 9.439 21.083 21.083z" fill="url(&quot;#responsive-devices_svg__g&quot;)"></path><path d="M359.111 261.167a4 4 0 0 0 4 4H373a4 4 0 0 0 4-4v-9.889a4 4 0 0 0-4-4h-9.889a4 4 0 0 0-4 4v9.889z" fill="url(&quot;#responsive-devices_svg__h&quot;)"></path></g><rect x="285" y="174" width="92" height="16" rx="3" fill="#F7FAFC"></rect><path d="M361 174h13a3 3 0 0 1 3 3v10a3 3 0 0 1-3 3h-13v-16z" fill="#E2E8F0"></path><path d="M332.286 154a1 1 0 1 1-2 0 1 1 0 0 1 2 0z" fill="#000"></path><path fill-rule="evenodd" clip-rule="evenodd" d="M331.286 325a4 4 0 1 0 .001-8 4 4 0 0 0-.001 8z" fill="#000"></path><rect x="234" y="212" width="66" height="132" rx="7" fill="#2D3748"></rect><rect x="262.75" y="216" width="6" height="1.5" rx="0.75" fill="#000"></rect><circle cx="270.5" cy="216.75" r="0.75" fill="#000"></circle><mask id="responsive-devices_svg__i" maskUnits="userSpaceOnUse" x="237" y="215" width="60" height="126" fill="none"><path d="M237 221a6 6 0 0 1 6-6h7a1 1 0 0 1 1 1v2a3 3 0 0 0 3 3h26a3 3 0 0 0 3-3v-2a1 1 0 0 1 1-1h7a6 6 0 0 1 6 6v114a6 6 0 0 1-6 6h-48a6 6 0 0 1-6-6V221z" fill="#FFFFFF"></path></mask><g mask="url(#responsive-devices_svg__i)" fill="none"><path d="M237 221a6 6 0 0 1 6-6h7a1 1 0 0 1 1 1v2a3 3 0 0 0 3 3h26a3 3 0 0 0 3-3v-2a1 1 0 0 1 1-1h7a6 6 0 0 1 6 6v114a6 6 0 0 1-6 6h-48a6 6 0 0 1-6-6V221z" fill="#FFFFFF"></path><rect x="244" y="309" width="30" height="4" rx="2" fill="#EDF2F7"></rect><rect x="244" y="329" width="30" height="4" rx="2" fill="#EDF2F7"></rect><rect x="244" y="299" width="46" height="4" rx="2" fill="#EDF2F7"></rect><rect x="244" y="319" width="46" height="4" rx="2" fill="#EDF2F7"></rect><g opacity="0.5" fill-rule="evenodd" clip-rule="evenodd" fill="none"><path d="M277.002 286.919c1.26 1.26.368 3.415-1.414 3.415H246a2 2 0 0 1-2-2v-29.589c0-1.781 2.154-2.674 3.414-1.414l29.588 29.588z" fill="url(&quot;#responsive-devices_svg__j&quot;)"></path><path d="M285.528 262.542c0 5.822-4.72 10.542-10.542 10.542s-10.542-4.72-10.542-10.542S269.164 252 274.986 252s10.542 4.72 10.542 10.542z" fill="url(&quot;#responsive-devices_svg__k&quot;)"></path><path d="M281.056 280.584a4 4 0 0 0 4 4H286a4 4 0 0 0 4-4v-.945a4 4 0 0 0-4-4h-.944a4 4 0 0 0-4 4v.945z" fill="url(&quot;#responsive-devices_svg__l&quot;)"></path></g><rect x="244" y="232" width="46" height="12" rx="2" fill="#F7FAFC"></rect><path d="M278 232h10a2 2 0 0 1 2 2v8a2 2 0 0 1-2 2h-10v-12z" fill="#E2E8F0"></path></g></g><defs><linearGradient id="responsive-devices_svg__c" x1="152.472" y1="120.377" x2="95.892" y2="181.192" gradientUnits="userSpaceOnUse"><stop stop-color="#4CBAFF"></stop><stop offset="1" stop-color="#CCEBFF"></stop></linearGradient><linearGradient id="responsive-devices_svg__d" x1="169.925" y1="112.255" x2="137.169" y2="147.464" gradientUnits="userSpaceOnUse"><stop stop-color="#F977DF"></stop><stop offset="1" stop-color="#FDD8F6"></stop></linearGradient><linearGradient id="responsive-devices_svg__e" x1="184.697" y1="162.258" x2="170.801" y2="177.195" gradientUnits="userSpaceOnUse"><stop stop-color="#4CFFCC"></stop><stop offset="1" stop-color="#B5FFEA"></stop></linearGradient><linearGradient id="responsive-devices_svg__f" x1="345.155" y1="211.926" x2="294.711" y2="266.146" gradientUnits="userSpaceOnUse"><stop stop-color="#4CBAFF"></stop><stop offset="1" stop-color="#CCEBFF"></stop></linearGradient><linearGradient id="responsive-devices_svg__g" x1="360.716" y1="204.685" x2="331.511" y2="236.076" gradientUnits="userSpaceOnUse"><stop stop-color="#F977DF"></stop><stop offset="1" stop-color="#FDD8F6"></stop></linearGradient><linearGradient id="responsive-devices_svg__h" x1="373.886" y1="249.265" x2="361.497" y2="262.583" gradientUnits="userSpaceOnUse"><stop stop-color="#4CFFCC"></stop><stop offset="1" stop-color="#B5FFEA"></stop></linearGradient><linearGradient id="responsive-devices_svg__j" x1="274.077" y1="257.963" x2="248.856" y2="285.073" gradientUnits="userSpaceOnUse"><stop stop-color="#4CBAFF"></stop><stop offset="1" stop-color="#CCEBFF"></stop></linearGradient><linearGradient id="responsive-devices_svg__k" x1="281.858" y1="254.343" x2="267.256" y2="270.039" gradientUnits="userSpaceOnUse"><stop stop-color="#F977DF"></stop><stop offset="1" stop-color="#FDD8F6"></stop></linearGradient><linearGradient id="responsive-devices_svg__l" x1="288.443" y1="276.633" x2="282.248" y2="283.292" gradientUnits="userSpaceOnUse"><stop stop-color="#4CFFCC"></stop><stop offset="1" stop-color="#B5FFEA"></stop></linearGradient><filter id="responsive-devices_svg__a" x="36" y="20" width="360" height="344" filterUnits="userSpaceOnUse" color-interpolation-filters="sRGB"><feFlood flood-opacity="0" result="BackgroundImageFix"></feFlood><feBlend in="SourceGraphic" in2="BackgroundImageFix" result="shape"></feBlend><feGaussianBlur stdDeviation="5" result="effect1_foregroundBlur"></feGaussianBlur></filter><filter id="responsive-devices_svg__b" x="32" y="18" width="368" height="332" filterUnits="userSpaceOnUse" color-interpolation-filters="sRGB"><feFlood flood-opacity="0" result="BackgroundImageFix"></feFlood><feColorMatrix in="SourceAlpha" values="0 0 0 0 0 0 0 0 0 0 0 0 0 0 0 0 0 0 127 0"></feColorMatrix><feOffset dy="2"></feOffset><feGaussianBlur stdDeviation="2"></feGaussianBlur><feColorMatrix values="0 0 0 0 0.290196 0 0 0 0 0.333333 0 0 0 0 0.407843 0 0 0 0.1 0"></feColorMatrix><feBlend in2="BackgroundImageFix" result="effect1_dropShadow"></feBlend><feBlend in="SourceGraphic" in2="effect1_dropShadow" result="shape"></feBlend></filter><linearGradient id="responsive-devices_svg__c" x1="152.472" y1="120.377" x2="95.892" y2="181.192" gradientUnits="userSpaceOnUse"><stop stop-color="#4CBAFF"></stop><stop offset="1" stop-color="#CCEBFF"></stop></linearGradient><linearGradient id="responsive-devices_svg__d" x1="169.925" y1="112.255" x2="137.169" y2="147.464" gradientUnits="userSpaceOnUse"><stop stop-color="#F977DF"></stop><stop offset="1" stop-color="#FDD8F6"></stop></linearGradient><linearGradient id="responsive-devices_svg__e" x1="184.697" y1="162.258" x2="170.801" y2="177.195" gradientUnits="userSpaceOnUse"><stop stop-color="#4CFFCC"></stop><stop offset="1" stop-color="#B5FFEA"></stop></linearGradient><linearGradient id="responsive-devices_svg__f" x1="345.155" y1="211.926" x2="294.711" y2="266.146" gradientUnits="userSpaceOnUse"><stop stop-color="#4CBAFF"></stop><stop offset="1" stop-color="#CCEBFF"></stop></linearGradient><linearGradient id="responsive-devices_svg__g" x1="360.716" y1="204.685" x2="331.511" y2="236.076" gradientUnits="userSpaceOnUse"><stop stop-color="#F977DF"></stop><stop offset="1" stop-color="#FDD8F6"></stop></linearGradient><linearGradient id="responsive-devices_svg__h" x1="373.886" y1="249.265" x2="361.497" y2="262.583" gradientUnits="userSpaceOnUse"><stop stop-color="#4CFFCC"></stop><stop offset="1" stop-color="#B5FFEA"></stop></linearGradient><linearGradient id="responsive-devices_svg__j" x1="274.077" y1="257.963" x2="248.856" y2="285.073" gradientUnits="userSpaceOnUse"><stop stop-color="#4CBAFF"></stop><stop offset="1" stop-color="#CCEBFF"></stop></linearGradient><linearGradient id="responsive-devices_svg__k" x1="281.858" y1="254.343" x2="267.256" y2="270.039" gradientUnits="userSpaceOnUse"><stop stop-color="#F977DF"></stop><stop offset="1" stop-color="#FDD8F6"></stop></linearGradient><linearGradient id="responsive-devices_svg__l" x1="288.443" y1="276.633" x2="282.248" y2="283.292" gradientUnits="userSpaceOnUse"><stop stop-color="#4CFFCC"></stop><stop offset="1" stop-color="#B5FFEA"></stop></linearGradient></defs></svg>