<svg xmlns:xlink="http://www.w3.org/1999/xlink" viewBox="0 0 289 296" fill="none" xmlns="http://www.w3.org/2000/svg" width="432" height="442"><g filter="url(#screenshot-comparison_svg__a)" fill="none"><rect x="6.394" y="2" width="186.699" height="130.434" rx="4" fill="#FFFFFF"></rect><mask id="screenshot-comparison_svg__b" maskUnits="userSpaceOnUse" x="6" y="2" width="188" height="131" fill="none"><rect x="6.394" y="2" width="186.699" height="130.434" rx="4" fill="#FFFFFF"></rect></mask><g mask="url(#screenshot-comparison_svg__b)" fill="none"><path d="M6.394 2h186.699v14.706H6.393V2z" fill="#2D3748"></path><circle cx="13.747" cy="9.353" fill="#FF6666" r="1.598"></circle><circle cx="20.14" cy="9.353" fill="#FFD666" r="1.598"></circle><circle cx="26.534" cy="9.353" fill="#00CC92" r="1.598"></circle><rect opacity="0.5" x="56.265" y="31.412" width="38.363" height="38.363" rx="8" fill="url(&quot;#screenshot-comparison_svg__c&quot;)"></rect><rect opacity="0.5" x="104.858" y="31.412" width="38.363" height="38.363" rx="8" fill="url(&quot;#screenshot-comparison_svg__d&quot;)"></rect><rect opacity="0.5" x="56.265" y="80.004" width="38.363" height="38.363" rx="8" fill="url(&quot;#screenshot-comparison_svg__e&quot;)"></rect><rect opacity="0.5" x="104.858" y="80.004" width="38.363" height="38.363" rx="8" fill="url(&quot;#screenshot-comparison_svg__f&quot;)"></rect></g><rect x="95.907" y="101.743" width="186.699" height="130.434" rx="4" fill="#FFFFFF"></rect><mask id="screenshot-comparison_svg__g" maskUnits="userSpaceOnUse" x="95" y="101" width="188" height="132" fill="none"><rect x="95.907" y="101.743" width="186.699" height="130.434" rx="4" fill="#FFFFFF"></rect></mask><g mask="url(#screenshot-comparison_svg__g)" fill="none"><path d="M95.907 101.743h186.699v14.706H95.907v-14.706z" fill="#2D3748"></path><circle cx="103.26" cy="109.096" fill="#FF6666" r="1.598"></circle><circle cx="109.654" cy="109.096" r="1.598" fill="#FFD666"></circle><circle cx="116.047" cy="109.096" fill="#00CC92" r="1.598"></circle><rect opacity="0.5" x="145.779" y="131.155" width="38.363" height="38.363" rx="8" fill="url(&quot;#screenshot-comparison_svg__h&quot;)"></rect><rect opacity="0.5" x="190.061" y="136.773" width="38.363" height="38.363" rx="8" transform="rotate(-15 190.061 136.773)" fill="url(&quot;#screenshot-comparison_svg__i&quot;)"></rect><rect x="185.362" y="134.061" width="46.035" height="46.035" rx="8" transform="rotate(-15 185.362 134.061)" stroke="#FFDDDD" stroke-width="2px" fill="none"></rect><rect opacity="0.5" x="145.779" y="179.748" width="38.363" height="38.363" rx="8" fill="url(&quot;#screenshot-comparison_svg__j&quot;)"></rect><rect opacity="0.5" x="194.372" y="179.748" width="38.363" height="38.363" rx="8" fill="url(&quot;#screenshot-comparison_svg__k&quot;)"></rect></g><rect x="6.394" y="247.522" width="276.212" height="35.805" rx="17.903" fill="#FFFFFF"></rect><mask id="screenshot-comparison_svg__l" maskUnits="userSpaceOnUse" x="6" y="247" width="277" height="37" fill="none"><rect x="6.394" y="247.522" width="276.212" height="35.805" rx="17.903" fill="#FFFFFF"></rect></mask><g mask="url(#screenshot-comparison_svg__l)" fill="none"><path d="M113.486 268.711c-.531 0-.987-.08-1.369-.242-.382-.161-.672-.373-.869-.635a1.491 1.491 0 0 1-.313-.851c0-.053.018-.098.054-.134a.18.18 0 0 1 .134-.054h.797c.071 0 .125.015.161.045.042.024.08.066.116.126.06.202.197.373.412.51.215.137.507.206.877.206.424 0 .743-.069.958-.206a.673.673 0 0 0 .322-.591.542.542 0 0 0-.17-.412c-.107-.107-.271-.2-.492-.277a12.397 12.397 0 0 0-.967-.287c-.704-.167-1.22-.388-1.548-.662-.323-.281-.484-.677-.484-1.191 0-.346.093-.653.278-.922a1.92 1.92 0 0 1 .814-.635 3.109 3.109 0 0 1 1.244-.233c.49 0 .913.087 1.272.26.358.173.629.391.814.653.191.257.292.513.304.77a.183.183 0 0 1-.188.188h-.832a.26.26 0 0 1-.26-.17c-.035-.191-.155-.349-.358-.475-.203-.131-.453-.196-.752-.196-.334 0-.596.062-.787.187a.615.615 0 0 0-.287.547c0 .167.048.304.143.411.096.108.245.203.448.287.209.083.507.176.895.277.525.12.943.254 1.253.403.317.149.549.337.699.564.149.227.223.516.223.868 0 .382-.107.716-.322 1.003-.209.28-.507.495-.895.644a3.632 3.632 0 0 1-1.325.224zm6.305 0c-.824 0-1.462-.212-1.916-.635-.447-.424-.686-1.021-.716-1.791a23.889 23.889 0 0 1-.009-.787c0-.37.003-.639.009-.806.03-.764.272-1.358.725-1.781.46-.43 1.095-.645 1.907-.645.531 0 .993.093 1.387.278.394.179.698.426.913.743.215.31.328.662.34 1.056v.018a.16.16 0 0 1-.062.125.19.19 0 0 1-.126.045h-.85c-.072 0-.125-.015-.161-.045-.036-.03-.066-.086-.09-.17-.095-.376-.253-.639-.474-.788-.221-.155-.516-.232-.886-.232-.86 0-1.307.48-1.343 1.441-.006.161-.009.408-.009.743 0 .334.003.587.009.761.036.96.483 1.441 1.343 1.441.37 0 .665-.078.886-.233.227-.155.385-.418.474-.788.018-.083.045-.14.081-.17a.286.286 0 0 1 .17-.045h.85c.054 0 .099.018.135.054a.148.148 0 0 1 .053.134 1.965 1.965 0 0 1-.34 1.066c-.215.31-.519.558-.913.743-.394.179-.856.268-1.387.268zm4.236-.089a.208.208 0 0 1-.152-.063.21.21 0 0 1-.062-.152v-5.828c0-.065.018-.119.053-.161a.222.222 0 0 1 .161-.062h2.319c.728 0 1.298.17 1.71.51.417.34.626.823.626 1.45 0 .436-.107.803-.322 1.101a1.76 1.76 0 0 1-.877.636l1.307 2.282a.236.236 0 0 1 .026.099c0 .053-.02.098-.062.134a.173.173 0 0 1-.126.054h-.814a.355.355 0 0 1-.224-.063.647.647 0 0 1-.134-.179l-1.155-2.122h-1.244v2.149c0 .059-.021.11-.063.152a.188.188 0 0 1-.152.063h-.815zm2.292-3.375c.358 0 .627-.081.806-.242.185-.161.277-.394.277-.698 0-.304-.092-.54-.277-.707-.179-.167-.448-.251-.806-.251h-1.262v1.898h1.262zm4.051 3.375a.206.206 0 0 1-.152-.063.208.208 0 0 1-.063-.152v-5.828a.24.24 0 0 1 .054-.161.22.22 0 0 1 .161-.062h3.939c.065 0 .119.021.161.062a.218.218 0 0 1 .062.161v.591c0 .066-.02.12-.062.161a.24.24 0 0 1-.161.054h-2.945v1.584h2.748c.065 0 .119.021.161.063a.19.19 0 0 1 .063.152v.555c0 .066-.021.12-.063.161a.24.24 0 0 1-.161.054h-2.748v1.638h3.016a.215.215 0 0 1 .224.224v.591a.219.219 0 0 1-.063.161.236.236 0 0 1-.161.054h-4.01zm5.888 0a.206.206 0 0 1-.152-.063.208.208 0 0 1-.063-.152v-5.828a.24.24 0 0 1 .054-.161.22.22 0 0 1 .161-.062h3.939c.065 0 .119.021.161.062a.218.218 0 0 1 .062.161v.591c0 .066-.02.12-.062.161a.24.24 0 0 1-.161.054h-2.945v1.584H140c.065 0 .119.021.161.063a.19.19 0 0 1 .063.152v.555c0 .066-.021.12-.063.161a.24.24 0 0 1-.161.054h-2.748v1.638h3.016a.215.215 0 0 1 .224.224v.591a.219.219 0 0 1-.063.161.236.236 0 0 1-.161.054h-4.01zm5.888 0a.208.208 0 0 1-.152-.063.208.208 0 0 1-.063-.152v-5.828a.24.24 0 0 1 .054-.161.222.222 0 0 1 .161-.062h.689c.072 0 .126.015.162.044a.4.4 0 0 1 .098.099l2.578 4.01v-3.93a.24.24 0 0 1 .054-.161.219.219 0 0 1 .161-.062h.752c.065 0 .119.021.161.062a.219.219 0 0 1 .063.161v5.819a.219.219 0 0 1-.063.161.208.208 0 0 1-.152.063h-.699c-.101 0-.187-.048-.259-.144l-2.569-3.92v3.849a.219.219 0 0 1-.063.161.237.237 0 0 1-.161.054h-.752zm8.609.089c-.531 0-.988-.08-1.369-.242-.382-.161-.672-.373-.869-.635a1.491 1.491 0 0 1-.313-.851c0-.053.018-.098.054-.134a.18.18 0 0 1 .134-.054h.797c.071 0 .125.015.161.045a.35.35 0 0 1 .116.126c.06.202.197.373.412.51.215.137.507.206.877.206.424 0 .743-.069.958-.206a.673.673 0 0 0 .322-.591.545.545 0 0 0-.17-.412c-.107-.107-.271-.2-.492-.277a12.397 12.397 0 0 0-.967-.287c-.704-.167-1.22-.388-1.549-.662-.322-.281-.483-.677-.483-1.191 0-.346.093-.653.278-.922.19-.268.462-.48.814-.635a3.109 3.109 0 0 1 1.244-.233c.49 0 .913.087 1.271.26.358.173.63.391.815.653.191.257.292.513.304.77a.184.184 0 0 1-.188.188h-.832a.26.26 0 0 1-.26-.17c-.036-.191-.155-.349-.358-.475-.203-.131-.453-.196-.752-.196-.334 0-.596.062-.787.187a.615.615 0 0 0-.287.547c0 .167.048.304.143.411.096.108.245.203.448.287.209.083.507.176.895.277.525.12.943.254 1.253.403.317.149.549.337.698.564.15.227.224.516.224.868 0 .382-.107.716-.322 1.003-.209.28-.507.495-.895.644a3.632 3.632 0 0 1-1.325.224zm4.103-.089a.208.208 0 0 1-.153-.063.21.21 0 0 1-.062-.152v-5.828c0-.065.018-.119.053-.161a.223.223 0 0 1 .162-.062h.814c.066 0 .117.021.152.062a.219.219 0 0 1 .063.161v2.31h2.641v-2.31c0-.065.018-.119.053-.161a.222.222 0 0 1 .161-.062h.806a.22.22 0 0 1 .161.062.219.219 0 0 1 .063.161v5.828a.219.219 0 0 1-.063.161.237.237 0 0 1-.161.054h-.806a.208.208 0 0 1-.152-.063.21.21 0 0 1-.062-.152v-2.399h-2.641v2.399c0 .059-.021.11-.063.152-.035.042-.086.063-.152.063h-.814zm9.034.089c-.812 0-1.445-.206-1.898-.618-.454-.411-.692-1.023-.716-1.835a23.744 23.744 0 0 1-.009-.76c0-.341.003-.597.009-.77.024-.794.268-1.403.734-1.826.465-.424 1.092-.636 1.88-.636.787 0 1.414.212 1.879.636.472.423.719 1.032.743 1.826.012.346.018.602.018.77 0 .161-.006.414-.018.76-.03.812-.271 1.424-.725 1.835-.453.412-1.086.618-1.897.618zm0-1.029c.399 0 .719-.12.957-.358.239-.245.367-.615.385-1.11.012-.358.018-.6.018-.725 0-.138-.006-.379-.018-.725-.018-.496-.146-.863-.385-1.101-.238-.245-.558-.367-.957-.367-.394 0-.711.122-.949.367-.239.238-.367.605-.385 1.101a22.26 22.26 0 0 0-.009.725c0 .304.003.546.009.725.018.495.143.865.376 1.11.238.238.558.358.958.358zm5.615.94a.206.206 0 0 1-.152-.063.208.208 0 0 1-.063-.152v-4.95h-1.656a.206.206 0 0 1-.152-.063.208.208 0 0 1-.063-.152v-.663a.24.24 0 0 1 .054-.161.222.222 0 0 1 .161-.062h4.565c.066 0 .12.021.161.062a.219.219 0 0 1 .063.161v.663a.215.215 0 0 1-.224.215h-1.647v4.95a.21.21 0 0 1-.062.152.219.219 0 0 1-.161.063h-.824zm6.373-2.176a.207.207 0 0 1-.152-.062.207.207 0 0 1-.062-.152v-.591c0-.066.02-.117.062-.152a.208.208 0 0 1 .152-.063h5.255a.19.19 0 0 1 .152.063c.042.035.063.086.063.152v.591c0 .059-.021.11-.063.152-.036.042-.087.062-.152.062h-5.255zm11.5 2.265c-.525 0-.973-.083-1.343-.251-.364-.167-.638-.376-.823-.626a1.484 1.484 0 0 1-.287-.788c0-.054.018-.095.054-.125a.214.214 0 0 1 .143-.054h.806c.131 0 .218.06.259.179.132.43.532.645 1.2.645.364 0 .65-.084.859-.251.209-.173.314-.418.314-.734 0-.597-.373-.895-1.119-.895h-.922a.215.215 0 0 1-.224-.215v-.376c0-.095.042-.185.125-.268l1.602-1.567h-2.56a.208.208 0 0 1-.152-.063.204.204 0 0 1-.062-.152v-.591c0-.065.017-.119.053-.161a.222.222 0 0 1 .161-.062h3.841c.065 0 .119.021.161.062a.222.222 0 0 1 .062.161v.537c0 .09-.038.174-.116.251l-1.549 1.593.108.009c.573.048 1.026.221 1.36.52.341.298.511.725.511 1.28 0 .394-.108.737-.323 1.029a2.03 2.03 0 0 1-.877.68c-.37.156-.791.233-1.262.233zm3.926-.089a.206.206 0 0 1-.152-.063.208.208 0 0 1-.063-.152v-.886c0-.06.021-.111.063-.153a.196.196 0 0 1 .152-.071h.895c.06 0 .111.024.152.071a.208.208 0 0 1 .063.153v.886c0 .059-.021.11-.063.152a.204.204 0 0 1-.152.063h-.895zm3.848 0a.206.206 0 0 1-.152-.063.208.208 0 0 1-.063-.152v-4.637l-1.36 1.047a.19.19 0 0 1-.126.045.216.216 0 0 1-.179-.098l-.376-.484a.252.252 0 0 1-.044-.134c0-.072.032-.131.098-.179l2.005-1.549a.361.361 0 0 1 .224-.062h.788c.065 0 .116.021.152.062.042.036.062.087.062.152v5.837c0 .059-.02.11-.062.152a.19.19 0 0 1-.152.063h-.815zm4.92.089c-.794 0-1.388-.221-1.782-.662-.387-.442-.599-1.021-.635-1.737a25.528 25.528 0 0 1-.009-.823c0-.394.003-.675.009-.842.03-.704.245-1.277.644-1.718.4-.442.991-.663 1.773-.663.787 0 1.381.221 1.781.663.4.441.612 1.014.636 1.718.012.167.018.448.018.842 0 .387-.006.662-.018.823-.03.716-.242 1.295-.636 1.737-.388.441-.982.662-1.781.662zm0-1.029c.376 0 .656-.123.841-.367.185-.251.284-.6.296-1.048.012-.346.017-.608.017-.787 0-.197-.005-.457-.017-.779-.012-.442-.111-.788-.296-1.038-.185-.251-.465-.376-.841-.376-.37 0-.651.125-.842.376-.185.25-.283.596-.295 1.038a23.57 23.57 0 0 0-.009.779c0 .352.003.614.009.787.012.448.11.797.295 1.048.191.244.472.367.842.367zm4.985-2.175c-.394 0-.71-.105-.949-.314-.232-.209-.361-.492-.385-.85a7.166 7.166 0 0 1-.009-.403c0-.179.003-.322.009-.43.024-.37.15-.662.376-.877.227-.215.546-.322.958-.322.412 0 .731.107.958.322.233.215.358.507.376.877.012.239.018.394.018.466 0 .065-.006.188-.018.367-.018.358-.146.641-.385.85-.233.209-.549.314-.949.314zm-.734 3.115a.201.201 0 0 1-.134-.045.182.182 0 0 1-.054-.134c0-.036.012-.069.036-.099l4.413-5.818a.507.507 0 0 1 .134-.126.295.295 0 0 1 .17-.044h.475c.059 0 .104.018.134.053.036.03.054.072.054.126a.154.154 0 0 1-.036.098l-4.413 5.819a.765.765 0 0 1-.134.134.344.344 0 0 1-.17.036h-.475zm.734-3.778c.173 0 .301-.051.385-.152a.712.712 0 0 0 .143-.394c.012-.203.018-.328.018-.376 0-.066-.006-.188-.018-.367a.596.596 0 0 0-.143-.385c-.084-.107-.212-.161-.385-.161-.173 0-.301.054-.385.161a.63.63 0 0 0-.134.385c-.006.09-.009.212-.009.367 0 .149.003.275.009.376a.763.763 0 0 0 .134.394c.084.101.212.152.385.152zm3.572 3.831c-.394 0-.71-.107-.949-.322-.233-.221-.361-.513-.385-.877a7.166 7.166 0 0 1-.009-.403c0-.173.003-.313.009-.421.024-.37.149-.662.376-.877.227-.215.546-.322.958-.322.411 0 .731.107.957.322.233.215.359.507.376.877.012.239.018.391.018.457 0 .065-.006.188-.018.367-.023.364-.155.656-.393.877-.233.215-.546.322-.94.322zm0-.698c.179 0 .307-.051.385-.152a.71.71 0 0 0 .143-.385c.012-.203.018-.328.018-.376 0-.066-.006-.188-.018-.367a.64.64 0 0 0-.143-.394c-.084-.107-.212-.161-.385-.161-.173 0-.302.054-.385.161a.681.681 0 0 0-.143.394c-.006.09-.009.212-.009.367 0 .149.003.275.009.376a.756.756 0 0 0 .143.385c.083.101.212.152.385.152zm7.529.734c-.824 0-1.462-.212-1.916-.635-.447-.424-.686-1.021-.716-1.791a23.889 23.889 0 0 1-.009-.787c0-.37.003-.639.009-.806.03-.764.272-1.358.725-1.781.46-.43 1.095-.645 1.907-.645.531 0 .993.093 1.387.278.394.179.699.426.913.743.215.31.329.662.341 1.056v.018a.161.161 0 0 1-.063.125.19.19 0 0 1-.125.045h-.851c-.071 0-.125-.015-.161-.045-.036-.03-.066-.086-.089-.17-.096-.376-.254-.639-.475-.788-.221-.155-.516-.232-.886-.232-.859 0-1.307.48-1.343 1.441-.006.161-.009.408-.009.743 0 .334.003.587.009.761.036.96.484 1.441 1.343 1.441.37 0 .665-.078.886-.233.227-.155.385-.418.475-.788.017-.083.044-.14.08-.17a.288.288 0 0 1 .17-.045h.851c.053 0 .098.018.134.054a.149.149 0 0 1 .054.134 1.966 1.966 0 0 1-.341 1.066c-.214.31-.519.558-.913.743-.394.179-.856.268-1.387.268zm4.237-.089a.208.208 0 0 1-.153-.063.21.21 0 0 1-.062-.152v-5.828c0-.065.018-.119.053-.161a.223.223 0 0 1 .162-.062h.814c.066 0 .117.021.152.062a.219.219 0 0 1 .063.161v2.31h2.641v-2.31c0-.065.018-.119.053-.161a.222.222 0 0 1 .161-.062h.806a.22.22 0 0 1 .161.062.219.219 0 0 1 .063.161v5.828a.219.219 0 0 1-.063.161.237.237 0 0 1-.161.054h-.806a.208.208 0 0 1-.152-.063.21.21 0 0 1-.062-.152v-2.399h-2.641v2.399c0 .059-.021.11-.063.152-.035.042-.086.063-.152.063h-.814zm6.241 0a.204.204 0 0 1-.135-.054.186.186 0 0 1-.053-.134l.018-.081 2.157-5.774c.042-.149.146-.223.313-.223h.976c.155 0 .26.074.313.223l2.157 5.774a.273.273 0 0 1 .009.081.182.182 0 0 1-.053.134.173.173 0 0 1-.126.054h-.778c-.078 0-.138-.018-.179-.054a.247.247 0 0 1-.081-.116l-.421-1.093h-2.658l-.421 1.093a.26.26 0 0 1-.26.17h-.778zm3.804-2.292-1.02-2.766-1.012 2.766h2.032zm3.322 2.292a.208.208 0 0 1-.153-.063.21.21 0 0 1-.062-.152v-5.828a.24.24 0 0 1 .054-.161.219.219 0 0 1 .161-.062h.689c.072 0 .125.015.161.044a.37.37 0 0 1 .098.099l2.578 4.01v-3.93a.24.24 0 0 1 .054-.161.222.222 0 0 1 .161-.062h.752c.066 0 .12.021.161.062a.219.219 0 0 1 .063.161v5.819a.219.219 0 0 1-.063.161.204.204 0 0 1-.152.063h-.698c-.101 0-.188-.048-.26-.144l-2.569-3.92v3.849a.222.222 0 0 1-.062.161.24.24 0 0 1-.161.054h-.752zm8.868.089c-.817 0-1.456-.212-1.915-.635-.454-.424-.696-1.015-.725-1.773-.006-.173-.009-.45-.009-.832 0-.382.003-.66.009-.833.029-.74.274-1.319.734-1.736.465-.424 1.101-.636 1.906-.636.549 0 1.021.093 1.414.278.394.185.693.417.896.698.202.274.31.546.322.814v.018c0 .048-.018.09-.054.126a.206.206 0 0 1-.134.044h-.922a.273.273 0 0 1-.134-.026.307.307 0 0 1-.081-.117 1.249 1.249 0 0 0-.439-.564c-.208-.161-.498-.241-.868-.241-.418 0-.746.113-.985.34-.232.226-.358.576-.375 1.047a24.99 24.99 0 0 0-.009.788c0 .346.003.608.009.787.035.949.495 1.424 1.378 1.424.424 0 .764-.114 1.02-.34.257-.233.385-.576.385-1.03v-.277h-1.092a.219.219 0 0 1-.161-.063.239.239 0 0 1-.053-.161v-.475c0-.065.017-.119.053-.161a.222.222 0 0 1 .161-.062h2.14c.065 0 .116.021.152.062a.219.219 0 0 1 .063.161v.94c0 .496-.111.928-.332 1.298a2.131 2.131 0 0 1-.931.842c-.405.197-.88.295-1.423.295zm4.368-.089a.208.208 0 0 1-.153-.063.21.21 0 0 1-.062-.152v-5.828c0-.065.018-.119.053-.161a.223.223 0 0 1 .162-.062h3.938c.066 0 .12.021.161.062a.219.219 0 0 1 .063.161v.591c0 .066-.021.12-.063.161a.236.236 0 0 1-.161.054h-2.945v1.584h2.748c.066 0 .12.021.161.063a.19.19 0 0 1 .063.152v.555c0 .066-.021.12-.063.161a.236.236 0 0 1-.161.054h-2.748v1.638h3.017c.065 0 .119.021.161.063a.217.217 0 0 1 .063.161v.591a.219.219 0 0 1-.063.161.24.24 0 0 1-.161.054H247z" fill="#FF6666"></path><path opacity="0.25" d="M6.394 265.425c0-9.888 8.015-17.903 17.903-17.903h70.97v35.805h-70.97c-9.888 0-17.903-8.015-17.903-17.902z" fill="url(&quot;#screenshot-comparison_svg__m&quot;)"></path><path d="M48.26 268.621a.21.21 0 0 1-.152-.062.208.208 0 0 1-.063-.152v-5.828a.24.24 0 0 1 .054-.161.218.218 0 0 1 .16-.063h3.886c.065 0 .119.021.16.063a.22.22 0 0 1 .063.161v.627a.22.22 0 0 1-.062.161.238.238 0 0 1-.161.054H49.27v1.7h2.695c.065 0 .119.021.16.063a.22.22 0 0 1 .063.161v.627a.22.22 0 0 1-.062.161.238.238 0 0 1-.161.054H49.27v2.22a.22.22 0 0 1-.062.161.243.243 0 0 1-.162.053h-.787zm4.729 0a.206.206 0 0 1-.135-.053.184.184 0 0 1-.053-.135l.017-.08 2.158-5.774c.042-.149.146-.224.313-.224h.976c.155 0 .26.075.313.224l2.157 5.774a.274.274 0 0 1 .01.08.184.184 0 0 1-.18.188h-.779a.271.271 0 0 1-.178-.053.245.245 0 0 1-.081-.117l-.42-1.092h-2.66l-.42 1.092a.259.259 0 0 1-.26.17h-.778zm3.804-2.291-1.02-2.766-1.012 2.766h2.032zm3.321 2.291a.21.21 0 0 1-.152-.062.208.208 0 0 1-.062-.152v-5.837a.19.19 0 0 1 .062-.152.207.207 0 0 1 .152-.063h.842c.066 0 .116.021.152.063a.19.19 0 0 1 .063.152v5.837c0 .059-.021.11-.063.152a.192.192 0 0 1-.152.062h-.842zm2.996 0a.21.21 0 0 1-.153-.062.208.208 0 0 1-.063-.152v-5.837a.19.19 0 0 1 .063-.152.207.207 0 0 1 .152-.063h.833a.19.19 0 0 1 .152.063.19.19 0 0 1 .062.152v4.986h2.838c.066 0 .12.021.161.063a.218.218 0 0 1 .063.161v.627a.22.22 0 0 1-.063.161.243.243 0 0 1-.161.053h-3.885zm5.511 0a.21.21 0 0 1-.152-.062.208.208 0 0 1-.063-.152v-5.828a.24.24 0 0 1 .054-.161.218.218 0 0 1 .161-.063h3.939c.066 0 .12.021.161.063a.219.219 0 0 1 .063.161v.591a.217.217 0 0 1-.063.161.238.238 0 0 1-.161.054h-2.945v1.584h2.748c.066 0 .12.021.161.063a.19.19 0 0 1 .063.152v.555a.217.217 0 0 1-.063.161.238.238 0 0 1-.161.054h-2.748v1.638h3.017a.216.216 0 0 1 .224.224v.591a.223.223 0 0 1-.063.161.243.243 0 0 1-.162.053h-4.01zm5.889 0a.21.21 0 0 1-.153-.062.208.208 0 0 1-.063-.152v-5.828a.24.24 0 0 1 .054-.161.218.218 0 0 1 .161-.063h2.184c1.755 0 2.65.812 2.686 2.435.012.346.018.579.018.698 0 .114-.006.344-.018.69-.024.835-.248 1.453-.672 1.853-.423.393-1.08.59-1.969.59H74.51zm2.183-1.029c.502 0 .863-.11 1.084-.331.22-.227.337-.597.349-1.11.012-.358.018-.582.018-.672 0-.095-.006-.316-.018-.662-.012-.489-.138-.85-.376-1.083-.233-.233-.6-.349-1.101-.349h-1.11v4.207h1.154z" fill="#FF6666"></path><path fill-rule="evenodd" clip-rule="evenodd" d="m30.995 260.592 4.648 8.066c.102.241.147.436.16.64.025.475-.14.937-.467 1.292a1.818 1.818 0 0 1-1.246.589h-9.36a1.79 1.79 0 0 1-1.579-2.464l4.68-8.129a1.75 1.75 0 0 1 .703-.69 1.822 1.822 0 0 1 2.462.696zm-1.029 5.316a.56.56 0 0 1-.556.558.565.565 0 0 1-.562-.558v-1.793c0-.305.255-.551.562-.551.307 0 .556.246.556.551v1.793zm-.556 2.724a.565.565 0 0 1-.562-.557c0-.305.255-.558.562-.558.307 0 .556.247.556.551 0 .31-.249.564-.556.564z" fill="#FF6666"></path><rect opacity="0.5" x="6.394" y="247.522" width="276.212" height="35.805" rx="17.903" stroke="#FF6666" stroke-width="2px" fill="none"></rect></g></g><defs><linearGradient id="screenshot-comparison_svg__c" x1="87.95" y1="35.674" x2="61.38" y2="64.233" gradientUnits="userSpaceOnUse"><stop stop-color="#4CBAFF"></stop><stop offset="1" stop-color="#CCEBFF"></stop></linearGradient><linearGradient id="screenshot-comparison_svg__d" x1="136.543" y1="35.674" x2="109.973" y2="64.233" gradientUnits="userSpaceOnUse"><stop stop-color="#4CFFCC"></stop><stop offset="1" stop-color="#B5FFEA"></stop></linearGradient><linearGradient id="screenshot-comparison_svg__e" x1="87.95" y1="84.267" x2="61.38" y2="112.826" gradientUnits="userSpaceOnUse"><stop stop-color="#F977DF"></stop><stop offset="1" stop-color="#FDD8F6"></stop></linearGradient><linearGradient id="screenshot-comparison_svg__f" x1="136.543" y1="84.267" x2="109.973" y2="112.826" gradientUnits="userSpaceOnUse"><stop stop-color="#C4A8FF"></stop><stop offset="1" stop-color="#F8F5FF"></stop></linearGradient><linearGradient id="screenshot-comparison_svg__h" x1="177.463" y1="135.417" x2="150.894" y2="163.976" gradientUnits="userSpaceOnUse"><stop stop-color="#4CBAFF"></stop><stop offset="1" stop-color="#CCEBFF"></stop></linearGradient><linearGradient id="screenshot-comparison_svg__i" x1="221.745" y1="141.036" x2="195.176" y2="169.595" gradientUnits="userSpaceOnUse"><stop stop-color="#4CFFCC"></stop><stop offset="1" stop-color="#B5FFEA"></stop></linearGradient><linearGradient id="screenshot-comparison_svg__j" x1="177.463" y1="184.01" x2="150.894" y2="212.569" gradientUnits="userSpaceOnUse"><stop stop-color="#F977DF"></stop><stop offset="1" stop-color="#FDD8F6"></stop></linearGradient><linearGradient id="screenshot-comparison_svg__k" x1="226.056" y1="184.01" x2="199.487" y2="212.569" gradientUnits="userSpaceOnUse"><stop stop-color="#C4A8FF"></stop><stop offset="1" stop-color="#F8F5FF"></stop></linearGradient><linearGradient id="screenshot-comparison_svg__m" x1="79.797" y1="251.5" x2="63.455" y2="295.101" gradientUnits="userSpaceOnUse"><stop stop-color="#FCC"></stop><stop offset="1" stop-color="#F66"></stop></linearGradient><filter id="screenshot-comparison_svg__a" x="-4" y="0" width="297" height="302" filterUnits="userSpaceOnUse" color-interpolation-filters="sRGB"><feFlood flood-opacity="0" result="BackgroundImageFix"></feFlood><feColorMatrix in="SourceAlpha" values="0 0 0 0 0 0 0 0 0 0 0 0 0 0 0 0 0 0 127 0"></feColorMatrix><feOffset dy="2"></feOffset><feGaussianBlur stdDeviation="2"></feGaussianBlur><feColorMatrix values="0 0 0 0 0.290196 0 0 0 0 0.333333 0 0 0 0 0.407843 0 0 0 0.1 0"></feColorMatrix><feBlend in2="BackgroundImageFix" result="effect1_dropShadow"></feBlend><feBlend in="SourceGraphic" in2="effect1_dropShadow" result="shape"></feBlend></filter><linearGradient id="screenshot-comparison_svg__c" x1="87.95" y1="35.674" x2="61.38" y2="64.233" gradientUnits="userSpaceOnUse"><stop stop-color="#4CBAFF"></stop><stop offset="1" stop-color="#CCEBFF"></stop></linearGradient><linearGradient id="screenshot-comparison_svg__d" x1="136.543" y1="35.674" x2="109.973" y2="64.233" gradientUnits="userSpaceOnUse"><stop stop-color="#4CFFCC"></stop><stop offset="1" stop-color="#B5FFEA"></stop></linearGradient><linearGradient id="screenshot-comparison_svg__e" x1="87.95" y1="84.267" x2="61.38" y2="112.826" gradientUnits="userSpaceOnUse"><stop stop-color="#F977DF"></stop><stop offset="1" stop-color="#FDD8F6"></stop></linearGradient><linearGradient id="screenshot-comparison_svg__f" x1="136.543" y1="84.267" x2="109.973" y2="112.826" gradientUnits="userSpaceOnUse"><stop stop-color="#C4A8FF"></stop><stop offset="1" stop-color="#F8F5FF"></stop></linearGradient><linearGradient id="screenshot-comparison_svg__h" x1="177.463" y1="135.417" x2="150.894" y2="163.976" gradientUnits="userSpaceOnUse"><stop stop-color="#4CBAFF"></stop><stop offset="1" stop-color="#CCEBFF"></stop></linearGradient><linearGradient id="screenshot-comparison_svg__i" x1="221.745" y1="141.036" x2="195.176" y2="169.595" gradientUnits="userSpaceOnUse"><stop stop-color="#4CFFCC"></stop><stop offset="1" stop-color="#B5FFEA"></stop></linearGradient><linearGradient id="screenshot-comparison_svg__j" x1="177.463" y1="184.01" x2="150.894" y2="212.569" gradientUnits="userSpaceOnUse"><stop stop-color="#F977DF"></stop><stop offset="1" stop-color="#FDD8F6"></stop></linearGradient><linearGradient id="screenshot-comparison_svg__k" x1="226.056" y1="184.01" x2="199.487" y2="212.569" gradientUnits="userSpaceOnUse"><stop stop-color="#C4A8FF"></stop><stop offset="1" stop-color="#F8F5FF"></stop></linearGradient><linearGradient id="screenshot-comparison_svg__m" x1="79.797" y1="251.5" x2="63.455" y2="295.101" gradientUnits="userSpaceOnUse"><stop stop-color="#FCC"></stop><stop offset="1" stop-color="#F66"></stop></linearGradient></defs></svg>