<svg width="48" height="48" fill="none" xmlns="http://www.w3.org/2000/svg"><g clip-path="url(#clip0)" stroke="#000" stroke-linecap="round"><path d="M13.039 20.762c-.143.018-1.56.223-3.492.71-1.765.443-1.29 2.198 0 3.293.92.782 5.197 2.924 5.297 2.98a24.063 24.063 0 01-1.805-6.983z" stroke-width="1.7" stroke-miterlimit="10" stroke-linejoin="round"/><path d="M40.843 18.206c.883.326 2.784.503 3.718 1.163 1.485 1.051 1.29 2.199 0 3.294a16.924 16.924 0 01-6.081 3.253c-1.563 1.9-2.847 3.104-2.847 6.264 0 4.735 3.489 6.317 3.489 6.317s-9.955 4.354-18.648-3.002c-5.098-4.317-7.576-10.972-7.576-17.292v.003c0-7.718 6.255-13.973 13.974-13.973s13.97 6.255 13.97 13.973z" stroke-width="1.7" stroke-miterlimit="10" stroke-linejoin="round"/><path d="M18.633 18.278a1.395 1.395 0 012.79 0m5.585 0a1.395 1.395 0 012.79 0" stroke-width="1.5" stroke-miterlimit="10" stroke-linejoin="round"/><path d="M5.415 14.586a2.121 2.121 0 014.178.737l-3.07 17.409-2.703 3.113-1.475-3.85 3.07-17.409z" stroke-width="1.7" stroke-linejoin="round"/><path d="M4 40c3 3 5 0 8 0s2 5.5 6 4.468" stroke-width="1.7"/></g><defs><clipPath id="clip0"><path fill="#fff" d="M0 0h48v48H0z"/></clipPath></defs></svg>