<svg xmlns:xlink="http://www.w3.org/1999/xlink" viewBox="0 0 660 492" fill="none" xmlns="http://www.w3.org/2000/svg" width="665"  height="495" ><g opacity="0.05" filter="url(#all-in-one_svg__a)" fill="none"><path d="M21 468a2 2 0 0 1 2-2h614a2 2 0 1 1 0 4H23a2 2 0 0 1-2-2z" fill="#000"></path></g><mask id="all-in-one_svg__b" maskUnits="userSpaceOnUse" x="10" y="34" width="640" height="432" fill="none"><path d="M10.958 46.491c0-6.627 5.373-12 12-12h614.084c6.627 0 12 5.373 12 12v407.138c0 6.627-5.373 12-12 12H22.958c-6.627 0-12-5.373-12-12V46.491z" fill="#F7FAFC"></path></mask><g mask="url(#all-in-one_svg__b)" fill="none"><g opacity="0.8" filter="url(#all-in-one_svg__c)" fill="none"><path d="M10.958 46.491c0-6.627 5.373-12 12-12h614.084c6.627 0 12 5.373 12 12v407.138c0 6.627-5.373 12-12 12H22.958c-6.627 0-12-5.373-12-12V46.491z" fill="#FFFFFF"></path></g><path d="M11.958 46.491c0-6.075 4.925-11 11-11h614.084c6.075 0 11 4.925 11 11v407.138c0 6.075-4.925 11-11 11H22.958c-6.075 0-11-4.925-11-11V46.491z" stroke="url(&quot;#all-in-one_svg__d&quot;)" stroke-width="2px" fill="none"></path><rect x="400.478" y="151.739" width="206.522" height="247.826" rx="12" fill="#FFFFFF"></rect><mask id="all-in-one_svg__e" maskUnits="userSpaceOnUse" x="400" y="151" width="208" height="249" fill="none"><rect x="400.478" y="151.739" width="206.522" height="247.826" rx="12" fill="#FFFFFF"></rect></mask><g mask="url(#all-in-one_svg__e)" fill="none"><path d="M400.478 151.739H607v115.218H400.478V151.739z" fill="#E6F5FF"></path><rect x="477.652" y="345.217" width="52.174" height="32.609" rx="4" fill="#F7FAFC"></rect><path fill-rule="evenodd" clip-rule="evenodd" d="M509.664 357.121c.442 0 .732.156 1.021.496.29.34.341.828.275 1.271l-.687 4.851a1.862 1.862 0 0 1-1.832 1.62h-7.9c-.963 0-1.759-.754-1.839-1.73l-.666-8.061-1.094-.193a.555.555 0 0 1 .189-1.093l1.727.265a.553.553 0 0 1 .448.503l.138 1.657c.022.237.21.414.442.414h9.778zm-9.239 9.406c-.608 0-1.101.503-1.101 1.125a1.11 1.11 0 0 0 1.101 1.116c.601 0 1.093-.503 1.093-1.116 0-.622-.492-1.125-1.093-1.125zm8.146 0c-.608 0-1.101.503-1.101 1.125a1.11 1.11 0 0 0 1.101 1.116c.601 0 1.093-.503 1.093-1.116 0-.622-.492-1.125-1.093-1.125z" fill="#CBD5E0"></path><rect x="426.565" y="293.043" width="154.348" height="8.696" rx="4.348" fill="#EDF2F7"></rect><rect x="449.392" y="319.13" width="108.696" height="8.696" rx="4.348" fill="#EDF2F7"></rect><rect x="400.978" y="152.239" width="205.522" height="246.826" rx="11.5" stroke="#000000" stroke-opacity="0.03" fill="none"></rect></g><rect x="57" y="151.739" width="206.522" height="247.826" rx="12" fill="#FFFFFF"></rect><mask id="all-in-one_svg__f" maskUnits="userSpaceOnUse" x="57" y="151" width="207" height="249" fill="none"><rect x="57" y="151.739" width="206.522" height="247.826" rx="12" fill="#FFFFFF"></rect></mask><g mask="url(#all-in-one_svg__f)" fill="none"><path d="M57 151.739h206.522v115.218H57V151.739z" fill="#FEF0FC"></path><rect x="134.174" y="345.217" width="52.174" height="32.609" rx="4" fill="#F7FAFC"></rect><path fill-rule="evenodd" clip-rule="evenodd" d="M166.186 357.121c.442 0 .731.156 1.021.496.29.34.34.828.275 1.271l-.688 4.851a1.86 1.86 0 0 1-1.832 1.62h-7.899c-.963 0-1.76-.754-1.839-1.73l-.667-8.061-1.093-.193a.556.556 0 0 1 .188-1.093l1.727.265a.555.555 0 0 1 .449.503l.138 1.657c.022.237.21.414.441.414h9.779zm-9.239 9.406c-.608 0-1.101.503-1.101 1.125a1.11 1.11 0 0 0 1.101 1.116c.601 0 1.093-.503 1.093-1.116 0-.622-.492-1.125-1.093-1.125zm8.146 0c-.609 0-1.101.503-1.101 1.125a1.11 1.11 0 0 0 1.101 1.116c.601 0 1.093-.503 1.093-1.116 0-.622-.492-1.125-1.093-1.125z" fill="#CBD5E0"></path><rect x="83.087" y="293.043" width="154.348" height="8.696" rx="4.348" fill="#EDF2F7"></rect><rect x="105.913" y="319.13" width="108.696" height="8.696" rx="4.348" fill="#EDF2F7"></rect><rect x="57.5" y="152.239" width="205.522" height="246.826" rx="11.5" stroke="#000000" stroke-opacity="0.03" fill="none"></rect></g><rect x="216.783" y="125.652" width="230.435" height="300" rx="12" fill="#FFFFFF"></rect><mask id="all-in-one_svg__g" maskUnits="userSpaceOnUse" x="216" y="125" width="232" height="301" fill="none"><rect x="216.783" y="125.652" width="230.435" height="300" rx="12" fill="#FFFFFF"></rect></mask><g mask="url(#all-in-one_svg__g)" fill="none"><path d="M216.783 125.652h230.434v163.044H216.783V125.652z" fill="#E6FFF8"></path><rect x="242.87" y="314.783" width="178.261" height="8.696" rx="4.348" fill="#EDF2F7"></rect><rect x="266.783" y="340.87" width="130.435" height="8.696" rx="4.348" fill="#EDF2F7"></rect><rect x="305.913" y="366.956" width="52.174" height="32.609" rx="4" fill="#F7FAFC"></rect><path fill-rule="evenodd" clip-rule="evenodd" d="M337.925 378.86c.442 0 .732.156 1.021.496.29.34.341.828.275 1.271l-.687 4.851a1.862 1.862 0 0 1-1.832 1.62h-7.9c-.963 0-1.759-.754-1.839-1.73l-.666-8.061-1.094-.193a.555.555 0 0 1 .189-1.093l1.727.265a.553.553 0 0 1 .448.503l.138 1.657c.022.237.21.414.442.414h9.778zm-9.239 9.407c-.608 0-1.101.502-1.101 1.124a1.11 1.11 0 0 0 1.101 1.116c.601 0 1.093-.503 1.093-1.116 0-.622-.492-1.124-1.093-1.124zm8.146 0c-.608 0-1.101.502-1.101 1.124a1.11 1.11 0 0 0 1.101 1.116c.601 0 1.093-.503 1.093-1.116 0-.622-.492-1.124-1.093-1.124z" fill="#CBD5E0"></path><rect x="217.283" y="126.152" width="229.435" height="299" rx="11.5" stroke="#000000" stroke-opacity="0.03" fill="none"></rect></g><path fill-rule="evenodd" clip-rule="evenodd" d="m69.687 89.779 7.052 16.308h6.348l-7.046-16.308h-6.354z" fill="#E2E8F0"></path><path fill-rule="evenodd" clip-rule="evenodd" d="m70.4 80-7.052 16.308H57L64.046 80H70.4zm5.37 9.779-7.051 16.308H62.37l7.046-16.308h6.354zm527.767-2.236c.552 0 .914.194 1.276.62.362.425.425 1.035.344 1.588l-.86 6.064c-.163 1.166-1.14 2.025-2.29 2.025h-9.874c-1.204 0-2.2-.942-2.299-2.163l-.833-10.076-1.367-.24a.695.695 0 0 1 .236-1.368l2.158.332a.694.694 0 0 1 .562.629l.171 2.07a.558.558 0 0 0 .553.519h12.223zm-11.549 11.758c-.761 0-1.376.628-1.376 1.405 0 .767.615 1.395 1.376 1.395.751 0 1.366-.628 1.366-1.395 0-.777-.615-1.405-1.366-1.405zm10.182 0c-.76 0-1.376.628-1.376 1.405 0 .767.616 1.395 1.376 1.395.751 0 1.367-.628 1.367-1.395 0-.777-.616-1.405-1.367-1.405z" fill="#CBD5E0"></path><path d="M549.759 91.74h-1.86a1.814 1.814 0 0 0-.208-.641 1.625 1.625 0 0 0-.404-.484 1.771 1.771 0 0 0-.568-.306 2.183 2.183 0 0 0-.693-.106c-.45 0-.842.112-1.176.335-.334.221-.593.544-.777.969-.184.421-.276.934-.276 1.536 0 .62.092 1.141.276 1.563.187.422.448.74.782.955.334.215.72.323 1.159.323.246 0 .474-.032.683-.098a1.79 1.79 0 0 0 .565-.284c.164-.127.3-.282.408-.463.11-.181.186-.388.229-.62l1.86.009a3.475 3.475 0 0 1-1.13 2.144 3.62 3.62 0 0 1-1.146.688c-.442.167-.941.25-1.499.25-.776 0-1.469-.175-2.081-.526-.608-.351-1.089-.86-1.443-1.525-.351-.665-.527-1.47-.527-2.416 0-.948.179-1.755.535-2.42.357-.665.841-1.172 1.452-1.52.612-.35 1.3-.526 2.064-.526.504 0 .971.07 1.401.212a3.56 3.56 0 0 1 1.151.62c.334.269.606.599.815.99.212.39.348.837.408 1.341zm3.197 5.651h-1.97l3.002-8.695h2.369l2.997 8.695h-1.97l-2.178-6.708h-.068l-2.182 6.708zm-.123-3.418h4.653v1.436h-4.653v-1.436zm8.111 3.418v-8.695h3.431c.657 0 1.217.117 1.682.352.467.232.822.562 1.065.99.247.424.37.924.37 1.498 0 .578-.125 1.074-.374 1.49-.249.414-.61.73-1.083.952-.47.22-1.038.33-1.707.33h-2.297v-1.477h2c.351 0 .643-.048.875-.144a1.04 1.04 0 0 0 .518-.433c.116-.193.174-.432.174-.718 0-.288-.058-.532-.174-.73a1.065 1.065 0 0 0-.522-.45c-.232-.105-.525-.157-.879-.157h-1.24v7.192h-1.839zm4.696-3.957 2.162 3.957h-2.03l-2.114-3.957h1.982zm3.363-3.222v-1.516h7.142v1.516h-2.662v7.18h-1.818v-7.18h-2.662zm-111.287 2.831c0 .949-.18 1.755-.54 2.42a3.734 3.734 0 0 1-1.46 1.525c-.614.348-1.305.522-2.072.522-.773 0-1.467-.175-2.081-.526-.614-.351-1.099-.86-1.456-1.525-.357-.665-.535-1.47-.535-2.416 0-.948.178-1.755.535-2.42.357-.665.842-1.172 1.456-1.52.614-.35 1.308-.526 2.081-.526.767 0 1.458.175 2.072.526a3.705 3.705 0 0 1 1.46 1.52c.36.665.54 1.472.54 2.42zm-1.864 0c0-.614-.092-1.132-.276-1.553-.182-.422-.438-.742-.769-.96a2.067 2.067 0 0 0-1.163-.327 2.07 2.07 0 0 0-1.164.327c-.331.218-.588.538-.772.96-.182.421-.272.94-.272 1.553 0 .615.09 1.133.272 1.554.184.422.441.742.772.96a2.07 2.07 0 0 0 1.164.327c.444 0 .832-.109 1.163-.327.331-.218.587-.538.769-.96.184-.421.276-.94.276-1.553zm9.14-4.347h1.839v5.647c0 .634-.152 1.189-.455 1.664-.3.476-.72.846-1.261 1.113-.54.263-1.17.394-1.889.394-.722 0-1.353-.131-1.894-.394a3.036 3.036 0 0 1-1.261-1.113c-.3-.475-.45-1.03-.45-1.664v-5.647h1.838v5.49c0 .33.073.625.217.883.147.257.354.46.62.607.266.147.576.22.93.22.356 0 .666-.073.93-.22.266-.147.471-.35.615-.607a1.75 1.75 0 0 0 .221-.883v-5.49zm3.895 8.695v-8.695h3.43c.657 0 1.217.117 1.682.352.467.232.822.562 1.065.99.247.424.37.924.37 1.498 0 .578-.125 1.074-.374 1.49-.249.414-.61.73-1.083.952-.469.22-1.038.33-1.706.33h-2.297v-1.477h1.999c.351 0 .643-.048.875-.144a1.04 1.04 0 0 0 .518-.433c.116-.193.174-.432.174-.718 0-.288-.058-.532-.174-.73a1.065 1.065 0 0 0-.522-.45c-.232-.105-.525-.157-.879-.157h-1.24v7.192h-1.838zm4.696-3.957 2.161 3.957h-2.03l-2.114-3.957h1.983zm11.722-2.237a1.074 1.074 0 0 0-.438-.799c-.257-.19-.607-.284-1.049-.284-.3 0-.553.042-.76.127a1.07 1.07 0 0 0-.475.344.825.825 0 0 0-.161.501.71.71 0 0 0 .097.408c.074.116.174.216.302.301.127.082.274.154.441.217.167.06.346.11.535.153l.781.186a5.5 5.5 0 0 1 1.045.34c.317.142.592.316.824.522.232.207.412.45.539.73.13.28.197.602.199.965-.002.532-.138.993-.407 1.384-.266.387-.651.689-1.155.904-.501.212-1.105.319-1.813.319-.702 0-1.313-.108-1.834-.323a2.691 2.691 0 0 1-1.215-.956c-.288-.424-.44-.95-.454-1.575h1.779c.02.292.103.535.251.73.15.193.349.339.598.438.252.096.537.144.854.144.311 0 .581-.045.811-.136a1.24 1.24 0 0 0 .539-.378.875.875 0 0 0 .191-.556.723.723 0 0 0-.174-.492 1.315 1.315 0 0 0-.501-.34 5.104 5.104 0 0 0-.803-.255l-.946-.237c-.734-.179-1.312-.458-1.737-.837-.425-.38-.635-.89-.633-1.533-.002-.526.138-.986.421-1.38.286-.393.678-.7 1.176-.921.498-.22 1.064-.331 1.698-.331.646 0 1.209.11 1.69.331.484.22.861.528 1.129.921.269.394.408.85.417 1.368h-1.762zm3.329-.985v-1.516h7.142v1.516h-2.662v7.18h-1.817v-7.18h-2.663zm16.467 2.831c0 .949-.18 1.755-.539 2.42a3.743 3.743 0 0 1-1.461 1.525c-.614.348-1.305.522-2.072.522-.772 0-1.466-.175-2.08-.526a3.753 3.753 0 0 1-1.457-1.525c-.356-.665-.535-1.47-.535-2.416 0-.948.179-1.755.535-2.42.357-.665.843-1.172 1.457-1.52.614-.35 1.308-.526 2.08-.526.767 0 1.458.175 2.072.526.617.348 1.104.855 1.461 1.52.359.665.539 1.472.539 2.42zm-1.864 0c0-.614-.092-1.132-.276-1.553-.181-.422-.437-.742-.768-.96a2.068 2.068 0 0 0-1.164-.327c-.444 0-.832.109-1.163.327-.331.218-.589.538-.773.96-.181.421-.272.94-.272 1.553 0 .615.091 1.133.272 1.554.184.422.442.742.773.96.331.218.719.327 1.163.327.445 0 .833-.109 1.164-.327.331-.218.587-.538.768-.96.184-.421.276-.94.276-1.553zm3.77 4.348v-8.695h3.43c.657 0 1.217.117 1.682.352.467.232.822.562 1.065.99.247.424.37.924.37 1.498 0 .578-.125 1.074-.374 1.49-.249.414-.61.73-1.083.952-.47.22-1.038.33-1.706.33h-2.298v-1.477h2c.351 0 .643-.048.875-.144a1.04 1.04 0 0 0 .518-.433c.116-.193.174-.432.174-.718 0-.288-.058-.532-.174-.73a1.065 1.065 0 0 0-.522-.45c-.232-.105-.525-.157-.879-.157h-1.24v7.192h-1.838zm4.696-3.957 2.161 3.957h-2.03l-2.114-3.957h1.983zm3.184-4.738h2.059l1.983 3.745h.085l1.983-3.745h2.059l-3.172 5.621v3.074h-1.825v-3.074l-3.172-5.621zm-113.981 2.501a1.076 1.076 0 0 0-.437-.799c-.258-.19-.607-.284-1.049-.284-.3 0-.553.042-.76.127a1.073 1.073 0 0 0-.476.344.831.831 0 0 0-.161.501.711.711 0 0 0 .098.408c.073.116.174.216.301.301.128.082.275.154.442.217.167.06.345.11.535.153l.781.186a5.59 5.59 0 0 1 1.045.34c.317.142.591.316.823.522.232.207.412.45.539.73a2.3 2.3 0 0 1 .2.965c-.003.532-.139.993-.408 1.384-.266.387-.651.689-1.154.904-.501.212-1.106.319-1.813.319-.702 0-1.314-.108-1.835-.323a2.682 2.682 0 0 1-1.214-.956c-.289-.424-.44-.95-.454-1.575h1.779c.019.292.103.535.25.73.15.193.35.339.599.438.252.096.536.144.853.144.312 0 .582-.045.811-.136a1.24 1.24 0 0 0 .539-.378.87.87 0 0 0 .192-.556.719.719 0 0 0-.175-.492 1.315 1.315 0 0 0-.501-.34 5.089 5.089 0 0 0-.802-.255l-.947-.237c-.733-.179-1.312-.458-1.736-.837-.425-.38-.636-.89-.633-1.533a2.28 2.28 0 0 1 .42-1.38c.286-.393.678-.7 1.176-.921.499-.22 1.065-.331 1.699-.331.645 0 1.208.11 1.69.331.484.22.86.528 1.129.921.269.394.408.85.416 1.368h-1.762zm3.661 6.194v-8.695h1.839v3.588h3.732v-3.588h1.834v8.695h-1.834V93.8h-3.732v3.592h-1.839zm17.455-4.348c0 .949-.18 1.755-.539 2.42a3.743 3.743 0 0 1-1.461 1.525c-.614.348-1.305.522-2.072.522-.772 0-1.466-.175-2.08-.526a3.753 3.753 0 0 1-1.457-1.525c-.356-.665-.535-1.47-.535-2.416 0-.948.179-1.755.535-2.42.357-.665.843-1.172 1.457-1.52.614-.35 1.308-.526 2.08-.526.767 0 1.458.175 2.072.526.617.348 1.104.855 1.461 1.52.359.665.539 1.472.539 2.42zm-1.864 0c0-.614-.092-1.132-.276-1.553-.181-.422-.437-.742-.768-.96a2.07 2.07 0 0 0-1.164-.327c-.444 0-.832.109-1.163.327-.331.218-.589.538-.773.96-.181.421-.272.94-.272 1.553 0 .615.091 1.133.272 1.554.184.422.442.742.773.96.331.218.719.327 1.163.327a2.07 2.07 0 0 0 1.164-.327c.331-.218.587-.538.768-.96.184-.421.276-.94.276-1.553zm3.769 4.348v-8.695h3.431c.66 0 1.222.126 1.686.378.464.249.818.595 1.061 1.04.247.441.37.95.37 1.528 0 .578-.125 1.087-.374 1.529-.249.441-.61.785-1.083 1.032-.47.246-1.038.369-1.707.369h-2.186v-1.473h1.889c.354 0 .646-.061.875-.183a1.21 1.21 0 0 0 .518-.514 1.61 1.61 0 0 0 .174-.76c0-.288-.058-.54-.174-.755a1.162 1.162 0 0 0-.518-.506c-.232-.121-.527-.182-.883-.182h-1.24v7.192h-1.839z" fill="#A0AEC0"></path><path d="M330 34.491h319.042v431.138H330V34.491z" fill="#1A202C"></path><rect x="375.988" y="80.479" width="51.736" height="8.623" rx="4.311" fill="#80FFDB"></rect><rect x="436.347" y="80.479" width="64.671" height="8.623" rx="4.311" fill="#4CBAFF"></rect><rect x="509.641" y="80.479" width="17.245" height="8.623" rx="4.311" fill="#C4A8FF"></rect><rect x="535.509" y="80.479" width="67.545" height="8.623" rx="4.311" fill="#B5FFEA"></rect><rect x="375.988" y="132.216" width="35.928" height="8.623" rx="4.311" fill="#4CBAFF"></rect><rect x="420.539" y="132.216" width="74.731" height="8.623" rx="4.311" fill="#F977DF"></rect><rect x="503.892" y="132.216" width="50.299" height="8.623" rx="4.311" fill="#C4A8FF"></rect><rect x="562.814" y="132.216" width="17.245" height="8.623" rx="4.311" fill="#FBA7EA"></rect><rect x="375.988" y="209.82" width="27.305" height="8.623" rx="4.311" fill="#C4A8FF"></rect><rect x="411.916" y="209.82" width="83.353" height="8.623" rx="4.311" fill="#4CBAFF"></rect><rect x="503.892" y="209.82" width="38.802" height="8.623" rx="4.311" fill="#80FFDB"></rect><rect x="551.317" y="209.82" width="28.743" height="8.623" rx="4.311" fill="#F977DF"></rect><rect x="375.988" y="183.952" width="53.174" height="8.623" rx="4.311" fill="#4CBAFF"></rect><rect x="467.964" y="183.952" width="41.677" height="8.623" rx="4.311" fill="#80FFDB"></rect><rect x="437.784" y="183.952" width="21.557" height="8.623" rx="4.311" fill="#F977DF"></rect><rect x="518.263" y="183.952" width="38.802" height="8.623" rx="4.311" fill="#C4A8FF"></rect><rect x="375.988" y="106.347" width="83.353" height="8.623" rx="4.311" fill="#C4A8FF"></rect><rect x="467.964" y="106.347" width="41.677" height="8.623" rx="4.311" fill="#4CBAFF"></rect><rect x="518.263" y="106.347" width="38.802" height="8.623" rx="4.311" fill="#80FFDB"></rect><rect x="452.156" y="158.084" width="74.731" height="8.623" rx="4.311" fill="#C4A8FF"></rect><rect x="535.509" y="158.084" width="67.545" height="8.623" rx="4.311" fill="#4CBAFF"></rect><rect x="375.988" y="158.084" width="68.982" height="8.623" rx="4.311" fill="#80FFDB"></rect><rect x="375.988" y="287.425" width="93.413" height="8.623" rx="4.311" fill="#C4A8FF"></rect><rect x="478.024" y="287.425" width="86.228" height="8.623" rx="4.311" fill="#80FFDB"></rect><rect x="375.988" y="261.557" width="53.174" height="8.623" rx="4.311" fill="#F977DF"></rect><rect x="479.461" y="261.557" width="64.671" height="8.623" rx="4.311" fill="#C4A8FF"></rect><rect x="437.784" y="261.557" width="33.054" height="8.623" rx="4.311" fill="#4CBAFF"></rect><rect x="452.156" y="235.689" width="74.731" height="8.623" rx="4.311" fill="#C4A8FF"></rect><rect x="535.509" y="235.689" width="67.545" height="8.623" rx="4.311" fill="#4CBAFF"></rect><rect x="375.988" y="235.689" width="68.982" height="8.623" rx="4.311" fill="#80FFDB"></rect><rect x="375.988" y="339.162" width="35.928" height="8.623" rx="4.311" fill="#80FFDB"></rect><rect x="420.539" y="339.162" width="88.383" height="8.623" rx="4.311" fill="#C4A8FF"></rect><rect x="517.545" y="339.162" width="36.647" height="8.623" rx="4.311" fill="#4CBAFF"></rect><rect x="562.814" y="339.162" width="17.245" height="8.623" rx="4.311" fill="#4CBAFF"></rect><rect x="375.988" y="313.293" width="83.353" height="8.623" rx="4.311" fill="#FBA7EA"></rect><rect x="467.964" y="313.293" width="41.677" height="8.623" rx="4.311" fill="#80FFDB"></rect><rect x="518.263" y="313.293" width="38.802" height="8.623" rx="4.311" fill="#C4A8FF"></rect><rect x="375.988" y="365.03" width="91.976" height="8.623" rx="4.311" fill="#FBA7EA"></rect><rect x="476.587" y="365.03" width="17.245" height="8.623" rx="4.311" fill="#80FFDB"></rect><rect x="502.455" y="365.03" width="77.605" height="8.623" rx="4.311" fill="#80FFDB"></rect><rect x="452.156" y="390.898" width="74.731" height="8.623" rx="4.311" fill="#4CBAFF"></rect><rect x="535.509" y="390.898" width="67.545" height="8.623" rx="4.311" fill="#FBA7EA"></rect><rect x="375.988" y="390.898" width="68.982" height="8.623" rx="4.311" fill="#C4A8FF"></rect><rect x="375.988" y="416.766" width="35.928" height="8.623" rx="4.311" fill="#4CBAFF"></rect><rect x="420.539" y="416.766" width="88.383" height="8.623" rx="4.311" fill="#FBA7EA"></rect><rect x="517.545" y="416.766" width="36.647" height="8.623" rx="4.311" fill="#F977DF"></rect><rect x="562.814" y="416.766" width="17.245" height="8.623" rx="4.311" fill="#80FFDB"></rect></g><g filter="url(#all-in-one_svg__h)" fill="none"><rect x="92.874" y="14.371" width="474.251" height="40.239" rx="20.12" fill="#FFFFFF"></rect></g><rect x="190.599" y="25.868" width="336.287" height="17.245" rx="8.623" fill="#EDF2F7"></rect><rect x="197.066" y="32.335" width="143.713" height="4.311" rx="2.156" fill="#CBD5E0"></rect><circle cx="547.006" cy="34.491" fill="#00CC92" r="8.623"></circle><g opacity="0.2" filter="url(#all-in-one_svg__i)" fill="none"><path fill-rule="evenodd" clip-rule="evenodd" d="M545.104 38.862a5.722 5.722 0 0 0 3.771 1.377c1.303 0 2.248-.4 2.263-.409a.194.194 0 0 0 .116-.176.193.193 0 0 0-.113-.179c-.01-.004-.978-.459-.978-1.799 0-.824.298-1.179.709-1.67l.1-.12a5.484 5.484 0 0 0 1.916-1.038c.271-.231.404-.47.394-.713-.01-.23-.148-.44-.408-.624-.221-.156-.557-.23-.852-.296a1.363 1.363 0 0 1-.029-.006c-.072-.016-.141-.031-.202-.047a4.57 4.57 0 0 0-4.562-4.42 4.57 4.57 0 0 0-4.564 4.564v.002c0 .213.009.426.026.637-.195.033-.528.096-.927.197-.359.09-.462.318-.492.446-.067.288.096.649.414.92.181.151.73.463 1.632.924a6.735 6.735 0 0 0 1.786 2.43z" fill="#A0AEC0"></path></g><path d="M543.468 36.486a.193.193 0 0 1-.095-.025l-.052-.027c-.904-.462-1.454-.774-1.635-.927-.318-.27-.481-.631-.414-.92.03-.127.133-.355.492-.445a11.41 11.41 0 0 1 1.113-.226.194.194 0 0 1 .22.172c.077.741.263 1.457.55 2.127a.196.196 0 0 1-.049.221.199.199 0 0 1-.13.05z" fill="#FFFFFF"></path><path d="M548.875 40.24a5.722 5.722 0 0 1-3.771-1.378c-1.526-1.292-2.438-3.368-2.439-5.554v-.002a4.57 4.57 0 0 1 4.564-4.564 4.57 4.57 0 0 1 4.562 4.42c.069.018.148.035.231.053.295.066.631.14.852.296.26.185.398.394.408.624.01.242-.123.482-.394.713a5.484 5.484 0 0 1-1.916 1.038l-.1.12c-.411.49-.709.846-.709 1.67 0 1.34.968 1.795.978 1.8.07.031.114.101.113.178a.194.194 0 0 1-.116.176c-.015.009-.96.41-2.263.41zm2.919-6.932h.002-.002z" fill="#FFFFFF"></path><mask id="all-in-one_svg__j" maskUnits="userSpaceOnUse" x="542" y="28" width="12" height="13" fill="none"><path d="M548.876 40.24a5.718 5.718 0 0 1-3.771-1.378c-1.527-1.292-2.438-3.368-2.439-5.554v-.002a4.57 4.57 0 0 1 4.564-4.564 4.569 4.569 0 0 1 4.561 4.42c.069.018.149.035.231.053.296.066.631.14.853.296.26.185.397.394.407.624.011.242-.122.482-.394.713a5.478 5.478 0 0 1-1.915 1.038l-.1.12c-.411.49-.709.846-.709 1.67 0 1.34.968 1.795.977 1.8a.194.194 0 0 1-.003.354c-.015.009-.96.41-2.262.41zm2.918-6.932h.002-.002z" fill="#FFFFFF"></path></mask><g mask="url(#all-in-one_svg__j)" fill="none"><path opacity="0.15" d="M548.876 40.24a5.718 5.718 0 0 1-3.771-1.378c-1.527-1.292-2.438-3.368-2.439-5.554v-.002a4.57 4.57 0 0 1 4.564-4.564 4.569 4.569 0 0 1 4.561 4.42c.069.018.149.035.231.053.296.066.631.14.853.296.26.185.397.394.407.624.011.242-.122.482-.394.713a5.478 5.478 0 0 1-1.915 1.038l-.1.12c-.411.49-.709.846-.709 1.67 0 1.34.968 1.795.977 1.8a.194.194 0 0 1-.003.354c-.015.009-.96.41-2.262.41zm2.918-6.932h.002-.002z" fill="url(&quot;#all-in-one_svg__k&quot;)"></path></g><path d="M544.75 33.595a.39.39 0 0 1-.388-.388v-.389a.389.389 0 0 1 .776 0v.389a.389.389 0 0 1-.388.388zm2.717 0a.389.389 0 0 1-.388-.388v-.39a.389.389 0 0 1 .776 0v.39a.39.39 0 0 1-.388.388z" fill="#000"></path><path fill-rule="evenodd" clip-rule="evenodd" d="M112.994 28.024a6.467 6.467 0 1 0 0 12.933 6.467 6.467 0 0 0 0-12.933zm-7.904 6.467a7.904 7.904 0 1 1 15.808 0 7.904 7.904 0 0 1-15.808 0z" fill="#CBD5E0"></path><path fill-rule="evenodd" clip-rule="evenodd" d="M113.502 31.108a.718.718 0 0 1 0 1.017l-2.366 2.366 2.366 2.366a.718.718 0 1 1-1.016 1.016L109.612 35a.718.718 0 0 1 0-1.016l2.874-2.874a.718.718 0 0 1 1.016 0z" fill="#CBD5E0"></path><path fill-rule="evenodd" clip-rule="evenodd" d="M109.401 34.49c0-.396.322-.718.719-.718h5.748a.719.719 0 1 1 0 1.438h-5.748a.719.719 0 0 1-.719-.72z" fill="#CBD5E0"></path><g clip-path="url(#all-in-one_svg__l)" fill-rule="evenodd" clip-rule="evenodd" fill="#CBD5E0"><path d="M141.736 28.024a6.467 6.467 0 1 0 0 12.935 6.467 6.467 0 0 0 0-12.935zm-7.904 6.467a7.904 7.904 0 1 1 15.808 0 7.904 7.904 0 0 1-15.808 0z" fill="#CBD5E0"></path><path d="M141.228 31.108a.72.72 0 0 1 1.017 0l2.874 2.875a.72.72 0 0 1 0 1.016l-2.874 2.874a.72.72 0 0 1-1.017-1.016l2.367-2.366-2.367-2.366a.72.72 0 0 1 0-1.017z" fill="#CBD5E0"></path><path d="M138.144 34.49c0-.396.321-.718.718-.718h5.749a.718.718 0 0 1 0 1.438h-5.749a.718.718 0 0 1-.718-.72z" fill="#CBD5E0"></path></g><g clip-path="url(#all-in-one_svg__m)" fill-rule="evenodd" clip-rule="evenodd" fill="#CBD5E0"><path d="M178.383 28.024c.397 0 .719.322.719.718v4.312a.719.719 0 0 1-.719.718h-4.311a.719.719 0 1 1 0-1.437h3.593v-3.593c0-.396.321-.718.718-.718z" fill="#CBD5E0"></path><path d="M171.289 28.8a5.749 5.749 0 1 0 4.613 7.607.719.719 0 0 1 1.355.48 7.184 7.184 0 1 1-13.33-5.338 7.185 7.185 0 0 1 11.63-2.144l3.319 3.126a.719.719 0 0 1-.985 1.046l-3.327-3.133a5.749 5.749 0 0 0-3.275-1.643z" fill="#CBD5E0"></path></g><defs><filter id="all-in-one_svg__a" x="14" y="459" width="632" height="18" filterUnits="userSpaceOnUse" color-interpolation-filters="sRGB"><feFlood flood-opacity="0" result="BackgroundImageFix"></feFlood><feBlend in="SourceGraphic" in2="BackgroundImageFix" result="shape"></feBlend><feGaussianBlur stdDeviation="3.5" result="effect1_foregroundBlur"></feGaussianBlur></filter><filter id="all-in-one_svg__c" x="-19.042" y="4.491" width="698.084" height="491.138" filterUnits="userSpaceOnUse" color-interpolation-filters="sRGB"><feFlood flood-opacity="0" result="BackgroundImageFix"></feFlood><feBlend in="SourceGraphic" in2="BackgroundImageFix" result="shape"></feBlend><feGaussianBlur stdDeviation="15" result="effect1_foregroundBlur"></feGaussianBlur></filter><filter id="all-in-one_svg__h" x="90.874" y="14.371" width="478.251" height="44.239" filterUnits="userSpaceOnUse" color-interpolation-filters="sRGB"><feFlood flood-opacity="0" result="BackgroundImageFix"></feFlood><feColorMatrix in="SourceAlpha" values="0 0 0 0 0 0 0 0 0 0 0 0 0 0 0 0 0 0 127 0"></feColorMatrix><feOffset dy="2"></feOffset><feGaussianBlur stdDeviation="1"></feGaussianBlur><feColorMatrix values="0 0 0 0 0 0 0 0 0 0 0 0 0 0 0 0 0 0 0.05 0"></feColorMatrix><feBlend in2="BackgroundImageFix" result="effect1_dropShadow"></feBlend><feBlend in="SourceGraphic" in2="effect1_dropShadow" result="shape"></feBlend></filter><filter id="all-in-one_svg__i" x="526.257" y="13.742" width="42.025" height="41.497" filterUnits="userSpaceOnUse" color-interpolation-filters="sRGB"><feFlood flood-opacity="0" result="BackgroundImageFix"></feFlood><feBlend in="SourceGraphic" in2="BackgroundImageFix" result="shape"></feBlend><feGaussianBlur stdDeviation="7.5" result="effect1_foregroundBlur"></feGaussianBlur></filter><clipPath id="all-in-one_svg__l"><path fill="#fff" transform="translate(133.114 25.868)" d="M0 0h17.245v17.245H0z"></path></clipPath><clipPath id="all-in-one_svg__m"><path fill="#fff" transform="translate(161.856 25.868)" d="M0 0h17.245v17.245H0z"></path></clipPath><radialGradient id="all-in-one_svg__k" cx="0" cy="0" r="1" gradientUnits="userSpaceOnUse" gradientTransform="rotate(131.488 268.554 139.756) scale(9.51636 8.78791)"><stop stop-color="#fff" stop-opacity="0"></stop><stop offset="0.823" stop-color="#fff" stop-opacity="0.5"></stop><stop offset="1" stop-color="#718096"></stop></radialGradient><linearGradient id="all-in-one_svg__d" x1="330" y1="34.491" x2="330" y2="465.629" gradientUnits="userSpaceOnUse"><stop stop-color="#fff"></stop><stop offset="1" stop-color="#fff" stop-opacity="0"></stop></linearGradient><linearGradient id="all-in-one_svg__d" x1="330" y1="34.491" x2="330" y2="465.629" gradientUnits="userSpaceOnUse"><stop stop-color="#fff"></stop><stop offset="1" stop-color="#fff" stop-opacity="0"></stop></linearGradient><radialGradient id="all-in-one_svg__k" cx="0" cy="0" r="1" gradientUnits="userSpaceOnUse" gradientTransform="rotate(131.488 268.554 139.756) scale(9.51636 8.78791)"><stop stop-color="#fff" stop-opacity="0"></stop><stop offset="0.823" stop-color="#fff" stop-opacity="0.5"></stop><stop offset="1" stop-color="#718096"></stop></radialGradient></defs></svg>