<svg xmlns:xlink="http://www.w3.org/1999/xlink" viewBox="0 0 1116 572" fill="none" xmlns="http://www.w3.org/2000/svg" width="1116"  height="572" ><g clip-path="url(#hero_svg__a)" fill="none"><g filter="url(#hero_svg__b)" fill="none"><mask id="hero_svg__c" maskUnits="userSpaceOnUse" x="269" y="35" width="578" height="444" fill="none"><path d="M269 43a8 8 0 0 1 8-8h562a8 8 0 0 1 8 8v428a8 8 0 0 1-8 8H277a8 8 0 0 1-8-8V43z" fill="#FFFFFF"></path></mask><g mask="url(#hero_svg__c)" fill="none"><path d="M269 35h578v444H269V35z" fill="#FFFFFF"></path><g filter="url(#hero_svg__d)" fill="none"><path fill="#FFFFFF" d="M269 77h578v36H269z"></path></g><path d="M269 35h578v42H269V35z" fill="#2D3748"></path><circle cx="290" cy="56" r="5" fill="#718096"></circle><circle cx="310" cy="56" r="5" fill="#718096"></circle><circle cx="330" cy="56" r="5" fill="#718096"></circle><rect x="365" y="86" width="466" height="18" rx="9" fill="#EDF2F7"></rect><rect x="373" y="93" width="100" height="4" rx="2" fill="#CBD5E0"></rect><path fill-rule="evenodd" clip-rule="evenodd" d="M293 89.083a5.917 5.917 0 1 0 0 11.834 5.917 5.917 0 0 0 0-11.834zM285.583 95a7.417 7.417 0 1 1 14.834 0 7.417 7.417 0 0 1-14.834 0z" fill="#CBD5E0"></path><path fill-rule="evenodd" clip-rule="evenodd" d="M293.53 91.803a.75.75 0 0 1 0 1.06L291.394 95l2.136 2.136a.75.75 0 0 1-1.06 1.061l-2.667-2.667a.75.75 0 0 1 0-1.06l2.667-2.667a.75.75 0 0 1 1.06 0z" fill="#CBD5E0"></path><path fill-rule="evenodd" clip-rule="evenodd" d="M289.583 95a.75.75 0 0 1 .75-.75h5.334a.75.75 0 0 1 0 1.5h-5.334a.75.75 0 0 1-.75-.75zM317 89.083a5.917 5.917 0 1 0 0 11.834 5.917 5.917 0 0 0 0-11.834zM309.583 95a7.417 7.417 0 1 1 14.834 0 7.417 7.417 0 0 1-14.834 0z" fill="#CBD5E0"></path><path fill-rule="evenodd" clip-rule="evenodd" d="M316.47 91.803a.75.75 0 0 1 1.06 0l2.667 2.667a.75.75 0 0 1 0 1.06l-2.667 2.667a.75.75 0 1 1-1.06-1.06L318.606 95l-2.136-2.136a.75.75 0 0 1 0-1.061z" fill="#CBD5E0"></path><path fill-rule="evenodd" clip-rule="evenodd" d="M313.583 95a.75.75 0 0 1 .75-.75h5.334a.75.75 0 0 1 0 1.5h-5.334a.75.75 0 0 1-.75-.75z" fill="#CBD5E0"></path><g clip-path="url(#hero_svg__e)" fill-rule="evenodd" clip-rule="evenodd" fill="#CBD5E0"><path d="M348.333 88.917a.75.75 0 0 1 .75.75v4a.75.75 0 0 1-.75.75h-4a.75.75 0 0 1 0-1.5h3.25v-3.25a.75.75 0 0 1 .75-.75z" fill="#CBD5E0"></path><path d="M341.74 89.803a5.248 5.248 0 0 0-5.527 3.048 5.255 5.255 0 0 0 1.394 6.155 5.25 5.25 0 0 0 8.346-2.256.75.75 0 1 1 1.414.5 6.748 6.748 0 0 1-10.73 2.9 6.75 6.75 0 1 1 9.132-9.928l3.078 2.899a.75.75 0 1 1-1.028 1.092l-3.087-2.907-.016-.016a5.25 5.25 0 0 0-2.976-1.487z" fill="#CBD5E0"></path></g><path d="M357 51a6 6 0 0 1 6-6h111a6 6 0 0 1 6 6v26H357V51z" fill="#FFFFFF"></path><path fill-rule="evenodd" clip-rule="evenodd" d="M357 77v-6a6 6 0 0 1-6 6h6zm123 0v-6a6 6 0 0 0 6 6h-6z" fill="#FFFFFF"></path><rect x="373" y="59" width="60" height="4" rx="2" fill="#E2E8F0"></rect></g></g><rect x="621" y="203" width="190" height="228" rx="12" fill="#FFFFFF"></rect><mask id="hero_svg__f" maskUnits="userSpaceOnUse" x="621" y="203" width="190" height="228" fill="none"><rect x="621" y="203" width="190" height="228" rx="12" fill="#FFFFFF"></rect></mask><g mask="url(#hero_svg__f)" fill="none"><path d="M621 203h190v106H621V203z" fill="#E6F5FF"></path><rect x="692" y="381" width="48" height="30" rx="4" fill="#F7FAFC"></rect><path fill-rule="evenodd" clip-rule="evenodd" d="M721.451 391.952c.406 0 .673.143.939.455.267.313.313.762.253 1.17l-.632 4.463c-.12.858-.84 1.49-1.686 1.49h-7.267c-.886 0-1.619-.693-1.692-1.591l-.613-7.417-1.006-.177a.511.511 0 0 1 .173-1.006l1.589.244a.511.511 0 0 1 .413.463l.126 1.524c.02.218.194.382.407.382h8.996zm-8.5 8.653c-.56 0-1.013.463-1.013 1.034 0 .565.453 1.028 1.013 1.028a1.02 1.02 0 0 0 1.006-1.028c0-.571-.453-1.034-1.006-1.034zm7.494 0c-.56 0-1.013.463-1.013 1.034 0 .565.453 1.028 1.013 1.028a1.02 1.02 0 0 0 1.006-1.028c0-.571-.453-1.034-1.006-1.034z" fill="#CBD5E0"></path><rect x="645" y="333" width="142" height="8" rx="4" fill="#EDF2F7"></rect><rect x="666" y="357" width="100" height="8" rx="4" fill="#EDF2F7"></rect><rect x="621.5" y="203.5" width="189" height="227" rx="11.5" stroke="#000000" stroke-opacity="0.03" fill="none"></rect></g><rect x="305" y="203" width="190" height="228" rx="12" fill="#FFFFFF"></rect><mask id="hero_svg__g" maskUnits="userSpaceOnUse" x="305" y="203" width="190" height="228" fill="none"><rect x="305" y="203" width="190" height="228" rx="12" fill="#FFFFFF"></rect></mask><g mask="url(#hero_svg__g)" fill="none"><path d="M305 203h190v106H305V203z" fill="#FEF0FC"></path><rect x="376" y="381" width="48" height="30" rx="4" fill="#F7FAFC"></rect><path fill-rule="evenodd" clip-rule="evenodd" d="M405.451 391.952c.406 0 .673.143.939.455.267.313.313.762.253 1.17l-.632 4.463c-.12.858-.84 1.49-1.686 1.49h-7.267c-.886 0-1.619-.693-1.692-1.591l-.613-7.417-1.006-.177a.511.511 0 0 1 .173-1.006l1.589.244a.511.511 0 0 1 .413.463l.126 1.524c.02.218.194.382.407.382h8.996zm-8.5 8.653c-.56 0-1.013.463-1.013 1.034 0 .565.453 1.028 1.013 1.028a1.02 1.02 0 0 0 1.006-1.028c0-.571-.453-1.034-1.006-1.034zm7.494 0c-.56 0-1.013.463-1.013 1.034 0 .565.453 1.028 1.013 1.028a1.02 1.02 0 0 0 1.006-1.028c0-.571-.453-1.034-1.006-1.034z" fill="#CBD5E0"></path><rect x="329" y="333" width="142" height="8" rx="4" fill="#EDF2F7"></rect><rect x="350" y="357" width="100" height="8" rx="4" fill="#EDF2F7"></rect><rect x="305.5" y="203.5" width="189" height="227" rx="11.5" stroke="#000000" stroke-opacity="0.03" fill="none"></rect></g><rect x="452" y="179" width="212" height="276" rx="12" fill="#FFFFFF"></rect><mask id="hero_svg__h" maskUnits="userSpaceOnUse" x="452" y="179" width="212" height="276" fill="none"><rect x="452" y="179" width="212" height="276" rx="12" fill="#FFFFFF"></rect></mask><g mask="url(#hero_svg__h)" fill="none"><path d="M452 179h212v150H452V179z" fill="#E6FFF8"></path><rect x="476" y="353" width="164" height="8" rx="4" fill="#EDF2F7"></rect><rect x="498" y="377" width="120" height="8" rx="4" fill="#EDF2F7"></rect><rect x="534" y="401" width="48" height="30" rx="4" fill="#F7FAFC"></rect><path fill-rule="evenodd" clip-rule="evenodd" d="M563.451 411.952c.406 0 .673.143.939.455.267.313.313.762.253 1.17l-.632 4.463c-.12.858-.84 1.49-1.686 1.49h-7.267c-.886 0-1.619-.693-1.692-1.591l-.613-7.417-1.006-.177a.511.511 0 0 1 .173-1.006l1.589.244a.511.511 0 0 1 .413.463l.126 1.524c.02.218.194.382.407.382h8.996zm-8.5 8.653c-.56 0-1.013.463-1.013 1.034 0 .565.453 1.028 1.013 1.028a1.02 1.02 0 0 0 1.006-1.028c0-.571-.453-1.034-1.006-1.034zm7.494 0c-.56 0-1.013.463-1.013 1.034 0 .565.453 1.028 1.013 1.028a1.02 1.02 0 0 0 1.006-1.028c0-.571-.453-1.034-1.006-1.034z" fill="#CBD5E0"></path><rect x="452.5" y="179.5" width="211" height="275" rx="11.5" stroke="#000000" stroke-opacity="0.03" fill="none"></rect></g><path fill-rule="evenodd" clip-rule="evenodd" d="M316.672 145.997 323.16 161H329l-6.483-15.003h-5.845z" fill="#E2E8F0"></path><path fill-rule="evenodd" clip-rule="evenodd" d="m317.328 137-6.488 15.004H305L311.483 137h5.845zm4.941 8.997L315.781 161h-5.84l6.483-15.003h5.845zm485.545-2.057c.508 0 .841.178 1.174.569.333.392.391.953.316 1.462l-.791 5.579c-.15 1.072-1.049 1.862-2.106 1.862h-9.085c-1.107 0-2.023-.866-2.115-1.989l-.766-9.27-1.257-.221a.638.638 0 0 1 .216-1.258l1.986.305a.637.637 0 0 1 .516.579l.158 1.905a.514.514 0 0 0 .508.477h11.246zm-10.625 10.817c-.7 0-1.266.578-1.266 1.292 0 .706.566 1.284 1.266 1.284.691 0 1.257-.578 1.257-1.284 0-.714-.566-1.292-1.257-1.292zm9.367 0c-.699 0-1.265.578-1.265 1.292 0 .706.566 1.284 1.265 1.284.691 0 1.258-.578 1.258-1.284 0-.714-.567-1.292-1.258-1.292z" fill="#CBD5E0"></path><path d="M758.338 147.801h-1.711a1.672 1.672 0 0 0-.191-.59 1.5 1.5 0 0 0-.372-.445 1.618 1.618 0 0 0-.523-.282 2.006 2.006 0 0 0-.637-.097c-.414 0-.774.103-1.082.308-.307.203-.545.5-.715.891-.169.388-.253.859-.253 1.414 0 .57.084 1.049.253 1.438.172.388.412.68.719.878.307.198.663.297 1.067.297a2.1 2.1 0 0 0 .628-.09 1.503 1.503 0 0 0 .895-.687c.102-.167.172-.357.211-.57l1.711.007a3.204 3.204 0 0 1-1.039 1.973 3.314 3.314 0 0 1-1.055.633c-.406.154-.866.23-1.379.23-.713 0-1.351-.161-1.914-.484-.56-.323-1.002-.79-1.328-1.402-.323-.612-.484-1.353-.484-2.223 0-.872.164-1.615.492-2.227.328-.612.773-1.078 1.336-1.398.562-.323 1.195-.484 1.898-.484.464 0 .893.065 1.289.195.399.13.752.32 1.059.57.307.248.557.551.75.91.195.36.32.771.375 1.235zm2.941 5.199h-1.812l2.762-8h2.179l2.758 8h-1.812l-2.004-6.172h-.063L761.279 153zm-.113-3.145h4.281v1.321h-4.281v-1.321zm7.463 3.145v-8h3.156c.604 0 1.12.108 1.547.324.43.214.757.517.98.91.227.391.34.851.34 1.379 0 .532-.114.989-.343 1.371a2.23 2.23 0 0 1-.997.875c-.432.204-.955.305-1.57.305h-2.113v-1.359h1.84c.323 0 .591-.045.804-.133a.954.954 0 0 0 .477-.399c.107-.177.16-.397.16-.66a1.31 1.31 0 0 0-.16-.672.983.983 0 0 0-.48-.414c-.214-.096-.484-.144-.809-.144h-1.141V153h-1.691zm4.32-3.641 1.989 3.641h-1.868l-1.945-3.641h1.824zm3.094-2.964V145h6.57v1.395h-2.449V153h-1.672v-6.605h-2.449zM673.658 149c0 .872-.165 1.615-.496 2.227a3.438 3.438 0 0 1-1.344 1.402c-.565.32-1.2.48-1.906.48-.711 0-1.349-.161-1.914-.484a3.448 3.448 0 0 1-1.34-1.402c-.328-.612-.492-1.353-.492-2.223 0-.872.164-1.615.492-2.227a3.419 3.419 0 0 1 1.34-1.398c.565-.323 1.203-.484 1.914-.484.706 0 1.341.161 1.906.484.568.32 1.016.786 1.344 1.398.331.612.496 1.355.496 2.227zm-1.715 0c0-.565-.084-1.042-.254-1.43-.166-.388-.402-.682-.707-.882a1.896 1.896 0 0 0-1.07-.301c-.409 0-.766.1-1.07.301-.305.2-.542.494-.711.882-.167.388-.25.865-.25 1.43s.083 1.042.25 1.43c.169.388.406.682.711.883.304.2.661.3 1.07.3.409 0 .766-.1 1.07-.3.305-.201.541-.495.707-.883.17-.388.254-.865.254-1.43zm8.41-4h1.691v5.195c0 .584-.139 1.094-.418 1.532a2.801 2.801 0 0 1-1.16 1.023c-.498.242-1.077.363-1.738.363-.665 0-1.245-.121-1.743-.363a2.801 2.801 0 0 1-1.16-1.023c-.276-.438-.414-.948-.414-1.532V145h1.692v5.051c0 .304.066.575.199.812.135.237.325.423.57.559.245.135.53.203.856.203.328 0 .613-.068.855-.203.245-.136.434-.322.566-.559.136-.237.204-.508.204-.812V145zm3.583 8v-8h3.156c.604 0 1.12.108 1.547.324.429.214.756.517.98.91.227.391.34.851.34 1.379 0 .532-.115.989-.344 1.371a2.222 2.222 0 0 1-.996.875c-.432.204-.956.305-1.57.305h-2.113v-1.359h1.839c.323 0 .592-.045.805-.133a.958.958 0 0 0 .477-.399c.106-.177.16-.397.16-.66 0-.265-.054-.489-.16-.672a.99.99 0 0 0-.481-.414c-.213-.096-.483-.144-.808-.144h-1.141V153h-1.691zm4.32-3.641 1.988 3.641h-1.867l-1.945-3.641h1.824zm10.784-2.058a.99.99 0 0 0-.402-.735c-.237-.174-.559-.261-.965-.261-.276 0-.509.039-.699.117a.987.987 0 0 0-.438.316.762.762 0 0 0-.148.461.646.646 0 0 0 .09.375.94.94 0 0 0 .277.278c.117.075.252.141.406.199.154.054.318.101.492.14l.719.172c.349.078.669.183.961.313.292.13.544.29.758.48.213.19.379.414.496.672.12.258.181.554.184.887-.003.489-.128.914-.375 1.273-.245.357-.599.634-1.063.832-.461.196-1.017.293-1.668.293-.646 0-1.208-.099-1.687-.297a2.475 2.475 0 0 1-1.118-.878c-.265-.391-.405-.874-.418-1.45h1.637c.018.269.095.492.231.672.138.177.321.311.55.403.232.088.494.132.786.132.286 0 .535-.041.746-.125.213-.083.379-.199.496-.347a.804.804 0 0 0 .175-.512.662.662 0 0 0-.16-.453 1.2 1.2 0 0 0-.461-.313 4.619 4.619 0 0 0-.738-.234l-.871-.219c-.674-.164-1.207-.42-1.598-.769-.39-.349-.584-.819-.582-1.411a2.103 2.103 0 0 1 .387-1.269 2.61 2.61 0 0 1 1.082-.848c.458-.203.979-.304 1.563-.304.593 0 1.112.101 1.554.304.446.203.792.486 1.039.848.248.362.375.781.383 1.258h-1.621zm3.064-.906V145h6.57v1.395h-2.449V153h-1.672v-6.605h-2.449zM717.253 149c0 .872-.165 1.615-.496 2.227a3.438 3.438 0 0 1-1.344 1.402c-.565.32-1.2.48-1.906.48-.711 0-1.349-.161-1.914-.484a3.448 3.448 0 0 1-1.34-1.402c-.328-.612-.492-1.353-.492-2.223 0-.872.164-1.615.492-2.227a3.419 3.419 0 0 1 1.34-1.398c.565-.323 1.203-.484 1.914-.484.706 0 1.341.161 1.906.484.568.32 1.016.786 1.344 1.398.331.612.496 1.355.496 2.227zm-1.715 0c0-.565-.085-1.042-.254-1.43-.166-.388-.402-.682-.707-.882a1.898 1.898 0 0 0-1.07-.301c-.409 0-.766.1-1.07.301-.305.2-.542.494-.711.882-.167.388-.25.865-.25 1.43s.083 1.042.25 1.43c.169.388.406.682.711.883.304.2.661.3 1.07.3.409 0 .765-.1 1.07-.3.305-.201.541-.495.707-.883.169-.388.254-.865.254-1.43zm3.468 4v-8h3.156c.604 0 1.12.108 1.547.324.43.214.756.517.98.91.227.391.34.851.34 1.379 0 .532-.114.989-.343 1.371a2.23 2.23 0 0 1-.997.875c-.432.204-.955.305-1.57.305h-2.113v-1.359h1.84c.323 0 .591-.045.804-.133a.954.954 0 0 0 .477-.399c.107-.177.16-.397.16-.66a1.31 1.31 0 0 0-.16-.672.981.981 0 0 0-.481-.414c-.213-.096-.483-.144-.808-.144h-1.141V153h-1.691zm4.32-3.641 1.988 3.641h-1.867l-1.945-3.641h1.824zm2.93-4.359h1.894l1.825 3.445h.078l1.824-3.445h1.894l-2.917 5.172V153h-1.68v-2.828L726.256 145zm-104.862 2.301a.994.994 0 0 0-.403-.735c-.237-.174-.558-.261-.965-.261-.276 0-.509.039-.699.117a.978.978 0 0 0-.437.316.763.763 0 0 0-.149.461.662.662 0 0 0 .09.375c.068.107.16.199.277.278.118.075.253.141.407.199.153.054.317.101.492.14l.719.172c.349.078.669.183.961.313.291.13.544.29.757.48.214.19.379.414.496.672.12.258.181.554.184.887-.003.489-.128.914-.375 1.273-.245.357-.599.634-1.062.832-.461.196-1.017.293-1.668.293-.646 0-1.209-.099-1.688-.297a2.467 2.467 0 0 1-1.117-.878c-.266-.391-.405-.874-.418-1.45h1.637c.018.269.095.492.23.672.138.177.322.311.551.403.232.088.493.132.785.132.286 0 .535-.041.746-.125a1.14 1.14 0 0 0 .496-.347.805.805 0 0 0 .176-.512.662.662 0 0 0-.16-.453 1.209 1.209 0 0 0-.461-.313 4.685 4.685 0 0 0-.738-.234l-.871-.219c-.675-.164-1.208-.42-1.598-.769-.391-.349-.585-.819-.582-1.411a2.09 2.09 0 0 1 .387-1.269 2.604 2.604 0 0 1 1.082-.848c.458-.203.979-.304 1.562-.304.594 0 1.112.101 1.555.304.445.203.791.486 1.039.848.247.362.375.781.383 1.258h-1.621zm3.368 5.699v-8h1.691v3.301h3.434V145h1.687v8h-1.687v-3.305h-3.434V153h-1.691zm16.058-4c0 .872-.165 1.615-.496 2.227a3.438 3.438 0 0 1-1.344 1.402c-.565.32-1.2.48-1.906.48-.711 0-1.349-.161-1.914-.484a3.448 3.448 0 0 1-1.34-1.402c-.328-.612-.492-1.353-.492-2.223 0-.872.164-1.615.492-2.227a3.419 3.419 0 0 1 1.34-1.398c.565-.323 1.203-.484 1.914-.484.706 0 1.341.161 1.906.484.568.32 1.016.786 1.344 1.398.331.612.496 1.355.496 2.227zm-1.715 0c0-.565-.084-1.042-.253-1.43-.167-.388-.403-.682-.707-.882a1.901 1.901 0 0 0-1.071-.301c-.409 0-.765.1-1.07.301-.305.2-.542.494-.711.882-.167.388-.25.865-.25 1.43s.083 1.042.25 1.43c.169.388.406.682.711.883.305.2.661.3 1.07.3.409 0 .766-.1 1.071-.3.304-.201.54-.495.707-.883.169-.388.253-.865.253-1.43zm3.468 4v-8h3.156c.607 0 1.124.116 1.551.348.427.229.753.548.977.957.226.406.34.875.34 1.406 0 .531-.115 1-.344 1.406a2.366 2.366 0 0 1-.996.949c-.432.227-.956.34-1.57.34h-2.012v-1.355h1.738c.326 0 .594-.056.805-.168.213-.115.372-.272.476-.473.107-.203.16-.436.16-.699 0-.266-.053-.497-.16-.695a1.066 1.066 0 0 0-.476-.465c-.214-.112-.485-.168-.813-.168h-1.14V153h-1.692z" fill="#CBD5E0"></path><path d="M1077.16 542.955c-.44.361-.88.705-1.33 1.045H965.024a130.442 130.442 0 0 1-34.783-21.165c-6.461-5.474-12.406-11.126-16.715-16.423-6.012-7.391-11.549-15.445-14.124-24.623-2.57-9.178-1.802-19.698 3.938-27.308a24.498 24.498 0 0 1 6.451-5.908c.413-.261.831-.512 1.259-.747 6.885-3.865 15.571-4.805 23.323-2.805 11.1 2.868 20.324 10.876 26.906 20.267 6.581 9.387 10.854 20.168 15.064 30.829 4.273-19.029 17.211-36.073 34.687-44.739 17.47-8.665 39.18-8.561 56.28.826a56.455 56.455 0 0 1 14.39 11.334c.42.444.82.899 1.22 1.358 8.34 9.659 13.56 22.028 13.98 34.783.55 16.433-7.06 32.939-19.74 43.276z" fill="#EDF2F7"></path><path d="M969.453 544h-1.567a116.99 116.99 0 0 0-3.505-21.28 124.688 124.688 0 0 0-20.011-42.028 119.334 119.334 0 0 0-34.213-31.581.743.743 0 0 1-.366-.538.78.78 0 0 1 1.155-.815c.036.021.073.042.104.068a118.373 118.373 0 0 1 20.957 16.256 125.891 125.891 0 0 1 27.01 38.721 122.034 122.034 0 0 1 10.353 40.152c.031.35.057.7.083 1.045zm113.467-79.104a.1.1 0 0 1-.04.011 155.154 155.154 0 0 0-30.77 8.963 161.383 161.383 0 0 0-25.33 13.059 163.971 163.971 0 0 0-22.7 17.279 161.363 161.363 0 0 0-19.317 20.956 155.524 155.524 0 0 0-11.81 17.791c-.198.345-.392.695-.585 1.045h-1.791c.188-.35.381-.7.579-1.045a156.81 156.81 0 0 1 14.615-21.588 162.868 162.868 0 0 1 20.009-20.763 166.028 166.028 0 0 1 23.18-16.861 163.16 163.16 0 0 1 25.87-12.62 154.95 154.95 0 0 1 26.87-7.585l.77-.141c.97-.177 1.39 1.296.45 1.499z" fill="#FFFFFF"></path><path d="M1051.76 519.419c-10.91-1.5-22-1.254-32.83.741a105.686 105.686 0 0 0-30.908 10.808 102.361 102.361 0 0 0-15.425 10.19c-.788.627.329 1.735 1.108 1.108a101.32 101.32 0 0 1 28.095-15.796 104.34 104.34 0 0 1 31.37-6.367 99.724 99.724 0 0 1 18.17.825c.41.099.84-.141.97-.548a.788.788 0 0 0-.55-.961z" fill="#FFFFFF"></path><path d="M178.907 277.115c-1.265.399-7.923 5.327-7.923 5.327l-7.858 5.06-.333-2.863s-3.196-6.392-7.124-6.126c0 0 4.727 5.793 5.327 9.655.599 3.862.865 6.526.865 6.526l-5.194 5.127 8.657 11.12 20.308-15.182s-5.46-19.044-6.725-18.644z" fill="#FCD2B1"></path><path d="m182.969 277.115-3.529 28.299-14.116.333-3.396-28.632h21.041z" fill="url(&quot;#hero_svg__i&quot;)"></path><path d="M186.032 277.514h-26.634v-2.796h2.53v-4.395l21.64 3.196.067 1.598h2.397v2.73" fill="#2D3748"></path><path d="M184.234 296.292c4.928.466-1.265-13.051-1.265-13.051s-13.317-.932-13.45-.2c-.134.733-.067 1.931.998 2.197 1.066.267 9.389 1.399 9.389 1.399s-8.656.399-8.523 1.332c.266 1.398 1.265 1.531 3.862 1.93 2.197.333 6.992.467 6.992.467s-9.123.199-8.923.799c.2.599-.399 2.463 2.73 1.997 7.125-.932 8.19 3.13 8.19 3.13z" fill="#FCD2B1"></path><path d="M124.307 350.693s13.517 95.551 7.257 115.86c-6.259 20.308-8.722 38.62-8.722 38.62l-31.429-9.189s10.387-47.809 11.985-56.998c1.532-9.189-14.515-83.832-14.515-83.832l35.424-4.461z" fill="url(&quot;#hero_svg__j&quot;)"></path><path d="M109.458 357.551 94.609 511.166H64.58s9.721-162.604 7.99-164.002c-1.731-1.265 36.889 10.387 36.889 10.387z" fill="url(&quot;#hero_svg__k&quot;)"></path><path d="M121.31 263.931s3.196 51.538 10.055 49.673c6.925-1.798 25.436-15.248 25.436-15.248l11.253 12.385s-34.292 38.154-48.408 22.573c-14.05-15.648 1.664-69.383 1.664-69.383z" fill="#F8F5FF"></path><path d="M112.188 525.748c-.266-.133 5.527-22.04 5.527-22.04l-19.244-5.593L92.5 521.5l19.688 4.248z" fill="#FCD2B1"></path><path d="m112.055 534.868 2.064-11.388-21.907-8.789L88 534l-.5 8.5c6.5 1 33.271.667 37 1 4.128.4-12.445-8.632-12.445-8.632z" fill="#1A202C"></path><path d="M103.465 246.618c-.266-2.064.799-10.653.799-10.653s7.857-.6 8.59-8.324c.732-7.79.799-25.768.799-25.768l-14.05-7.458-16.114 11.386-3.662 8.523 4.794 20.309v10.188l18.844 1.797z" fill="#FCD2B1"></path><path d="M104.264 235.965s-5.26-.134-10.188-3.796c0 0 2.131 5.793 9.988 5.727l.2-1.931z" fill="#EEA886"></path><path d="M80.093 222.847c2.131 4.728 3.396 11.653 3.396 11.653 1.132 2.131 1.532-4.661 1.532-4.661s.998-6.526.066-9.056c0 0-3.995 1.265-4.86-5.86-.467-3.529 4.86-5.193 6.325-.932l3.33.333s.266-13.317 7.923-10.853c0 0 5.527 3.396 8.856 1.331 3.33-2.064 3.063-2.796 3.063-2.796s1.598 3.529 5.86 1.198c4.261-2.33 4.794-6.392 3.329-8.323-.866-1.132-1.665-2.397-3.063-2.663-1.398-.267-2.93.332-3.795 1.398 1.065-1.532.333-3.796-1.265-4.861-1.532-.999-3.596-.932-5.327-.266-1.732.666-3.196 1.864-4.595 3.063-.998-2.797-3.995-4.795-6.925-4.528-2.996.266-5.593 2.663-6.126 5.593-1.598-1.998-4.66-2.464-6.991-1.332-2.33 1.132-3.796 3.529-4.262 6.06-.466 2.53.067 5.127 1.066 7.524-1.798-.999-4.262-.266-5.46 1.398-1.199 1.665-1.199 3.995-.333 5.86.865 1.864 2.53 3.263 4.328 4.195-1.332 1.065-1.798 3.196-.932 4.727.865 1.532 2.863 2.331 4.46 1.732" fill="#1A202C"></path><path d="M53.193 267.06s5.393-24.836 31.428-22.239l23.838 2.397s16.38 6.925 14.05 26.435c-2.264 19.509-3.396 37.354-2.797 40.75.599 3.463 6.326 34.159 4.595 36.29-17.18 20.908-61.06-12.452-61.06-12.452L53.193 267.06z" fill="url(&quot;#hero_svg__l&quot;)"></path><path d="m84.621 244.821-6.06 145.091-18.044-9.788 1.864-128.711s4.861-8.324 22.24-6.592z" fill="#F8F5FF"></path><path d="M64.579 389.912c1.664-29.298 1.265-86.163 2.93-115.527l-2.93 115.527z" fill="#E5D9FF"></path><path d="M95.545 393.339 25.58 417.246l-15.335-44.894 69.353-25.658 15.946 46.645z" fill="#FFD666"></path><path d="m90.727 392.065-62.12 21.239L14.99 373.43l61.582-22.794 14.155 41.429z" fill="#FFFFFF"></path><path d="m84.978 380.243 4.355-1.494-5.5-16.11-4.585.853 5.73 16.751z" fill="#2D3748"></path><path d="M50.03 409.183s-1.152-1.628-1.3-2.588c0 0-.151-1.791-.314-3.022-.062-.392-.108-.744-.175-.972-.268-.913-1.095-2.831-1.116-5.229-.006-2.358.807-10.732.807-10.732l7.276-.559 5.698-.514s7.77 10.538 8.04 12.745c.04.216.05.42.05.652.047 1.878-.707 3.31-.803 4.297-.034.383-.629 3.973-1.595 4.517-1.294.765-2.52.764-3.446.296 0 0-2.624 1.383-4.609.987 0 0-2.408 1.344-4.68.159-.016-.04-2.587 1.068-3.833-.037z" fill="#FCD2B1"></path><path d="m47 388.247 6.193-121.253c1.93-7.458 6.059-13.184 11.386-17.978v140.829L47 388.247zm56.465-141.629s16.247 8.057 15.515 35.291c-.799 27.234 9.788 104.208 9.788 104.208l13.583-2.73s-15.714-72.979-16.38-85.764c-.666-13.05.466-31.495-8.323-44.213-6.326-9.122-14.183-6.792-14.183-6.792zm-18.844-1.797s-5.327 11.985-4.794 16.313c.533 4.395 2.397 13.584 2.397 13.584s-3.928 2.397-3.596 4.461c.267 2.064 3.396 34.692 3.396 34.692l2.597-69.05z" fill="#F8F5FF"></path><path d="M89.748 511.232H67.841v17.179h21.907v-17.179z" fill="#FCD2B1"></path><path d="m91.88 537.733-1.998-14.387H66.243l2.464 20.315h2.043c5.75 0 30.917.731 34.513-.334 4.128-1.266-13.384-5.594-13.384-5.594z" fill="#1A202C"></path><path d="M911.973 517.043c-4.966 6.647-14.417 26.109-29.153 27.23 12.894 2.163 30.514-.561 33.317-7.368 1.842 5.446.721 6.968.721 6.968l9.451-.881-.24-26.35-14.096.401zm-69.678-.401c-5.447 6.247-15.618 26.029-30.355 26.029 12.655 3.124 30.435 1.762 33.718-4.805 1.442 5.606.16 6.968.16 6.968l9.451-.16 1.762-26.27-14.736-1.762z" fill="#000"></path><path d="M878.255 295.754s-49.976 208.474-57.985 217.605c11.293 2.803 56.303 12.013 55.903 5.526 0 0 7.849-39.405 2.483-105.639 5.686-42.207 45.491-78.248 19.061-118.293-6.167-3.684-19.462.801-19.462.801z" fill="url(&quot;#hero_svg__m&quot;)"></path><path d="m878.255 295.754 4.085 17.46s7.608 202.547 2.322 213.519c11.613-.32 57.425-3.443 55.342-9.61 0 0-3.043-40.045-25.789-102.435-5.766-42.208 26.75-88.179-9.45-119.655-24.508-8.569-26.51.721-26.51.721z" fill="url(&quot;#hero_svg__n&quot;)"></path><path d="M880.337 233.284c-15.297 8.409-32.676 80.651-47.653 13.775-5.286.321-8.089.241-8.089.241s3.444 74.964 58.946 12.173c6.247-34.198-3.204-26.189-3.204-26.189z" fill="url(&quot;#hero_svg__o&quot;)"></path><path d="m884.902 231.602-4.565 1.602s-13.455 24.828-14.736 28.672c1.602 6.007 12.173 22.425 12.734 33.958 7.288 2.403 18.821 2.964 26.51-.721.801-2.322 5.686-33.637 8.409-50.857.881-5.846-3.524-11.212-9.45-11.372l-5.447-.161-13.455-1.121z" fill="url(&quot;#hero_svg__p&quot;)"></path><path d="m831.996 231.961-17.079 20.494 120.546 100.461 17.079-20.494-120.546-100.461z" fill="#718096"></path><path d="m823.492 229.06-12.962 15.554 6.442 5.368 12.962-15.553-6.442-5.369z" fill="#2D3748"></path><path d="M795.875 88.145C749.503 61.219 690.077 76.98 663.15 123.352c-26.934 46.373-11.172 105.799 35.2 132.726 46.372 26.934 105.799 11.172 132.725-35.208 26.926-46.372 11.172-105.791-35.2-132.725zm-89.516 154.149c-26.862-15.593-41.439-44.242-40.357-73.258.472-12.855 4.02-25.773 10.932-37.675 22.505-38.755 72.169-51.93 110.924-29.425 18.189 10.564 30.739 27.103 36.618 45.7 6.647 21.023 4.749 44.666-7.193 65.233-22.505 38.756-72.169 51.93-110.924 29.425z" fill="url(&quot;#hero_svg__q&quot;)"></path><path opacity="0.03" d="M787.866 101.936c-38.755-22.505-88.419-9.33-110.924 29.425-6.92 11.894-10.468 24.82-10.941 37.675 73.963-85.576 158.482-21.4 158.482-21.4-5.878-18.597-18.428-35.136-36.617-45.7z" fill="#000"></path><path d="M875.612 208.296c-4.805-4.005-8.89-15.297-2.403-18.581 5.767-2.883 26.19-7.048 30.595 8.089 1.121 3.764.801 7.769-.561 11.453-3.684 10.171-11.533 16.819-11.533 16.819l-16.098-17.78z" fill="#1A202C"></path><path d="M887.625 220.79c-.16 1.602-.721 9.37-2.723 10.812 2.563 4.805 3.284 9.451 3.284 9.451s7.929-7.289 10.011-8.41c-1.201-4.405-5.366-15.297-5.366-15.297l-5.206 3.444z" fill="#C68C6B"></path><path d="M875.211 196.523c-1.201 6.887-2.162 20.663 1.923 27.07 1.681 2.643 4.725 4.085 7.848 3.844 9.771-.801 10.812-7.288 12.174-13.615 1.522-6.888.16-31.716-21.945-17.299z" fill="#DBA17B"></path><path d="M871.928 195.642c3.684 6.327 9.451 10.571 15.457 11.292 2.563.321 5.206.08 7.849.641 2.563.561 5.206 2.162 6.488 5.126 0 .08-7.769-36.601-29.794-17.059z" fill="#1A202C"></path><path d="M900.65 214.632c.581-2.18-.057-4.243-1.424-4.607-1.368-.365-2.947 1.107-3.529 3.286-.581 2.18.057 4.242 1.425 4.607 1.367.365 2.947-1.107 3.528-3.286z" fill="#DBA17B"></path><path d="M892.19 191.637c2.724-3.844 5.527-7.768 9.291-10.492 3.844-2.723 8.89-4.164 13.295-2.562 2.723 1.041 4.965 3.123 7.528 4.565 6.247 3.364 13.936 2.322 20.583-.08 6.648-2.403 12.895-6.007 19.703-7.769 6.807-1.762 14.896-1.201 19.942 3.764 7.128 7.048 4.245 20.263-3.844 26.109-8.17 5.847-19.382 5.527-28.833 2.083-10.892-3.925-21.704-11.613-32.917-8.97-3.444.801-6.567 2.563-9.771 4.004-3.203 1.442-6.727 2.563-10.251 2.083-3.524-.481-6.968-2.964-7.449-6.488-.48-3.524 3.044-7.288 6.408-6.167" fill="#1A202C"></path><path d="M895.154 222.232c0 2.883 1.121 5.205 2.403 5.205 1.361 0 2.402-2.322 2.402-5.205 0-2.884-2.402-5.206-2.402-5.206s-2.403 2.322-2.403 5.206z" fill="#80FFDB"></path><path d="M824.595 250.023s-3.444 6.087-2.964 7.288c.481 1.201 5.366 5.286 5.366 5.286l2.803-4.085-5.205-8.489zm82.572 55.262s-4.404-.08-4.725-.641c-.32-.561-3.444-4.885-6.968-5.206.641.961 2.003 4.405 3.044 4.726-3.845 0-11.773 1.041-12.975 1.761.881 2.724 4.645 6.728 8.169 7.769 4.966-.24 9.131-3.043 9.131-3.043s4.645.08 4.485-.16c-.161-.241-.161-5.206-.161-5.206z" fill="#C68C6B"></path><path d="M905.886 233.124c30.274 6.567 54.381 83.293-1.922 81.451-.4-2.563 1.281-10.491 1.281-10.491s40.526 5.045 6.087-48.215c-8.97-7.048-5.446-22.745-5.446-22.745z" fill="#4DFFCD"></path><rect y="543" width="1116" height="2" rx="1" fill="#1A202C"></rect><path d="M238.201 472.448h62.205a5.247 5.247 0 0 0 5.244-5.244 5.247 5.247 0 0 0-5.244-5.244h-62.144a5.247 5.247 0 0 0-5.244 5.244c-.061 2.893 2.29 5.244 5.183 5.244z" fill="#EDF2F7"></path><path d="M231.66 533.399h53.525v5.305H231.66v-5.305z" fill="#E2E8F0"></path><path d="M280.261 537.667a4.968 4.968 0 0 0 4.159 5.786 4.967 4.967 0 0 0 5.786-4.159 4.968 4.968 0 0 0-4.159-5.786 4.969 4.969 0 0 0-5.786 4.159zm-24.231-68.655h5.304v66.545h-5.304v-66.545zm-29.295 68.655a4.968 4.968 0 0 0 4.16 5.786 4.968 4.968 0 0 0 5.786-4.159 4.969 4.969 0 0 0-4.159-5.786 4.969 4.969 0 0 0-5.787 4.159z" fill="#E2E8F0"></path><path d="M221.927 472.448h58.709c3.978 0 6.871-3.918 5.726-7.836l-28.028-96.683c-.724-2.592-3.074-4.4-5.726-4.4h-58.709c-3.979 0-6.872 3.918-5.727 7.836l28.029 96.683c.723 2.652 3.074 4.4 5.726 4.4z" fill="#EDF2F7"></path><path d="M230.004 472.448h51.174c3.978 0 6.872-3.918 5.726-7.836l-28.028-96.683c-.723-2.592-3.074-4.4-5.726-4.4h-51.175c-3.978 0-6.871 3.918-5.726 7.836l28.029 96.683c.723 2.652 3.074 4.4 5.726 4.4z" fill="#F7FAFC"></path><path d="M221.927 472.448h62.205a5.248 5.248 0 0 0 5.244-5.244 5.248 5.248 0 0 0-5.244-5.244h-62.145a5.248 5.248 0 0 0-5.244 5.244c-.06 2.893 2.29 5.244 5.184 5.244z" fill="#EDF2F7"></path><path d="M219.414 292.029c-18.756-.645-18.342 9.402-18.065 22.536 1.382 70.048 60.923 40.415 43.319 17.097-8.526-11.291-7.051.369-5.945-24.287.415-8.802-13.41-15.161-19.309-15.346z" fill="#1A202C"></path><path d="M220.521 344.473c3.917-.645 24.424 19.402 29.816 24.84 5.392 5.484 10.922 12.995 5.208 12.995-5.715 0-11.66-5.345-16.176-8.94-4.516-3.595-10.599-8.848-13.964-11.245-3.318-2.35-8.756-17.005-4.884-17.65z" fill="#B97A59"></path><path d="M250.198 387.378s2.488-16.36 10.645-28.48c8.157-12.167 12.259-21.614 12.259-21.614l3.502 1.613s-12.258 32.351-15.116 37.651c-2.857 5.207-3.041 4.516-11.29 10.83z" fill="#B97A59"></path><path d="M273.148 341.708s5.806-2.12 11.475-6.728c5.668-4.609 5.622-4.747 6.59-6.913.968-2.166-.738-6.221-2.811-4.516-2.028 1.705-3.779 5.484-5.392 6.59-4.102 2.857-3.042.276-2.765-.461.276-.737.737-1.797.046-2.304-.691-.507-1.244 1.152-1.659 1.705-.415.553-3.456 3.134-4.056 3.733-.599.553-.46 2.488-1.336 4.101-.922 1.659-3.318 8.618-2.166 9.586.046 0 .323-3.963 2.074-4.793zm83.321 177.332s3.733 10.185 6.268 14.886c2.534 4.654 4.7 7.788 5.76 11.981 1.06 4.194-14.102-.967-15.807-3.686s-2.074-11.982-8.111-18.941c-6.129-6.959 11.89-4.24 11.89-4.24z" fill="#B97A59"></path><path d="M291.536 427.425s45.532 20.415 50.094 26.452c4.516 6.037 12.304 52.675 15.576 65.209.692 2.627-10.276 6.268-13.364 4.378-3.088-1.889-16.544-29.355-18.802-36.452-2.443-7.881-1.567-17.282-3.503-18.157-4.055-1.89-44.609-13.042-50.37-17.328-5.807-4.286-22.581-19.402-20.83-24.425 1.751-4.977 41.199.323 41.199.323z" fill="url(&quot;#hero_svg__r&quot;)"></path><path d="M349.095 530.654s-2.995 4.101-3.733 5.898c-.737 1.798-2.58 3.549-1.152 5.438 1.429 1.844 6.913 5.761 11.153 12.213 4.193 6.451 11.613 13.871 16.498 16.313 4.885 2.443 12.074 1.706 12.12-1.013.046-2.719-3.917-6.498-5.899-7.927-1.981-1.475-10-19.171-11.06-21.936-1.06-2.765-2.581-4.101-4.608-2.811-2.028 1.29-4.563 2.12-7.927-.553-3.364-2.627-5.392-5.622-5.392-5.622z" fill="#1A202C"></path><path d="M218.355 386.825s7.327 8.249 9.585 16.175c2.304 7.927-3.041 29.172 9.862 44.564 6.544 7.834 44.656 3.686 44.656 3.686-30.923-54.978-32.766-63.826-30.923-70.232 1.844-6.406.138-9.493-5.852-14.47-5.945-4.977-10.323-9.448-11.614-15.254-1.29-5.715-48.25-16.176-15.714 35.531z" fill="url(&quot;#hero_svg__s&quot;)"></path><path d="M205.681 349.727s2.396-2.074 2.857-10.968c.461-8.894.599-13.503-1.06-16.683-1.659-3.133 15.484-3.779 15.899 2.719.369 6.498 1.383 7.42-.369 14.286-1.797 6.867 4.378 8.756 5.715 9.309 2.673 1.153 10.415 11.245-23.042 1.337z" fill="#AA6B4F"></path><path d="M219.229 312.906c-3.087.737-6.129 1.059-8.94.322 2.304 15.254 14.977 17.282 15.438 17.328.461.046.922.092 1.521-.553.599-.645 8.295-10.461 4.332-25.807-.277-1.106-2.12 6.221-12.351 8.71zm-6.728 41.245c5.484 1.152 22.397 34.655 27.282 43.78 4.885 9.125 9.079 20.83 1.475 17.973-7.604-2.857-13.273-12.12-17.835-18.572-4.516-6.498-10.415-15.761-13.917-20.231-3.503-4.47-2.489-24.102 2.995-22.95zm86.316 150.511s-5.807 9.816-6.129 13.411c-.323 3.594-.738 6.037-3.549 5.299-2.811-.737-7.143-9.032-6.498-11.659.645-2.627 7.235-8.848 8.249-13.042.968-4.194 7.973 7.65 7.973 7.65l-.046-1.659z" fill="#B97A59"></path><path d="M287.157 504.478s-3.871 1.981-6.221 2.212c-2.351.276-5.623 2.627-5.3 7.604.323 4.977 1.336 14.931 1.244 21.198-.092 6.268 5.254 16.637 6.682 18.711 2.305 3.364 7.558 3.364 8.756.414 1.199-2.949-.23-11.244-.322-15.484s1.613-18.157 1.751-19.862c.138-1.705-4.332-5.392-5.899-3.364-1.567 2.027-3.041-.323-3.087-1.844 0-1.521 2.396-9.585 2.396-9.585z" fill="#1A202C"></path><path fill-rule="evenodd" clip-rule="evenodd" d="M277.029 425.649c-4.783.203-8.649.368-10.794.347-7.189-.092-35.346 15.945-25.024 27.236 10.323 11.291 16.499 13.503 48.85 5.622 4.385-1.068 8.366-2.3 11.955-3.645-3.582 5.552-6.77 12.331-7.315 19.386-1.291 17.282-4.701 25.347-4.701 25.347l9.355 5.991s28.711-48.389 30.784-58.113c1.838-8.618 1.504-17.851-2.991-18.749a5.42 5.42 0 0 0-.681-.77c-4.871-4.55-32.743-3.363-49.438-2.652z" fill="url(&quot;#hero_svg__t&quot;)"></path><path d="M298.909 506.183c-.046.046-.046.092-.046.092l-8.157-5.208 8.203 5.116z" fill="#EDF2F7"></path><path d="M243.517 416.411c10.231.783 26.499 1.152 26.499 1.152s22.581 3.41 1.29-5.115c-4.608-1.844-16.636-7.881-33.595-10.093-1.844-.23-.922.277-2.858 1.06-3.364 1.336.369 12.351 8.664 12.996z" fill="#B97A59"></path><path d="m289.141 421.618.046-1.198-2.627-2.811s-6.222-2.489-8.848-2.489c-2.627 0-12.074-4.101-13.319-4.239-1.244-.139-4.47 5.207-4.47 5.207s10.369 1.521 14.471 2.535c4.055 1.014 9.401 4.608 11.014 5.069 2.719.784 4.009 1.337 4.009 1.337s.184-1.659-4.009-3.134c-1.106-.415-.092-1.521-.092-1.521l3.825 1.244z" fill="#B97A59"></path><path d="M223.838 293.827c-1.567-.692-17.328-3.549-24.84 4.147-7.511 7.696-9.539 19.171-5.945 29.817 3.595 10.645-1.06 9.631-5.391 18.618-8.987 18.48 14.608 30.277 27.65 19.908 7.005-5.576 7.235-22.904 5.438-34.793-1.797-11.89-12.765-15.623-6.267-18.065 7.603-2.858 23.042-13.457 9.355-19.632z" fill="#1A202C"></path><path d="M230.037 431c1.209 5.699 2.463 21.5 8.963 21.5 15.5 0 28-11.5 30.5-16.5s-.5-8.5-3.076-14c-17.924 0-27.424 0-36.387 9z" fill="url(&quot;#hero_svg__u&quot;)"></path><path d="m282.375 423.6 9.503-39.683c.225-1.071 1.237-1.917 2.193-1.917h51.284c.956 0 1.518.846 1.237 1.917l-9.503 39.683h-54.714z" fill="url(&quot;#hero_svg__v&quot;)"></path><path d="M311.334 402.75c-.506 2.024.619 3.655 2.418 3.655 1.856 0 3.712-1.631 4.218-3.655.506-2.024-.619-3.655-2.418-3.655-1.856 0-3.712 1.631-4.218 3.655z" fill="#A0AEC0"></path><path d="M264.324 425.58s0-.056-.056-.056l.056-1.968h73.102v2.024l-.168.338c-.956 1.687-2.643 1.968-4.555 1.968h-63.655c-1.912 0-3.599-.281-4.555-1.968l-.169-.338z" fill="#8596AE"></path><path d="M847 70c19.33 0 35-15.67 35-35S866.33 0 847 0s-35 15.67-35 35 15.67 35 35 35z" fill="url(&quot;#hero_svg__w&quot;)"></path><g filter="url(#hero_svg__x)" fill="none"><path fill-rule="evenodd" clip-rule="evenodd" d="M863.928 22.739a3.547 3.547 0 0 1 0 5.016L844.421 47.26a3.547 3.547 0 0 1-5.016 0l-8.866-8.866a3.547 3.547 0 0 1 5.016-5.016l6.358 6.359 16.999-17a3.547 3.547 0 0 1 5.016 0z" fill="#FFFFFF"></path></g></g><defs><linearGradient id="hero_svg__i" x1="179.306" y1="280.296" x2="159.965" y2="295.574" gradientUnits="userSpaceOnUse"><stop stop-color="#FFF1CC"></stop><stop offset="1" stop-color="#FFE499"></stop></linearGradient><linearGradient id="hero_svg__j" x1="111.051" y1="350.693" x2="111.051" y2="505.173" gradientUnits="userSpaceOnUse"><stop stop-color="#FFE499"></stop><stop offset="1" stop-color="#FFF1CC"></stop></linearGradient><linearGradient id="hero_svg__k" x1="87.018" y1="347.068" x2="87.018" y2="511.166" gradientUnits="userSpaceOnUse"><stop stop-color="#FFEBB3"></stop><stop offset="1" stop-color="#FFF8E6"></stop></linearGradient><linearGradient id="hero_svg__l" x1="112.196" y1="257.18" x2="39.262" y2="306.763" gradientUnits="userSpaceOnUse"><stop stop-color="#E5D9FF"></stop><stop offset="1" stop-color="#F8F5FF"></stop></linearGradient><linearGradient id="hero_svg__m" x1="863.481" y1="293.5" x2="863.481" y2="521.152" gradientUnits="userSpaceOnUse"><stop stop-color="#E2E8F0"></stop><stop offset="1" stop-color="#EDF2F7"></stop></linearGradient><linearGradient id="hero_svg__n" x1="909.164" y1="291.403" x2="909.164" y2="526.733" gradientUnits="userSpaceOnUse"><stop stop-color="#EDF2F7"></stop><stop offset="1" stop-color="#F7FAFC"></stop></linearGradient><linearGradient id="hero_svg__o" x1="875.043" y1="238.255" x2="839.836" y2="282.647" gradientUnits="userSpaceOnUse"><stop stop-color="#72FFD8"></stop><stop offset="1" stop-color="#D6FFF3"></stop></linearGradient><linearGradient id="hero_svg__p" x1="905.052" y1="238.953" x2="860.551" y2="273.489" gradientUnits="userSpaceOnUse"><stop stop-color="#4CFFCC"></stop><stop offset="1" stop-color="#D6FFF3"></stop></linearGradient><linearGradient id="hero_svg__q" x1="650" y1="75" x2="844" y2="269" gradientUnits="userSpaceOnUse"><stop stop-color="#4A5568"></stop><stop offset="1" stop-color="#718096"></stop></linearGradient><linearGradient id="hero_svg__r" x1="303.724" y1="424.971" x2="303.724" y2="523.988" gradientUnits="userSpaceOnUse"><stop stop-color="#B3E2FF"></stop><stop offset="1" stop-color="#F2FAFF"></stop></linearGradient><linearGradient id="hero_svg__s" x1="220.05" y1="358.163" x2="291.1" y2="412.624" gradientUnits="userSpaceOnUse"><stop stop-color="#4CBAFF"></stop><stop offset="1" stop-color="#CCEBFF"></stop></linearGradient><linearGradient id="hero_svg__t" x1="285.075" y1="424.961" x2="285.075" y2="505.933" gradientUnits="userSpaceOnUse"><stop stop-color="#CCEBFF"></stop><stop offset="1" stop-color="#F2FAFF"></stop></linearGradient><linearGradient id="hero_svg__u" x1="237.07" y1="425.389" x2="256.992" y2="453.755" gradientUnits="userSpaceOnUse"><stop stop-color="#9CD9FF"></stop><stop offset="1" stop-color="#B6E3FF"></stop></linearGradient><linearGradient id="hero_svg__v" x1="314.52" y1="382" x2="314.52" y2="423.6" gradientUnits="userSpaceOnUse"><stop stop-color="#A0AEC0"></stop><stop offset="1" stop-color="#718096"></stop></linearGradient><filter id="hero_svg__b" x="265" y="33" width="586" height="452" filterUnits="userSpaceOnUse" color-interpolation-filters="sRGB"><feFlood flood-opacity="0" result="BackgroundImageFix"></feFlood><feColorMatrix in="SourceAlpha" values="0 0 0 0 0 0 0 0 0 0 0 0 0 0 0 0 0 0 127 0"></feColorMatrix><feOffset dy="2"></feOffset><feGaussianBlur stdDeviation="2"></feGaussianBlur><feColorMatrix values="0 0 0 0 0.290196 0 0 0 0 0.333333 0 0 0 0 0.407843 0 0 0 0.1 0"></feColorMatrix><feBlend in2="BackgroundImageFix" result="effect1_dropShadow"></feBlend><feBlend in="SourceGraphic" in2="effect1_dropShadow" result="shape"></feBlend></filter><filter id="hero_svg__d" x="265" y="75" width="586" height="44" filterUnits="userSpaceOnUse" color-interpolation-filters="sRGB"><feFlood flood-opacity="0" result="BackgroundImageFix"></feFlood><feColorMatrix in="SourceAlpha" values="0 0 0 0 0 0 0 0 0 0 0 0 0 0 0 0 0 0 127 0"></feColorMatrix><feOffset dy="2"></feOffset><feGaussianBlur stdDeviation="2"></feGaussianBlur><feColorMatrix values="0 0 0 0 0 0 0 0 0 0 0 0 0 0 0 0 0 0 0.05 0"></feColorMatrix><feBlend in2="BackgroundImageFix" result="effect1_dropShadow"></feBlend><feBlend in="SourceGraphic" in2="effect1_dropShadow" result="shape"></feBlend></filter><filter id="hero_svg__x" x="828.5" y="21.7" width="37.467" height="29.6" filterUnits="userSpaceOnUse" color-interpolation-filters="sRGB"><feFlood flood-opacity="0" result="BackgroundImageFix"></feFlood><feColorMatrix in="SourceAlpha" values="0 0 0 0 0 0 0 0 0 0 0 0 0 0 0 0 0 0 127 0"></feColorMatrix><feOffset dy="2"></feOffset><feGaussianBlur stdDeviation="0.5"></feGaussianBlur><feColorMatrix values="0 0 0 0 0 0 0 0 0 0.658824 0 0 0 0 0.47451 0 0 0 0.3 0"></feColorMatrix><feBlend in2="BackgroundImageFix" result="effect1_dropShadow"></feBlend><feBlend in="SourceGraphic" in2="effect1_dropShadow" result="shape"></feBlend></filter><clipPath id="hero_svg__a"><path fill="#fff" d="M0 0h1116v572H0z"></path></clipPath><clipPath id="hero_svg__e"><path fill="#fff" transform="translate(333 87)" d="M0 0h16v16H0z"></path></clipPath><radialGradient id="hero_svg__w" cx="0" cy="0" r="1" gradientUnits="userSpaceOnUse" gradientTransform="rotate(132.934 415.42 201.04) scale(35.588)"><stop stop-color="#80FFDB"></stop><stop offset="1" stop-color="#00E6A4"></stop></radialGradient><linearGradient id="hero_svg__i" x1="179.306" y1="280.296" x2="159.965" y2="295.574" gradientUnits="userSpaceOnUse"><stop stop-color="#FFF1CC"></stop><stop offset="1" stop-color="#FFE499"></stop></linearGradient><linearGradient id="hero_svg__j" x1="111.051" y1="350.693" x2="111.051" y2="505.173" gradientUnits="userSpaceOnUse"><stop stop-color="#FFE499"></stop><stop offset="1" stop-color="#FFF1CC"></stop></linearGradient><linearGradient id="hero_svg__k" x1="87.018" y1="347.068" x2="87.018" y2="511.166" gradientUnits="userSpaceOnUse"><stop stop-color="#FFEBB3"></stop><stop offset="1" stop-color="#FFF8E6"></stop></linearGradient><linearGradient id="hero_svg__l" x1="112.196" y1="257.18" x2="39.262" y2="306.763" gradientUnits="userSpaceOnUse"><stop stop-color="#E5D9FF"></stop><stop offset="1" stop-color="#F8F5FF"></stop></linearGradient><linearGradient id="hero_svg__m" x1="863.481" y1="293.5" x2="863.481" y2="521.152" gradientUnits="userSpaceOnUse"><stop stop-color="#E2E8F0"></stop><stop offset="1" stop-color="#EDF2F7"></stop></linearGradient><linearGradient id="hero_svg__n" x1="909.164" y1="291.403" x2="909.164" y2="526.733" gradientUnits="userSpaceOnUse"><stop stop-color="#EDF2F7"></stop><stop offset="1" stop-color="#F7FAFC"></stop></linearGradient><linearGradient id="hero_svg__o" x1="875.043" y1="238.255" x2="839.836" y2="282.647" gradientUnits="userSpaceOnUse"><stop stop-color="#72FFD8"></stop><stop offset="1" stop-color="#D6FFF3"></stop></linearGradient><linearGradient id="hero_svg__p" x1="905.052" y1="238.953" x2="860.551" y2="273.489" gradientUnits="userSpaceOnUse"><stop stop-color="#4CFFCC"></stop><stop offset="1" stop-color="#D6FFF3"></stop></linearGradient><linearGradient id="hero_svg__q" x1="650" y1="75" x2="844" y2="269" gradientUnits="userSpaceOnUse"><stop stop-color="#4A5568"></stop><stop offset="1" stop-color="#718096"></stop></linearGradient><linearGradient id="hero_svg__r" x1="303.724" y1="424.971" x2="303.724" y2="523.988" gradientUnits="userSpaceOnUse"><stop stop-color="#B3E2FF"></stop><stop offset="1" stop-color="#F2FAFF"></stop></linearGradient><linearGradient id="hero_svg__s" x1="220.05" y1="358.163" x2="291.1" y2="412.624" gradientUnits="userSpaceOnUse"><stop stop-color="#4CBAFF"></stop><stop offset="1" stop-color="#CCEBFF"></stop></linearGradient><linearGradient id="hero_svg__t" x1="285.075" y1="424.961" x2="285.075" y2="505.933" gradientUnits="userSpaceOnUse"><stop stop-color="#CCEBFF"></stop><stop offset="1" stop-color="#F2FAFF"></stop></linearGradient><linearGradient id="hero_svg__u" x1="237.07" y1="425.389" x2="256.992" y2="453.755" gradientUnits="userSpaceOnUse"><stop stop-color="#9CD9FF"></stop><stop offset="1" stop-color="#B6E3FF"></stop></linearGradient><linearGradient id="hero_svg__v" x1="314.52" y1="382" x2="314.52" y2="423.6" gradientUnits="userSpaceOnUse"><stop stop-color="#A0AEC0"></stop><stop offset="1" stop-color="#718096"></stop></linearGradient><radialGradient id="hero_svg__w" cx="0" cy="0" r="1" gradientUnits="userSpaceOnUse" gradientTransform="rotate(132.934 415.42 201.04) scale(35.588)"><stop stop-color="#80FFDB"></stop><stop offset="1" stop-color="#00E6A4"></stop></radialGradient></defs></svg>