<svg xmlns:xlink="http://www.w3.org/1999/xlink" viewBox="0 0 40 44" fill="none" xmlns="http://www.w3.org/2000/svg" width="40"  height="44" ><g clip-path="url(#logomark-shaded_svg__a)" fill="none"><path d="M7.354 25.76a.643.643 0 0 1-.316-.084l-.175-.09c-3.007-1.536-4.836-2.575-5.436-3.082-1.058-.9-1.6-2.1-1.378-3.058.1-.426.442-1.184 1.636-1.485a37.656 37.656 0 0 1 3.7-.751.646.646 0 0 1 .732.571c.26 2.468.875 4.849 1.83 7.078a.65.65 0 0 1-.16.736.663.663 0 0 1-.433.165z" fill="#FFFFFF"></path><path d="M25.34 38.245c-3.703 0-8.281-.974-12.543-4.581-5.079-4.298-8.111-11.205-8.115-18.478v-.006C4.686 6.81 11.493 0 19.866 0c8.21 0 14.918 6.553 15.173 14.702.23.059.494.117.768.178.984.216 2.1.464 2.836.984.865.613 1.323 1.31 1.355 2.075.035.806-.406 1.603-1.31 2.37-1.048.891-3.255 2.505-6.372 3.453l-.332.4c-1.368 1.633-2.359 2.814-2.359 5.556 0 4.459 3.22 5.972 3.252 5.985a.647.647 0 0 1-.01 1.18c-.05.03-3.193 1.362-7.526 1.362zm9.709-23.059h.006-.006z" fill="#FFFFFF"></path><mask id="logomark-shaded_svg__b" maskUnits="userSpaceOnUse" x="4" y="0" width="37" height="39" fill="none"><path d="M25.342 38.245c-3.704 0-8.282-.974-12.544-4.581-5.078-4.298-8.11-11.205-8.114-18.478v-.006C4.687 6.81 11.494 0 19.867 0c8.211 0 14.919 6.553 15.174 14.702.229.059.493.117.767.178.984.216 2.1.464 2.836.984.865.613 1.323 1.31 1.355 2.075.036.806-.406 1.603-1.31 2.37-1.048.891-3.255 2.505-6.371 3.453l-.333.4c-1.368 1.633-2.358 2.814-2.358 5.556 0 4.459 3.22 5.972 3.252 5.985a.647.647 0 0 1-.01 1.18c-.051.03-3.194 1.362-7.527 1.362zm9.708-23.059h.007-.007z" fill="#FFFFFF"></path></mask><g mask="url(#logomark-shaded_svg__b)" fill="none"><path opacity="0.12" d="M25.342 38.245c-3.704 0-8.282-.974-12.544-4.581-5.078-4.298-8.11-11.205-8.114-18.478v-.006C4.687 6.81 11.494 0 19.867 0c8.211 0 14.919 6.553 15.174 14.702.229.059.493.117.767.178.984.216 2.1.464 2.836.984.865.613 1.323 1.31 1.355 2.075.036.806-.406 1.603-1.31 2.37-1.048.891-3.255 2.505-6.371 3.453l-.333.4c-1.368 1.633-2.358 2.814-2.358 5.556 0 4.459 3.22 5.972 3.252 5.985a.647.647 0 0 1-.01 1.18c-.051.03-3.194 1.362-7.527 1.362zm9.708-23.059h.007-.007z" fill="url(&quot;#logomark-shaded_svg__c&quot;)"></path></g><path d="M11.616 16.78c-.71 0-1.29-.58-1.29-1.29v-1.935c0-.71.58-1.29 1.29-1.29.71 0 1.29.58 1.29 1.29v1.936c0 .71-.58 1.29-1.29 1.29zm9.039 0c-.71 0-1.29-.58-1.29-1.29v-1.935c0-.71.58-1.29 1.29-1.29.71 0 1.29.58 1.29 1.29v1.936c0 .71-.58 1.29-1.29 1.29z" fill="#000"></path><path d="M22.258 43.41c6.057 0 10.968-.578 10.968-1.29 0-.713-4.91-1.29-10.968-1.29-6.057 0-10.968.577-10.968 1.29 0 .712 4.91 1.29 10.968 1.29z" fill="#FFFFFF" fill-opacity="0.05"></path></g><defs><radialGradient id="logomark-shaded_svg__c" cx="0" cy="0" r="1" gradientUnits="userSpaceOnUse" gradientTransform="matrix(-20.9712 23.71363 -21.89843 -19.36592 32.91 8.066)"><stop stop-color="#fff" stop-opacity="0"></stop><stop offset="0.823" stop-color="#fff" stop-opacity="0.5"></stop><stop offset="1"></stop></radialGradient><clipPath id="logomark-shaded_svg__a"><path fill="#fff" d="M0 0h40v44H0z"></path></clipPath><radialGradient id="logomark-shaded_svg__c" cx="0" cy="0" r="1" gradientUnits="userSpaceOnUse" gradientTransform="matrix(-20.9712 23.71363 -21.89843 -19.36592 32.91 8.066)"><stop stop-color="#fff" stop-opacity="0"></stop><stop offset="0.823" stop-color="#fff" stop-opacity="0.5"></stop><stop offset="1"></stop></radialGradient></defs></svg>