<svg xmlns:xlink="http://www.w3.org/1999/xlink" viewBox="0 0 220 128" fill="none" xmlns="http://www.w3.org/2000/svg" height="128" width="220" ><circle opacity="0.3" cx="104" cy="33" r="33" fill="url(&quot;#anyone-create-tests_svg__a&quot;)"></circle><mask id="anyone-create-tests_svg__b" maskUnits="userSpaceOnUse" x="71" y="0" width="66" height="66" fill="none"><circle cx="104" cy="33" r="33" fill="#E6F5FF"></circle></mask><g mask="url(#anyone-create-tests_svg__b)" fill="none"><path d="M111.45 14.338c-.675 2.214.3 7.45.3 7.45 1.677-1.919 1.739-9.275 1.739-9.275s-1.365-.39-2.039 1.825zm-17.002 8.923s.475 8.863.736 9.543c-6.58-16.9-1.22-23.657-1.22-23.657l.484 14.114z" fill="#1A202C"></path><path d="m138.11 65.605 3.429-1.789-1.64-3.057-3.131 1.12 1.342 3.726z" fill="#B97A59"></path><path d="M106.718 58.765c1.857 15.255 8.701 20.305 8.701 20.305 9.403-1.407 24.921-13.2 24.921-13.2l-2.493-4.78c-8.126.56-18.102 5.66-18.102 5.66-.977-25.5-14.902-29.968-14.902-29.968" fill="#F2FAFF"></path><path d="M106.718 58.765c1.857 15.255 8.701 20.305 8.701 20.305 9.403-1.407 24.921-13.2 24.921-13.2l-2.493-4.78c-8.126.56-18.102 5.66-18.102 5.66-.977-25.5-14.902-29.968-14.902-29.968" fill="#F2FAFF"></path><path d="M85.225 65.606c1.745 4.844 3.199 23.29 3.199 23.29 12.291 8.844 28.146 6.93 28.146 6.93-4.919-23.617-3.616-29.942-2.706-40.42.911-10.479-9.025-18.623-9.025-18.623-6.663 2.302-10.275-.79-10.275-.79-13.945 5.745-11.081 24.77-9.338 29.613z" fill="#F2FAFF"></path><path d="M104.54 34.172a68.99 68.99 0 0 0 .682 5.463 34.015 34.015 0 0 1-10.341-1.126c-.272-2.09-.006-4.277-.165-6.562-.34-4.894-.814-9.443-.588-13.577 1.098-.921 2.774-1.266 4.474-.712 2.696.878 4.04 3.436 4.627 4.685 1.523 3.256.761 5.32 1.311 11.83z" fill="#AA6B4F"></path><path opacity="0.2" d="M104.613 34.72c.016.148.033.298.056.436-4.463-1.229-5.576-3.693-5.576-3.693 3.225 1.966 5.394 2.042 5.394 2.042.041.368.08.797.126 1.214z" fill="#000"></path><path d="M96.126 27.737c1.57 2.85 7.386 9.237 12.844 3.376 3.079-3.307 4.657-14.682 1.343-19.562-3.615-5.34-11.68-5.42-15-.527-2.788 4.123-1.488 12.545.813 16.713z" fill="#AA6B4F"></path><path d="M95.984 21.69c.972 2.191-.185 6.476-2.775 4.314-.913-.775-1.52-1.924-1.696-3.203-.469-3.438 3.313-3.722 4.47-1.11z" fill="#AA6B4F"></path><path d="M83.737 40.36c7.54 5.704 5.799 18.814 5.799 18.814l23.5 14.734c-.109-2.746.809-21.479.809-21.479 3.209-9.329-9.001-15.646-9.001-15.646-4.421 2.55-10.275-.79-10.275-.79-6.728.514-10.832 4.366-10.832 4.366z" fill="#F2FAFF"></path><path d="m118.861 68.747 3.43-1.79-1.64-3.058-3.131 1.12 1.341 3.728z" fill="#B97A59"></path><path d="M83.737 40.36c-6.537 5.022.687 22.189.687 22.189 5.007 15.46 11.747 19.664 11.747 19.664 9.402-1.407 24.92-13.2 24.92-13.2l-2.492-4.78c-8.127.56-18.102 5.66-18.102 5.66-7.33-21.907-14.306-31.092-14.903-29.97l-1.857.437z" fill="#F2FAFF"></path><path d="M83.737 40.36c-6.537 5.022.687 22.189.687 22.189 5.007 15.46 11.747 19.664 11.747 19.664 9.402-1.407 24.92-13.2 24.92-13.2l-2.492-4.78c-8.127.56-18.102 5.66-18.102 5.66-7.33-21.907-14.306-31.092-14.903-29.97l-1.857.437z" fill="#F2FAFF"></path><path d="M112.76 17.088s4.686-10.569-9.705-10.944C88.962 4.345 92.76 19.954 92.76 19.954c2.822-.583 2.649 3.307 2.649 3.307 1.493-.182.935-3.025 2.174-4.227.933-.907 2.522-1.246 3.485-2.08 2.316-2.005 3.775-4.138 3.775-4.138 3.961 4.347 7.917 4.272 7.917 4.272z" fill="#1A202C"></path></g><circle opacity="0.3" cx="187" cy="74" r="33" fill="url(&quot;#anyone-create-tests_svg__c&quot;)"></circle><mask id="anyone-create-tests_svg__d" maskUnits="userSpaceOnUse" x="154" y="41" width="66" height="66" fill="none"><circle cx="187" cy="74" r="33" fill="#C4C4C4"></circle></mask><g mask="url(#anyone-create-tests_svg__d)" fill="none"><path d="M192.335 136.404s-1.697-2.565-3.483-2.897c-1.8-.332 24.718-13.144 24.642-17.725-.052-3.714-9.278-10.566-9.278-10.566s0-.013 0 0v-.064c0 .013 0 0 0 0-.204.74-3.216 11.702-3.305 16.589-.102 5.079.306 22.524.306 22.524l-6.789 1.825-21.707.204-4.951-2.016s.536-5.615.74-9.558c.128-2.502.613-6.994.485-11.358 0 0 .077-4.607-.383-6.585-.051-8.754-.574-17.419-.574-17.419a274.994 274.994 0 0 1-.612-11.14 85.125 85.125 0 0 1 3.037-1.544c2.845-1.353 6.827-3.19 9.366-4.365 1.494-.689 2.948-1.187 2.948-1.187s10.184-.97 11.013-.918c.255.012 1.532.459 3.203 1.097 3.612 1.365 10.579 4.16 11.69 4.964 1.62 1.162 12.276 29.338 12.429 31.278.268 3.496-28.777 18.861-28.777 18.861z" fill="#FFFFFF"></path><path d="M167.17 88.149c.115 3.522.281 7.3.587 11.332 0 0 .281 9.877.855 19.244.192 1.34.294 2.705.179 4.109-.14 1.837-.345 3.828-.574 5.921 0 .026-.013.051-.013.077-.064.497-.115.995-.179 1.493v.025c-1.263 10.439-3.42 22.409-4.53 26.02-.242.753.574 1.455 1.161 1.991l4.084 2.565s1.684-15.479 2.233-20.737c.536-5.066 2.233-11.868 2.974-18.491.944-8.41-.128-15.9.574-20.788 1.825-12.736 6.61-19.167 6.61-19.167-1.161.37-13.961 6.406-13.961 6.406zm43.286 26.352c1.774 3.879-16.219 10.783-15.824 11.74.97 2.297 4.952 6.968 4.952 6.968s23.697-11.715 23.429-14.382c-.191-1.94-11.293-31.176-12.914-32.35-.944-.676-7.899-3.139-11.306-4.492a322.129 322.129 0 0 0-3.318-1.25c-.728.804-5.717 6.317-7.478 27.13-.294 3.51.638 10.937 1.263 16.998.664 6.47 1.404 11.511 1.952 16.934 1.072 10.656 1.813 19.142 1.813 19.142l10.604-4.722c1.71-.855 4.683-3.101 4.033-4.913-2.451-6.865-6.126-19.882-6.139-25.918 0 0 1.736-16.64 2.668-19.882.012.026 4.287 4.658 6.265 8.997z" fill="#F8F5FF"></path><path d="M192.833 81.296s.064-3.497 1.417-10.58c.357-1.888-11.001 4.978-11.001 4.978s.039.663.064 1.57c.013.472.026 1.008.013 1.544 0 .191 0 .382-.013.561a20.94 20.94 0 0 1-.076 1.391c-.039.421-.294 1.161-.383 1.365-.447 1.085 6.164 1.915 9.979-.829z" fill="#DBA17B"></path><path opacity="0.9" d="M185.751 84.959s-8.512 30.116-7.045 51.517l2.4 4.237 2.246-4.441s1.697-38.271 3.662-48.748l-1.263-2.565z" fill="#E5D9FF"></path><path d="m183.734 82.61 2.017 2.361s3.241-.625 4.185-2.31c.945-1.71-6.202-.05-6.202-.05z" fill="#DBA17B"></path><path d="M183.275 80.543s.23 1.8 2.476 4.415l-2.45 3.293-1.328-6.828 1.302-.88z" fill="#E5D9FF"></path><path d="M193.05 78.54s-4.032 5.13-7.312 6.418l1.518 3.765 6.955-8.397-1.161-1.786z" fill="#E5D9FF"></path><path d="M177.277 58.3s-2.488 4.62-1.25 5.348c1.021.6-1.2 5.13-1.493 5.87-.294.74 1.85 1.276 2.309 1.761.46.485 1.8 6.355 3.573 6.534 1.762.178 9.712-2.59 11.868-4.837 2.17-2.246 3.944-12.416 2.489-16.691-1.442-4.3-13.093-6.062-17.496 2.016z" fill="#DBA17B"></path><path d="M176.78 59.296s-5.067-5.13-.702-7.58c12.467-6.98 15.938 1.671 16.896 1.914.957.255 6.418.625 3.662 10.196-2.361 8.23-2.693 8.563-2.693 8.563s-1.761-4.76-2.769-5.488c-1.569-1.135-4.989-.855-4.989-.855s1.633-4.338-.919-4.95c-2.54-.588-5.896-2.757-8.486-1.8z" fill="#2D3748"></path><path d="M188.418 64.873c.229-.6.957-3.152 3.139-1.647 2.195 1.506-1.365 6.317-1.748 6.381-.383.064-3.293.268-1.391-4.734z" fill="#DBA17B"></path><path opacity="0.2" d="M183.339 78.82c0 .192 0 .383-.013.562 6.495-2.182 7.759-5.462 7.759-5.462-2.029 1.43-7.759 3.343-7.759 3.343 0 .472.013 1.021.013 1.557z" fill="#000"></path><path d="M179.74 143.775s-18.721-12.838-21.196-16.947c-1.149-1.901-.153-6.942.408-11.332a85.91 85.91 0 0 1 .689-4.339c1.047-5.717 2.45-10.796 2.45-10.796s1.2-15.222 10.375-13.27c0 0 2.425 2.525 3.025 4.542.612 2.067-2.502 10.91-3.089 12.455-.574 1.544-5.155 16.627-5.015 17.202.128.574 5.156 5.895 7.542 8.282 4.454 4.441 10.592 10.579 10.592 10.579l-5.781 3.624z" fill="#F8F5FF"></path></g><circle opacity="0.3" cx="33" cy="95" r="33" fill="url(&quot;#anyone-create-tests_svg__e&quot;)"></circle><mask id="anyone-create-tests_svg__f" maskUnits="userSpaceOnUse" x="0" y="62" width="66" height="66" fill="none"><circle cx="33" cy="95" r="33" fill="#D6FFF3"></circle></mask><g mask="url(#anyone-create-tests_svg__f)" fill="none"><path d="M38.556 107.308s9.015 2.056 11.128 8.479c2.113 6.423 5.128 24.172 4.113 25.636-1.014 1.465-3.268 3.691-4.676 1.803-1.409-1.887-10.565-35.918-10.565-35.918z" fill="#F5FFFC"></path><path d="M14.132 107.194c1.887-2.676 13.748-5.718 13.748-5.718s13.466 6.056 14.31 8.423c.846 2.366 2.987 13.776 4.705 16.621 1.719 2.845-1.465 12.255-1.465 12.255l4.705 23.861s-23.016.592-33.89-2.141c-.339.592-1.156 1.803-2.705 3.24-32.087-20.875-1.296-53.836.592-56.541zm.31 50.23c.676-4.986 4.169-11.268 4.592-17.607.507-7.803-3.156-15.579-5.156-16.762-.028.028-.056.085-.084.113-10.706 13.747-5.635 31.27.648 34.256z" fill="#F5FFFC"></path><path d="M37.26 80.263c1.325-4.423 0-10.846-5.014-11.24-5.015-.395-11.72 4.394-11.325 8.395.395 4 7.015 7.493 7.015 7.493l9.325-4.648z" fill="#2D3748"></path><path d="M48.276 86.601c0 7.578-4.677 12.537-11.213 12.537-6.535 0-12.395-.508-12.395-8.086S29.71 75.7 36.246 75.7s12.03 3.324 12.03 10.902z" fill="#2D3748"></path><path d="M32.669 93.983c-1.296 2.366-4.705 7.606-4.705 7.606l4.817 14.227 2.874-9.719.422-7.353-3.408-4.761z" fill="#FCD2B1"></path><path opacity="0.2" fill-rule="evenodd" clip-rule="evenodd" d="M35.843 102.823c-.765-.588-1.75-1.489-2.8-2.823 0 0-.137 2.089 2.457 4.436.082.073.161.139.239.196l.104-1.809z" fill="#000"></path><path d="M32.471 88.432c-2.563 4.705-.591 12.621 3.24 15.213 3.831 2.591 7.945-.395 9.917-5.973 2.563-4.704 2.282-10.48-1.55-13.071-3.831-2.592-9.043-.874-11.607 3.831z" fill="#FCD2B1"></path><path d="M32.02 93.278c-.824 0-1.492-1.274-1.492-2.846 0-1.571.668-2.845 1.493-2.845.824 0 1.493 1.274 1.493 2.845 0 1.572-.669 2.846-1.493 2.846z" fill="#FCD2B1"></path><path d="M44.895 82.967c-3.099 4.817-10.423 9.945-14.367 7.888-2.254-6 7.324-14.058 14.367-7.888z" fill="#2D3748"></path><path d="M43.205 84.009c.676 4.789 2.507 8.677 5.578 9.268.93-6.423.282-10.395-5.578-9.268z" fill="#2D3748"></path><path d="M30.612 100.856c-.716 0-1.296-2.132-1.296-4.761 0-2.63.58-4.761 1.296-4.761.716 0 1.296 2.132 1.296 4.761 0 2.63-.58 4.761-1.296 4.761z" stroke="#80E5C9" stroke-miterlimit="10" fill="none"></path></g><defs><linearGradient id="anyone-create-tests_svg__a" x1="125.511" y1="7.333" x2="79.8" y2="56.467" gradientUnits="userSpaceOnUse"><stop stop-color="#4CBAFF"></stop><stop offset="1" stop-color="#CCEBFF"></stop></linearGradient><linearGradient id="anyone-create-tests_svg__c" x1="208.511" y1="48.333" x2="162.8" y2="97.467" gradientUnits="userSpaceOnUse"><stop stop-color="#C4A8FF"></stop><stop offset="1" stop-color="#E5D9FF"></stop></linearGradient><linearGradient id="anyone-create-tests_svg__e" x1="54.511" y1="69.333" x2="8.8" y2="118.467" gradientUnits="userSpaceOnUse"><stop stop-color="#4CFFCC"></stop><stop offset="1" stop-color="#B5FFEA"></stop></linearGradient><linearGradient id="anyone-create-tests_svg__a" x1="125.511" y1="7.333" x2="79.8" y2="56.467" gradientUnits="userSpaceOnUse"><stop stop-color="#4CBAFF"></stop><stop offset="1" stop-color="#CCEBFF"></stop></linearGradient><linearGradient id="anyone-create-tests_svg__c" x1="208.511" y1="48.333" x2="162.8" y2="97.467" gradientUnits="userSpaceOnUse"><stop stop-color="#C4A8FF"></stop><stop offset="1" stop-color="#E5D9FF"></stop></linearGradient><linearGradient id="anyone-create-tests_svg__e" x1="54.511" y1="69.333" x2="8.8" y2="118.467" gradientUnits="userSpaceOnUse"><stop stop-color="#4CFFCC"></stop><stop offset="1" stop-color="#B5FFEA"></stop></linearGradient></defs></svg>