<svg xmlns:xlink="http://www.w3.org/1999/xlink" viewBox="0 0 221 128" fill="none" xmlns="http://www.w3.org/2000/svg" height="128" width="221" ><g clip-path="url(#bugs-cost_svg__a)" fill="none"><path d="m187.893 54.128-67.658-24.626L105.87 68.97l67.658 24.625 14.365-39.467z" fill="url(&quot;#bugs-cost_svg__b&quot;)"></path><path opacity="0.1" d="M174.554 90.776 106.896 66.15l-1.026 2.82 67.658 24.625 1.026-2.82z" fill="#00CC92"></path><path opacity="0.15" d="m162.895 83.34-42.287-15.391a7.503 7.503 0 0 0-4.482-9.613l5.13-14.095a7.503 7.503 0 0 0 9.613-4.483l42.286 15.39a7.502 7.502 0 0 0 4.483 9.614l-5.131 14.095a7.502 7.502 0 0 0-9.612 4.483z" fill="#00CC92"></path><path opacity="0.3" d="M181.612 58.227a1.504 1.504 0 0 1-1.922.897 1.505 1.505 0 0 1-.897-1.923 1.505 1.505 0 0 1 1.923-.897 1.504 1.504 0 0 1 .896 1.923zm-10.26 28.191a1.504 1.504 0 0 1-1.923.896 1.504 1.504 0 0 1-.896-1.922 1.504 1.504 0 0 1 1.922-.897 1.504 1.504 0 0 1 .897 1.922zm-46.121-48.712a1.504 1.504 0 0 1-1.923.896 1.504 1.504 0 0 1-.896-1.922 1.504 1.504 0 0 1 1.922-.897 1.504 1.504 0 0 1 .897 1.923zM114.97 65.897a1.504 1.504 0 0 1-1.922.896 1.504 1.504 0 0 1-.897-1.922 1.504 1.504 0 0 1 1.923-.897 1.504 1.504 0 0 1 .896 1.923zm28.834 4.109a9 9 0 0 0 11.535-5.38 9 9 0 1 0-16.914-6.156 9 9 0 0 0 5.379 11.536zm23.708.648-5.638-2.052a1.504 1.504 0 0 1-.897-1.923 1.505 1.505 0 0 1 1.923-.896l5.638 2.052a1.504 1.504 0 0 1 .896 1.922 1.504 1.504 0 0 1-1.922.897zm-36.648-13.339-5.638-2.052a1.504 1.504 0 0 1-.897-1.923 1.505 1.505 0 0 1 1.923-.896l5.638 2.052a1.504 1.504 0 0 1 .896 1.922 1.504 1.504 0 0 1-1.922.897z" fill="#00CC92"></path><path d="M80.417 49.137 10.87 30.502 0 71.072l69.547 18.634 10.87-40.569z" fill="url(&quot;#bugs-cost_svg__c&quot;)"></path><path opacity="0.1" d="M70.323 86.808.776 68.173 0 71.071l69.547 18.635.776-2.898z" fill="#00CC92"></path><path opacity="0.15" d="M58.06 80.417 14.593 68.77a7.503 7.503 0 0 0-5.303-9.186l3.882-14.489a7.503 7.503 0 0 0 9.186-5.303L65.823 51.44a7.503 7.503 0 0 0 5.303 9.186l-3.882 14.489a7.503 7.503 0 0 0-9.185 5.303z" fill="#00CC92"></path><path opacity="0.3" d="M74.517 53.768a1.504 1.504 0 0 1-1.837 1.061 1.505 1.505 0 0 1-1.06-1.837 1.504 1.504 0 0 1 1.837-1.06 1.504 1.504 0 0 1 1.06 1.836zm-7.764 28.978a1.505 1.505 0 0 1-1.837 1.06 1.504 1.504 0 0 1-1.06-1.837 1.504 1.504 0 0 1 1.836-1.06 1.505 1.505 0 0 1 1.061 1.837zM16.562 38.239a1.504 1.504 0 0 1-1.837 1.06 1.504 1.504 0 0 1-1.06-1.836 1.504 1.504 0 0 1 1.836-1.061 1.504 1.504 0 0 1 1.061 1.837zM8.797 67.217a1.504 1.504 0 0 1-1.837 1.06 1.504 1.504 0 0 1-1.06-1.836 1.504 1.504 0 0 1 1.837-1.061 1.504 1.504 0 0 1 1.06 1.837zm29.083 1.581a9 9 0 1 0 4.658-17.387 9 9 0 0 0-4.659 17.387zm23.674-1.422-5.796-1.552a1.504 1.504 0 0 1-1.06-1.837 1.504 1.504 0 0 1 1.837-1.061l5.795 1.553a1.505 1.505 0 0 1 1.06 1.837 1.504 1.504 0 0 1-1.836 1.06zM23.883 57.283l-5.796-1.553a1.505 1.505 0 0 1-1.06-1.837 1.504 1.504 0 0 1 1.836-1.06l5.796 1.552a1.504 1.504 0 0 1 1.06 1.837 1.505 1.505 0 0 1-1.837 1.06z" fill="#00CC92"></path><path d="M205.638 63.904 137.98 88.53l14.365 39.467 67.658-24.626-14.365-39.467z" fill="url(&quot;#bugs-cost_svg__d&quot;)"></path><path opacity="0.1" d="m218.977 100.552-67.658 24.626 1.026 2.819 67.658-24.626-1.026-2.819z" fill="#00CC92"></path><path opacity="0.15" d="m205.265 102.35-42.286 15.391a7.503 7.503 0 0 0-9.613-4.482l-5.131-14.096a7.502 7.502 0 0 0 4.483-9.612l42.286-15.391a7.503 7.503 0 0 0 9.613 4.482l5.13 14.096a7.502 7.502 0 0 0-4.482 9.612z" fill="#00CC92"></path><path opacity="0.3" d="M203.461 71.082a1.504 1.504 0 0 1-.896 1.922 1.505 1.505 0 0 1-1.923-.896 1.505 1.505 0 0 1 .897-1.923 1.504 1.504 0 0 1 1.922.897zm10.261 28.19a1.505 1.505 0 0 1-.897 1.923 1.504 1.504 0 0 1-1.922-.897 1.504 1.504 0 0 1 .896-1.922 1.505 1.505 0 0 1 1.923.896zm-66.642-7.669a1.504 1.504 0 0 1-.897 1.922 1.504 1.504 0 0 1-1.922-.896 1.505 1.505 0 0 1 .896-1.923 1.505 1.505 0 0 1 1.923.897zm10.26 28.191a1.503 1.503 0 0 1-.896 1.922 1.505 1.505 0 0 1-1.923-.896 1.505 1.505 0 0 1 .897-1.923 1.504 1.504 0 0 1 1.922.897zm24.73-15.386a9 9 0 1 0-6.158-16.915 9 9 0 0 0 6.158 16.915zm18.577-14.743-5.638 2.052a1.504 1.504 0 0 1-1.922-.897 1.505 1.505 0 0 1 .896-1.922l5.638-2.052a1.505 1.505 0 0 1 1.923.896 1.504 1.504 0 0 1-.897 1.923zm-36.648 13.338-5.638 2.053a1.504 1.504 0 0 1-1.922-.897 1.505 1.505 0 0 1 .896-1.923l5.638-2.052a1.505 1.505 0 0 1 1.923.897 1.504 1.504 0 0 1-.897 1.922z" fill="#00CC92"></path><path d="M127.777 0 56.87 12.502l7.294 41.362 70.906-12.502L127.777 0z" fill="url(&quot;#bugs-cost_svg__e&quot;)"></path><path opacity="0.1" d="M134.549 38.407 63.643 50.91l.52 2.955 70.907-12.503-.521-2.955z" fill="#00CC92"></path><path opacity="0.15" d="m120.733 37.797-44.316 7.815a7.503 7.503 0 0 0-8.689-6.084l-2.604-14.772a7.503 7.503 0 0 0 6.083-8.689l44.317-7.814a7.502 7.502 0 0 0 8.688 6.084l2.605 14.772a7.503 7.503 0 0 0-6.084 8.688z" fill="#00CC92"></path><path opacity="0.3" d="M124.387 6.69a1.504 1.504 0 0 1-1.217 1.738 1.505 1.505 0 0 1-1.738-1.217 1.505 1.505 0 0 1 1.217-1.738 1.504 1.504 0 0 1 1.738 1.217zm5.209 29.544a1.504 1.504 0 0 1-1.216 1.738 1.504 1.504 0 0 1-1.738-1.217 1.504 1.504 0 0 1 1.217-1.738 1.504 1.504 0 0 1 1.737 1.217zM65.298 17.11a1.504 1.504 0 0 1-1.216 1.737 1.504 1.504 0 0 1-1.738-1.217 1.504 1.504 0 0 1 1.217-1.738 1.504 1.504 0 0 1 1.737 1.217zm5.21 29.543a1.504 1.504 0 0 1-1.217 1.738 1.504 1.504 0 0 1-1.738-1.217 1.504 1.504 0 0 1 1.217-1.738 1.504 1.504 0 0 1 1.738 1.217zm27.025-10.858a8.999 8.999 0 0 0 7.3-10.426 9 9 0 1 0-7.3 10.426zm20.856-11.293-5.909 1.042a1.504 1.504 0 0 1-1.738-1.217 1.504 1.504 0 0 1 1.217-1.737l5.909-1.042a1.504 1.504 0 0 1 1.737 1.217 1.504 1.504 0 0 1-1.216 1.737zm-38.408 6.773-5.909 1.041a1.504 1.504 0 0 1-1.737-1.216 1.504 1.504 0 0 1 1.217-1.738l5.908-1.042a1.504 1.504 0 0 1 1.738 1.217 1.504 1.504 0 0 1-1.217 1.738z" fill="#00CC92"></path></g><defs><radialGradient id="bugs-cost_svg__b" cx="0" cy="0" r="1" gradientUnits="userSpaceOnUse" gradientTransform="rotate(167.912 69.674 37.91) scale(29.4291 26.5592)"><stop stop-color="#D6FFF3"></stop><stop offset="1" stop-color="#BCFCEA"></stop></radialGradient><radialGradient id="bugs-cost_svg__c" cx="0" cy="0" r="1" gradientUnits="userSpaceOnUse" gradientTransform="matrix(-28.12994 8.64745 -7.80416 -25.38673 38.973 59.049)"><stop stop-color="#D6FFF3"></stop><stop offset="1" stop-color="#BCFCEA"></stop></radialGradient><radialGradient id="bugs-cost_svg__d" cx="0" cy="0" r="1" gradientUnits="userSpaceOnUse" gradientTransform="rotate(127.912 65.28 91.237) scale(29.4291 26.5592)"><stop stop-color="#D6FFF3"></stop><stop offset="1" stop-color="#BCFCEA"></stop></radialGradient><radialGradient id="bugs-cost_svg__e" cx="0" cy="0" r="1" gradientUnits="userSpaceOnUse" gradientTransform="matrix(-21.83981 19.72548 -17.80187 -19.71001 94.404 26.497)"><stop stop-color="#D6FFF3"></stop><stop offset="1" stop-color="#BCFCEA"></stop></radialGradient><clipPath id="bugs-cost_svg__a"><path fill="#fff" d="M0 0h220.003v127.997H0z"></path></clipPath><radialGradient id="bugs-cost_svg__b" cx="0" cy="0" r="1" gradientUnits="userSpaceOnUse" gradientTransform="rotate(167.912 69.674 37.91) scale(29.4291 26.5592)"><stop stop-color="#D6FFF3"></stop><stop offset="1" stop-color="#BCFCEA"></stop></radialGradient><radialGradient id="bugs-cost_svg__c" cx="0" cy="0" r="1" gradientUnits="userSpaceOnUse" gradientTransform="matrix(-28.12994 8.64745 -7.80416 -25.38673 38.973 59.049)"><stop stop-color="#D6FFF3"></stop><stop offset="1" stop-color="#BCFCEA"></stop></radialGradient><radialGradient id="bugs-cost_svg__d" cx="0" cy="0" r="1" gradientUnits="userSpaceOnUse" gradientTransform="rotate(127.912 65.28 91.237) scale(29.4291 26.5592)"><stop stop-color="#D6FFF3"></stop><stop offset="1" stop-color="#BCFCEA"></stop></radialGradient><radialGradient id="bugs-cost_svg__e" cx="0" cy="0" r="1" gradientUnits="userSpaceOnUse" gradientTransform="matrix(-21.83981 19.72548 -17.80187 -19.71001 94.404 26.497)"><stop stop-color="#D6FFF3"></stop><stop offset="1" stop-color="#BCFCEA"></stop></radialGradient></defs></svg>