<svg xmlns:xlink="http://www.w3.org/1999/xlink" viewBox="0 0 116 128" fill="none" xmlns="http://www.w3.org/2000/svg" height="128" width="116" ><path d="M19.154 72.218s-3.602-5.971-7.772-8.444m13.957 7.97V49.867m0 15.041s-4.533-8.604-13.55-9.223m14.016 3.297s5.563-6.75 10.046-8.497m-1.084 20.122v-4.929" stroke="#80E5C9" stroke-miterlimit="10" stroke-linecap="round" stroke-linejoin="round" fill="none"></path><path d="M11.794 55.685C13.393 53.497 8.959 47.151 0 47.188c.255 4.892 9.107 12.181 11.794 8.497zm13.545-5.818c-11.349 0-.4-21.029 1.492-20.81 1.792.205 5.443 20.81-1.492 20.81zm10.199.717c-6.461-8.225 14.373-9.478 14.373-9.478s-10.174 14.822-14.373 9.478zm-.308 15.487s-8.768-3.972-5.665-6.264c3.18-2.353 5.666 6.264 5.666 6.264z" fill="#80E5C9"></path><path d="M34.3 66.245s11.41-17.44 14.843-13.726C54.121 57.9 34.3 66.245 34.3 66.245z" fill="#80E5C9"></path><path d="M2.16 68.95c-.582-9.375 9.222-5.175 9.222-5.175s-6.903.72-9.223 5.175z" fill="#80E5C9" stroke="#80E5C9" stroke-miterlimit="10" stroke-linecap="round" stroke-linejoin="round"></path><path d="M38.732 70.727 10.298 72.89l5.563 25.652 21.943-2.007.928-25.808z" fill="#E6F5FF"></path><path d="M55.944 45.509c-4.195-4.025-1.832-18.564 3.555-21.934C64.887 20.21 58.153.194 84.258 0c26.105-.192 24.55 24.028 25.774 28.476 1.162 4.21 6.919 7.866 4.495 14.715-2.948 8.358-53.966 6.75-58.583 2.317z" fill="#000"></path><path d="M88.076 41.237s3.625 17.278-3.34 17.278c-2.81 0-5.95-.154-5.796-17.278 0 0-11.252-9.458-8.658-19.363 5.772-4.91 11.067-2.986 13.176-.862s3.656 5.48 6.634 4.425c2.978-1.054 5.003-3.463 5.965-2.309.962 1.155.77 7.635 0 8.405-.77.77-2.748.777-2.987 2.886-.377 3.478-4.994 6.818-4.994 6.818zM13.162 86.089s-.907-4.904-2.864-4.08c-1.957.824-2.266 14.732 0 16.071 2.266 1.34 8.938 1.578 9.878.07.94-1.508-1.612-1.41-1.612-1.41s5.745-1.647 5.95-3.81c.207-2.164-7.458.823-7.899-.928-.445-1.751 8.617-1.212 7.9-4.43-.412-1.854-11.353-1.483-11.353-1.483zm53.488-2.637L54.234 66.367 38.501 77.13l-1.15 19.607 29.3-13.285z" fill="#FCD2B1"></path><path d="M52.234 65.367s17.305-10.094 23.585-10.634c6.284-.54 8.975 4.476 7.694 9.19-2.06 7.574-15.572 20.498-17.859 21.524-2.316-2.86-13.42-20.08-13.42-20.08z" fill="url(&quot;#spend-time_svg__a&quot;)"></path><path d="M88.853 51.82s12 3.445 12.931 12.102c4.348 12.107 1.921 63.065 1.921 63.065s-11.296 1.48-23.555.862c-12.26-.618-17.963-2.028-17.963-2.028s.656-30.89 1.74-42.374c1.083-11.485 9.89-31.632 15.761-31.632 3.78 2.53 9.165.005 9.165.005z" fill="url(&quot;#spend-time_svg__b&quot;)"></path><path d="M97.684 108.377c4.405-4.066 7.203-28.07 7.203-28.07H85.861s-1.392 11.588-2.04 14.373l-39.938-3.09s-1.34-4.945-4.224-5.46c-2.885-.515-1.133 5.769-3.812 8.035-2.678 2.267-17.922 2.683-16.174 5.02 7.34 6.72 73.607 13.259 78.011 9.192z" fill="#FCD2B1"></path><path d="M93.786 54.004s8.588 3.431 11.101 14.608c1.373 6.103 1 13.7 1 13.7H83.861l1-14.314" fill="url(&quot;#spend-time_svg__c&quot;)"></path><defs><linearGradient id="spend-time_svg__a" x1="78.325" y1="58.111" x2="57.074" y2="81.574" gradientUnits="userSpaceOnUse"><stop stop-color="#B3E2FF"></stop><stop offset="1" stop-color="#CBEBFF"></stop></linearGradient><linearGradient id="spend-time_svg__b" x1="97.035" y1="60.28" x2="50.531" y2="87.964" gradientUnits="userSpaceOnUse"><stop stop-color="#B3E2FF"></stop><stop offset="1" stop-color="#F2FAFF"></stop></linearGradient><linearGradient id="spend-time_svg__c" x1="102.091" y1="57.149" x2="82.737" y2="73.37" gradientUnits="userSpaceOnUse"><stop stop-color="#B4E2FF"></stop><stop offset="1" stop-color="#D3EEFF"></stop></linearGradient><linearGradient id="spend-time_svg__a" x1="78.325" y1="58.111" x2="57.074" y2="81.574" gradientUnits="userSpaceOnUse"><stop stop-color="#B3E2FF"></stop><stop offset="1" stop-color="#CBEBFF"></stop></linearGradient><linearGradient id="spend-time_svg__b" x1="97.035" y1="60.28" x2="50.531" y2="87.964" gradientUnits="userSpaceOnUse"><stop stop-color="#B3E2FF"></stop><stop offset="1" stop-color="#F2FAFF"></stop></linearGradient><linearGradient id="spend-time_svg__c" x1="102.091" y1="57.149" x2="82.737" y2="73.37" gradientUnits="userSpaceOnUse"><stop stop-color="#B4E2FF"></stop><stop offset="1" stop-color="#D3EEFF"></stop></linearGradient></defs></svg>