<svg xmlns:xlink="http://www.w3.org/1999/xlink" viewBox="0 0 300 220" fill="none" xmlns="http://www.w3.org/2000/svg" width="300" height="220" ><g clip-path="url(#rocket_svg__a)" fill="none"><path d="M261.897 192.443a36.997 36.997 0 0 1-7.32-.098c-26.723-2.954-63.113-2.114-92.778 16.266-41.025 25.415-105.32 3.658-133.681-8.179-21.67-9.041-32.92-31.184-26.163-51.969.095-.293.193-.586.296-.88 4.252-12.352 12.646-22.019 23.04-27.143 9.058-4.466 22.285-13.792 28.17-31.713 2.432-7.4 5.767-14.36 10.098-20.428 11.6-16.25 35.88-40.449 77.64-40.298a67.287 67.287 0 0 1 21.515 3.641c15.256 5.199 29.035 15.767 39.542 30.418 6.705 9.344 16.753 18.031 31.137 18.74 19.963.988 39.014 10.282 53.306 26.823.412.475.819.954 1.226 1.437 25.447 30.315 7.772 80.429-26.028 83.383z" fill="#E6F5FF"></path><path d="M113.372 202.298a14 14 0 0 1-18.355-14.019" stroke="#B3E2FF" stroke-width="2px" fill="none"></path><path d="m213.035 88-1.772 8.298 8.298 1.772-1.772 8.298 8.298 1.773-1.772 8.298M46.762 148.591l-8.398 1.216 1.216 8.397-8.398 1.216 1.216 8.398L24 169.034" stroke="#B3E2FF" stroke-width="2px" stroke-linecap="round" stroke-linejoin="round" fill="none"></path><circle cx="195.157" cy="169.157" r="4" transform="rotate(-159.276 195.157 169.157)" fill="#B3E2FF"></circle><circle cx="81.157" cy="84.157" r="4" transform="rotate(-159.276 81.157 84.157)" fill="#B3E2FF"></circle><path d="M268.261 137.735a14.003 14.003 0 0 1-.423 23.093" stroke="#B3E2FF" stroke-width="2px" fill="none"></path><path d="M127.379 148.014a11.144 11.144 0 0 0-4.34 3.697 1.009 1.009 0 0 1-.871.469c-.428 0-.817-.268-.971-.677-1.641-4.494-4.025-14.447 7.81-16.315a.48.48 0 0 1 .509.455v.054a10.52 10.52 0 0 0 3.262 8.928.78.78 0 0 0 1.045 0 10.5 10.5 0 0 0 3.322-8.868.481.481 0 0 1 .435-.529c.034-.007.067 0 .094 0 2.083.181 8.399 1.259 9.069 7.729a10.662 10.662 0 0 1-2.371 7.729c-2.512 3.115-6.792 9.23-6.49 13.778a1.035 1.035 0 0 1-.945 1.118.998.998 0 0 1-.582-.127c-3.309-1.808-10.195-6.363-8.976-17.441z" fill="url(&quot;#rocket_svg__b&quot;)"></path><path d="M118.282 108.777a7.33 7.33 0 0 0-1.431.408c-10.295 4.111-10.123 31.021-10.123 31.021h-3.031s-.954-11.548-5.112-28.024c-3.747-14.824 11.618-28.109 14.739-30.628.351-.28.546-.43.546-.43 15.476 5.688 4.412 27.653 4.412 27.653z" fill="url(&quot;#rocket_svg__c&quot;)"></path><path opacity="0.2" d="M114.996 81.593a14.455 14.455 0 0 0-1.117-.464l-.545.43c-3.121 2.518-18.486 15.803-14.74 30.627 4.159 16.476 5.104 28.02 5.104 28.02h1.704s-.945-11.548-5.113-28.024c-3.731-14.755 11.485-27.99 14.707-30.59z" fill="#FFFFFF"></path><path d="M169.341 112.185c-4.168 16.476-5.107 28.021-5.107 28.021h-3.036s.191-28.124-10.827-31.263a5.853 5.853 0 0 0-.727-.17s-11.069-21.965 4.412-27.648c0 0 .157.116.439.343 2.869 2.296 18.635 15.722 14.846 30.717z" fill="url(&quot;#rocket_svg__d&quot;)"></path><path opacity="0.1" d="M118.282 108.777a7.26 7.26 0 0 0-1.431.408 186.924 186.924 0 0 1-3.527-27.627c.351-.28.546-.43.546-.43 15.476 5.684 4.412 27.649 4.412 27.649zm36.219-27.305a172.075 172.075 0 0 1-4.124 27.482 6.037 6.037 0 0 0-.727-.17s-11.07-21.965 4.412-27.648c-.006-.008.151.109.439.336z" fill="#000"></path><path d="M148.835 112.941a208.178 208.178 0 0 1-3.758 12.978c-2.155 6.653-6.817 7.101-23.284 0 0 0-1.645-4.638-3.454-12.522-3.983-17.335-8.76-50.369 1.418-84.3A126.363 126.363 0 0 1 132.578 0s8.695 9.984 15.077 29.091c6.382 19.108 10.444 47.344 1.18 83.85z" fill="#FFFFFF"></path><path d="M133.962 69.704c7.55 0 13.67-6.12 13.67-13.67s-6.12-13.671-13.67-13.671-13.671 6.12-13.671 13.67 6.121 13.67 13.671 13.67z" fill="url(&quot;#rocket_svg__e&quot;)"></path><path d="M143.656 56.04c0 5.356-4.342 9.696-9.695 9.696a9.699 9.699 0 0 1-6.146-2.197 9.795 9.795 0 0 1-2.442-3 9.655 9.655 0 0 1-1.105-4.498v-.231a9.705 9.705 0 0 1 7.061-9.107c.761-.21 1.546-.329 2.336-.355h.29c5.355-.004 9.697 4.334 9.701 9.69v.003z" fill="#80E5C9"></path><path d="M147.654 29.091c-15.51 7.426-27.906 0-27.906 0a126.302 126.302 0 0 1 12.129-27.91.939.939 0 0 1 1.563-.113c2.349 3.04 9.042 12.534 14.214 28.023z" fill="url(&quot;#rocket_svg__f&quot;)"></path><path d="M148.835 112.941a203.5 203.5 0 0 1-3.759 12.972c-.703 2.147-6.817 7.101-23.284 0 0 0-.534-1.506-1.336-4.26a156.875 156.875 0 0 1-2.124-8.262s6.13 2.617 14.831 2.617a40.827 40.827 0 0 0 15.672-3.067z" fill="url(&quot;#rocket_svg__g&quot;)"></path><path d="M146.411 121.652a182.76 182.76 0 0 1-1.336 4.26c-.703 2.147-6.818 7.102-23.284 0 0 0-.534-1.506-1.336-4.26-.002 0 16.781 4.829 25.956 0z" fill="#FFFFFF"></path><path opacity="0.2" d="m131.337 46.69-.021.015-7.043 9.092v.231a9.68 9.68 0 0 0 1.105 4.498l8.299-14.191-2.34.355zm2.247 8.206-5.767 8.636A9.773 9.773 0 0 1 126 61.561l6.871-7.375.713.71z" fill="#FFFFFF"></path><path opacity="0.2" d="M125.477 125.915s-1.646-4.639-3.455-12.521c-3.983-17.337-8.76-50.371 1.418-84.302a126.79 126.79 0 0 1 11.232-26.355c-1.292-1.81-2.1-2.734-2.1-2.734a126.32 126.32 0 0 0-12.825 29.089c-10.178 33.93-5.401 66.965-1.418 84.302 1.81 7.882 3.455 12.521 3.455 12.521 6.506 2.804 11.504 3.392 15.172 3.079-3.134-.239-6.939-1.123-11.479-3.079z" fill="#FFFFFF"></path></g><defs><linearGradient id="rocket_svg__b" x1="135" y1="135" x2="135" y2="167" gradientUnits="userSpaceOnUse"><stop stop-color="#FFF1CC"></stop><stop offset="0.453" stop-color="#FFE499"></stop><stop offset="1" stop-color="#FF99A6"></stop></linearGradient><linearGradient id="rocket_svg__c" x1="117.916" y1="87.689" x2="87.73" y2="100.932" gradientUnits="userSpaceOnUse"><stop stop-color="#00CC92"></stop><stop offset="1" stop-color="#80E5C9"></stop></linearGradient><linearGradient id="rocket_svg__d" x1="165.728" y1="87.689" x2="135.54" y2="100.933" gradientUnits="userSpaceOnUse"><stop stop-color="#00CC92"></stop><stop offset="1" stop-color="#80E5C9"></stop></linearGradient><linearGradient id="rocket_svg__e" x1="142.873" y1="45.401" x2="123.936" y2="65.755" gradientUnits="userSpaceOnUse"><stop stop-color="#00CC92"></stop><stop offset="1" stop-color="#80E5C9"></stop></linearGradient><linearGradient id="rocket_svg__f" x1="142.796" y1="3.599" x2="120.37" y2="24.366" gradientUnits="userSpaceOnUse"><stop stop-color="#00CC92"></stop><stop offset="1" stop-color="#80E5C9"></stop></linearGradient><linearGradient id="rocket_svg__g" x1="143.526" y1="114.792" x2="134.18" y2="133.182" gradientUnits="userSpaceOnUse"><stop stop-color="#00CC92"></stop><stop offset="1" stop-color="#80E5C9"></stop></linearGradient><clipPath id="rocket_svg__a"><path fill="#fff" d="M0 0h300v220H0z"></path></clipPath><linearGradient id="rocket_svg__b" x1="135" y1="135" x2="135" y2="167" gradientUnits="userSpaceOnUse"><stop stop-color="#FFF1CC"></stop><stop offset="0.453" stop-color="#FFE499"></stop><stop offset="1" stop-color="#FF99A6"></stop></linearGradient><linearGradient id="rocket_svg__c" x1="117.916" y1="87.689" x2="87.73" y2="100.932" gradientUnits="userSpaceOnUse"><stop stop-color="#00CC92"></stop><stop offset="1" stop-color="#80E5C9"></stop></linearGradient><linearGradient id="rocket_svg__d" x1="165.728" y1="87.689" x2="135.54" y2="100.933" gradientUnits="userSpaceOnUse"><stop stop-color="#00CC92"></stop><stop offset="1" stop-color="#80E5C9"></stop></linearGradient><linearGradient id="rocket_svg__e" x1="142.873" y1="45.401" x2="123.936" y2="65.755" gradientUnits="userSpaceOnUse"><stop stop-color="#00CC92"></stop><stop offset="1" stop-color="#80E5C9"></stop></linearGradient><linearGradient id="rocket_svg__f" x1="142.796" y1="3.599" x2="120.37" y2="24.366" gradientUnits="userSpaceOnUse"><stop stop-color="#00CC92"></stop><stop offset="1" stop-color="#80E5C9"></stop></linearGradient><linearGradient id="rocket_svg__g" x1="143.526" y1="114.792" x2="134.18" y2="133.182" gradientUnits="userSpaceOnUse"><stop stop-color="#00CC92"></stop><stop offset="1" stop-color="#80E5C9"></stop></linearGradient></defs></svg>