<svg xmlns:xlink="http://www.w3.org/1999/xlink" viewBox="0 0 300 200" fill="none" xmlns="http://www.w3.org/2000/svg" width="300" height="200" ><path d="M239.26 199.911c31.55 1.963 88.68-28.874 44.735-74.436-45.481-52.792 32.166-90.561-31.779-119.81-46.35-21.203-102.064 24.607-139.365 15.512C33.279 5.664-17.074 62.975 18.017 99.413 44.24 126.64-19.358 145.35 6.176 166.912c28.42 24 50.94-1.945 92.627 3.487 60.523 7.886 103.902 27.239 140.457 29.512z" fill="#F2FAFF"></path><path d="M230.372 108.298a14 14 0 0 1-18.355-14.019" stroke="#B3E2FF" stroke-width="2px" fill="none"></path><path d="m50.035 134-1.772 8.298 8.298 1.772-1.772 8.299 8.298 1.772-1.772 8.298M226.762 23.59l-8.398 1.217 1.216 8.397-8.398 1.216 1.216 8.398L204 44.034" stroke="#B3E2FF" stroke-width="2px" stroke-linecap="round" stroke-linejoin="round" fill="none"></path><circle cx="256.157" cy="159.157" r="4" transform="rotate(-159.276 256.157 159.157)" fill="#B3E2FF"></circle><circle cx="40.157" cy="75.157" r="4" transform="rotate(-159.276 40.157 75.157)" fill="#B3E2FF"></circle><path d="M68.352 37.827a14 14 0 0 1-.422 23.093" stroke="#B3E2FF" stroke-width="2px" fill="none"></path><path d="M127.095 40 82.297 94.349l66.298 78.244 44.197-51.964L127.095 40z" fill="url(&quot;#book_svg__a&quot;)"></path><path d="M84.09 94.946a22.569 22.569 0 0 1 3.653-4.878l41.141-41.708s14.335-2.39 17.322 4.78l-52.557 43-9.56-1.194z" fill="#FFFFFF"></path><path d="m82 94.053 57.094 87.746s6.357 11.582 15.773 7.218l62.412-42.107-66.294-100.342-59.726 46.59-9.259.895z" fill="url(&quot;#book_svg__b&quot;)"></path><path d="m143.533 61.115-38.228 27.467.563.785L144.097 61.9l-.564-.785zM104.8 98.864l-.806.532 50.174 75.856.805-.533L104.8 98.864zm96.063 48.256-40.607 29.874.572.778 40.608-29.874-.573-.778zm-50.078-84.703-.793.552 51.966 74.66.793-.552-51.966-74.66z" opacity="0.25" fill="#006649"></path><g opacity="0.5" fill="none"><path d="m134.732 47.766-47.26 43.378.405.44 47.259-43.378-.404-.44z" fill="url(&quot;#book_svg__c&quot;)"></path><path d="M138.673 48.142 89.277 91.747l.396.448 49.396-43.605-.396-.448z" fill="url(&quot;#book_svg__d&quot;)"></path><path d="M141.757 49.007 90.484 91.75l.383.459 51.272-42.742-.382-.459z" fill="url(&quot;#book_svg__e&quot;)"></path></g><defs><linearGradient id="book_svg__a" x1="173.557" y1="54.733" x2="82.04" y2="136.707" gradientUnits="userSpaceOnUse"><stop stop-color="#00CC92"></stop><stop offset="1" stop-color="#80E5C9"></stop></linearGradient><linearGradient id="book_svg__b" x1="193.731" y1="62.505" x2="94.141" y2="163.466" gradientUnits="userSpaceOnUse"><stop stop-color="#00CC92"></stop><stop offset="1" stop-color="#80E5C9"></stop></linearGradient><linearGradient id="book_svg__c" x1="126.55" y1="55.366" x2="127.106" y2="55.982" gradientUnits="userSpaceOnUse"><stop stop-color="#00CC92"></stop><stop offset="1" stop-color="#80E5C9"></stop></linearGradient><linearGradient id="book_svg__d" x1="130.119" y1="55.782" x2="130.662" y2="56.409" gradientUnits="userSpaceOnUse"><stop stop-color="#00CC92"></stop><stop offset="1" stop-color="#80E5C9"></stop></linearGradient><linearGradient id="book_svg__e" x1="132.874" y1="56.498" x2="133.4" y2="57.14" gradientUnits="userSpaceOnUse"><stop stop-color="#00CC92"></stop><stop offset="1" stop-color="#80E5C9"></stop></linearGradient><linearGradient id="book_svg__a" x1="173.557" y1="54.733" x2="82.04" y2="136.707" gradientUnits="userSpaceOnUse"><stop stop-color="#00CC92"></stop><stop offset="1" stop-color="#80E5C9"></stop></linearGradient><linearGradient id="book_svg__b" x1="193.731" y1="62.505" x2="94.141" y2="163.466" gradientUnits="userSpaceOnUse"><stop stop-color="#00CC92"></stop><stop offset="1" stop-color="#80E5C9"></stop></linearGradient><linearGradient id="book_svg__c" x1="126.55" y1="55.366" x2="127.106" y2="55.982" gradientUnits="userSpaceOnUse"><stop stop-color="#00CC92"></stop><stop offset="1" stop-color="#80E5C9"></stop></linearGradient><linearGradient id="book_svg__d" x1="130.119" y1="55.782" x2="130.662" y2="56.409" gradientUnits="userSpaceOnUse"><stop stop-color="#00CC92"></stop><stop offset="1" stop-color="#80E5C9"></stop></linearGradient><linearGradient id="book_svg__e" x1="132.874" y1="56.498" x2="133.4" y2="57.14" gradientUnits="userSpaceOnUse"><stop stop-color="#00CC92"></stop><stop offset="1" stop-color="#80E5C9"></stop></linearGradient></defs></svg>