<svg xmlns:xlink="http://www.w3.org/1999/xlink" viewBox="0 0 300 200" fill="none" xmlns="http://www.w3.org/2000/svg" width="300" height="200" ><g clip-path="url(#chat-bubbles_svg__a)" fill="none"><path fill-rule="evenodd" clip-rule="evenodd" d="M6.137 119.826c23.905 55.588 61.924.563 106.863 55.176 44.939 54.614 187 14.804 187-71.592 0-36.977-42.111-83.77-89.785-71.38S159.65 0 95.595 0C31.539 0-17.768 64.24 6.137 119.826z" fill="#E6F5FF"></path><path d="M112.372 145.298a14 14 0 0 1-18.355-14.019" stroke="#B3E2FF" stroke-width="2px" fill="none"></path><path d="m257.035 57-1.772 8.298 8.298 1.772-1.772 8.298 8.298 1.773-1.772 8.298m-77.553 77.152-8.398 1.216 1.216 8.397-8.398 1.216 1.216 8.398-8.398 1.216" stroke="#B3E2FF" stroke-width="2px" stroke-linecap="round" stroke-linejoin="round" fill="none"></path><circle cx="192.157" cy="48.157" r="4" transform="rotate(-159.276 192.157 48.157)" fill="#B3E2FF"></circle><circle cx="51.157" cy="121.157" r="4" transform="rotate(-159.276 51.157 121.157)" fill="#B3E2FF"></circle><path d="M22.769 57.428a14 14 0 0 1 16.182 16.48" stroke="#B3E2FF" stroke-width="2px" fill="none"></path><path d="M134.499 94.076v13.336l.077 18.1.108 21.862.062 16.126 16.065-16.188 4.903-.016 65.014-.308c10.977-2.143 19.272-11.81 19.272-23.403v-29.51c0-12.24-9.25-22.354-21.153-23.68l-65.169.293c-10.915 2.174-19.179 11.81-19.179 23.388z" fill="url(&quot;#chat-bubbles_svg__b&quot;)"></path><path d="M154.773 94.724c0 1.943 1.572 3.5 3.499 3.5h59.927c1.928 0 3.5-1.573 3.5-3.5 0-1.943-1.572-3.5-3.5-3.5h-59.927a3.487 3.487 0 0 0-3.499 3.5zm0 13.044c0 1.928 1.572 3.5 3.499 3.5h59.927c1.928 0 3.5-1.572 3.5-3.5a3.497 3.497 0 0 0-3.5-3.499h-59.927c-1.942-.016-3.499 1.557-3.499 3.499zm18.3 13.027c0 1.927 1.572 3.5 3.5 3.5h41.626a3.495 3.495 0 0 0 3.485-3.5c0-.972-.386-1.835-1.018-2.467a3.5 3.5 0 0 0-2.467-1.033h-41.611a3.51 3.51 0 0 0-3.515 3.5z" fill="#FFFFFF"></path><path d="M165.501 59.681v13.336l-.077 18.1-.108 21.862-.062 16.126-16.065-16.188-4.903-.015-65.014-.309C68.294 110.45 60 100.784 60 89.19V59.68C60 47.44 69.25 37.326 81.153 36l65.169.293c10.915 2.174 19.179 11.81 19.179 23.388z" fill="#FFFFFF"></path><path d="M110.189 79.26h4.503c.723 0 1.112-.501 1.112-1.168v-1.835c0-3.336 8.452-5.282 8.452-12.01 0-5.45-4.949-9.342-10.787-9.342-7.117 0-10.898 4.893-10.898 4.893-.389.39-.445 1.057 0 1.446l2.613 2.558c.389.333.779.333 1.224.055 1.112-.722 2.613-2.891 6.005-2.891 2.78 0 4.448 1.724 4.448 3.725 0 3.893-7.729 5.894-7.729 11.177v2.335c0 .612.501 1.056 1.057 1.056zm-2.336 11.12c0 2.502 2.058 4.56 4.56 4.56s4.615-2.058 4.615-4.56-2.113-4.615-4.615-4.615c-2.502 0-4.56 2.113-4.56 4.615z" fill="url(&quot;#chat-bubbles_svg__c&quot;)"></path></g><defs><linearGradient id="chat-bubbles_svg__b" x1="152.864" y1="80.74" x2="216.28" y2="157.978" gradientUnits="userSpaceOnUse"><stop stop-color="#00CC92"></stop><stop offset="1" stop-color="#80E5C9"></stop></linearGradient><linearGradient id="chat-bubbles_svg__c" x1="120.427" y1="59.353" x2="96.081" y2="73.733" gradientUnits="userSpaceOnUse"><stop stop-color="#00CC92"></stop><stop offset="1" stop-color="#80E5C9"></stop></linearGradient><clipPath id="chat-bubbles_svg__a"><path fill="#fff" d="M0 0h300v200H0z"></path></clipPath><linearGradient id="chat-bubbles_svg__b" x1="152.864" y1="80.74" x2="216.28" y2="157.978" gradientUnits="userSpaceOnUse"><stop stop-color="#00CC92"></stop><stop offset="1" stop-color="#80E5C9"></stop></linearGradient><linearGradient id="chat-bubbles_svg__c" x1="120.427" y1="59.353" x2="96.081" y2="73.733" gradientUnits="userSpaceOnUse"><stop stop-color="#00CC92"></stop><stop offset="1" stop-color="#80E5C9"></stop></linearGradient></defs></svg>